<?xml version="1.0" encoding="utf-8"?>
<!-- Generator: Adobe Illustrator 27.5.0, SVG Export Plug-In . SVG Version: 6.00 Build 0)  -->
<svg version="1.1" id="Layer_1" xmlns="http://www.w3.org/2000/svg" xmlns:xlink="http://www.w3.org/1999/xlink" x="0px" y="0px"
	 viewBox="0 0 219.2 152" style="enable-background:new 0 0 219.2 152;" xml:space="preserve">
<style type="text/css">
	.st0{display:none;}
	.st1{display:inline;}
	.st2{fill:#BB945B;}
</style>
<g id="Layer_1_00000139290838505137882250000008945365908696768701_" class="st0">
	<g class="st1">
		<path class="st2" d="M68.3,70.6v-1.5c0-0.4,0.1-0.8,0.3-1l8.7-11.4c3.8-4.9,7.6-9.7,11.2-14.6c5.6-7.3,8.3-13.2,8.3-17.4
			c0-3.5-1.2-6.3-3.5-8.4s-5.5-3.2-9.3-3.2s-6.8,1.1-9.1,3.2c-2.3,2.1-3.4,5-3.3,8.5v2.9c0,0.6-0.3,0.9-0.9,0.9h-1.6
			c-0.6,0-0.9-0.3-0.9-0.9v-3.2c0.1-4.3,1.5-7.8,4.5-10.4c2.9-2.7,6.7-4,11.3-4c4.9,0,8.8,1.4,11.8,4.1s4.5,6.3,4.5,10.6
			c0,5-2.8,11.2-8.5,18.7C88,48.6,83,55,77,62.9L72.8,68c-0.2,0.3-0.1,0.4,0.2,0.4h28.6c0.6,0,0.9,0.3,0.9,0.9v1.3
			c0,0.6-0.3,0.9-0.9,0.9H69.1C68.5,71.5,68.3,71.2,68.3,70.6z"/>
		<path class="st2" d="M119.9,67.8c-3.1-3-4.7-7-4.7-11.9V26.4c0-5,1.6-9,4.7-11.9c3.1-3,7.3-4.5,12.5-4.5s9.4,1.5,12.6,4.5
			c3.2,3,4.8,7,4.8,11.9v29.5c0,4.9-1.6,8.9-4.8,11.9s-7.4,4.5-12.6,4.5C127.2,72.3,123,70.8,119.9,67.8z M142.6,65.6
			c2.5-2.4,3.8-5.6,3.8-9.6V26.2c0-3.9-1.3-7.1-3.8-9.5s-5.9-3.6-10.2-3.6c-4.1,0-7.4,1.2-10,3.6c-2.5,2.4-3.8,5.6-3.8,9.5V56
			c0,4,1.3,7.2,3.8,9.6c2.5,2.4,5.9,3.6,10,3.6C136.6,69.2,140,68,142.6,65.6z"/>
		<path class="st2" d="M17.7,107.8c-0.1-0.1-0.1-0.2-0.1-0.3V88.7c0-0.1,0-0.2,0.1-0.3c0.1-0.1,0.2-0.1,0.3-0.1h1.9
			c0.2,0,0.4,0.1,0.5,0.3l4.7,7.5c0.1,0.1,0.1,0.1,0.2,0l4.7-7.5c0.1-0.2,0.3-0.3,0.5-0.3h1.9c0.1,0,0.2,0,0.3,0.1s0.1,0.2,0.1,0.3
			v18.8c0,0.1,0,0.2-0.1,0.3c-0.1,0.1-0.2,0.1-0.3,0.1h-1.8c-0.1,0-0.2,0-0.3-0.1c-0.1-0.1-0.1-0.2-0.1-0.3V93.3
			c0-0.1,0-0.1-0.1-0.1c0,0-0.1,0-0.1,0.1l-3.9,6.1c-0.1,0.2-0.3,0.3-0.5,0.3h-0.9c-0.2,0-0.4-0.1-0.5-0.3l-3.8-6.2
			c0-0.1-0.1-0.1-0.1-0.1l-0.1,0.1v14.2c0,0.1,0,0.2-0.1,0.3c-0.1,0.1-0.2,0.1-0.3,0.1H18C17.9,107.9,17.8,107.9,17.7,107.8z"/>
		<path class="st2" d="M37.5,107.8c-0.1-0.1-0.1-0.2-0.1-0.3V88.7c0-0.1,0-0.2,0.1-0.3c0.1-0.1,0.2-0.1,0.3-0.1h1.8
			c0.1,0,0.2,0,0.3,0.1c0.1,0.1,0.1,0.2,0.1,0.3v18.8c0,0.1,0,0.2-0.1,0.3c-0.1,0.1-0.2,0.1-0.3,0.1h-1.8
			C37.7,107.9,37.6,107.9,37.5,107.8z"/>
		<path class="st2" d="M44.8,107.8c-0.1-0.1-0.1-0.2-0.1-0.3V88.7c0-0.1,0-0.2,0.1-0.3c0.1-0.1,0.2-0.1,0.3-0.1h1.8
			c0.2,0,0.4,0.1,0.5,0.3l8.6,13.9c0,0.1,0.1,0.1,0.1,0.1l0.1-0.1V88.7c0-0.1,0-0.2,0.1-0.3c0.1-0.1,0.2-0.1,0.3-0.1h1.8
			c0.1,0,0.2,0,0.3,0.1s0.1,0.2,0.1,0.3v18.8c0,0.1,0,0.2-0.1,0.3c-0.1,0.1-0.2,0.1-0.3,0.1h-1.8c-0.2,0-0.4-0.1-0.5-0.3l-8.6-13.9
			c0-0.1-0.1-0.1-0.1-0.1l-0.1,0.1v13.7c0,0.1,0,0.2-0.1,0.3c-0.1,0.1-0.2,0.1-0.3,0.1h-1.8C45,107.9,44.9,107.9,44.8,107.8z"/>
		<path class="st2" d="M66.5,107.3c-1-0.5-1.8-1.3-2.4-2.3s-0.9-2.1-0.9-3.4v-13c0-0.1,0-0.2,0.1-0.3c0.1-0.1,0.2-0.1,0.3-0.1h1.8
			c0.1,0,0.2,0,0.3,0.1s0.1,0.2,0.1,0.3v13c0,1.2,0.4,2.2,1.2,2.9c0.8,0.7,1.8,1.1,3,1.1c1.2,0,2.3-0.4,3-1.1
			c0.8-0.7,1.1-1.7,1.1-2.9v-13c0-0.1,0-0.2,0.1-0.3c0.1-0.1,0.2-0.1,0.3-0.1h1.8c0.1,0,0.2,0,0.3,0.1c0.1,0.1,0.1,0.2,0.1,0.3v13
			c0,1.3-0.3,2.4-0.9,3.4s-1.4,1.7-2.4,2.3c-1,0.5-2.2,0.8-3.6,0.8C68.7,108.1,67.5,107.9,66.5,107.3z"/>
		<path class="st2" d="M94,88.4c0.1,0.1,0.1,0.2,0.1,0.3v1.5c0,0.1,0,0.2-0.1,0.3c-0.1,0.1-0.2,0.1-0.3,0.1h-5.2
			c-0.1,0-0.1,0-0.1,0.1v16.7c0,0.1,0,0.2-0.1,0.3c-0.1,0.1-0.2,0.1-0.3,0.1h-1.8c-0.1,0-0.2,0-0.3-0.1c-0.1-0.1-0.1-0.2-0.1-0.3
			V90.8c0-0.1,0-0.1-0.1-0.1h-5c-0.1,0-0.2,0-0.3-0.1c-0.3-0.1-0.3-0.2-0.3-0.4v-1.5c0-0.1,0-0.2,0.1-0.3c0.1-0.1,0.2-0.1,0.3-0.1
			h13.1C93.8,88.3,93.9,88.3,94,88.4z"/>
		<path class="st2" d="M110.3,90.5c-0.1,0.1-0.2,0.1-0.3,0.1h-9.8c-0.1,0-0.1,0-0.1,0.1v6c0,0.1,0,0.1,0.1,0.1h6.7
			c0.1,0,0.2,0,0.3,0.1s0.1,0.2,0.1,0.3v1.5c0,0.1,0,0.2-0.1,0.3c-0.1,0.1-0.2,0.1-0.3,0.1h-6.7c-0.1,0-0.1,0-0.1,0.1v6.1
			c0,0.1,0,0.1,0.1,0.1h9.8c0.1,0,0.2,0,0.3,0.1c0.1,0.1,0.1,0.2,0.1,0.3v1.5c0,0.1,0,0.2-0.1,0.3c-0.1,0.1-0.2,0.1-0.3,0.1H97.8
			c-0.1,0-0.2,0-0.3-0.1c-0.1-0.1-0.1-0.2-0.1-0.3V88.7c0-0.1,0-0.2,0.1-0.3c0.1-0.1,0.2-0.1,0.3-0.1H110c0.1,0,0.2,0,0.3,0.1
			c0.1,0.1,0.1,0.2,0.1,0.3v1.5C110.4,90.3,110.4,90.4,110.3,90.5z"/>
		<path class="st2" d="M116.5,107.5c-1-0.4-1.9-1.1-2.4-1.9c-0.6-0.8-0.9-1.8-0.9-2.9V102c0-0.1,0-0.2,0.1-0.3
			c0.1-0.1,0.2-0.1,0.3-0.1h1.8c0.1,0,0.2,0,0.3,0.1c0.1,0.1,0.1,0.2,0.1,0.3v0.5c0,1,0.4,1.7,1.2,2.4s1.9,0.9,3.3,0.9
			c1.3,0,2.3-0.3,2.9-0.8s1-1.3,1-2.1c0-0.6-0.2-1.1-0.5-1.5s-0.8-0.8-1.5-1.1s-1.6-0.8-2.8-1.2c-1.4-0.5-2.4-1-3.2-1.4
			c-0.8-0.4-1.5-1-2-1.7s-0.8-1.6-0.8-2.6c0-1.6,0.6-2.9,1.7-3.8s2.7-1.4,4.7-1.4c1.4,0,2.6,0.2,3.6,0.7s1.9,1.1,2.4,2
			s0.9,1.8,0.9,2.9v0.4c0,0.1,0,0.2-0.1,0.3c-0.1,0.1-0.2,0.1-0.3,0.1h-1.8c-0.1,0-0.2,0-0.3-0.1c-0.1-0.1-0.1-0.2-0.1-0.3v-0.3
			c0-1-0.4-1.8-1.2-2.4c-0.8-0.6-1.8-1-3.2-1c-1.2,0-2.1,0.2-2.7,0.7s-1,1.2-1,2.1c0,0.6,0.2,1.1,0.5,1.5s0.8,0.7,1.4,1
			s1.6,0.7,2.9,1.2s2.4,1,3.2,1.4s1.5,1,2,1.7s0.8,1.6,0.8,2.7s-0.3,2-0.8,2.8s-1.3,1.4-2.4,1.9c-1,0.4-2.2,0.7-3.6,0.7
			C118.8,108.1,117.6,107.9,116.5,107.5z"/>
		<path class="st2" d="M149.1,90.5c-0.1,0.1-0.2,0.1-0.3,0.1h-9.7c-0.1,0-0.1,0-0.1,0.1v6c0,0.1,0,0.1,0.1,0.1h6.6
			c0.1,0,0.2,0,0.3,0.1s0.1,0.2,0.1,0.3v1.5c0,0.1,0,0.2-0.1,0.3c-0.1,0.1-0.2,0.1-0.3,0.1h-6.6c-0.1,0-0.1,0-0.1,0.1v8.1
			c0,0.1,0,0.2-0.1,0.3c-0.1,0.1-0.2,0.1-0.3,0.1h-1.8c-0.1,0-0.2,0-0.3-0.1s-0.1-0.2-0.1-0.3V88.7c0-0.1,0-0.2,0.1-0.3
			c0.1-0.1,0.2-0.1,0.3-0.1H149c0.1,0,0.2,0,0.3,0.1s0.1,0.2,0.1,0.3v1.5C149.2,90.3,149.2,90.4,149.1,90.5z"/>
		<path class="st2" d="M162.8,107.6l-3.9-8.3c0-0.1-0.1-0.1-0.2-0.1h-3.9c-0.1,0-0.1,0-0.1,0.1v8.1c0,0.1,0,0.2-0.1,0.3
			c-0.1,0.1-0.2,0.1-0.3,0.1h-1.8c-0.1,0-0.2,0-0.3-0.1s-0.1-0.2-0.1-0.3V88.7c0-0.1,0-0.2,0.1-0.3c0.1-0.1,0.2-0.1,0.3-0.1h7.4
			c1.1,0,2.1,0.2,3,0.7c0.8,0.5,1.5,1.1,2,2c0.5,0.8,0.7,1.8,0.7,2.9c0,1.3-0.3,2.4-1,3.3s-1.6,1.5-2.8,1.8c-0.1,0-0.1,0.1-0.1,0.2
			l4,8.3l0.1,0.2c0,0.2-0.1,0.3-0.4,0.3h-1.9C163.1,107.9,162.9,107.8,162.8,107.6z M154.7,90.7V97c0,0.1,0,0.1,0.1,0.1h4.6
			c1,0,1.8-0.3,2.4-0.9s0.9-1.4,0.9-2.3c0-1-0.3-1.8-0.9-2.4c-0.6-0.6-1.4-0.9-2.4-0.9h-4.6C154.8,90.6,154.7,90.6,154.7,90.7z"/>
		<path class="st2" d="M172,107.3c-1-0.6-1.9-1.3-2.4-2.4c-0.6-1-0.9-2.2-0.9-3.5v-6.7c0-1.3,0.3-2.5,0.9-3.5c0.6-1,1.4-1.8,2.4-2.4
			s2.2-0.8,3.6-0.8c1.4,0,2.6,0.3,3.6,0.8c1,0.6,1.9,1.3,2.4,2.4c0.6,1,0.9,2.2,0.9,3.5v6.7c0,1.3-0.3,2.5-0.9,3.5
			c-0.6,1-1.4,1.8-2.4,2.4s-2.3,0.8-3.6,0.8C174.2,108.2,173,107.9,172,107.3z M178.7,104.7c0.8-0.8,1.2-1.8,1.2-3.1v-6.8
			c0-1.3-0.4-2.4-1.2-3.2c-0.8-0.8-1.8-1.2-3.1-1.2s-2.3,0.4-3.1,1.2c-0.8,0.8-1.2,1.8-1.2,3.2v6.8c0,1.3,0.4,2.3,1.2,3.1
			c0.8,0.8,1.8,1.2,3.1,1.2S177.9,105.4,178.7,104.7z"/>
		<path class="st2" d="M186.7,107.8c-0.1-0.1-0.1-0.2-0.1-0.3V88.7c0-0.1,0-0.2,0.1-0.3c0.1-0.1,0.2-0.1,0.3-0.1h1.9
			c0.2,0,0.4,0.1,0.5,0.3l4.7,7.5c0.1,0.1,0.1,0.1,0.2,0l4.7-7.5c0.1-0.2,0.3-0.3,0.5-0.3h1.9c0.1,0,0.2,0,0.3,0.1s0.1,0.2,0.1,0.3
			v18.8c0,0.1,0,0.2-0.1,0.3c-0.1,0.1-0.2,0.1-0.3,0.1h-1.8c-0.1,0-0.2,0-0.3-0.1s-0.1-0.2-0.1-0.3V93.3c0-0.1,0-0.1-0.1-0.1
			c0,0-0.1,0-0.1,0.1l-3.8,6.2c-0.1,0.2-0.3,0.3-0.5,0.3h-0.9c-0.2,0-0.4-0.1-0.5-0.3l-3.8-6.2c0-0.1-0.1-0.1-0.1-0.1l-0.1,0.1v14.2
			c0,0.1,0,0.2-0.1,0.3c-0.1,0.1-0.2,0.1-0.3,0.1h-1.8C186.9,107.9,186.8,107.9,186.7,107.8z"/>
		<path class="st2" d="M75,131.3c0,0,0,0.1,0.1,0.1c1.8,0.9,2.6,2.4,2.6,4.5c0,1.8-0.6,3.2-1.8,4.1c-1.2,0.9-2.8,1.4-4.8,1.4H64
			c-0.3,0-0.5-0.2-0.5-0.5v-18.6c0-0.3,0.2-0.5,0.5-0.5h6.9c4.4,0,6.6,1.8,6.6,5.4C77.5,129.2,76.7,130.5,75,131.3
			C75.1,131.3,75,131.3,75,131.3z M67.4,125.5v4.3c0,0.1,0.1,0.2,0.2,0.2h3.2c0.9,0,1.6-0.2,2-0.6c0.5-0.4,0.7-1,0.7-1.7
			s-0.2-1.3-0.7-1.7s-1.2-0.6-2-0.6h-3.2C67.5,125.3,67.4,125.3,67.4,125.5z M73.1,137.4c0.5-0.4,0.7-1,0.7-1.8s-0.2-1.4-0.7-1.8
			s-1.2-0.7-2-0.7h-3.4c-0.1,0-0.2,0.1-0.2,0.2v4.6c0,0.1,0.1,0.2,0.2,0.2h3.4C71.9,138.1,72.6,137.9,73.1,137.4z"/>
		<path class="st2" d="M83.9,140.9c-1.1-0.6-2-1.4-2.6-2.5s-0.9-2.3-0.9-3.7v-6c0-1.4,0.3-2.6,0.9-3.7s1.5-1.9,2.6-2.5
			s2.4-0.9,3.8-0.9c1.5,0,2.8,0.3,3.9,0.9s2,1.4,2.6,2.5s0.9,2.3,0.9,3.7v6c0,1.4-0.3,2.6-0.9,3.7c-0.6,1.1-1.5,1.9-2.6,2.5
			s-2.4,0.9-3.9,0.9C86.3,141.8,85,141.5,83.9,140.9z M90.3,137.4c0.6-0.7,1-1.5,1-2.6v-6.2c0-1.1-0.3-2-0.9-2.6
			c-0.6-0.7-1.5-1-2.5-1s-1.9,0.3-2.5,1s-0.9,1.5-0.9,2.6v6.2c0,1.1,0.3,2,0.9,2.6c0.6,0.7,1.5,1,2.5,1S89.6,138.1,90.3,137.4z"/>
		<path class="st2" d="M101,141c-1.1-0.5-2-1.2-2.5-2c-0.6-0.9-0.9-1.9-0.9-3.1v-0.5c0-0.3,0.2-0.5,0.5-0.5h2.9
			c0.3,0,0.5,0.1,0.5,0.4v0.4c0,0.7,0.3,1.4,1,1.9s1.6,0.8,2.7,0.8c1,0,1.7-0.2,2.2-0.6c0.5-0.4,0.7-0.9,0.7-1.6
			c0-0.4-0.2-0.8-0.4-1.1c-0.3-0.3-0.7-0.6-1.2-0.8s-1.3-0.6-2.4-1c-1.3-0.4-2.3-0.9-3.2-1.3c-0.9-0.4-1.6-1.1-2.2-1.8
			c-0.6-0.8-0.9-1.7-0.9-2.9c0-1.1,0.3-2.1,0.9-2.9s1.4-1.5,2.4-1.9s2.2-0.7,3.5-0.7c1.4,0,2.7,0.3,3.8,0.8s2,1.2,2.6,2.1
			s0.9,2,0.9,3.2v0.3c0,0.3-0.2,0.5-0.5,0.5h-2.9c-0.3,0-0.5-0.1-0.5-0.3v-0.3c0-0.8-0.3-1.5-1-2s-1.5-0.8-2.6-0.8
			c-0.9,0-1.6,0.2-2.1,0.6s-0.7,0.9-0.7,1.5c0,0.5,0.1,0.9,0.4,1.2s0.7,0.6,1.3,0.9c0.6,0.3,1.5,0.6,2.6,1c1.3,0.5,2.3,0.9,3.1,1.3
			s1.5,0.9,2.1,1.7c0.6,0.7,0.9,1.7,0.9,2.9c0,1.1-0.3,2.1-0.9,3s-1.4,1.5-2.5,2s-2.3,0.7-3.8,0.7S102.1,141.5,101,141z"/>
		<path class="st2" d="M114.8,141v-18.6c0-0.3,0.2-0.5,0.5-0.5h2.9c0.2,0,0.4,0.1,0.6,0.3l7,11.6c0,0.1,0.1,0.1,0.1,0.1l0.1-0.1
			v-11.4c0-0.3,0.2-0.5,0.5-0.5h2.9c0.3,0,0.5,0.2,0.5,0.5V141c0,0.3-0.2,0.5-0.5,0.5h-2.9c-0.2,0-0.4-0.1-0.6-0.3l-7-11.8
			c0-0.1-0.1-0.1-0.1-0.1l-0.1,0.1V141c0,0.3-0.2,0.5-0.5,0.5h-3C114.9,141.5,114.8,141.3,114.8,141z"/>
		<path class="st2" d="M133.2,141v-18.6c0-0.3,0.2-0.5,0.5-0.5h3c0.3,0,0.5,0.2,0.5,0.5V141c0,0.3-0.2,0.5-0.5,0.5h-3
			C133.4,141.5,133.2,141.3,133.2,141z"/>
		<path class="st2" d="M152.6,141.1l-0.8-2.6c0-0.1-0.1-0.1-0.2-0.1h-6.9c-0.1,0-0.1,0-0.2,0.1l-0.8,2.6c-0.1,0.3-0.3,0.4-0.5,0.4
			h-3.1c-0.2,0-0.3-0.1-0.4-0.2c-0.1-0.1-0.1-0.2,0-0.4l6-18.7c0.1-0.3,0.3-0.4,0.5-0.4h4.1c0.3,0,0.4,0.1,0.5,0.4l6,18.7
			c0,0,0,0.1,0,0.2c0,0.1,0,0.2-0.1,0.3s-0.2,0.1-0.3,0.1h-3.2C152.9,141.5,152.7,141.4,152.6,141.1z M145.8,135.3h5
			c0.1,0,0.2-0.1,0.1-0.2l-2.5-8.5c0-0.1-0.1-0.1-0.1-0.1s-0.1,0-0.1,0.1l-2.5,8.5C145.6,135.2,145.7,135.3,145.8,135.3z"/>
	</g>
</g>
<g id="Layer_2_00000178202316443337656830000014593538981539322799_" class="st0">
	<g class="st1">
		<path class="st2" d="M-786.4-1.5h1.9c0.6,0,0.9,0.3,0.9,0.9v59c0,0.6-0.3,0.9-0.9,0.9h-1.6c-0.6,0-0.9-0.3-0.9-0.9V2.8
			c0-0.1,0-0.2-0.1-0.3s-0.2-0.1-0.3,0l-10,4.9l-0.4,0.2c-0.2,0-0.3-0.1-0.4-0.2c-0.1-0.1-0.2-0.3-0.2-0.6v-1c0-0.4,0.2-0.8,0.6-1
			l10.3-6.1C-787.3-1.4-786.9-1.5-786.4-1.5z"/>
		<path class="st2" d="M-735.4,40.8c0,2.8-0.2,5.1-0.5,6.9c-0.8,3.8-2.6,6.7-5.4,8.9c-2.8,2.2-6.2,3.3-10.2,3.3
			c-3.9,0-7.2-1-9.9-3.1s-4.5-4.9-5.4-8.3c-0.3-1-0.5-2.1-0.6-3.2v-0.2c0-0.5,0.3-0.7,0.8-0.7h1.7c0.6,0,0.9,0.3,0.9,0.9
			c0.1,0.8,0.2,1.4,0.3,1.8c0.6,3,2,5.3,4.1,7.1c2.2,1.8,4.8,2.6,8,2.6c3.3,0,6-0.9,8.2-2.8c2.2-1.9,3.6-4.4,4.2-7.7
			c0.2-1.2,0.3-3,0.3-5.5c0-1.9-0.1-4-0.3-6.2c-0.4-3.2-1.7-5.6-3.9-7.2s-5-2.5-8.5-2.5c-3,0-5.6,0.7-7.8,2s-3.7,3.1-4.5,5.4
			c-0.1,0.5-0.4,0.7-1,0.7h-1.7c-0.6,0-0.9-0.3-0.9-0.9V-0.7c0-0.6,0.3-0.9,0.9-0.9h27.7c0.6,0,0.9,0.3,0.9,0.9v1.3
			c0,0.6-0.3,0.9-0.9,0.9h-24.8c-0.2,0-0.3,0.1-0.3,0.3l-0.1,24.8c0,0.1,0,0.2,0.1,0.3c0.1,0.1,0.2,0,0.3-0.1
			c1.3-1.6,3.1-2.8,5.3-3.7c2.2-0.9,4.6-1.3,7.1-1.3c4,0,7.5,1,10.2,2.9s4.5,4.8,5.2,8.5C-735.6,35.6-735.4,38.1-735.4,40.8z"/>
	</g>
	<g class="st1">
		<path class="st2" d="M-859.2,95.5c-0.1-0.1-0.1-0.2-0.1-0.3V76.5c0-0.1,0-0.2,0.1-0.3c0.1-0.1,0.2-0.1,0.3-0.1h1.9
			c0.2,0,0.4,0.1,0.5,0.3l4.7,7.5c0.1,0.1,0.1,0.1,0.2,0l4.7-7.5c0.1-0.2,0.3-0.3,0.5-0.3h1.9c0.1,0,0.2,0,0.3,0.1s0.1,0.2,0.1,0.3
			v18.8c0,0.1,0,0.2-0.1,0.3c-0.1,0.1-0.2,0.1-0.3,0.1h-1.8c-0.1,0-0.2,0-0.3-0.1s-0.1-0.2-0.1-0.3V81c0-0.1,0-0.1-0.1-0.1
			c0,0-0.1,0-0.1,0.1l-3.8,6.2c-0.1,0.2-0.3,0.3-0.5,0.3h-0.9c-0.2,0-0.4-0.1-0.5-0.3l-3.8-6.2c0-0.1-0.1-0.1-0.1-0.1l-0.1,0.1v14.2
			c0,0.1,0,0.2-0.1,0.3c-0.1,0.1-0.2,0.1-0.3,0.1h-1.8C-859.1,95.6-859.2,95.6-859.2,95.5z"/>
		<path class="st2" d="M-839.4,95.5c-0.1-0.1-0.1-0.2-0.1-0.3V76.5c0-0.1,0-0.2,0.1-0.3c0.1-0.1,0.2-0.1,0.3-0.1h1.8
			c0.1,0,0.2,0,0.3,0.1s0.1,0.2,0.1,0.3v18.8c0,0.1,0,0.2-0.1,0.3c-0.1,0.1-0.2,0.1-0.3,0.1h-1.8C-839.3,95.6-839.4,95.6-839.4,95.5
			z"/>
		<path class="st2" d="M-832.2,95.5c-0.1-0.1-0.1-0.2-0.1-0.3V76.5c0-0.1,0-0.2,0.1-0.3c0.1-0.1,0.2-0.1,0.3-0.1h1.8
			c0.2,0,0.4,0.1,0.5,0.3l8.6,13.9c0,0.1,0.1,0.1,0.1,0.1l0.1-0.1V76.5c0-0.1,0-0.2,0.1-0.3c0.1-0.1,0.2-0.1,0.3-0.1h1.8
			c0.1,0,0.2,0,0.3,0.1s0.1,0.2,0.1,0.3v18.8c0,0.1,0,0.2-0.1,0.3c-0.1,0.1-0.2,0.1-0.3,0.1h-1.8c-0.2,0-0.4-0.1-0.5-0.3l-8.6-13.9
			c0-0.1-0.1-0.1-0.1-0.1l-0.1,0.1v13.7c0,0.1,0,0.2-0.1,0.3c-0.1,0.1-0.2,0.1-0.3,0.1h-1.8C-832,95.6-832.1,95.6-832.2,95.5z"/>
		<path class="st2" d="M-810.5,95.1c-1-0.5-1.8-1.3-2.4-2.3c-0.6-1-0.9-2.1-0.9-3.4v-13c0-0.1,0-0.2,0.1-0.3
			c0.1-0.1,0.2-0.1,0.3-0.1h1.8c0.1,0,0.2,0,0.3,0.1s0.1,0.2,0.1,0.3v13c0,1.2,0.4,2.2,1.2,2.9c0.8,0.7,1.8,1.1,3,1.1s2.3-0.4,3-1.1
			c0.8-0.7,1.1-1.7,1.1-2.9v-13c0-0.1,0-0.2,0.1-0.3c0.1-0.1,0.2-0.1,0.3-0.1h1.8c0.1,0,0.2,0,0.3,0.1s0.1,0.2,0.1,0.3v13
			c0,1.3-0.3,2.4-0.9,3.4c-0.6,1-1.4,1.7-2.4,2.3s-2.2,0.8-3.6,0.8C-808.2,95.9-809.4,95.6-810.5,95.1z"/>
		<path class="st2" d="M-783,76.1c0.1,0.1,0.1,0.2,0.1,0.3V78c0,0.1,0,0.2-0.1,0.3c-0.1,0.1-0.2,0.1-0.3,0.1h-5.2
			c-0.1,0-0.1,0-0.1,0.1v16.7c0,0.1,0,0.2-0.1,0.3c-0.1,0.1-0.2,0.1-0.3,0.1h-1.8c-0.1,0-0.2,0-0.3-0.1s-0.1-0.2-0.1-0.3V78.5
			c0-0.1,0-0.1-0.1-0.1h-5c-0.1,0-0.2,0-0.3-0.1s-0.1-0.2-0.1-0.3v-1.5c0-0.1,0-0.2,0.1-0.3c0.1-0.1,0.2-0.1,0.3-0.1h13.1
			C-783.2,76-783.1,76.1-783,76.1z"/>
		<path class="st2" d="M-766.6,78.2c-0.1,0.1-0.2,0.1-0.3,0.1h-9.8c-0.1,0-0.1,0-0.1,0.1v6c0,0.1,0,0.1,0.1,0.1h6.7
			c0.1,0,0.2,0,0.3,0.1s0.1,0.2,0.1,0.3v1.5c0,0.1,0,0.2-0.1,0.3c-0.1,0.1-0.2,0.1-0.3,0.1h-6.7c-0.1,0-0.1,0-0.1,0.1V93
			c0,0.1,0,0.1,0.1,0.1h9.8c0.1,0,0.2,0,0.3,0.1s0.1,0.2,0.1,0.3V95c0,0.1,0,0.2-0.1,0.3c-0.1,0.1-0.2,0.1-0.3,0.1h-12.2
			c-0.1,0-0.2,0-0.3-0.1s-0.1-0.2-0.1-0.3V76.5c0-0.1,0-0.2,0.1-0.3c0.1-0.1,0.2-0.1,0.3-0.1h12.2c0.1,0,0.2,0,0.3,0.1
			s0.1,0.2,0.1,0.3V78C-766.5,78.1-766.6,78.2-766.6,78.2z"/>
		<path class="st2" d="M-760.4,95.2c-1-0.4-1.9-1.1-2.4-1.9s-0.9-1.8-0.9-2.9v-0.7c0-0.1,0-0.2,0.1-0.3s0.2-0.1,0.3-0.1h1.8
			c0.1,0,0.2,0,0.3,0.1s0.1,0.2,0.1,0.3v0.5c0,1,0.4,1.7,1.2,2.4c0.8,0.6,1.9,0.9,3.3,0.9c1.3,0,2.3-0.3,2.9-0.8
			c0.7-0.5,1-1.2,1-2.1c0-0.6-0.2-1.1-0.5-1.5s-0.8-0.8-1.5-1.1c-0.6-0.3-1.6-0.8-2.8-1.2c-1.4-0.5-2.4-1-3.2-1.4s-1.5-1-2-1.7
			s-0.8-1.6-0.8-2.6c0-1.6,0.6-2.9,1.7-3.8c1.1-0.9,2.7-1.4,4.7-1.4c1.4,0,2.6,0.2,3.6,0.7s1.9,1.1,2.4,2s0.9,1.8,0.9,2.9v0.4
			c0,0.1,0,0.2-0.1,0.3c-0.1,0.1-0.2,0.1-0.3,0.1h-1.8c-0.1,0-0.2,0-0.3-0.1s-0.1-0.2-0.1-0.3v-0.3c0-1-0.4-1.8-1.2-2.4
			s-1.8-1-3.2-1c-1.2,0-2.1,0.2-2.7,0.7c-0.6,0.5-1,1.2-1,2.1c0,0.6,0.2,1.1,0.5,1.5s0.8,0.7,1.4,1s1.6,0.7,2.9,1.2
			c1.3,0.5,2.4,1,3.2,1.4s1.5,1,2,1.7s0.8,1.6,0.8,2.7s-0.3,2-0.8,2.8s-1.3,1.4-2.4,1.9c-1,0.4-2.2,0.7-3.6,0.7
			C-758.2,95.9-759.4,95.6-760.4,95.2z"/>
		<path class="st2" d="M-727.9,78.2c-0.1,0.1-0.2,0.1-0.3,0.1h-9.7c-0.1,0-0.1,0-0.1,0.1v6c0,0.1,0,0.1,0.1,0.1h6.6
			c0.1,0,0.2,0,0.3,0.1s0.1,0.2,0.1,0.3v1.5c0,0.1,0,0.2-0.1,0.3c-0.1,0.1-0.2,0.1-0.3,0.1h-6.6c-0.1,0-0.1,0-0.1,0.1V95
			c0,0.1,0,0.2-0.1,0.3c-0.1,0.1-0.2,0.1-0.3,0.1h-1.8c-0.1,0-0.2,0-0.3-0.1s-0.1-0.2-0.1-0.3V76.5c0-0.1,0-0.2,0.1-0.3
			c0.1-0.1,0.2-0.1,0.3-0.1h12.2c0.1,0,0.2,0,0.3,0.1s0.1,0.2,0.1,0.3V78C-727.8,78.1-727.8,78.2-727.9,78.2z"/>
		<path class="st2" d="M-714.1,95.3L-718,87c0-0.1-0.1-0.1-0.2-0.1h-3.9c-0.1,0-0.1,0-0.1,0.1v8.1c0,0.1,0,0.2-0.1,0.3
			c-0.1,0.1-0.2,0.1-0.3,0.1h-1.8c-0.1,0-0.2,0-0.3-0.1s-0.1-0.2-0.1-0.3V76.4c0-0.1,0-0.2,0.1-0.3c0.1-0.1,0.2-0.1,0.3-0.1h7.4
			c1.1,0,2.1,0.2,3,0.7s1.5,1.1,2,2c0.5,0.8,0.7,1.8,0.7,2.9c0,1.3-0.3,2.4-1,3.3s-1.6,1.5-2.8,1.8c-0.1,0-0.1,0.1-0.1,0.2l4,8.3
			l0.1,0.2c0,0.2-0.1,0.3-0.4,0.3h-1.9C-713.9,95.6-714,95.5-714.1,95.3z M-722.2,78.5v6.2c0,0.1,0,0.1,0.1,0.1h4.6
			c1,0,1.8-0.3,2.4-0.9c0.6-0.6,0.9-1.4,0.9-2.3c0-1-0.3-1.8-0.9-2.4c-0.6-0.6-1.4-0.9-2.4-0.9h-4.6
			C-722.2,78.3-722.2,78.4-722.2,78.5z"/>
		<path class="st2" d="M-705,95c-1-0.6-1.9-1.3-2.4-2.4c-0.6-1-0.9-2.2-0.9-3.5v-6.7c0-1.3,0.3-2.5,0.9-3.5c0.6-1,1.4-1.8,2.4-2.4
			s2.2-0.8,3.6-0.8c1.4,0,2.6,0.3,3.6,0.8c1,0.6,1.9,1.3,2.4,2.4c0.6,1,0.9,2.2,0.9,3.5v6.7c0,1.3-0.3,2.5-0.9,3.5
			c-0.6,1-1.4,1.8-2.4,2.4s-2.3,0.8-3.6,0.8C-702.7,95.9-703.9,95.6-705,95z M-698.3,92.4c0.8-0.8,1.2-1.8,1.2-3.1v-6.8
			c0-1.3-0.4-2.4-1.2-3.1c-0.8-0.8-1.8-1.2-3.1-1.2s-2.3,0.4-3.1,1.2c-0.8,0.8-1.2,1.8-1.2,3.1v6.8c0,1.3,0.4,2.3,1.2,3.1
			c0.8,0.8,1.8,1.2,3.1,1.2S-699.1,93.2-698.3,92.4z"/>
		<path class="st2" d="M-690.2,95.5c-0.1-0.1-0.1-0.2-0.1-0.3V76.5c0-0.1,0-0.2,0.1-0.3c0.1-0.1,0.2-0.1,0.3-0.1h1.9
			c0.2,0,0.4,0.1,0.5,0.3l4.7,7.5c0.1,0.1,0.1,0.1,0.2,0l4.7-7.5c0.1-0.2,0.3-0.3,0.5-0.3h1.9c0.1,0,0.2,0,0.3,0.1s0.1,0.2,0.1,0.3
			v18.8c0,0.1,0,0.2-0.1,0.3c-0.1,0.1-0.2,0.1-0.3,0.1h-1.8c-0.1,0-0.2,0-0.3-0.1s-0.1-0.2-0.1-0.3V81c0-0.1,0-0.1-0.1-0.1
			c0,0-0.1,0-0.1,0.1l-3.8,6.2c-0.1,0.2-0.3,0.3-0.5,0.3h-0.9c-0.2,0-0.4-0.1-0.5-0.3l-3.8-6.2c0-0.1-0.1-0.1-0.1-0.1l-0.1,0.1v14.2
			c0,0.1,0,0.2-0.1,0.3c-0.1,0.1-0.2,0.1-0.3,0.1h-1.8C-690,95.6-690.1,95.6-690.2,95.5z"/>
	</g>
	<g class="st1">
		<path class="st2" d="M-809,128.8l-0.8-2.6c0-0.1-0.1-0.1-0.2-0.1h-6.9c-0.1,0-0.1,0-0.2,0.1l-0.8,2.6c-0.1,0.3-0.3,0.4-0.5,0.4
			h-3.2c-0.2,0-0.3-0.1-0.4-0.2c-0.1-0.1-0.1-0.2,0-0.4l6-18.7c0.1-0.3,0.3-0.4,0.5-0.4h4.1c0.3,0,0.4,0.1,0.5,0.4l6,18.7
			c0,0,0,0.1,0,0.2c0,0.1,0,0.2-0.1,0.3s-0.2,0.1-0.3,0.1h-3.2C-808.7,129.2-808.9,129.1-809,128.8z M-815.8,123h5
			c0.1,0,0.2-0.1,0.1-0.2l-2.5-8.5c0-0.1-0.1-0.1-0.1-0.1s-0.1,0-0.1,0.1l-2.5,8.5C-816,123-816,123-815.8,123z"/>
		<path class="st2" d="M-802.3,128.8v-18.6c0-0.3,0.2-0.5,0.5-0.5h3c0.3,0,0.5,0.2,0.5,0.5v18.6c0,0.3-0.2,0.5-0.5,0.5h-3
			C-802.1,129.2-802.3,129.1-802.3,128.8z"/>
		<path class="st2" d="M-784.6,128.9l-3.4-7.6c0-0.1-0.1-0.1-0.2-0.1h-2.5c-0.1,0-0.2,0.1-0.2,0.2v7.5c0,0.3-0.2,0.5-0.5,0.5h-3
			c-0.3,0-0.5-0.2-0.5-0.5v-18.7c0-0.3,0.2-0.5,0.5-0.5h7.9c1.2,0,2.2,0.2,3.2,0.7c0.9,0.5,1.6,1.2,2.1,2.1s0.7,1.9,0.7,3.1
			c0,1.3-0.3,2.4-1,3.3c-0.6,0.9-1.5,1.6-2.6,1.9c-0.1,0-0.1,0.1-0.1,0.1v0.1l3.7,7.7c0.1,0.1,0.1,0.2,0.1,0.3s0,0.2-0.1,0.2
			c-0.1,0.1-0.2,0.1-0.3,0.1h-3.2C-784.3,129.2-784.5,129.1-784.6,128.9z M-790.9,113.2v4.7c0,0.1,0.1,0.2,0.2,0.2h3.6
			c0.8,0,1.4-0.2,1.9-0.7s0.7-1.1,0.7-1.8c0-0.7-0.2-1.4-0.7-1.8c-0.5-0.5-1.1-0.7-1.9-0.7h-3.6C-790.9,113-790.9,113.1-790.9,113.2
			z"/>
		<path class="st2" d="M-766.4,110.4c0.9,0.5,1.7,1.2,2.2,2.1s0.8,2,0.8,3.2s-0.3,2.2-0.8,3.1s-1.3,1.6-2.2,2.1
			c-1,0.5-2.1,0.7-3.3,0.7h-3.9c-0.1,0-0.2,0.1-0.2,0.2v7c0,0.3-0.2,0.5-0.5,0.5h-3c-0.3,0-0.5-0.2-0.5-0.5v-18.7
			c0-0.3,0.2-0.5,0.5-0.5h7.8C-768.4,109.6-767.3,109.9-766.4,110.4z M-768.1,117.7c0.5-0.5,0.8-1.1,0.8-1.9s-0.3-1.5-0.8-2
			s-1.2-0.8-2.1-0.8h-3.5c-0.1,0-0.2,0.1-0.2,0.2v5.1c0,0.1,0.1,0.2,0.2,0.2h3.5C-769.3,118.5-768.7,118.2-768.1,117.7z"/>
		<path class="st2" d="M-757.9,128.6c-1.1-0.6-2-1.4-2.6-2.5s-0.9-2.3-0.9-3.7v-6c0-1.4,0.3-2.6,0.9-3.7c0.6-1.1,1.5-1.9,2.6-2.5
			s2.4-0.9,3.8-0.9c1.5,0,2.8,0.3,3.9,0.9c1.1,0.6,2,1.4,2.6,2.5s0.9,2.3,0.9,3.7v6c0,1.4-0.3,2.6-0.9,3.7c-0.6,1.1-1.5,1.9-2.6,2.5
			s-2.4,0.9-3.9,0.9C-755.5,129.5-756.8,129.2-757.9,128.6z M-751.5,125.2c0.6-0.7,1-1.5,1-2.6v-6.2c0-1.1-0.3-2-0.9-2.6
			c-0.6-0.7-1.5-1-2.5-1s-1.9,0.3-2.5,1s-0.9,1.5-0.9,2.6v6.2c0,1.1,0.3,2,0.9,2.6c0.6,0.7,1.5,1,2.5,1S-752.2,125.8-751.5,125.2z"
			/>
		<path class="st2" d="M-733.3,128.9l-3.4-7.6c0-0.1-0.1-0.1-0.2-0.1h-2.5c-0.1,0-0.2,0.1-0.2,0.2v7.5c0,0.3-0.2,0.5-0.5,0.5h-3
			c-0.3,0-0.5-0.2-0.5-0.5v-18.7c0-0.3,0.2-0.5,0.5-0.5h7.9c1.2,0,2.2,0.2,3.2,0.7c0.9,0.5,1.6,1.2,2.1,2.1s0.7,1.9,0.7,3.1
			c0,1.3-0.3,2.4-1,3.3c-0.6,0.9-1.5,1.6-2.6,1.9c-0.1,0-0.1,0.1-0.1,0.1v0.1l3.7,7.7c0.1,0.1,0.1,0.2,0.1,0.3s0,0.2-0.1,0.2
			c-0.1,0.1-0.2,0.1-0.3,0.1h-3.2C-733,129.2-733.2,129.1-733.3,128.9z M-739.7,113.2v4.7c0,0.1,0.1,0.2,0.2,0.2h3.6
			c0.8,0,1.4-0.2,1.9-0.7s0.7-1.1,0.7-1.8c0-0.7-0.2-1.4-0.7-1.8c-0.5-0.5-1.1-0.7-1.9-0.7h-3.6C-739.6,113-739.7,113.1-739.7,113.2
			z"/>
		<path class="st2" d="M-712.5,110.1v2.5c0,0.3-0.2,0.5-0.5,0.5h-4.8c-0.1,0-0.2,0.1-0.2,0.2v15.5c0,0.3-0.2,0.5-0.5,0.5h-3
			c-0.3,0-0.5-0.2-0.5-0.5v-15.5c0-0.1-0.1-0.2-0.2-0.2h-4.7c-0.3,0-0.5-0.2-0.5-0.5v-2.5c0-0.3,0.2-0.5,0.5-0.5h13.8
			C-712.7,109.6-712.5,109.8-712.5,110.1z"/>
	</g>
	<g class="st1">
		<g>
			<path class="st2" d="M108.1,10.8h1.9c0.6,0,0.9,0.3,0.9,0.9v59c0,0.6-0.3,0.9-0.9,0.9h-1.6c-0.6,0-0.9-0.3-0.9-0.9V15.1
				c0-0.1,0-0.2-0.1-0.3s-0.2-0.1-0.3,0l-10,4.9L96.7,20c-0.2,0-0.3-0.1-0.4-0.2c-0.2-0.2-0.2-0.4-0.2-0.6v-1c0-0.4,0.2-0.8,0.6-1
				L107,11C107.3,10.8,107.7,10.8,108.1,10.8z"/>
		</g>
		<g>
			<path class="st2" d="M45.6,88.4c0.1-0.1,0.2-0.1,0.3-0.1h1.8c0.1,0,0.2,0,0.3,0.1s0.1,0.2,0.1,0.3v18.8c0,0.1,0,0.2-0.1,0.3
				s-0.2,0.1-0.3,0.1h-1.8c-0.1,0-0.2,0-0.3-0.1s-0.1-0.2-0.1-0.3v-8.1c0-0.1,0-0.1-0.1-0.1h-7.9c-0.1,0-0.1,0-0.1,0.1v8.1
				c0,0.1,0,0.2-0.1,0.3c-0.1,0.1-0.2,0.1-0.3,0.1h-1.8c-0.1,0-0.2,0-0.3-0.1s-0.1-0.2-0.1-0.3V88.7c0-0.1,0-0.2,0.1-0.3
				c0.1-0.1,0.2-0.1,0.3-0.1H37c0.1,0,0.2,0,0.3,0.1c0.1,0.1,0.1,0.2,0.1,0.3v8c0,0.1,0,0.1,0.1,0.1h7.9c0.1,0,0.1,0,0.1-0.1v-8
				C45.5,88.6,45.5,88.5,45.6,88.4z"/>
			<path class="st2" d="M55.4,107.3c-1-0.6-1.9-1.3-2.4-2.4c-0.6-1-0.9-2.2-0.9-3.5v-6.7c0-1.3,0.3-2.5,0.9-3.5
				c0.6-1,1.4-1.8,2.4-2.4S57.6,88,59,88c1.4,0,2.6,0.3,3.6,0.8c1,0.6,1.9,1.3,2.4,2.4c0.6,1,0.9,2.2,0.9,3.5v6.7
				c0,1.3-0.3,2.5-0.9,3.5c-0.6,1-1.4,1.8-2.4,2.4s-2.3,0.8-3.6,0.8C57.7,108.2,56.5,107.9,55.4,107.3z M62.1,104.7
				c0.8-0.8,1.2-1.8,1.2-3.1v-6.8c0-1.3-0.4-2.4-1.2-3.1c-0.8-0.8-1.8-1.2-3.1-1.2s-2.3,0.4-3.1,1.2c-0.8,0.8-1.2,1.8-1.2,3.1v6.8
				c0,1.3,0.4,2.3,1.2,3.1c0.8,0.8,1.8,1.2,3.1,1.2S61.3,105.5,62.1,104.7z"/>
			<path class="st2" d="M73.2,107.3c-1-0.5-1.8-1.3-2.4-2.3c-0.6-1-0.9-2.1-0.9-3.4v-13c0-0.1,0-0.2,0.1-0.3
				c0.1-0.1,0.2-0.1,0.3-0.1h1.8c0.1,0,0.2,0,0.3,0.1s0.1,0.2,0.1,0.3v13c0,1.2,0.4,2.2,1.2,2.9c0.8,0.7,1.8,1.1,3,1.1
				s2.3-0.4,3-1.1c0.8-0.7,1.1-1.7,1.1-2.9v-13c0-0.1,0-0.2,0.1-0.3c0.1-0.1,0.2-0.1,0.3-0.1H83c0.1,0,0.2,0,0.3,0.1
				c0.1,0.1,0.1,0.2,0.1,0.3v13c0,1.3-0.3,2.4-0.9,3.4s-1.4,1.7-2.4,2.3c-1,0.5-2.2,0.8-3.6,0.8C75.4,108.1,74.2,107.9,73.2,107.3z"
				/>
			<path class="st2" d="M98.8,107.6l-3.9-8.3c0-0.1-0.1-0.1-0.2-0.1h-3.9c-0.1,0-0.1,0-0.1,0.1v8.1c0,0.1,0,0.2-0.1,0.3
				c-0.1,0.1-0.2,0.1-0.3,0.1h-1.8c-0.1,0-0.2,0-0.3-0.1c-0.1-0.1-0.1-0.2-0.1-0.3V88.7c0-0.1,0-0.2,0.1-0.3
				c0.1-0.1,0.2-0.1,0.3-0.1h7.4c1.1,0,2.1,0.2,3,0.7c0.8,0.5,1.5,1.1,2,2c0.5,0.8,0.7,1.8,0.7,2.9c0,1.3-0.3,2.4-1,3.3
				S99,98.7,97.8,99c-0.1,0-0.1,0.1-0.1,0.2l4,8.3l0.1,0.2c0,0.2-0.1,0.3-0.4,0.3h-1.9C99.1,107.9,98.9,107.8,98.8,107.6z
				 M90.7,90.8V97c0,0.1,0,0.1,0.1,0.1h4.6c1,0,1.8-0.3,2.4-0.9s0.9-1.4,0.9-2.3c0-1-0.3-1.8-0.9-2.4s-1.4-0.9-2.4-0.9h-4.6
				C90.7,90.6,90.7,90.7,90.7,90.8z"/>
			<path class="st2" d="M123.7,90.5c-0.1,0.1-0.2,0.1-0.3,0.1h-9.7c-0.1,0-0.1,0-0.1,0.1v6c0,0.1,0,0.1,0.1,0.1h6.6
				c0.1,0,0.2,0,0.3,0.1c0.1,0.1,0.1,0.2,0.1,0.3v1.5c0,0.1,0,0.2-0.1,0.3c-0.1,0.1-0.2,0.1-0.3,0.1h-6.6c-0.1,0-0.1,0-0.1,0.1v8.1
				c0,0.1,0,0.2-0.1,0.3c-0.1,0.1-0.2,0.1-0.3,0.1h-1.8c-0.1,0-0.2,0-0.3-0.1c-0.1-0.1-0.1-0.2-0.1-0.3V88.7c0-0.1,0-0.2,0.1-0.3
				c0.1-0.1,0.2-0.1,0.3-0.1h12.2c0.1,0,0.2,0,0.3,0.1s0.1,0.2,0.1,0.3v1.5C123.8,90.4,123.7,90.5,123.7,90.5z"/>
			<path class="st2" d="M137.4,107.6l-3.9-8.3c0-0.1-0.1-0.1-0.2-0.1h-3.9c-0.1,0-0.1,0-0.1,0.1v8.1c0,0.1,0,0.2-0.1,0.3
				c-0.1,0.1-0.2,0.1-0.3,0.1h-1.8c-0.1,0-0.2,0-0.3-0.1c-0.1-0.1-0.1-0.2-0.1-0.3V88.7c0-0.1,0-0.2,0.1-0.3
				c0.1-0.1,0.2-0.1,0.3-0.1h7.4c1.1,0,2.1,0.2,3,0.7c0.8,0.5,1.5,1.1,2,2c0.5,0.8,0.7,1.8,0.7,2.9c0,1.3-0.3,2.4-1,3.3
				s-1.6,1.5-2.8,1.8c-0.1,0-0.1,0.1-0.1,0.2l4,8.3l0.1,0.2c0,0.2-0.1,0.3-0.4,0.3h-1.9C137.7,107.9,137.5,107.8,137.4,107.6z
				 M129.3,90.8V97c0,0.1,0,0.1,0.1,0.1h4.6c1,0,1.8-0.3,2.4-0.9c0.6-0.6,0.9-1.4,0.9-2.3c0-1-0.3-1.8-0.9-2.4
				c-0.6-0.6-1.4-0.9-2.4-0.9h-4.6C129.3,90.6,129.3,90.7,129.3,90.8z"/>
			<path class="st2" d="M146.5,107.3c-1-0.6-1.9-1.3-2.4-2.4c-0.6-1-0.9-2.2-0.9-3.5v-6.7c0-1.3,0.3-2.5,0.9-3.5
				c0.6-1,1.4-1.8,2.4-2.4s2.2-0.8,3.6-0.8c1.4,0,2.6,0.3,3.6,0.8c1,0.6,1.9,1.3,2.4,2.4c0.6,1,0.9,2.2,0.9,3.5v6.7
				c0,1.3-0.3,2.5-0.9,3.5c-0.6,1-1.4,1.8-2.4,2.4s-2.3,0.8-3.6,0.8C148.8,108.2,147.6,107.9,146.5,107.3z M153.2,104.7
				c0.8-0.8,1.2-1.8,1.2-3.1v-6.8c0-1.3-0.4-2.4-1.2-3.1c-0.8-0.8-1.8-1.2-3.1-1.2s-2.3,0.4-3.1,1.2c-0.8,0.8-1.2,1.8-1.2,3.1v6.8
				c0,1.3,0.4,2.3,1.2,3.1c0.8,0.8,1.8,1.2,3.1,1.2S152.4,105.5,153.2,104.7z"/>
			<path class="st2" d="M161.3,107.8c-0.1-0.1-0.1-0.2-0.1-0.3V88.7c0-0.1,0-0.2,0.1-0.3c0.1-0.1,0.2-0.1,0.3-0.1h1.9
				c0.2,0,0.4,0.1,0.5,0.3l4.7,7.5c0.1,0.1,0.1,0.1,0.2,0l4.7-7.5c0.1-0.2,0.3-0.3,0.5-0.3h1.9c0.1,0,0.2,0,0.3,0.1s0.1,0.2,0.1,0.3
				v18.8c0,0.1,0,0.2-0.1,0.3c-0.1,0.1-0.2,0.1-0.3,0.1h-1.9c-0.1,0-0.2,0-0.3-0.1s-0.1-0.2-0.1-0.3V93.3c0-0.1,0-0.1-0.1-0.1
				c0,0-0.1,0-0.1,0.1l-3.8,6.2c-0.1,0.2-0.3,0.3-0.5,0.3h-0.9c-0.2,0-0.4-0.1-0.5-0.3l-3.8-6.2c0-0.1-0.1-0.1-0.1-0.1l-0.1,0.1
				v14.2c0,0.1,0,0.2-0.1,0.3c-0.1,0.1-0.2,0.1-0.3,0.1h-1.8C161.5,107.9,161.4,107.9,161.3,107.8z"/>
		</g>
		<g>
			<path class="st2" d="M63.2,141.1l-0.8-2.6c0-0.1-0.1-0.1-0.2-0.1h-6.9c-0.1,0-0.1,0-0.2,0.1l-0.8,2.6c-0.1,0.3-0.3,0.4-0.5,0.4
				h-3.2c-0.2,0-0.3-0.1-0.4-0.2c-0.1-0.1-0.1-0.2,0-0.4l6-18.7c0.1-0.3,0.3-0.4,0.5-0.4h4.1c0.3,0,0.4,0.1,0.5,0.4l6,18.7
				c0,0,0,0.1,0,0.2c0,0.1,0,0.2-0.1,0.3s-0.2,0.1-0.3,0.1h-3.2C63.5,141.5,63.3,141.4,63.2,141.1z M56.4,135.3h5
				c0.1,0,0.2-0.1,0.1-0.2l-2.5-8.5c0-0.1-0.1-0.1-0.1-0.1s-0.1,0-0.1,0.1l-2.5,8.5C56.2,135.3,56.3,135.3,56.4,135.3z"/>
			<path class="st2" d="M72.9,140.9c-1.1-0.6-1.9-1.3-2.5-2.4c-0.6-1-0.9-2.2-0.9-3.5v-12.6c0-0.3,0.2-0.5,0.5-0.5h3
				c0.3,0,0.5,0.2,0.5,0.5v12.7c0,1,0.3,1.8,0.9,2.4c0.6,0.6,1.4,0.9,2.4,0.9s1.8-0.3,2.4-0.9c0.6-0.6,0.9-1.4,0.9-2.4v-12.7
				c0-0.3,0.2-0.5,0.5-0.5h3c0.3,0,0.5,0.2,0.5,0.5V135c0,1.3-0.3,2.5-0.9,3.5s-1.5,1.8-2.5,2.4c-1.1,0.6-2.4,0.8-3.8,0.8
				C75.3,141.7,74,141.5,72.9,140.9z"/>
			<path class="st2" d="M90,141c-1.1-0.5-2-1.2-2.5-2s-0.9-1.9-0.9-3.1v-0.5c0-0.3,0.2-0.5,0.5-0.5H90c0.3,0,0.5,0.1,0.5,0.4v0.4
				c0,0.7,0.3,1.4,1,1.9s1.6,0.8,2.7,0.8c1,0,1.7-0.2,2.2-0.6c0.5-0.4,0.7-0.9,0.7-1.6c0-0.4-0.2-0.8-0.4-1.1
				c-0.3-0.3-0.7-0.6-1.2-0.8s-1.3-0.6-2.4-1c-1.3-0.4-2.3-0.9-3.2-1.3c-0.9-0.4-1.6-1.1-2.2-1.8c-0.6-0.8-0.9-1.7-0.9-2.9
				c0-1.1,0.3-2.1,0.9-2.9s1.4-1.5,2.4-1.9s2.2-0.7,3.5-0.7c1.4,0,2.7,0.3,3.8,0.8s2,1.2,2.6,2.1s0.9,2,0.9,3.1v0.3
				c0,0.3-0.2,0.5-0.5,0.5h-2.9c-0.3,0-0.5-0.1-0.5-0.3V128c0-0.8-0.3-1.5-1-2c-0.6-0.6-1.5-0.8-2.6-0.8c-0.9,0-1.6,0.2-2.1,0.6
				s-0.7,0.9-0.7,1.5c0,0.5,0.1,0.9,0.4,1.2s0.7,0.6,1.3,0.9c0.6,0.3,1.5,0.6,2.6,1c1.3,0.5,2.3,0.9,3.1,1.3
				c0.8,0.4,1.5,0.9,2.1,1.7c0.6,0.7,0.9,1.7,0.9,2.9c0,1.1-0.3,2.1-0.9,3s-1.4,1.5-2.5,2s-2.3,0.7-3.8,0.7S91.1,141.5,90,141z"/>
			<path class="st2" d="M117.4,122.4v2.5c0,0.3-0.2,0.5-0.5,0.5h-4.8c-0.1,0-0.2,0.1-0.2,0.2V141c0,0.3-0.2,0.5-0.5,0.5h-3
				c-0.3,0-0.5-0.2-0.5-0.5v-15.5c0-0.1-0.1-0.2-0.2-0.2h-4.6c-0.3,0-0.5-0.2-0.5-0.5v-2.5c0-0.3,0.2-0.5,0.5-0.5h13.8
				C117.3,121.9,117.4,122.1,117.4,122.4z"/>
			<path class="st2" d="M130.3,141.2l-3.4-7.6c0-0.1-0.1-0.1-0.2-0.1h-2.6c-0.1,0-0.2,0.1-0.2,0.2v7.5c0,0.3-0.2,0.5-0.5,0.5h-3
				c-0.3,0-0.5-0.2-0.5-0.5v-18.7c0-0.3,0.2-0.5,0.5-0.5h7.9c1.2,0,2.2,0.2,3.2,0.7c0.9,0.5,1.6,1.2,2.1,2.1s0.7,1.9,0.7,3.1
				c0,1.3-0.3,2.4-1,3.3s-1.5,1.6-2.6,1.9c-0.1,0-0.1,0.1-0.1,0.1v0.1l3.7,7.7c0.1,0.1,0.1,0.2,0.1,0.3s0,0.2-0.1,0.2
				c-0.1,0.1-0.2,0.1-0.3,0.1h-3.2C130.6,141.5,130.4,141.4,130.3,141.2z M123.9,125.5v4.7c0,0.1,0.1,0.2,0.2,0.2h3.6
				c0.8,0,1.4-0.2,1.9-0.7s0.7-1.1,0.7-1.8s-0.2-1.4-0.7-1.8c-0.5-0.5-1.1-0.7-1.9-0.7h-3.6C124,125.3,123.9,125.4,123.9,125.5z"/>
			<path class="st2" d="M137.2,141v-18.6c0-0.3,0.2-0.5,0.5-0.5h3c0.3,0,0.5,0.2,0.5,0.5V141c0,0.3-0.2,0.5-0.5,0.5h-3
				C137.3,141.5,137.2,141.4,137.2,141z"/>
			<path class="st2" d="M156.6,141.1l-0.8-2.6c0-0.1-0.1-0.1-0.2-0.1h-6.9c-0.1,0-0.1,0-0.2,0.1l-0.8,2.6c-0.1,0.3-0.3,0.4-0.5,0.4
				H144c-0.2,0-0.3-0.1-0.4-0.2c-0.1-0.1-0.1-0.2,0-0.4l6-18.7c0.1-0.3,0.3-0.4,0.5-0.4h4.1c0.3,0,0.4,0.1,0.5,0.4l6,18.7
				c0,0,0,0.1,0,0.2c0,0.1,0,0.2-0.1,0.3s-0.2,0.1-0.3,0.1h-3.2C156.9,141.5,156.7,141.4,156.6,141.1z M149.7,135.3h5
				c0.1,0,0.2-0.1,0.1-0.2l-2.5-8.5c0-0.1-0.1-0.1-0.1-0.1s-0.1,0-0.1,0.1l-2.5,8.5C149.6,135.3,149.6,135.3,149.7,135.3z"/>
		</g>
	</g>
</g>
<g id="Layer_3" class="st0">
	<g class="st1">
		<g>
			<path class="st2" d="M108,10.5h1.9c0.6,0,0.9,0.3,0.9,0.9v59c0,0.6-0.3,0.9-0.9,0.9h-1.6c-0.6,0-0.9-0.3-0.9-0.9V14.9
				c0-0.1,0-0.2-0.1-0.3s-0.2-0.1-0.3,0l-10,4.9l-0.4,0.2c-0.2,0-0.3-0.1-0.4-0.2S96,19.2,96,18.9v-1c0-0.4,0.2-0.8,0.6-1l10.3-6.1
				C107.1,10.6,107.5,10.5,108,10.5z"/>
		</g>
		<g>
			<path class="st2" d="M45.4,88.2c0.1-0.1,0.2-0.1,0.3-0.1h1.8c0.1,0,0.2,0,0.3,0.1s0.1,0.2,0.1,0.3v18.8c0,0.1,0,0.2-0.1,0.3
				s-0.2,0.1-0.3,0.1h-1.8c-0.1,0-0.2,0-0.3-0.1s-0.1-0.2-0.1-0.3v-8.1c0-0.1,0-0.1-0.1-0.1h-7.9c-0.1,0-0.1,0-0.1,0.1v8.1
				c0,0.1,0,0.2-0.1,0.3c-0.1,0.1-0.2,0.1-0.3,0.1H35c-0.1,0-0.2,0-0.3-0.1s-0.1-0.2-0.1-0.3V88.5c0-0.1,0-0.2,0.1-0.3
				c0.1-0.1,0.2-0.1,0.3-0.1h1.8c0.1,0,0.2,0,0.3,0.1c0.1,0.1,0.1,0.2,0.1,0.3v8c0,0.1,0,0.1,0.1,0.1h7.9c0.1,0,0.1,0,0.1-0.1v-8
				C45.3,88.4,45.3,88.3,45.4,88.2z"/>
			<path class="st2" d="M55.2,107.1c-1-0.6-1.9-1.3-2.4-2.4c-0.6-1-0.9-2.2-0.9-3.5v-6.7c0-1.3,0.3-2.5,0.9-3.5
				c0.6-1,1.4-1.8,2.4-2.4s2.2-0.8,3.6-0.8c1.4,0,2.6,0.3,3.6,0.8c1,0.6,1.9,1.3,2.4,2.4c0.6,1,0.9,2.2,0.9,3.5v6.7
				c0,1.3-0.3,2.5-0.9,3.5s-1.4,1.8-2.4,2.4s-2.3,0.8-3.6,0.8C57.5,107.9,56.3,107.6,55.2,107.1z M61.9,104.4
				c0.8-0.8,1.2-1.8,1.2-3.1v-6.8c0-1.3-0.4-2.4-1.2-3.1c-0.8-0.8-1.8-1.2-3.1-1.2s-2.3,0.4-3.1,1.2c-0.8,0.8-1.2,1.8-1.2,3.1v6.8
				c0,1.3,0.4,2.3,1.2,3.1c0.8,0.8,1.8,1.2,3.1,1.2S61.2,105.2,61.9,104.4z"/>
			<path class="st2" d="M73,107.1c-1-0.5-1.8-1.3-2.4-2.3c-0.6-1-0.9-2.1-0.9-3.4v-13c0-0.1,0-0.2,0.1-0.3C69.9,88,70,88,70.1,88
				h1.8c0.1,0,0.2,0,0.3,0.1s0.1,0.2,0.1,0.3v13c0,1.2,0.4,2.2,1.2,2.9c0.8,0.7,1.8,1.1,3,1.1s2.3-0.4,3-1.1
				c0.8-0.7,1.1-1.7,1.1-2.9v-13c0-0.1,0-0.2,0.1-0.3C80.8,88,80.9,88,81,88h1.8c0.1,0,0.2,0,0.3,0.1c0.1,0.1,0.1,0.2,0.1,0.3v13
				c0,1.3-0.3,2.4-0.9,3.4s-1.4,1.7-2.4,2.3c-1,0.5-2.2,0.8-3.6,0.8C75.2,107.9,74,107.6,73,107.1z"/>
			<path class="st2" d="M98.6,107.4l-3.9-8.3c0-0.1-0.1-0.1-0.2-0.1h-3.9c-0.1,0-0.1,0-0.1,0.1v8.1c0,0.1,0,0.2-0.1,0.3
				c-0.1,0.1-0.2,0.1-0.3,0.1h-1.8c-0.1,0-0.2,0-0.3-0.1c-0.1-0.1-0.1-0.2-0.1-0.3V88.5c0-0.1,0-0.2,0.1-0.3
				c0.1-0.1,0.2-0.1,0.3-0.1h7.4c1.1,0,2.1,0.2,3,0.7c0.8,0.5,1.5,1.1,2,2c0.5,0.8,0.7,1.8,0.7,2.9c0,1.3-0.3,2.4-1,3.3
				s-1.6,1.5-2.8,1.8c-0.1,0-0.1,0.1-0.1,0.2l4,8.3l0.1,0.2c0,0.2-0.1,0.3-0.4,0.3h-2.1C98.9,107.7,98.7,107.6,98.6,107.4z
				 M90.5,90.5v6.2c0,0.1,0,0.1,0.1,0.1h4.6c1,0,1.8-0.3,2.4-0.9s0.9-1.4,0.9-2.3c0-1-0.3-1.8-0.9-2.4s-1.4-0.9-2.4-0.9h-4.6
				C90.6,90.4,90.5,90.4,90.5,90.5z"/>
			<path class="st2" d="M123.5,90.3c-0.1,0.1-0.2,0.1-0.3,0.1h-9.7c-0.1,0-0.1,0-0.1,0.1v6c0,0.1,0,0.1,0.1,0.1h6.6
				c0.1,0,0.2,0,0.3,0.1c0.1,0.1,0.1,0.2,0.1,0.3v1.5c0,0.1,0,0.2-0.1,0.3c-0.1,0.1-0.2,0.1-0.3,0.1h-6.6c-0.1,0-0.1,0-0.1,0.1v8.1
				c0,0.1,0,0.2-0.1,0.3c-0.1,0.1-0.2,0.1-0.3,0.1h-1.8c-0.1,0-0.2,0-0.3-0.1c-0.1-0.1-0.1-0.2-0.1-0.3V88.5c0-0.1,0-0.2,0.1-0.3
				c0.1-0.1,0.2-0.1,0.3-0.1h12.2c0.1,0,0.2,0,0.3,0.1s0.1,0.2,0.1,0.3V90C123.6,90.1,123.6,90.2,123.5,90.3z"/>
			<path class="st2" d="M137.2,107.4l-3.9-8.3c0-0.1-0.1-0.1-0.2-0.1h-3.9c-0.1,0-0.1,0-0.1,0.1v8.1c0,0.1,0,0.2-0.1,0.3
				c-0.1,0.1-0.2,0.1-0.3,0.1h-1.8c-0.1,0-0.2,0-0.3-0.1c-0.1-0.1-0.1-0.2-0.1-0.3V88.5c0-0.1,0-0.2,0.1-0.3
				c0.1-0.1,0.2-0.1,0.3-0.1h7.4c1.1,0,2.1,0.2,3,0.7c0.8,0.5,1.5,1.1,2,2c0.5,0.8,0.7,1.8,0.7,2.9c0,1.3-0.3,2.4-1,3.3
				s-1.6,1.5-2.8,1.8c-0.1,0-0.1,0.1-0.1,0.2l4,8.3l0.1,0.2c0,0.2-0.1,0.3-0.4,0.3h-1.9C137.5,107.7,137.3,107.6,137.2,107.4z
				 M129.1,90.5v6.2c0,0.1,0,0.1,0.1,0.1h4.6c1,0,1.8-0.3,2.4-0.9c0.6-0.6,0.9-1.4,0.9-2.3c0-1-0.3-1.8-0.9-2.4
				c-0.6-0.6-1.4-0.9-2.4-0.9h-4.6C129.2,90.4,129.1,90.4,129.1,90.5z"/>
			<path class="st2" d="M146.4,107.1c-1-0.6-1.9-1.3-2.4-2.4c-0.6-1-0.9-2.2-0.9-3.5v-6.7c0-1.3,0.3-2.5,0.9-3.5
				c0.6-1,1.4-1.8,2.4-2.4s2.2-0.8,3.6-0.8c1.4,0,2.6,0.3,3.6,0.8c1,0.6,1.9,1.3,2.4,2.4c0.6,1,0.9,2.2,0.9,3.5v6.7
				c0,1.3-0.3,2.5-0.9,3.5c-0.6,1-1.4,1.8-2.4,2.4s-2.3,0.8-3.6,0.8C148.6,107.9,147.4,107.6,146.4,107.1z M153,104.4
				c0.8-0.8,1.2-1.8,1.2-3.1v-6.8c0-1.3-0.4-2.4-1.2-3.1c-0.8-0.8-1.8-1.2-3.1-1.2s-2.3,0.4-3.1,1.2c-0.8,0.8-1.2,1.8-1.2,3.1v6.8
				c0,1.3,0.4,2.3,1.2,3.1c0.8,0.8,1.8,1.2,3.1,1.2S152.3,105.2,153,104.4z"/>
			<path class="st2" d="M161.1,107.6c-0.1-0.1-0.1-0.2-0.1-0.3V88.5c0-0.1,0-0.2,0.1-0.3c0.1-0.1,0.2-0.1,0.3-0.1h1.9
				c0.2,0,0.4,0.1,0.5,0.3l4.7,7.5c0.1,0.1,0.1,0.1,0.2,0l4.7-7.5c0.1-0.2,0.3-0.3,0.5-0.3h1.9c0.1,0,0.2,0,0.3,0.1s0.1,0.2,0.1,0.3
				v18.8c0,0.1,0,0.2-0.1,0.3c-0.1,0.1-0.2,0.1-0.3,0.1H174c-0.1,0-0.2,0-0.3-0.1s-0.1-0.2-0.1-0.3V93c0-0.1,0-0.1-0.1-0.1
				c0,0-0.1,0-0.1,0.1l-3.8,6.2c-0.1,0.2-0.3,0.3-0.5,0.3h-0.9c-0.2,0-0.4-0.1-0.5-0.3l-3.8-6.2c0-0.1-0.1-0.1-0.1-0.1l-0.1,0.1
				v14.2c0,0.1,0,0.2-0.1,0.3c-0.1,0.1-0.2,0.1-0.3,0.1h-1.8C161.3,107.7,161.2,107.6,161.1,107.6z"/>
		</g>
		<g>
			<path class="st2" d="M46.3,140.8c-1.1-0.5-2-1.2-2.5-2s-0.9-1.9-0.9-3.1v-0.5c0-0.3,0.2-0.5,0.5-0.5h2.9c0.3,0,0.5,0.1,0.5,0.4
				v0.4c0,0.7,0.3,1.4,1,1.9s1.6,0.8,2.7,0.8c1,0,1.7-0.2,2.2-0.6c0.5-0.4,0.7-0.9,0.7-1.6c0-0.4-0.2-0.8-0.4-1.1
				c-0.3-0.3-0.7-0.6-1.2-0.8s-1.3-0.6-2.4-1c-1.3-0.4-2.3-0.9-3.2-1.3c-0.9-0.4-1.6-1.1-2.2-1.8c-0.6-0.8-0.9-1.7-0.9-2.9
				c0-1.1,0.3-2.1,0.9-2.9c0.6-0.8,1.4-1.5,2.4-1.9s2.2-0.7,3.5-0.7c1.4,0,2.7,0.3,3.8,0.8s2,1.2,2.6,2.1s0.9,2,0.9,3.1v0.3
				c0,0.3-0.2,0.5-0.5,0.5h-2.9c-0.3,0-0.5-0.1-0.5-0.3v-0.3c0-0.8-0.3-1.5-1-2c-0.6-0.6-1.5-0.8-2.6-0.8c-0.9,0-1.6,0.2-2.1,0.6
				s-0.7,0.9-0.7,1.5c0,0.5,0.1,0.9,0.4,1.2c0.3,0.3,0.7,0.6,1.3,0.9c0.6,0.3,1.5,0.6,2.6,1c1.3,0.5,2.3,0.9,3.1,1.3
				c0.8,0.4,1.5,0.9,2.1,1.7c0.6,0.7,0.9,1.7,0.9,2.9c0,1.1-0.3,2.1-0.9,3c-0.6,0.9-1.4,1.5-2.5,2s-2.3,0.7-3.8,0.7
				S47.4,141.3,46.3,140.8z"/>
			<path class="st2" d="M60,140.8v-18.6c0-0.3,0.2-0.5,0.5-0.5h3c0.3,0,0.5,0.2,0.5,0.5v15.6c0,0.1,0.1,0.2,0.2,0.2h9
				c0.3,0,0.5,0.2,0.5,0.5v2.4c0,0.3-0.2,0.5-0.5,0.5H60.5C60.2,141.3,60,141.1,60,140.8z"/>
			<path class="st2" d="M79,140.7c-1.1-0.6-2-1.4-2.6-2.5s-0.9-2.3-0.9-3.7v-6c0-1.4,0.3-2.6,0.9-3.7s1.5-1.9,2.6-2.5
				s2.4-0.9,3.8-0.9c1.5,0,2.8,0.3,3.9,0.9s2,1.4,2.6,2.5s0.9,2.3,0.9,3.7v6c0,1.4-0.3,2.6-0.9,3.7c-0.6,1.1-1.5,1.9-2.6,2.5
				s-2.4,0.9-3.9,0.9C81.4,141.6,80.1,141.3,79,140.7z M85.3,137.2c0.6-0.7,1-1.5,1-2.6v-6.2c0-1.1-0.3-2-0.9-2.6
				c-0.6-0.7-1.5-1-2.5-1s-1.9,0.3-2.5,1s-0.9,1.5-0.9,2.6v6.2c0,1.1,0.3,2,0.9,2.6c0.6,0.7,1.5,1,2.5,1S84.7,137.9,85.3,137.2z"/>
			<path class="st2" d="M97.3,140.9l-5.7-18.7c0,0,0-0.1,0-0.2c0-0.2,0.1-0.4,0.4-0.4h3.2c0.3,0,0.4,0.1,0.5,0.4l3.7,13.5
				c0,0.1,0.1,0.1,0.1,0.1s0.1,0,0.1-0.1l3.6-13.5c0.1-0.3,0.3-0.4,0.5-0.4h3.2c0.2,0,0.3,0.1,0.4,0.2s0.1,0.2,0,0.4l-5.8,18.7
				c-0.1,0.3-0.3,0.4-0.5,0.4h-3.2C97.5,141.3,97.4,141.1,97.3,140.9z"/>
			<path class="st2" d="M122.9,125.1h-9c-0.1,0-0.2,0.1-0.2,0.2v4.3c0,0.1,0.1,0.2,0.2,0.2h5.9c0.3,0,0.5,0.2,0.5,0.5v2.4
				c0,0.3-0.2,0.5-0.5,0.5h-5.9c-0.1,0-0.2,0.1-0.2,0.2v4.5c0,0.1,0.1,0.2,0.2,0.2h9c0.3,0,0.5,0.2,0.5,0.5v2.4
				c0,0.3-0.2,0.5-0.5,0.5h-12.7c-0.3,0-0.5-0.2-0.5-0.5v-18.6c0-0.3,0.2-0.5,0.5-0.5h12.7c0.3,0,0.5,0.2,0.5,0.5v2.4
				C123.3,124.9,123.2,125.1,122.9,125.1z"/>
			<path class="st2" d="M126.1,140.8v-18.6c0-0.3,0.2-0.5,0.5-0.5h2.9c0.2,0,0.4,0.1,0.6,0.3l7,11.6c0,0.1,0.1,0.1,0.1,0.1l0.1-0.1
				v-11.4c0-0.3,0.2-0.5,0.5-0.5h2.9c0.3,0,0.5,0.2,0.5,0.5v18.6c0,0.3-0.2,0.5-0.5,0.5h-2.9c-0.2,0-0.4-0.1-0.6-0.3l-7-11.8
				c0-0.1-0.1-0.1-0.1-0.1l-0.1,0.1v11.6c0,0.3-0.2,0.5-0.5,0.5h-3C126.2,141.3,126.1,141.1,126.1,140.8z"/>
			<path class="st2" d="M144.5,140.8v-18.6c0-0.3,0.2-0.5,0.5-0.5h3c0.3,0,0.5,0.2,0.5,0.5v18.6c0,0.3-0.2,0.5-0.5,0.5h-3
				C144.7,141.3,144.5,141.1,144.5,140.8z"/>
			<path class="st2" d="M163.9,140.9l-0.8-2.6c0-0.1-0.1-0.1-0.2-0.1h-6.8c-0.1,0-0.1,0-0.2,0.1l-0.8,2.6c-0.1,0.3-0.3,0.4-0.5,0.4
				h-3.2c-0.2,0-0.3-0.1-0.4-0.2c-0.1-0.1-0.1-0.2,0-0.4l6-18.7c0.1-0.3,0.3-0.4,0.5-0.4h4.1c0.3,0,0.4,0.1,0.5,0.4l6,18.7
				c0,0,0,0.1,0,0.2c0,0.1,0,0.2-0.1,0.3s-0.2,0.1-0.3,0.1h-3.2C164.2,141.3,164,141.1,163.9,140.9z M157.1,135.1h5
				c0.1,0,0.2-0.1,0.1-0.2l-2.5-8.5c0-0.1-0.1-0.1-0.1-0.1s-0.1,0-0.1,0.1l-2.5,8.5C156.9,135,157,135.1,157.1,135.1z"/>
		</g>
	</g>
</g>
<g id="Layer_4" class="st0">
	<g class="st1">
		<g>
			<path class="st2" d="M112.4,10.4h1.9c0.6,0,0.9,0.3,0.9,0.9v59c0,0.6-0.3,0.9-0.9,0.9h-1.6c-0.6,0-0.9-0.3-0.9-0.9V14.8
				c0-0.1,0-0.2-0.1-0.3s-0.2-0.1-0.3,0l-10,4.9l-0.4,0.2c-0.2,0-0.3-0.1-0.4-0.2s-0.2-0.3-0.2-0.6v-1c0-0.4,0.2-0.8,0.6-1l10.3-6.1
				C111.6,10.5,112,10.4,112.4,10.4z"/>
		</g>
		<g>
			<path class="st2" d="M49.9,88.1C50,88,50.1,88,50.2,88H52c0.1,0,0.2,0,0.3,0.1s0.1,0.2,0.1,0.3v18.8c0,0.1,0,0.2-0.1,0.3
				s-0.2,0.1-0.3,0.1h-1.8c-0.1,0-0.2,0-0.3-0.1s-0.1-0.2-0.1-0.3V99c0-0.1,0-0.1-0.1-0.1h-7.9c-0.1,0-0.1,0-0.1,0.1v8.1
				c0,0.1,0,0.2-0.1,0.3c-0.1,0.1-0.2,0.1-0.3,0.1h-1.8c-0.1,0-0.2,0-0.3-0.1s-0.1-0.2-0.1-0.3V88.4c0-0.1,0-0.2,0.1-0.3
				c-0.1-0.1,0-0.1,0.1-0.1h1.8c0.1,0,0.2,0,0.3,0.1s0.1,0.2,0.1,0.3v8c0,0.1,0,0.1,0.1,0.1h7.9c0.1,0,0.1,0,0.1-0.1v-8
				C49.8,88.3,49.8,88.2,49.9,88.1z"/>
			<path class="st2" d="M59.7,107c-1-0.6-1.9-1.3-2.4-2.4c-0.6-1-0.9-2.2-0.9-3.5v-6.7c0-1.3,0.3-2.5,0.9-3.5c0.6-1,1.4-1.8,2.4-2.4
				s2.2-0.8,3.6-0.8c1.4,0,2.6,0.3,3.6,0.8c1,0.6,1.9,1.3,2.4,2.4c0.6,1,0.9,2.2,0.9,3.5v6.7c0,1.3-0.3,2.5-0.9,3.5
				s-1.4,1.8-2.4,2.4s-2.3,0.8-3.6,0.8C61.9,107.8,60.7,107.6,59.7,107z M66.4,104.3c0.8-0.8,1.2-1.8,1.2-3.1v-6.8
				c0-1.3-0.4-2.4-1.2-3.1c-0.8-0.8-1.8-1.2-3.1-1.2s-2.3,0.4-3.1,1.2c-0.8,0.8-1.2,1.8-1.2,3.1v6.8c0,1.3,0.4,2.3,1.2,3.1
				c0.8,0.8,1.8,1.2,3.1,1.2S65.6,105.1,66.4,104.3z"/>
			<path class="st2" d="M77.4,107c-1-0.5-1.8-1.3-2.4-2.3s-0.9-2.1-0.9-3.4v-13c0-0.1,0-0.2,0.1-0.3c0.1-0.1,0.2-0.1,0.3-0.1h1.8
				c0.1,0,0.2,0,0.3,0.1s0.1,0.2,0.1,0.3v13c0,1.2,0.4,2.2,1.2,2.9c0.8,0.7,1.8,1.1,3,1.1s2.3-0.4,3-1.1c0.8-0.7,1.1-1.7,1.1-2.9
				v-13c0-0.1,0-0.2,0.1-0.3c0.1-0.1,0.2-0.1,0.3-0.1h1.8c0.1,0,0.2,0,0.3,0.1c0.1,0.1,0.1,0.2,0.1,0.3v13c0,1.3-0.3,2.4-0.9,3.4
				s-1.4,1.7-2.4,2.3c-1,0.5-2.2,0.8-3.6,0.8C79.7,107.8,78.5,107.6,77.4,107z"/>
			<path class="st2" d="M103.1,107.3L99.2,99c0-0.1-0.1-0.1-0.2-0.1h-3.9c-0.1,0-0.1,0-0.1,0.1v8.1c0,0.1,0,0.2-0.1,0.3
				c-0.1,0.1-0.2,0.1-0.3,0.1h-1.8c-0.1,0-0.2,0-0.3-0.1c-0.1-0.1-0.1-0.2-0.1-0.3V88.4c0-0.1,0-0.2,0.1-0.3
				c0.1-0.1,0.2-0.1,0.3-0.1h7.3c1.1,0,2.1,0.2,3,0.7c0.8,0.5,1.5,1.1,2,2c0.5,0.8,0.7,1.8,0.7,2.9c0,1.3-0.3,2.4-1,3.3
				s-1.6,1.5-2.8,1.8c-0.1,0-0.1,0.1-0.1,0.2l4,8.3l0.1,0.2c0,0.2-0.1,0.3-0.4,0.3h-1.9C103.3,107.6,103.2,107.5,103.1,107.3z
				 M95,90.4v6.2c0,0.1,0,0.1,0.1,0.1h4.6c1,0,1.8-0.3,2.4-0.9s0.9-1.4,0.9-2.3c0-1-0.3-1.8-0.9-2.4s-1.4-0.9-2.4-0.9h-4.6
				C95,90.3,95,90.3,95,90.4z"/>
			<path class="st2" d="M127.9,90.2c-0.1,0.1-0.2,0.1-0.3,0.1h-9.7c-0.1,0-0.1,0-0.1,0.1v6c0,0.1,0,0.1,0.1,0.1h6.6
				c0.1,0,0.2,0,0.3,0.1c0.1,0.1,0.1,0.2,0.1,0.3v1.5c0,0.1,0,0.2-0.1,0.3c-0.1,0.1-0.2,0.1-0.3,0.1h-6.6c-0.1,0-0.1,0-0.1,0.1v8.1
				c0,0.1,0,0.2-0.1,0.3c-0.1,0.1-0.2,0.1-0.3,0.1h-1.8c-0.1,0-0.2,0-0.3-0.1c-0.1-0.1-0.1-0.2-0.1-0.3V88.4c0-0.1,0-0.2,0.1-0.3
				c0.1-0.1,0.2-0.1,0.3-0.1h12.2c0.1,0,0.2,0,0.3,0.1s0.1,0.2,0.1,0.3v1.5C128,90,128,90.1,127.9,90.2z"/>
			<path class="st2" d="M141.7,107.3l-3.9-8.3c0-0.1-0.1-0.1-0.2-0.1h-3.9c-0.1,0-0.1,0-0.1,0.1v8.1c0,0.1,0,0.2-0.1,0.3
				c-0.1,0.1-0.2,0.1-0.3,0.1h-1.8c-0.1,0-0.2,0-0.3-0.1s-0.1-0.2-0.1-0.3V88.4c0-0.1,0-0.2,0.1-0.3c0.1-0.1,0.2-0.1,0.3-0.1h7.4
				c1.1,0,2.1,0.2,3,0.7c0.8,0.5,1.5,1.1,2,2c0.5,0.8,0.7,1.8,0.7,2.9c0,1.3-0.3,2.4-1,3.3s-1.6,1.5-2.8,1.8c-0.1,0-0.1,0.1-0.1,0.2
				l4,8.3l0.1,0.2c0,0.2-0.1,0.3-0.4,0.3h-1.9C141.9,107.6,141.8,107.5,141.7,107.3z M133.6,90.4v6.2c0,0.1,0,0.1,0.1,0.1h4.6
				c1,0,1.8-0.3,2.4-0.9c0.6-0.6,0.9-1.4,0.9-2.3c0-1-0.3-1.8-0.9-2.4c-0.6-0.6-1.4-0.9-2.4-0.9h-4.6
				C133.6,90.3,133.6,90.3,133.6,90.4z"/>
			<path class="st2" d="M150.8,107c-1-0.6-1.9-1.3-2.4-2.4c-0.6-1-0.9-2.2-0.9-3.5v-6.7c0-1.3,0.3-2.5,0.9-3.5
				c0.6-1,1.4-1.8,2.4-2.4s2.2-0.8,3.6-0.8c1.4,0,2.6,0.3,3.6,0.8c1,0.6,1.9,1.3,2.4,2.4c0.6,1,0.9,2.2,0.9,3.5v6.7
				c0,1.3-0.3,2.5-0.9,3.5c-0.6,1-1.4,1.8-2.4,2.4s-2.3,0.8-3.6,0.8S151.9,107.6,150.8,107z M157.5,104.3c0.8-0.8,1.2-1.8,1.2-3.1
				v-6.8c0-1.3-0.4-2.4-1.2-3.1c-0.8-0.8-1.8-1.2-3.1-1.2s-2.3,0.4-3.1,1.2c-0.8,0.8-1.2,1.8-1.2,3.1v6.8c0,1.3,0.4,2.3,1.2,3.1
				c0.8,0.8,1.8,1.2,3.1,1.2S156.7,105.1,157.5,104.3z"/>
			<path class="st2" d="M165.6,107.5c-0.1-0.1-0.1-0.2-0.1-0.3V88.4c0-0.1,0-0.2,0.1-0.3c0.1-0.1,0.2-0.1,0.3-0.1h1.9
				c0.2,0,0.4,0.1,0.5,0.3l4.7,7.5c0.1,0.1,0.1,0.1,0.2,0l4.7-7.5c0.1-0.2,0.3-0.3,0.5-0.3h1.9c0.1,0,0.2,0,0.3,0.1s0.1,0.2,0.1,0.3
				v18.8c0,0.1,0,0.2-0.1,0.3c-0.1,0.1-0.2,0.1-0.3,0.1h-1.8c-0.1,0-0.2,0-0.3-0.1s-0.1-0.2-0.1-0.3V93c0-0.1,0-0.1-0.1-0.1
				c0,0-0.1,0-0.1,0.1l-3.8,6.2c-0.1,0.2-0.3,0.3-0.5,0.3h-0.9c-0.2,0-0.4-0.1-0.5-0.3l-3.8-6.2c0-0.1-0.1-0.1-0.1-0.1l-0.1,0.1
				v14.2c0,0.1,0,0.2-0.1,0.3c-0.1,0.1-0.2,0.1-0.3,0.1H166C165.8,107.6,165.7,107.6,165.6,107.5z"/>
		</g>
		<g>
			<path class="st2" d="M75.2,140.7v-18.6c0-0.3,0.2-0.5,0.5-0.5h3c0.3,0,0.5,0.2,0.5,0.5v18.6c0,0.3-0.2,0.5-0.5,0.5h-3
				C75.3,141.2,75.2,141,75.2,140.7z"/>
			<path class="st2" d="M96.4,122.1v2.5c0,0.3-0.2,0.5-0.5,0.5h-4.8c-0.1,0-0.2,0.1-0.2,0.2v15.5c0,0.3-0.2,0.5-0.5,0.5h-3
				c-0.3,0-0.5-0.2-0.5-0.5v-15.5c0-0.1-0.1-0.2-0.2-0.2h-4.6c-0.3,0-0.5-0.2-0.5-0.5v-2.5c0-0.3,0.2-0.5,0.5-0.5h13.8
				C96.2,121.6,96.4,121.8,96.4,122.1z"/>
			<path class="st2" d="M109.2,140.8l-0.8-2.6c0-0.1-0.1-0.1-0.2-0.1h-6.9c-0.1,0-0.1,0-0.2,0.1l-0.8,2.6c-0.1,0.3-0.3,0.4-0.5,0.4
				h-3.2c-0.2,0-0.3-0.1-0.4-0.2c-0.1-0.1-0.1-0.2,0-0.4l6-18.7c0.1-0.3,0.3-0.4,0.5-0.4h4.1c0.3,0,0.4,0.1,0.5,0.4l6,18.7
				c0,0,0,0.1,0,0.2c0,0.1,0,0.2-0.1,0.3s-0.2,0.1-0.3,0.1h-3.2C109.5,141.2,109.3,141.1,109.2,140.8z M102.4,135h5
				c0.1,0,0.2-0.1,0.1-0.2l-2.5-8.5c0-0.1-0.1-0.1-0.1-0.1s-0.1,0-0.1,0.1l-2.5,8.5C102.2,134.9,102.3,135,102.4,135z"/>
			<path class="st2" d="M115.9,140.7v-18.6c0-0.3,0.2-0.5,0.5-0.5h3c0.3,0,0.5,0.2,0.5,0.5v15.6c0,0.1,0.1,0.2,0.2,0.2h9
				c0.3,0,0.5,0.2,0.5,0.5v2.4c0,0.3-0.2,0.5-0.5,0.5h-12.6C116.1,141.2,115.9,141,115.9,140.7z"/>
			<path class="st2" d="M135.5,140.7v-6.9l-0.1-0.2l-5.7-11.4c-0.1-0.1-0.1-0.2-0.1-0.3c0-0.1,0-0.2,0.1-0.2
				c0.1-0.1,0.2-0.1,0.3-0.1h3.2c0.3,0,0.4,0.1,0.6,0.4l3.4,7.3c0,0.1,0.1,0.1,0.1,0.1s0.1,0,0.1-0.1l3.4-7.3
				c0.1-0.2,0.3-0.4,0.6-0.4h3.3c0.3,0,0.4,0.1,0.4,0.3c0,0.1,0,0.2-0.1,0.2l-5.7,11.4l-0.1,0.2v6.9c0,0.3-0.2,0.5-0.5,0.5h-3
				C135.7,141.2,135.5,141,135.5,140.7z"/>
		</g>
	</g>
</g>
<g id="Layer_6" class="st0">
	<g class="st1">
		<g>
			<path class="st2" d="M79.1,10.7H81c0.6,0,0.9,0.3,0.9,0.9v59c0,0.6-0.3,0.9-0.9,0.9h-1.6c-0.6,0-0.9-0.3-0.9-0.9V15
				c0-0.1,0-0.2-0.1-0.3s-0.2-0.1-0.3,0l-10,4.9l-0.4,0.2c-0.2,0-0.3-0.1-0.4-0.2c-0.2-0.1-0.2-0.3-0.2-0.5v-1c0-0.4,0.2-0.8,0.6-1
				L78,11C78.3,10.8,78.7,10.7,79.1,10.7z"/>
			<path class="st2" d="M100.3,10.7h1.5c0.6,0,0.9,0.3,0.9,0.9v34.7c0,0.6-0.3,0.9-0.9,0.9h-1.1c-0.6,0-0.9-0.3-0.9-0.9V14.1
				c0-0.1,0-0.2-0.1-0.3s-0.2-0.1-0.2,0l-3.3,1l-0.3,0.1c-0.5,0-0.7-0.3-0.7-0.9v-0.5c0-0.5,0.2-0.8,0.7-1l3.4-1.5
				C99.6,10.8,100,10.7,100.3,10.7z M100.7,71.1c-0.1-0.2,0-0.4,0.1-0.7l38-59.1c0.3-0.4,0.6-0.6,1-0.6h1.2c0.3,0,0.6,0.1,0.7,0.3
				c0.1,0.2,0,0.4-0.1,0.7l-38.1,59.1c-0.3,0.4-0.6,0.6-1,0.6h-1.1C101,71.4,100.8,71.3,100.7,71.1z M134.8,70.6v-1
				c0-0.4,0.1-0.8,0.3-1l2.2-2.8c4.2-5.1,7.4-9.1,9.6-12.2c3.3-4.3,4.9-7.6,4.9-10.1c0-2-0.7-3.5-2-4.7s-3.1-1.8-5.3-1.8
				c-2.1,0-3.9,0.6-5.2,1.8s-1.9,2.8-1.9,4.8V45c0,0.6-0.3,0.9-0.9,0.9h-1.1c-0.6,0-0.9-0.3-0.9-0.9v-1.7c0.1-2.6,1-4.7,2.8-6.3
				s4.2-2.4,7.1-2.4c3,0,5.4,0.9,7.3,2.6c1.9,1.7,2.8,3.9,2.8,6.5c0,3-1.6,6.6-4.9,10.9c-2.8,3.7-6.5,8.4-11,14.1
				c-0.2,0.3-0.1,0.4,0.2,0.4h16.1c0.6,0,0.9,0.3,0.9,0.9v0.7c0,0.6-0.3,0.9-0.9,0.9h-19.4C135.1,71.4,134.8,71.2,134.8,70.6z"/>
		</g>
		<g>
			<path class="st2" d="M42.1,88.4c0.1-0.1,0.2-0.1,0.3-0.1h1.8c0.1,0,0.2,0,0.3,0.1s0.1,0.2,0.1,0.3v18.8c0,0.1,0,0.2-0.1,0.3
				s-0.2,0.1-0.3,0.1h-1.8c-0.1,0-0.2,0-0.3-0.1c-0.1-0.1-0.1-0.2-0.1-0.3v-8.1c0-0.1,0-0.1-0.1-0.1H34c-0.1,0-0.1,0-0.1,0.1v8.1
				c0,0.1,0,0.2-0.1,0.3c-0.1,0.1-0.2,0.1-0.3,0.1h-1.8c-0.1,0-0.2,0-0.3-0.1c-0.1-0.1-0.1-0.2-0.1-0.3V88.7c0-0.1,0-0.2,0.1-0.3
				c0.1-0.1,0.2-0.1,0.3-0.1h1.8c0.1,0,0.2,0,0.3,0.1c0.1,0.1,0.1,0.2,0.1,0.3v8c0,0.1,0,0.1,0.1,0.1h7.9c0.1,0,0.1,0,0.1-0.1v-8
				C42,88.5,42,88.4,42.1,88.4z"/>
			<path class="st2" d="M51.9,107.3c-1-0.6-1.9-1.3-2.4-2.4c-0.6-1-0.9-2.2-0.9-3.5v-6.7c0-1.3,0.3-2.5,0.9-3.5
				c0.6-1,1.4-1.8,2.4-2.4s2.2-0.8,3.6-0.8c1.4,0,2.6,0.3,3.6,0.8c1,0.6,1.9,1.3,2.4,2.4c0.6,1,0.9,2.2,0.9,3.5v6.7
				c0,1.3-0.3,2.5-0.9,3.5c-0.6,1-1.4,1.8-2.4,2.4s-2.3,0.8-3.6,0.8C54.2,108.1,53,107.8,51.9,107.3z M58.6,104.6
				c0.8-0.8,1.2-1.8,1.2-3.1v-6.8c0-1.3-0.4-2.4-1.2-3.1c-0.8-0.8-1.8-1.2-3.1-1.2s-2.3,0.4-3.1,1.2c-0.8,0.8-1.2,1.8-1.2,3.1v6.8
				c0,1.3,0.4,2.3,1.2,3.1c0.8,0.8,1.8,1.2,3.1,1.2S57.9,105.4,58.6,104.6z"/>
			<path class="st2" d="M69.7,107.3c-1-0.5-1.8-1.3-2.4-2.3c-0.6-1-0.9-2.1-0.9-3.4v-13c0-0.1,0-0.2,0.1-0.3
				c0.1-0.1,0.2-0.1,0.3-0.1h1.8c0.1,0,0.2,0,0.3,0.1s0.1,0.2,0.1,0.3v13c0,1.2,0.4,2.2,1.2,2.9c0.8,0.7,1.8,1.1,3,1.1
				c1.3,0,2.3-0.4,3-1.1c0.8-0.7,1.1-1.7,1.1-2.9v-13c0-0.1,0-0.2,0.1-0.3c0.1-0.1,0.2-0.1,0.3-0.1h1.8c0.1,0,0.2,0,0.3,0.1
				c0.1,0.1,0.1,0.2,0.1,0.3v13c0,1.3-0.3,2.4-0.9,3.4s-1.4,1.7-2.4,2.3c-1,0.5-2.2,0.8-3.6,0.8C71.9,108.1,70.7,107.8,69.7,107.3z"
				/>
			<path class="st2" d="M95.3,107.5l-3.9-8.3c0-0.1-0.1-0.1-0.2-0.1h-3.9c-0.1,0-0.1,0-0.1,0.1v8.1c0,0.1,0,0.2-0.1,0.3
				c-0.1,0.1-0.2,0.1-0.3,0.1H85c-0.1,0-0.2,0-0.3-0.1c-0.1-0.1-0.1-0.2-0.1-0.3V88.6c0-0.1,0-0.2,0.1-0.3c0.1-0.1,0.2-0.1,0.3-0.1
				h7.4c1.1,0,2.1,0.2,3,0.7c0.8,0.5,1.5,1.1,2,2c0.5,0.8,0.7,1.8,0.7,2.9c0,1.3-0.3,2.4-1,3.3s-1.6,1.5-2.8,1.8
				C94.1,99,94,99,94.1,99.1l4,8.3l0.1,0.2c0,0.2-0.1,0.3-0.4,0.3h-1.9C95.6,107.8,95.4,107.7,95.3,107.5z M87.2,90.7v6.2
				c0,0.1,0,0.1,0.1,0.1h4.6c1,0,1.8-0.3,2.4-0.9s0.9-1.4,0.9-2.3c0-1-0.3-1.8-0.9-2.4s-1.4-0.9-2.4-0.9h-4.6
				C87.3,90.5,87.2,90.6,87.2,90.7z"/>
			<path class="st2" d="M104.1,107.4c-1-0.4-1.9-1.1-2.4-1.9c-0.6-0.8-0.9-1.8-0.9-2.9v-0.7c0-0.1,0-0.2,0.1-0.3s0.2-0.1,0.3-0.1
				h1.8c0.1,0,0.2,0,0.3,0.1c0.1,0.1,0.1,0.2,0.1,0.3v0.5c0,1,0.4,1.7,1.2,2.4c0.8,0.6,1.9,0.9,3.3,0.9c1.3,0,2.3-0.3,2.9-0.8
				c0.7-0.5,1-1.3,1-2.1c0-0.6-0.2-1.1-0.5-1.5s-0.8-0.8-1.5-1.1c-0.6-0.3-1.6-0.8-2.8-1.2c-1.4-0.5-2.4-1-3.2-1.4
				c-0.8-0.4-1.5-1-2-1.7s-0.8-1.6-0.8-2.6c0-1.6,0.6-2.9,1.7-3.8s2.7-1.4,4.7-1.4c1.4,0,2.6,0.2,3.6,0.7s1.9,1.1,2.4,2
				s0.9,1.8,0.9,2.9V94c0,0.1,0,0.2-0.1,0.3c-0.1,0.1-0.2,0.1-0.3,0.1h-1.8c-0.1,0-0.2,0-0.3-0.1c-0.1-0.1-0.1-0.2-0.1-0.3v-0.3
				c0-1-0.4-1.8-1.2-2.4s-1.8-1-3.2-1c-1.2,0-2.1,0.2-2.7,0.7s-1,1.2-1,2.1c0,0.6,0.2,1.1,0.5,1.5s0.8,0.7,1.4,1s1.6,0.7,2.9,1.2
				s2.4,1,3.2,1.4c0.8,0.4,1.5,1,2,1.7s0.8,1.6,0.8,2.7s-0.3,2-0.8,2.8s-1.3,1.4-2.4,1.9c-1,0.4-2.2,0.7-3.6,0.7
				C106.3,108.1,105.1,107.8,104.1,107.4z"/>
			<path class="st2" d="M136.6,90.5c-0.1,0.1-0.2,0.1-0.3,0.1h-9.7c-0.1,0-0.1,0-0.1,0.1v6c0,0.1,0,0.1,0.1,0.1h6.6
				c0.1,0,0.2,0,0.3,0.1s0.1,0.2,0.1,0.3v1.5c0,0.1,0,0.2-0.1,0.3c-0.1,0.1-0.2,0.1-0.3,0.1h-6.6c-0.1,0-0.1,0-0.1,0.1v8.1
				c0,0.1,0,0.2-0.1,0.3c-0.1,0.1-0.2,0.1-0.3,0.1h-1.8c-0.1,0-0.2,0-0.3-0.1c-0.1-0.1-0.1-0.2-0.1-0.3V88.7c0-0.1,0-0.2,0.1-0.3
				c0.1-0.1,0.2-0.1,0.3-0.1h12.2c0.1,0,0.2,0,0.3,0.1s0.1,0.2,0.1,0.3v1.5C136.8,90.3,136.7,90.4,136.6,90.5z"/>
			<path class="st2" d="M150.4,107.5l-3.9-8.3c0-0.1-0.1-0.1-0.2-0.1h-3.9c-0.1,0-0.1,0-0.1,0.1v8.1c0,0.1,0,0.2-0.1,0.3
				c-0.1,0.1-0.2,0.1-0.3,0.1h-1.8c-0.1,0-0.2,0-0.3-0.1s-0.1-0.2-0.1-0.3V88.6c0-0.1,0-0.2,0.1-0.3c0.1-0.1,0.2-0.1,0.3-0.1h7.4
				c1.1,0,2.1,0.2,3,0.7c0.8,0.5,1.5,1.1,2,2c0.5,0.8,0.7,1.8,0.7,2.9c0,1.3-0.3,2.4-1,3.3s-1.6,1.5-2.8,1.8c-0.1,0-0.1,0.1-0.1,0.2
				l4,8.3l0.1,0.2c0,0.2-0.1,0.3-0.4,0.3h-1.9C150.6,107.8,150.5,107.7,150.4,107.5z M142.3,90.7v6.2c0,0.1,0,0.1,0.1,0.1h4.6
				c1,0,1.8-0.3,2.4-0.9c0.6-0.6,0.9-1.4,0.9-2.3c0-1-0.3-1.8-0.9-2.4c-0.6-0.6-1.4-0.9-2.4-0.9h-4.6
				C142.3,90.5,142.3,90.6,142.3,90.7z"/>
			<path class="st2" d="M159.5,107.3c-1-0.6-1.9-1.3-2.4-2.4c-0.6-1-0.9-2.2-0.9-3.5v-6.7c0-1.3,0.3-2.5,0.9-3.5
				c0.6-1,1.4-1.8,2.4-2.4s2.2-0.8,3.6-0.8c1.4,0,2.6,0.3,3.6,0.8c1,0.6,1.9,1.3,2.4,2.4c0.6,1,0.9,2.2,0.9,3.5v6.7
				c0,1.3-0.3,2.5-0.9,3.5c-0.6,1-1.4,1.8-2.4,2.4s-2.3,0.8-3.6,0.8C161.8,108.1,160.6,107.8,159.5,107.3z M166.2,104.6
				c0.8-0.8,1.2-1.8,1.2-3.1v-6.8c0-1.3-0.4-2.4-1.2-3.1c-0.8-0.8-1.8-1.2-3.1-1.2s-2.3,0.4-3.1,1.2c-0.8,0.8-1.2,1.8-1.2,3.1v6.8
				c0,1.3,0.4,2.3,1.2,3.1c0.8,0.8,1.8,1.2,3.1,1.2S165.4,105.4,166.2,104.6z"/>
			<path class="st2" d="M174.3,107.7c-0.1-0.1-0.1-0.2-0.1-0.3V88.7c0-0.1,0-0.2,0.1-0.3c0.1-0.1,0.2-0.1,0.3-0.1h1.9
				c0.2,0,0.4,0.1,0.5,0.3l4.7,7.5c0.1,0.1,0.1,0.1,0.2,0l4.7-7.5c0.1-0.2,0.3-0.3,0.5-0.3h1.9c0.1,0,0.2,0,0.3,0.1s0.1,0.2,0.1,0.3
				v18.8c0,0.1,0,0.2-0.1,0.3c-0.1,0.1-0.2,0.1-0.3,0.1h-1.9c-0.1,0-0.2,0-0.3-0.1s-0.1-0.2-0.1-0.3V93.2c0-0.1,0-0.1-0.1-0.1
				c0,0-0.1,0-0.1,0.1l-3.8,6.2c-0.1,0.2-0.3,0.3-0.5,0.3h-0.9c-0.2,0-0.4-0.1-0.5-0.3l-3.8-6.2c0-0.1-0.1-0.1-0.1-0.1l-0.1,0.1
				v14.2c0,0.1,0,0.2-0.1,0.3c-0.1,0.1-0.2,0.1-0.3,0.1h-1.8C174.5,107.8,174.4,107.8,174.3,107.7z"/>
		</g>
		<g>
			<path class="st2" d="M52.6,140.8c-1.1-0.6-2-1.4-2.6-2.4s-0.9-2.2-0.9-3.6v-6.3c0-1.4,0.3-2.6,0.9-3.6s1.5-1.9,2.6-2.4
				c1.1-0.6,2.4-0.9,3.8-0.9c1.4,0,2.7,0.3,3.8,0.8c1.1,0.6,1.9,1.3,2.5,2.3s0.9,2,0.9,3.2v0.1c0,0.3-0.2,0.5-0.5,0.5h-3
				c-0.1,0-0.3,0-0.3-0.1c-0.1,0-0.1-0.1-0.1-0.2V128c0-0.9-0.3-1.6-0.9-2.2c-0.6-0.6-1.4-0.9-2.4-0.9s-1.8,0.3-2.4,0.9
				c-0.6,0.6-0.9,1.4-0.9,2.5v6.5c0,1,0.3,1.8,1,2.4c0.7,0.6,1.5,0.9,2.5,0.9s1.7-0.3,2.3-0.8s0.9-1.2,0.9-2.1V134
				c0-0.1-0.1-0.2-0.2-0.2h-3c-0.3,0-0.5-0.2-0.5-0.5V131c0-0.3,0.2-0.5,0.5-0.5h6.5c0.3,0,0.5,0.2,0.5,0.5v3.6
				c0,1.4-0.3,2.7-0.9,3.7c-0.6,1-1.4,1.8-2.5,2.4c-1.1,0.6-2.4,0.8-3.8,0.8S53.7,141.4,52.6,140.8z"/>
			<path class="st2" d="M79.6,125.2h-9c-0.1,0-0.2,0.1-0.2,0.2v4.3c0,0.1,0.1,0.2,0.2,0.2h5.9c0.3,0,0.5,0.2,0.5,0.5v2.4
				c0,0.3-0.2,0.5-0.5,0.5h-5.9c-0.1,0-0.2,0.1-0.2,0.2v4.5c0,0.1,0.1,0.2,0.2,0.2h9c0.3,0,0.5,0.2,0.5,0.5v2.4
				c0,0.3-0.2,0.5-0.5,0.5H67c-0.3,0-0.5-0.2-0.5-0.5v-18.6c0-0.3,0.2-0.5,0.5-0.5h12.7c0.3,0,0.5,0.2,0.5,0.5v2.4
				C80.1,125.1,79.9,125.2,79.6,125.2z"/>
			<path class="st2" d="M93.1,141.1l-3.4-7.6c0-0.1-0.1-0.1-0.2-0.1H87c-0.1,0-0.2,0.1-0.2,0.2v7.5c0,0.3-0.2,0.5-0.5,0.5h-3
				c-0.3,0-0.5-0.2-0.5-0.5v-18.7c0-0.3,0.2-0.5,0.5-0.5h7.9c1.2,0,2.2,0.2,3.2,0.7c0.9,0.5,1.6,1.2,2.1,2.1s0.7,1.9,0.7,3.1
				c0,1.3-0.3,2.4-1,3.3s-1.5,1.6-2.6,1.9c-0.1,0-0.1,0.1-0.1,0.1v0.1l3.7,7.7c0.1,0.1,0.1,0.2,0.1,0.3s0,0.2-0.1,0.2
				c-0.1,0.1-0.2,0.1-0.3,0.1h-3.2C93.4,141.4,93.3,141.3,93.1,141.1z M86.8,125.4v4.7c0,0.1,0.1,0.2,0.2,0.2h3.6
				c0.8,0,1.4-0.2,1.9-0.7s0.7-1.1,0.7-1.8s-0.2-1.4-0.7-1.8c-0.5-0.5-1.1-0.7-1.9-0.7H87C86.8,125.2,86.8,125.3,86.8,125.4z"/>
			<path class="st2" d="M100,141v-18.6c0-0.3,0.2-0.5,0.5-0.5h3c0.2,0,0.4,0.1,0.6,0.3l4.1,6.6c0,0.1,0.1,0.1,0.1,0.1s0.1,0,0.1-0.1
				l4.1-6.6c0.1-0.2,0.3-0.3,0.6-0.3h3c0.3,0,0.5,0.2,0.5,0.5V141c0,0.3-0.2,0.5-0.5,0.5h-3c-0.3,0-0.5-0.2-0.5-0.5v-12.1
				c0-0.1,0-0.1-0.1-0.1c0,0-0.1,0-0.1,0.1l-2.8,4.6c-0.1,0.2-0.3,0.3-0.6,0.3h-1.4c-0.2,0-0.4-0.1-0.6-0.3l-2.8-4.6
				c0-0.1-0.1-0.1-0.1-0.1l-0.1,0.1V141c0,0.3-0.2,0.5-0.5,0.5h-3C100.2,141.4,100,141.3,100,141z"/>
			<path class="st2" d="M132,141.1l-0.8-2.6c0-0.1-0.1-0.1-0.2-0.1h-6.9c-0.1,0-0.1,0-0.2,0.1l-0.8,2.6c-0.1,0.3-0.3,0.4-0.5,0.4
				h-3.2c-0.2,0-0.3-0.1-0.4-0.2c-0.1-0.1-0.1-0.2,0-0.4l6-18.7c0.1-0.3,0.3-0.4,0.5-0.4h4.1c0.3,0,0.4,0.1,0.5,0.4l6,18.7
				c0,0,0,0.1,0,0.2c0,0.1,0,0.2-0.1,0.3c-0.1,0.1-0.2,0.1-0.3,0.1h-3.2C132.3,141.4,132.1,141.3,132,141.1z M125.1,135.3h5
				c0.1,0,0.2-0.1,0.1-0.2l-2.5-8.5c0-0.1-0.1-0.1-0.1-0.1s-0.1,0-0.1,0.1l-2.5,8.5C125,135.2,125,135.3,125.1,135.3z"/>
			<path class="st2" d="M138.7,141v-18.6c0-0.3,0.2-0.5,0.5-0.5h2.9c0.2,0,0.4,0.1,0.6,0.3l7,11.6c0,0.1,0.1,0.1,0.1,0.1l0.1-0.1
				v-11.4c0-0.3,0.2-0.5,0.5-0.5h2.9c0.3,0,0.5,0.2,0.5,0.5V141c0,0.3-0.2,0.5-0.5,0.5h-2.9c-0.2,0-0.4-0.1-0.6-0.3l-7-11.8
				c0-0.1-0.1-0.1-0.1-0.1l-0.1,0.1V141c0,0.3-0.2,0.5-0.5,0.5h-3C138.9,141.4,138.7,141.3,138.7,141z"/>
			<path class="st2" d="M162.1,140.9V134l-0.1-0.2l-5.7-11.4c-0.1-0.1-0.1-0.2-0.1-0.3c0-0.1,0-0.2,0.1-0.2c0.1-0.1,0.2-0.1,0.3-0.1
				h3.2c0.3,0,0.4,0.1,0.6,0.4l3.4,7.3c0,0.1,0.1,0.1,0.1,0.1s0.1,0,0.1-0.1l3.4-7.3c0.1-0.2,0.3-0.4,0.6-0.4h3.3
				c0.3,0,0.4,0.1,0.4,0.3c0,0.1,0,0.2-0.1,0.2l-5.7,11.4l-0.1,0.2v6.9c0,0.3-0.2,0.5-0.5,0.5h-3
				C162.3,141.4,162.1,141.3,162.1,140.9z"/>
		</g>
	</g>
</g>
<g>
	<path class="st2" d="M59.2,70.9v-1.5c0-0.4,0.1-0.7,0.3-1l8.6-11.3c3.8-4.8,7.5-9.6,11.1-14.4c5.5-7.3,8.2-13,8.2-17.3
		c0-3.4-1.2-6.2-3.5-8.3C81.7,15,78.6,14,74.8,14c-3.7,0-6.7,1.1-9,3.2c-2.3,2.1-3.4,4.9-3.3,8.4v2.8c0,0.6-0.3,0.9-0.9,0.9H60
		c-0.6,0-0.9-0.3-0.9-0.9v-3.2c0.1-4.2,1.5-7.7,4.4-10.3s6.6-4,11.2-4c4.8,0,8.7,1.3,11.6,4c2.9,2.7,4.4,6.2,4.4,10.5
		c0,4.9-2.8,11.1-8.4,18.5c-3.8,5-8.7,11.4-14.7,19.2l-4,5.2c-0.2,0.3-0.1,0.4,0.2,0.4h28.3c0.6,0,0.9,0.3,0.9,0.9v1.3
		c0,0.6-0.3,0.9-0.9,0.9H60.1C59.5,71.8,59.2,71.5,59.2,70.9z"/>
	<path class="st2" d="M107.3,11.6h1.5c0.6,0,0.9,0.3,0.9,0.9v34.4c0,0.6-0.3,0.9-0.9,0.9h-1.1c-0.6,0-0.9-0.3-0.9-0.9V15
		c0-0.1,0-0.2-0.1-0.3c-0.1-0.1-0.2-0.1-0.2,0l-3.3,0.9l-0.3,0.1c-0.5,0-0.7-0.3-0.7-0.9v-0.5c0-0.5,0.2-0.8,0.7-0.9l3.4-1.5
		C106.6,11.7,107,11.6,107.3,11.6z M107.7,71.5c-0.1-0.2,0-0.4,0.1-0.7l37.6-58.5c0.3-0.4,0.6-0.6,1-0.6h1.2c0.3,0,0.6,0.1,0.6,0.3
		c0.1,0.2,0,0.4-0.1,0.7l-37.7,58.5c-0.3,0.4-0.6,0.6-1,0.6h-1.1C108,71.8,107.8,71.7,107.7,71.5z M141.4,70.9V70
		c0-0.4,0.1-0.7,0.3-1l2.1-2.7c4.1-5,7.3-9,9.5-12c3.3-4.2,4.9-7.6,4.9-10c0-1.9-0.7-3.5-2-4.7s-3.1-1.8-5.2-1.8
		c-2.1,0-3.8,0.6-5.1,1.8c-1.3,1.2-1.9,2.8-1.8,4.7v1.4c0,0.6-0.3,0.9-0.9,0.9h-1.1c-0.6,0-0.9-0.3-0.9-0.9v-1.7
		c0.1-2.6,1-4.7,2.8-6.3c1.8-1.6,4.1-2.4,7-2.4c3,0,5.4,0.8,7.2,2.5c1.8,1.7,2.7,3.8,2.7,6.4c0,2.9-1.6,6.5-4.9,10.8
		c-2.7,3.7-6.4,8.3-10.9,13.9c-0.2,0.3-0.1,0.4,0.2,0.4h16c0.6,0,0.9,0.3,0.9,0.9v0.7c0,0.6-0.3,0.9-0.9,0.9h-19.2
		C141.7,71.8,141.4,71.5,141.4,70.9z"/>
</g>
<g>
	<path class="st2" d="M42.6,88.5c0.1-0.1,0.2-0.1,0.3-0.1h1.8c0.1,0,0.2,0,0.3,0.1c0.1,0.1,0.1,0.2,0.1,0.3v18.6
		c0,0.1,0,0.2-0.1,0.3c-0.1,0.1-0.2,0.1-0.3,0.1h-1.8c-0.1,0-0.2,0-0.3-0.1c-0.1-0.1-0.1-0.2-0.1-0.3v-8.1c0-0.1,0-0.1-0.1-0.1h-7.8
		c-0.1,0-0.1,0-0.1,0.1v8.1c0,0.1,0,0.2-0.1,0.3c-0.1,0.1-0.2,0.1-0.3,0.1h-1.8c-0.1,0-0.2,0-0.3-0.1c-0.1-0.1-0.1-0.2-0.1-0.3V88.8
		c0-0.1,0-0.2,0.1-0.3c0.1-0.1,0.2-0.1,0.3-0.1H34c0.1,0,0.2,0,0.3,0.1c0.1,0.1,0.1,0.2,0.1,0.3v7.9c0,0.1,0,0.1,0.1,0.1h7.8
		c0.1,0,0.1,0,0.1-0.1v-7.9C42.5,88.7,42.6,88.6,42.6,88.5z"/>
	<path class="st2" d="M52.4,107.2c-1-0.6-1.8-1.3-2.4-2.3c-0.6-1-0.9-2.2-0.9-3.5v-6.6c0-1.3,0.3-2.5,0.9-3.5c0.6-1,1.4-1.8,2.4-2.3
		c1-0.6,2.2-0.8,3.6-0.8c1.4,0,2.6,0.3,3.6,0.8c1,0.6,1.8,1.3,2.4,2.3c0.6,1,0.9,2.2,0.9,3.5v6.6c0,1.3-0.3,2.5-0.9,3.5
		c-0.6,1-1.4,1.8-2.4,2.3c-1,0.6-2.2,0.8-3.6,0.8C54.6,108,53.4,107.8,52.4,107.2z M59,104.6c0.8-0.8,1.2-1.8,1.2-3.1v-6.7
		c0-1.3-0.4-2.3-1.2-3.1c-0.8-0.8-1.8-1.2-3.1-1.2c-1.3,0-2.3,0.4-3,1.2c-0.8,0.8-1.2,1.8-1.2,3.1v6.7c0,1.3,0.4,2.3,1.2,3.1
		c0.8,0.8,1.8,1.2,3,1.2C57.2,105.7,58.2,105.4,59,104.6z"/>
	<path class="st2" d="M69.9,107.2c-1-0.5-1.8-1.3-2.4-2.2c-0.6-1-0.9-2.1-0.9-3.3V88.8c0-0.1,0-0.2,0.1-0.3c0.1-0.1,0.2-0.1,0.3-0.1
		h1.8c0.1,0,0.2,0,0.3,0.1c0.1,0.1,0.1,0.2,0.1,0.3v12.9c0,1.2,0.4,2.2,1.1,2.9c0.8,0.7,1.8,1.1,3,1.1c1.2,0,2.2-0.4,3-1.1
		c0.8-0.7,1.1-1.7,1.1-2.9V88.8c0-0.1,0-0.2,0.1-0.3c0.1-0.1,0.2-0.1,0.3-0.1h1.8c0.1,0,0.2,0,0.3,0.1c0.1,0.1,0.1,0.2,0.1,0.3v12.8
		c0,1.3-0.3,2.4-0.8,3.3c-0.6,1-1.4,1.7-2.4,2.2c-1,0.5-2.2,0.8-3.6,0.8C72.1,108,70.9,107.7,69.9,107.2z"/>
	<path class="st2" d="M95.3,107.5l-3.8-8.2c0-0.1-0.1-0.1-0.2-0.1h-3.9c-0.1,0-0.1,0-0.1,0.1v8.1c0,0.1,0,0.2-0.1,0.3
		c-0.1,0.1-0.2,0.1-0.3,0.1H85c-0.1,0-0.2,0-0.3-0.1c-0.1-0.1-0.1-0.2-0.1-0.3V88.8c0-0.1,0-0.2,0.1-0.3c0.1-0.1,0.2-0.1,0.3-0.1
		h7.3c1.1,0,2.1,0.2,2.9,0.7c0.8,0.5,1.5,1.1,2,1.9c0.5,0.8,0.7,1.8,0.7,2.9c0,1.3-0.3,2.4-1,3.3c-0.7,0.9-1.6,1.5-2.8,1.8
		C94,99,94,99,94,99.1l3.9,8.2l0.1,0.2c0,0.2-0.1,0.3-0.4,0.3h-1.9C95.6,107.8,95.4,107.7,95.3,107.5z M87.3,90.8V97
		c0,0.1,0,0.1,0.1,0.1H92c1,0,1.7-0.3,2.3-0.9c0.6-0.6,0.9-1.4,0.9-2.3c0-1-0.3-1.8-0.9-2.4C93.8,91,93,90.7,92,90.7h-4.6
		C87.3,90.7,87.3,90.7,87.3,90.8z"/>
	<path class="st2" d="M104,107.3c-1-0.4-1.8-1.1-2.4-1.9c-0.6-0.8-0.8-1.8-0.8-2.9v-0.7c0-0.1,0-0.2,0.1-0.3
		c0.1-0.1,0.2-0.1,0.3-0.1h1.8c0.1,0,0.2,0,0.3,0.1c0.1,0.1,0.1,0.2,0.1,0.3v0.5c0,0.9,0.4,1.7,1.2,2.3c0.8,0.6,1.9,0.9,3.2,0.9
		c1.3,0,2.2-0.3,2.9-0.8c0.6-0.5,1-1.2,1-2.1c0-0.6-0.2-1.1-0.5-1.5s-0.8-0.8-1.5-1.1s-1.6-0.8-2.8-1.2c-1.3-0.5-2.4-1-3.2-1.4
		c-0.8-0.4-1.4-1-2-1.7c-0.5-0.7-0.8-1.6-0.8-2.6c0-1.6,0.6-2.8,1.7-3.7c1.1-0.9,2.7-1.4,4.6-1.4c1.4,0,2.6,0.2,3.6,0.7
		c1,0.5,1.8,1.1,2.4,1.9c0.6,0.8,0.8,1.8,0.8,2.9v0.4c0,0.1,0,0.2-0.1,0.3c-0.1,0.1-0.2,0.1-0.3,0.1h-1.8c-0.1,0-0.2,0-0.3-0.1
		c-0.1-0.1-0.1-0.2-0.1-0.3v-0.3c0-1-0.4-1.8-1.2-2.4c-0.8-0.6-1.8-1-3.2-1c-1.1,0-2,0.2-2.7,0.7c-0.6,0.5-0.9,1.1-0.9,2
		c0,0.6,0.2,1.1,0.5,1.5c0.3,0.4,0.8,0.7,1.4,1c0.6,0.3,1.6,0.7,2.8,1.2c1.3,0.5,2.4,1,3.2,1.4c0.8,0.4,1.5,1,2,1.7
		c0.5,0.7,0.8,1.6,0.8,2.6s-0.3,2-0.8,2.8c-0.5,0.8-1.3,1.4-2.3,1.9c-1,0.4-2.2,0.7-3.6,0.7C106.2,108,105,107.8,104,107.3z"/>
	<path class="st2" d="M136.2,90.6c-0.1,0.1-0.2,0.1-0.3,0.1h-9.6c-0.1,0-0.1,0-0.1,0.1v5.9c0,0.1,0,0.1,0.1,0.1h6.6
		c0.1,0,0.2,0,0.3,0.1c0.1,0.1,0.1,0.2,0.1,0.3v1.5c0,0.1,0,0.2-0.1,0.3c-0.1,0.1-0.2,0.1-0.3,0.1h-6.6c-0.1,0-0.1,0-0.1,0.1v8.1
		c0,0.1,0,0.2-0.1,0.3c-0.1,0.1-0.2,0.1-0.3,0.1h-1.8c-0.1,0-0.2,0-0.3-0.1c-0.1-0.1-0.1-0.2-0.1-0.3V88.8c0-0.1,0-0.2,0.1-0.3
		c0.1-0.1,0.2-0.1,0.3-0.1h12c0.1,0,0.2,0,0.3,0.1c0.1,0.1,0.1,0.2,0.1,0.3v1.5C136.3,90.4,136.2,90.5,136.2,90.6z"/>
	<path class="st2" d="M149.8,107.5l-3.8-8.2c0-0.1-0.1-0.1-0.2-0.1h-3.9c-0.1,0-0.1,0-0.1,0.1v8.1c0,0.1,0,0.2-0.1,0.3
		c-0.1,0.1-0.2,0.1-0.3,0.1h-1.8c-0.1,0-0.2,0-0.3-0.1c-0.1-0.1-0.1-0.2-0.1-0.3V88.8c0-0.1,0-0.2,0.1-0.3s0.2-0.1,0.3-0.1h7.3
		c1.1,0,2.1,0.2,2.9,0.7c0.8,0.5,1.5,1.1,2,1.9c0.5,0.8,0.7,1.8,0.7,2.9c0,1.3-0.3,2.4-1,3.3c-0.7,0.9-1.6,1.5-2.8,1.8
		c-0.1,0-0.1,0.1-0.1,0.2l3.9,8.2l0.1,0.2c0,0.2-0.1,0.3-0.4,0.3h-1.9C150,107.8,149.9,107.7,149.8,107.5z M141.7,90.8V97
		c0,0.1,0,0.1,0.1,0.1h4.6c1,0,1.7-0.3,2.3-0.9c0.6-0.6,0.9-1.4,0.9-2.3c0-1-0.3-1.8-0.9-2.4c-0.6-0.6-1.4-0.9-2.4-0.9h-4.6
		C141.8,90.7,141.7,90.7,141.7,90.8z"/>
	<path class="st2" d="M158.8,107.2c-1-0.6-1.8-1.3-2.4-2.3c-0.6-1-0.9-2.2-0.9-3.5v-6.6c0-1.3,0.3-2.5,0.9-3.5
		c0.6-1,1.4-1.8,2.4-2.3c1-0.6,2.2-0.8,3.6-0.8c1.4,0,2.6,0.3,3.6,0.8c1,0.6,1.8,1.3,2.4,2.3c0.6,1,0.9,2.2,0.9,3.5v6.6
		c0,1.3-0.3,2.5-0.9,3.5c-0.6,1-1.4,1.8-2.4,2.3c-1,0.6-2.2,0.8-3.6,0.8C161,108,159.8,107.8,158.8,107.2z M165.4,104.6
		c0.8-0.8,1.2-1.8,1.2-3.1v-6.7c0-1.3-0.4-2.3-1.2-3.1c-0.8-0.8-1.8-1.2-3.1-1.2c-1.3,0-2.3,0.4-3,1.2c-0.8,0.8-1.2,1.8-1.2,3.1v6.7
		c0,1.3,0.4,2.3,1.2,3.1c0.8,0.8,1.8,1.2,3,1.2C163.6,105.7,164.7,105.4,165.4,104.6z"/>
	<path class="st2" d="M173.4,107.7c-0.1-0.1-0.1-0.2-0.1-0.3V88.8c0-0.1,0-0.2,0.1-0.3c0.1-0.1,0.2-0.1,0.3-0.1h1.9
		c0.2,0,0.4,0.1,0.5,0.3l4.7,7.4c0.1,0.1,0.1,0.1,0.2,0l4.7-7.4c0.1-0.2,0.3-0.3,0.5-0.3h1.9c0.1,0,0.2,0,0.3,0.1
		c0.1,0.1,0.1,0.2,0.1,0.3v18.6c0,0.1,0,0.2-0.1,0.3c-0.1,0.1-0.2,0.1-0.3,0.1h-1.8c-0.1,0-0.2,0-0.3-0.1c-0.1-0.1-0.1-0.2-0.1-0.3
		V93.3c0-0.1,0-0.1-0.1-0.1c0,0-0.1,0-0.1,0.1l-3.8,6.1c-0.1,0.2-0.3,0.3-0.5,0.3h-0.9c-0.2,0-0.4-0.1-0.5-0.3l-3.7-6.1
		c0-0.1-0.1-0.1-0.1-0.1c0,0-0.1,0.1-0.1,0.1v14.1c0,0.1,0,0.2-0.1,0.3c-0.1,0.1-0.2,0.1-0.3,0.1h-1.8
		C173.6,107.8,173.5,107.7,173.4,107.7z"/>
</g>
<g>
	<path class="st2" d="M9,140.4c-1.1-0.6-1.9-1.3-2.5-2.3s-0.9-2.2-0.9-3.5v-12.5c0-0.3,0.2-0.5,0.5-0.5h3c0.3,0,0.5,0.2,0.5,0.5
		v12.5c0,1,0.3,1.8,0.9,2.4c0.6,0.6,1.4,0.9,2.4,0.9s1.8-0.3,2.4-0.9c0.6-0.6,0.9-1.4,0.9-2.4v-12.5c0-0.3,0.2-0.5,0.5-0.5h3
		c0.3,0,0.5,0.2,0.5,0.5v12.5c0,1.3-0.3,2.5-0.9,3.5s-1.4,1.8-2.5,2.3c-1.1,0.6-2.3,0.8-3.8,0.8C11.3,141.3,10.1,141,9,140.4z"/>
	<path class="st2" d="M23.1,140.6v-18.5c0-0.3,0.2-0.5,0.5-0.5h2.9c0.2,0,0.4,0.1,0.6,0.3l6.9,11.5c0,0.1,0.1,0.1,0.1,0.1
		c0,0,0.1-0.1,0.1-0.1v-11.3c0-0.3,0.2-0.5,0.5-0.5h2.9c0.3,0,0.5,0.2,0.5,0.5v18.5c0,0.3-0.2,0.5-0.5,0.5h-2.8
		c-0.2,0-0.4-0.1-0.6-0.3l-7-11.6c0-0.1-0.1-0.1-0.1-0.1S27,129,27,129.1l0,11.4c0,0.3-0.2,0.5-0.5,0.5h-2.9
		C23.3,141,23.1,140.9,23.1,140.6z"/>
	<path class="st2" d="M41.4,140.6v-18.5c0-0.3,0.2-0.5,0.5-0.5h3c0.3,0,0.5,0.2,0.5,0.5v18.5c0,0.3-0.2,0.5-0.5,0.5h-3
		C41.5,141,41.4,140.9,41.4,140.6z"/>
	<path class="st2" d="M62.4,122.1v2.4c0,0.3-0.2,0.5-0.5,0.5h-4.8c-0.1,0-0.2,0.1-0.2,0.2v15.4c0,0.3-0.2,0.5-0.5,0.5h-3
		c-0.3,0-0.5-0.2-0.5-0.5v-15.4c0-0.1-0.1-0.2-0.2-0.2h-4.7c-0.3,0-0.5-0.2-0.5-0.5v-2.4c0-0.3,0.2-0.5,0.5-0.5h13.7
		C62.2,121.6,62.4,121.8,62.4,122.1z"/>
	<path class="st2" d="M77.9,125h-8.9c-0.1,0-0.2,0.1-0.2,0.2v4.2c0,0.1,0.1,0.2,0.2,0.2h5.8c0.3,0,0.5,0.2,0.5,0.5v2.4
		c0,0.3-0.2,0.5-0.5,0.5h-5.8c-0.1,0-0.2,0.1-0.2,0.2v4.4c0,0.1,0.1,0.2,0.2,0.2h8.9c0.3,0,0.5,0.2,0.5,0.5v2.4
		c0,0.3-0.2,0.5-0.5,0.5H65.3c-0.3,0-0.5-0.2-0.5-0.5v-18.5c0-0.3,0.2-0.5,0.5-0.5h12.5c0.3,0,0.5,0.2,0.5,0.5v2.4
		C78.3,124.8,78.2,125,77.9,125z"/>
	<path class="st2" d="M81,140.6v-18.5c0-0.3,0.2-0.5,0.5-0.5h6.8c1.4,0,2.6,0.2,3.6,0.7c1,0.5,1.9,1.2,2.4,2.1s0.9,1.9,0.9,3.1v7.6
		c0,1.2-0.3,2.2-0.9,3.1c-0.6,0.9-1.4,1.6-2.4,2.1c-1,0.5-2.3,0.7-3.6,0.7h-6.8C81.2,141,81,140.9,81,140.6z M85.1,137.7h3.3
		c0.9,0,1.5-0.3,2.1-0.9c0.5-0.6,0.8-1.3,0.8-2.3v-6.4c0-1-0.3-1.7-0.8-2.3c-0.5-0.6-1.2-0.9-2.1-0.9h-3.3c-0.1,0-0.2,0.1-0.2,0.2
		v12.4C84.9,137.6,85,137.7,85.1,137.7z"/>
	<path class="st2" d="M103.7,140.6v-18.5c0-0.3,0.2-0.5,0.5-0.5h3c0.3,0,0.5,0.2,0.5,0.5v7.6c0,0.1,0,0.1,0.1,0.1c0,0,0.1,0,0.1-0.1
		l6.3-7.8c0.1-0.2,0.3-0.3,0.6-0.3h3.4c0.1,0,0.2,0,0.3,0.1c0.1,0,0.1,0.1,0.1,0.2c0,0.1,0,0.2-0.1,0.3l-6,7.7
		c-0.1,0.1-0.1,0.1,0,0.2l6.4,10.3c0.1,0.1,0.1,0.2,0.1,0.3c0,0.2-0.1,0.3-0.4,0.3H115c-0.2,0-0.4-0.1-0.6-0.3l-4.8-7.9
		c0-0.1-0.1-0.1-0.1-0.1c-0.1,0-0.1,0-0.1,0.1l-1.7,2.2c-0.1,0.1-0.1,0.1-0.1,0.2v5.3c0,0.3-0.2,0.5-0.5,0.5h-3
		C103.9,141,103.7,140.9,103.7,140.6z"/>
	<path class="st2" d="M121,140.6v-18.5c0-0.3,0.2-0.5,0.5-0.5h3c0.3,0,0.5,0.2,0.5,0.5v18.5c0,0.3-0.2,0.5-0.5,0.5h-3
		C121.2,141,121,140.9,121,140.6z"/>
	<path class="st2" d="M128.3,140.6v-18.5c0-0.3,0.2-0.5,0.5-0.5h2.9c0.2,0,0.4,0.1,0.6,0.3l6.9,11.5c0,0.1,0.1,0.1,0.1,0.1
		c0,0,0.1-0.1,0.1-0.1v-11.3c0-0.3,0.2-0.5,0.5-0.5h2.9c0.3,0,0.5,0.2,0.5,0.5v18.5c0,0.3-0.2,0.5-0.5,0.5h-2.8
		c-0.2,0-0.4-0.1-0.6-0.3l-7-11.6c0-0.1-0.1-0.1-0.1-0.1c0,0-0.1,0.1-0.1,0.1l0,11.4c0,0.3-0.2,0.5-0.5,0.5h-2.9
		C128.5,141,128.3,140.9,128.3,140.6z"/>
	<path class="st2" d="M149.6,140.4c-1.1-0.6-1.9-1.4-2.5-2.4s-0.9-2.2-0.9-3.6v-6.2c0-1.3,0.3-2.5,0.9-3.6c0.6-1,1.4-1.8,2.5-2.4
		c1.1-0.6,2.3-0.8,3.8-0.8c1.4,0,2.6,0.3,3.7,0.8s1.9,1.3,2.5,2.3c0.6,1,0.9,2,0.9,3.2v0.1c0,0.3-0.2,0.5-0.5,0.5h-3
		c-0.1,0-0.3,0-0.3-0.1c-0.1,0-0.1-0.1-0.1-0.2v-0.2c0-0.9-0.3-1.6-0.9-2.1c-0.6-0.6-1.4-0.9-2.4-0.9c-1,0-1.8,0.3-2.4,0.9
		c-0.6,0.6-0.9,1.4-0.9,2.4v6.4c0,1,0.3,1.8,1,2.4c0.6,0.6,1.5,0.9,2.5,0.9c1,0,1.7-0.3,2.3-0.8c0.6-0.5,0.9-1.2,0.9-2.1v-1.2
		c0-0.1-0.1-0.2-0.2-0.2h-2.9c-0.3,0-0.5-0.2-0.5-0.5v-2.3c0-0.3,0.2-0.5,0.5-0.5h6.5c0.3,0,0.5,0.2,0.5,0.5v3.5
		c0,1.4-0.3,2.6-0.9,3.7c-0.6,1-1.4,1.8-2.5,2.4c-1.1,0.5-2.3,0.8-3.8,0.8C152,141.3,150.7,141,149.6,140.4z"/>
	<path class="st2" d="M163.4,140.6v-18.5c0-0.3,0.2-0.5,0.5-0.5h6.8c1.4,0,2.6,0.2,3.6,0.7c1,0.5,1.9,1.2,2.4,2.1
		c0.6,0.9,0.9,1.9,0.9,3.1v7.6c0,1.2-0.3,2.2-0.9,3.1c-0.6,0.9-1.4,1.6-2.4,2.1c-1,0.5-2.3,0.7-3.6,0.7h-6.8
		C163.5,141,163.4,140.9,163.4,140.6z M167.5,137.7h3.3c0.9,0,1.5-0.3,2.1-0.9c0.5-0.6,0.8-1.3,0.8-2.3v-6.4c0-1-0.3-1.7-0.8-2.3
		c-0.5-0.6-1.2-0.9-2.1-0.9h-3.3c-0.1,0-0.2,0.1-0.2,0.2v12.4C167.3,137.6,167.3,137.7,167.5,137.7z"/>
	<path class="st2" d="M183.6,140.5c-1.1-0.6-2-1.4-2.6-2.5c-0.6-1.1-0.9-2.3-0.9-3.7v-5.9c0-1.4,0.3-2.6,0.9-3.6
		c0.6-1,1.5-1.9,2.6-2.4c1.1-0.6,2.4-0.9,3.8-0.9c1.5,0,2.7,0.3,3.8,0.9c1.1,0.6,2,1.4,2.6,2.4c0.6,1.1,0.9,2.3,0.9,3.6v5.9
		c0,1.4-0.3,2.6-0.9,3.7c-0.6,1.1-1.5,1.9-2.6,2.5c-1.1,0.6-2.4,0.9-3.8,0.9C185.9,141.3,184.7,141,183.6,140.5z M189.8,137
		c0.6-0.6,0.9-1.5,0.9-2.6v-6.1c0-1.1-0.3-1.9-0.9-2.6c-0.6-0.7-1.4-1-2.5-1c-1,0-1.8,0.3-2.5,1c-0.6,0.7-0.9,1.5-0.9,2.6v6.1
		c0,1.1,0.3,1.9,0.9,2.6s1.4,1,2.5,1C188.4,138,189.2,137.7,189.8,137z"/>
	<path class="st2" d="M197.7,140.6v-18.5c0-0.3,0.2-0.5,0.5-0.5h3c0.2,0,0.4,0.1,0.6,0.3l4,6.5c0,0.1,0.1,0.1,0.1,0.1
		c0,0,0.1,0,0.1-0.1l4.1-6.5c0.1-0.2,0.3-0.3,0.6-0.3h3c0.3,0,0.5,0.2,0.5,0.5v18.5c0,0.3-0.2,0.5-0.5,0.5h-3
		c-0.3,0-0.5-0.2-0.5-0.5v-12c0-0.1,0-0.1-0.1-0.1c0,0-0.1,0-0.1,0.1l-2.8,4.6c-0.1,0.2-0.3,0.3-0.6,0.3h-1.4
		c-0.2,0-0.4-0.1-0.6-0.3l-2.8-4.6c0-0.1-0.1-0.1-0.1-0.1c0,0-0.1,0.1-0.1,0.1v12c0,0.3-0.2,0.5-0.5,0.5h-3
		C197.9,141,197.7,140.9,197.7,140.6z"/>
</g>
</svg>
