<?xml version="1.0" encoding="utf-8"?>
<!-- Generator: Adobe Illustrator 27.5.0, SVG Export Plug-In . SVG Version: 6.00 Build 0)  -->
<svg version="1.1" id="Layer_1" xmlns="http://www.w3.org/2000/svg" xmlns:xlink="http://www.w3.org/1999/xlink" x="0px" y="0px"
	 viewBox="0 0 227.2 152" style="enable-background:new 0 0 227.2 152;" xml:space="preserve">
<style type="text/css">
	.st0{display:none;}
	.st1{display:inline;}
	.st2{fill:#BB945B;}
</style>
<g id="Layer_1_00000139290838505137882250000008945365908696768701_" class="st0">
	<g class="st1">
		<path class="st2" d="M70.8,70.6v-1.5c0-0.4,0.1-0.8,0.3-1l8.7-11.4c3.8-4.9,7.6-9.7,11.2-14.6c5.6-7.3,8.3-13.2,8.3-17.4
			c0-3.5-1.2-6.3-3.5-8.4s-5.5-3.2-9.3-3.2s-6.8,1.1-9.1,3.2s-3.4,5-3.3,8.5v2.9c0,0.6-0.3,0.9-0.9,0.9h-1.6c-0.6,0-0.9-0.3-0.9-0.9
			v-3.2c0.1-4.3,1.5-7.8,4.5-10.4c2.9-2.7,6.7-4,11.3-4c4.9,0,8.8,1.4,11.8,4.1s4.5,6.3,4.5,10.6c0,5-2.8,11.2-8.5,18.7
			c-3.8,5.1-8.8,11.5-14.8,19.4L75.3,68c-0.2,0.3-0.1,0.4,0.2,0.4h28.6c0.6,0,0.9,0.3,0.9,0.9v1.3c0,0.6-0.3,0.9-0.9,0.9H71.6
			C71,71.5,70.8,71.2,70.8,70.6z"/>
		<path class="st2" d="M122.4,67.8c-3.1-3-4.7-7-4.7-11.9V26.4c0-5,1.6-9,4.7-11.9c3.1-3,7.3-4.5,12.5-4.5s9.4,1.5,12.6,4.5
			c3.2,3,4.8,7,4.8,11.9v29.5c0,4.9-1.6,8.9-4.8,11.9s-7.4,4.5-12.6,4.5S125.5,70.8,122.4,67.8z M145.1,65.6
			c2.5-2.4,3.8-5.6,3.8-9.6V26.2c0-3.9-1.3-7.1-3.8-9.5s-5.9-3.6-10.2-3.6c-4.1,0-7.4,1.2-10,3.6c-2.5,2.4-3.8,5.6-3.8,9.5V56
			c0,4,1.3,7.2,3.8,9.6c2.5,2.4,5.9,3.6,10,3.6C139.1,69.2,142.5,68,145.1,65.6z"/>
		<path class="st2" d="M20.2,107.8c-0.1-0.1-0.1-0.2-0.1-0.3V88.7c0-0.1,0-0.2,0.1-0.3c0.1-0.1,0.2-0.1,0.3-0.1h1.9
			c0.2,0,0.4,0.1,0.5,0.3l4.7,7.5c0.1,0.1,0.1,0.1,0.2,0l4.7-7.5c0.1-0.2,0.3-0.3,0.5-0.3h1.9c0.1,0,0.2,0,0.3,0.1
			c0.1,0.1,0.1,0.2,0.1,0.3v18.8c0,0.1,0,0.2-0.1,0.3c-0.1,0.1-0.2,0.1-0.3,0.1h-1.8c-0.1,0-0.2,0-0.3-0.1s-0.1-0.2-0.1-0.3V93.3
			c0-0.1,0-0.1-0.1-0.1c0,0-0.1,0-0.1,0.1l-3.9,6.1c-0.1,0.2-0.3,0.3-0.5,0.3h-0.9c-0.2,0-0.4-0.1-0.5-0.3l-3.8-6.2
			c0-0.1-0.1-0.1-0.1-0.1l-0.1,0.1v14.2c0,0.1,0,0.2-0.1,0.3c-0.1,0.1-0.2,0.1-0.3,0.1h-1.8C20.4,107.9,20.3,107.9,20.2,107.8z"/>
		<path class="st2" d="M40,107.8c-0.1-0.1-0.1-0.2-0.1-0.3V88.7c0-0.1,0-0.2,0.1-0.3c0.1-0.1,0.2-0.1,0.3-0.1h1.8
			c0.1,0,0.2,0,0.3,0.1s0.1,0.2,0.1,0.3v18.8c0,0.1,0,0.2-0.1,0.3c-0.1,0.1-0.2,0.1-0.3,0.1h-1.8C40.2,107.9,40.1,107.9,40,107.8z"
			/>
		<path class="st2" d="M47.3,107.8c-0.1-0.1-0.1-0.2-0.1-0.3V88.7c0-0.1,0-0.2,0.1-0.3c0.1-0.1,0.2-0.1,0.3-0.1h1.8
			c0.2,0,0.4,0.1,0.5,0.3l8.6,13.9c0,0.1,0.1,0.1,0.1,0.1l0.1-0.1V88.7c0-0.1,0-0.2,0.1-0.3c0.1-0.1,0.2-0.1,0.3-0.1h1.8
			c0.1,0,0.2,0,0.3,0.1s0.1,0.2,0.1,0.3v18.8c0,0.1,0,0.2-0.1,0.3c-0.1,0.1-0.2,0.1-0.3,0.1h-1.8c-0.2,0-0.4-0.1-0.5-0.3L50,93.7
			c0-0.1-0.1-0.1-0.1-0.1l-0.1,0.1v13.7c0,0.1,0,0.2-0.1,0.3c-0.1,0.1-0.2,0.1-0.3,0.1h-1.8C47.5,107.9,47.4,107.9,47.3,107.8z"/>
		<path class="st2" d="M69,107.3c-1-0.5-1.8-1.3-2.4-2.3c-0.6-1-0.9-2.1-0.9-3.4v-13c0-0.1,0-0.2,0.1-0.3c0.1-0.1,0.2-0.1,0.3-0.1
			h1.8c0.1,0,0.2,0,0.3,0.1s0.1,0.2,0.1,0.3v13c0,1.2,0.4,2.2,1.2,2.9c0.8,0.7,1.8,1.1,3,1.1c1.2,0,2.3-0.4,3-1.1
			c0.8-0.7,1.1-1.7,1.1-2.9v-13c0-0.1,0-0.2,0.1-0.3c0.1-0.1,0.2-0.1,0.3-0.1h1.8c0.1,0,0.2,0,0.3,0.1c0.1,0.1,0.1,0.2,0.1,0.3v13
			c0,1.3-0.3,2.4-0.9,3.4s-1.4,1.7-2.4,2.3c-1,0.5-2.2,0.8-3.6,0.8C71.2,108.1,70,107.9,69,107.3z"/>
		<path class="st2" d="M96.5,88.4c0.1,0.1,0.1,0.2,0.1,0.3v1.5c0,0.1,0,0.2-0.1,0.3c-0.1,0.1-0.2,0.1-0.3,0.1H91
			c-0.1,0-0.1,0-0.1,0.1v16.7c0,0.1,0,0.2-0.1,0.3c-0.1,0.1-0.2,0.1-0.3,0.1h-1.8c-0.1,0-0.2,0-0.3-0.1c-0.1-0.1-0.1-0.2-0.1-0.3
			V90.8c0-0.1,0-0.1-0.1-0.1h-5c-0.1,0-0.2,0-0.3-0.1c-0.3-0.1-0.3-0.2-0.3-0.4v-1.5c0-0.1,0-0.2,0.1-0.3c0.1-0.1,0.2-0.1,0.3-0.1
			h13.1C96.3,88.3,96.4,88.3,96.5,88.4z"/>
		<path class="st2" d="M112.8,90.5c-0.1,0.1-0.2,0.1-0.3,0.1h-9.8c-0.1,0-0.1,0-0.1,0.1v6c0,0.1,0,0.1,0.1,0.1h6.7
			c0.1,0,0.2,0,0.3,0.1s0.1,0.2,0.1,0.3v1.5c0,0.1,0,0.2-0.1,0.3c-0.1,0.1-0.2,0.1-0.3,0.1h-6.7c-0.1,0-0.1,0-0.1,0.1v6.1
			c0,0.1,0,0.1,0.1,0.1h9.8c0.1,0,0.2,0,0.3,0.1c0.1,0.1,0.1,0.2,0.1,0.3v1.5c0,0.1,0,0.2-0.1,0.3c-0.1,0.1-0.2,0.1-0.3,0.1h-12.2
			c-0.1,0-0.2,0-0.3-0.1c-0.1-0.1-0.1-0.2-0.1-0.3V88.7c0-0.1,0-0.2,0.1-0.3c0.1-0.1,0.2-0.1,0.3-0.1h12.2c0.1,0,0.2,0,0.3,0.1
			c0.1,0.1,0.1,0.2,0.1,0.3v1.5C112.9,90.3,112.9,90.4,112.8,90.5z"/>
		<path class="st2" d="M119,107.5c-1-0.4-1.9-1.1-2.4-1.9c-0.6-0.8-0.9-1.8-0.9-2.9V102c0-0.1,0-0.2,0.1-0.3
			c0.1-0.1,0.2-0.1,0.3-0.1h1.8c0.1,0,0.2,0,0.3,0.1c0.1,0.1,0.1,0.2,0.1,0.3v0.5c0,1,0.4,1.7,1.2,2.4s1.9,0.9,3.3,0.9
			c1.3,0,2.3-0.3,2.9-0.8s1-1.3,1-2.1c0-0.6-0.2-1.1-0.5-1.5s-0.8-0.8-1.5-1.1s-1.6-0.8-2.8-1.2c-1.4-0.5-2.4-1-3.2-1.4
			c-0.8-0.4-1.5-1-2-1.7s-0.8-1.6-0.8-2.6c0-1.6,0.6-2.9,1.7-3.8s2.7-1.4,4.7-1.4c1.4,0,2.6,0.2,3.6,0.7s1.9,1.1,2.4,2
			c0.5,0.9,0.9,1.8,0.9,2.9v0.4c0,0.1,0,0.2-0.1,0.3c-0.1,0.1-0.2,0.1-0.3,0.1H127c-0.1,0-0.2,0-0.3-0.1c-0.1-0.1-0.1-0.2-0.1-0.3
			v-0.3c0-1-0.4-1.8-1.2-2.4c-0.8-0.6-1.8-1-3.2-1c-1.2,0-2.1,0.2-2.7,0.7s-1,1.2-1,2.1c0,0.6,0.2,1.1,0.5,1.5s0.8,0.7,1.4,1
			s1.6,0.7,2.9,1.2s2.4,1,3.2,1.4s1.5,1,2,1.7s0.8,1.6,0.8,2.7s-0.3,2-0.8,2.8s-1.3,1.4-2.4,1.9c-1,0.4-2.2,0.7-3.6,0.7
			C121.3,108.1,120.1,107.9,119,107.5z"/>
		<path class="st2" d="M151.6,90.5c-0.1,0.1-0.2,0.1-0.3,0.1h-9.7c-0.1,0-0.1,0-0.1,0.1v6c0,0.1,0,0.1,0.1,0.1h6.6
			c0.1,0,0.2,0,0.3,0.1s0.1,0.2,0.1,0.3v1.5c0,0.1,0,0.2-0.1,0.3c-0.1,0.1-0.2,0.1-0.3,0.1h-6.6c-0.1,0-0.1,0-0.1,0.1v8.1
			c0,0.1,0,0.2-0.1,0.3c-0.1,0.1-0.2,0.1-0.3,0.1h-1.8c-0.1,0-0.2,0-0.3-0.1s-0.1-0.2-0.1-0.3V88.7c0-0.1,0-0.2,0.1-0.3
			c0.1-0.1,0.2-0.1,0.3-0.1h12.2c0.1,0,0.2,0,0.3,0.1s0.1,0.2,0.1,0.3v1.5C151.7,90.3,151.7,90.4,151.6,90.5z"/>
		<path class="st2" d="M165.3,107.6l-3.9-8.3c0-0.1-0.1-0.1-0.2-0.1h-3.9c-0.1,0-0.1,0-0.1,0.1v8.1c0,0.1,0,0.2-0.1,0.3
			c-0.1,0.1-0.2,0.1-0.3,0.1H155c-0.1,0-0.2,0-0.3-0.1s-0.1-0.2-0.1-0.3V88.7c0-0.1,0-0.2,0.1-0.3c0.1-0.1,0.2-0.1,0.3-0.1h7.4
			c1.1,0,2.1,0.2,3,0.7c0.8,0.5,1.5,1.1,2,2c0.5,0.8,0.7,1.8,0.7,2.9c0,1.3-0.3,2.4-1,3.3s-1.6,1.5-2.8,1.8c-0.1,0-0.1,0.1-0.1,0.2
			l4,8.3l0.1,0.2c0,0.2-0.1,0.3-0.4,0.3H166C165.6,107.9,165.4,107.8,165.3,107.6z M157.2,90.7V97c0,0.1,0,0.1,0.1,0.1h4.6
			c1,0,1.8-0.3,2.4-0.9s0.9-1.4,0.9-2.3c0-1-0.3-1.8-0.9-2.4c-0.6-0.6-1.4-0.9-2.4-0.9h-4.6C157.3,90.6,157.2,90.6,157.2,90.7z"/>
		<path class="st2" d="M174.5,107.3c-1-0.6-1.9-1.3-2.4-2.4c-0.6-1-0.9-2.2-0.9-3.5v-6.7c0-1.3,0.3-2.5,0.9-3.5
			c0.6-1,1.4-1.8,2.4-2.4s2.2-0.8,3.6-0.8c1.4,0,2.6,0.3,3.6,0.8c1,0.6,1.9,1.3,2.4,2.4c0.6,1,0.9,2.2,0.9,3.5v6.7
			c0,1.3-0.3,2.5-0.9,3.5c-0.6,1-1.4,1.8-2.4,2.4s-2.3,0.8-3.6,0.8C176.7,108.2,175.5,107.9,174.5,107.3z M181.2,104.7
			c0.8-0.8,1.2-1.8,1.2-3.1v-6.8c0-1.3-0.4-2.4-1.2-3.2c-0.8-0.8-1.8-1.2-3.1-1.2s-2.3,0.4-3.1,1.2c-0.8,0.8-1.2,1.8-1.2,3.2v6.8
			c0,1.3,0.4,2.3,1.2,3.1c0.8,0.8,1.8,1.2,3.1,1.2S180.4,105.4,181.2,104.7z"/>
		<path class="st2" d="M189.2,107.8c-0.1-0.1-0.1-0.2-0.1-0.3V88.7c0-0.1,0-0.2,0.1-0.3c0.1-0.1,0.2-0.1,0.3-0.1h1.9
			c0.2,0,0.4,0.1,0.5,0.3l4.7,7.5c0.1,0.1,0.1,0.1,0.2,0l4.7-7.5c0.1-0.2,0.3-0.3,0.5-0.3h1.9c0.1,0,0.2,0,0.3,0.1s0.1,0.2,0.1,0.3
			v18.8c0,0.1,0,0.2-0.1,0.3c-0.1,0.1-0.2,0.1-0.3,0.1h-1.8c-0.1,0-0.2,0-0.3-0.1s-0.1-0.2-0.1-0.3V93.3c0-0.1,0-0.1-0.1-0.1
			c0,0-0.1,0-0.1,0.1l-3.8,6.2c-0.1,0.2-0.3,0.3-0.5,0.3h-0.9c-0.2,0-0.4-0.1-0.5-0.3l-3.8-6.2c0-0.1-0.1-0.1-0.1-0.1l-0.1,0.1v14.2
			c0,0.1,0,0.2-0.1,0.3c-0.1,0.1-0.2,0.1-0.3,0.1h-1.8C189.4,107.9,189.3,107.9,189.2,107.8z"/>
		<path class="st2" d="M77.5,131.3c0,0,0,0.1,0.1,0.1c1.8,0.9,2.6,2.4,2.6,4.5c0,1.8-0.6,3.2-1.8,4.1c-1.2,0.9-2.8,1.4-4.8,1.4h-7.1
			c-0.3,0-0.5-0.2-0.5-0.5v-18.6c0-0.3,0.2-0.5,0.5-0.5h6.9c4.4,0,6.6,1.8,6.6,5.4C80,129.2,79.2,130.5,77.5,131.3
			C77.6,131.3,77.5,131.3,77.5,131.3z M69.9,125.5v4.3c0,0.1,0.1,0.2,0.2,0.2h3.2c0.9,0,1.6-0.2,2-0.6c0.5-0.4,0.7-1,0.7-1.7
			s-0.2-1.3-0.7-1.7s-1.2-0.6-2-0.6h-3.2C70,125.3,69.9,125.3,69.9,125.5z M75.6,137.4c0.5-0.4,0.7-1,0.7-1.8s-0.2-1.4-0.7-1.8
			s-1.2-0.7-2-0.7h-3.4c-0.1,0-0.2,0.1-0.2,0.2v4.6c0,0.1,0.1,0.2,0.2,0.2h3.4C74.4,138.1,75.1,137.9,75.6,137.4z"/>
		<path class="st2" d="M86.4,140.9c-1.1-0.6-2-1.4-2.6-2.5s-0.9-2.3-0.9-3.7v-6c0-1.4,0.3-2.6,0.9-3.7s1.5-1.9,2.6-2.5
			s2.4-0.9,3.8-0.9c1.5,0,2.8,0.3,3.9,0.9s2,1.4,2.6,2.5s0.9,2.3,0.9,3.7v6c0,1.4-0.3,2.6-0.9,3.7c-0.6,1.1-1.5,1.9-2.6,2.5
			s-2.4,0.9-3.9,0.9C88.8,141.8,87.5,141.5,86.4,140.9z M92.8,137.4c0.6-0.7,1-1.5,1-2.6v-6.2c0-1.1-0.3-2-0.9-2.6
			c-0.6-0.7-1.5-1-2.5-1s-1.9,0.3-2.5,1s-0.9,1.5-0.9,2.6v6.2c0,1.1,0.3,2,0.9,2.6c0.6,0.7,1.5,1,2.5,1S92.1,138.1,92.8,137.4z"/>
		<path class="st2" d="M103.5,141c-1.1-0.5-2-1.2-2.5-2c-0.6-0.9-0.9-1.9-0.9-3.1v-0.5c0-0.3,0.2-0.5,0.5-0.5h2.9
			c0.3,0,0.5,0.1,0.5,0.4v0.4c0,0.7,0.3,1.4,1,1.9s1.6,0.8,2.7,0.8c1,0,1.7-0.2,2.2-0.6c0.5-0.4,0.7-0.9,0.7-1.6
			c0-0.4-0.2-0.8-0.4-1.1c-0.3-0.3-0.7-0.6-1.2-0.8s-1.3-0.6-2.4-1c-1.3-0.4-2.3-0.9-3.2-1.3c-0.9-0.4-1.6-1.1-2.2-1.8
			c-0.6-0.8-0.9-1.7-0.9-2.9c0-1.1,0.3-2.1,0.9-2.9s1.4-1.5,2.4-1.9s2.2-0.7,3.5-0.7c1.4,0,2.7,0.3,3.8,0.8s2,1.2,2.6,2.1
			s0.9,2,0.9,3.2v0.3c0,0.3-0.2,0.5-0.5,0.5H111c-0.3,0-0.5-0.1-0.5-0.3v-0.3c0-0.8-0.3-1.5-1-2s-1.5-0.8-2.6-0.8
			c-0.9,0-1.6,0.2-2.1,0.6s-0.7,0.9-0.7,1.5c0,0.5,0.1,0.9,0.4,1.2s0.7,0.6,1.3,0.9c0.6,0.3,1.5,0.6,2.6,1c1.3,0.5,2.3,0.9,3.1,1.3
			s1.5,0.9,2.1,1.7c0.6,0.7,0.9,1.7,0.9,2.9c0,1.1-0.3,2.1-0.9,3s-1.4,1.5-2.5,2s-2.3,0.7-3.8,0.7S104.6,141.5,103.5,141z"/>
		<path class="st2" d="M117.3,141v-18.6c0-0.3,0.2-0.5,0.5-0.5h2.9c0.2,0,0.4,0.1,0.6,0.3l7,11.6c0,0.1,0.1,0.1,0.1,0.1l0.1-0.1
			v-11.4c0-0.3,0.2-0.5,0.5-0.5h2.9c0.3,0,0.5,0.2,0.5,0.5V141c0,0.3-0.2,0.5-0.5,0.5H129c-0.2,0-0.4-0.1-0.6-0.3l-7-11.8
			c0-0.1-0.1-0.1-0.1-0.1l-0.1,0.1V141c0,0.3-0.2,0.5-0.5,0.5h-3C117.4,141.5,117.3,141.3,117.3,141z"/>
		<path class="st2" d="M135.7,141v-18.6c0-0.3,0.2-0.5,0.5-0.5h3c0.3,0,0.5,0.2,0.5,0.5V141c0,0.3-0.2,0.5-0.5,0.5h-3
			C135.9,141.5,135.7,141.3,135.7,141z"/>
		<path class="st2" d="M155.1,141.1l-0.8-2.6c0-0.1-0.1-0.1-0.2-0.1h-6.9c-0.1,0-0.1,0-0.2,0.1l-0.8,2.6c-0.1,0.3-0.3,0.4-0.5,0.4
			h-3.1c-0.2,0-0.3-0.1-0.4-0.2c-0.1-0.1-0.1-0.2,0-0.4l6-18.7c0.1-0.3,0.3-0.4,0.5-0.4h4.1c0.3,0,0.4,0.1,0.5,0.4l6,18.7
			c0,0,0,0.1,0,0.2c0,0.1,0,0.2-0.1,0.3s-0.2,0.1-0.3,0.1h-3.2C155.4,141.5,155.2,141.4,155.1,141.1z M148.3,135.3h5
			c0.1,0,0.2-0.1,0.1-0.2l-2.5-8.5c0-0.1-0.1-0.1-0.1-0.1s-0.1,0-0.1,0.1l-2.5,8.5C148.1,135.2,148.2,135.3,148.3,135.3z"/>
	</g>
</g>
<g id="Layer_2_00000178202316443337656830000014593538981539322799_" class="st0">
	<g class="st1">
		<path class="st2" d="M-783.9-1.5h1.9c0.6,0,0.9,0.3,0.9,0.9v59c0,0.6-0.3,0.9-0.9,0.9h-1.6c-0.6,0-0.9-0.3-0.9-0.9V2.8
			c0-0.1,0-0.2-0.1-0.3s-0.2-0.1-0.3,0l-10,4.9l-0.4,0.2c-0.2,0-0.3-0.1-0.4-0.2c-0.1-0.1-0.2-0.3-0.2-0.6v-1c0-0.4,0.2-0.8,0.6-1
			l10.3-6.1C-784.8-1.4-784.4-1.5-783.9-1.5z"/>
		<path class="st2" d="M-732.9,40.8c0,2.8-0.2,5.1-0.5,6.9c-0.8,3.8-2.6,6.7-5.4,8.9c-2.8,2.2-6.2,3.3-10.2,3.3
			c-3.9,0-7.2-1-9.9-3.1s-4.5-4.9-5.4-8.3c-0.3-1-0.5-2.1-0.6-3.2v-0.2c0-0.5,0.3-0.7,0.8-0.7h1.7c0.6,0,0.9,0.3,0.9,0.9
			c0.1,0.8,0.2,1.4,0.3,1.8c0.6,3,2,5.3,4.1,7.1c2.2,1.8,4.8,2.6,8,2.6c3.3,0,6-0.9,8.2-2.8c2.2-1.9,3.6-4.4,4.2-7.7
			c0.2-1.2,0.3-3,0.3-5.5c0-1.9-0.1-4-0.3-6.2c-0.4-3.2-1.7-5.6-3.9-7.2s-5-2.5-8.5-2.5c-3,0-5.6,0.7-7.8,2s-3.7,3.1-4.5,5.4
			c-0.1,0.5-0.4,0.7-1,0.7h-1.7c-0.6,0-0.9-0.3-0.9-0.9V-0.7c0-0.6,0.3-0.9,0.9-0.9h27.7c0.6,0,0.9,0.3,0.9,0.9v1.3
			c0,0.6-0.3,0.9-0.9,0.9h-24.8c-0.2,0-0.3,0.1-0.3,0.3l-0.1,24.8c0,0.1,0,0.2,0.1,0.3c0.1,0.1,0.2,0,0.3-0.1
			c1.3-1.6,3.1-2.8,5.3-3.7c2.2-0.9,4.6-1.3,7.1-1.3c4,0,7.5,1,10.2,2.9s4.5,4.8,5.2,8.5C-733.1,35.6-732.9,38.1-732.9,40.8z"/>
	</g>
	<g class="st1">
		<path class="st2" d="M-856.7,95.5c-0.1-0.1-0.1-0.2-0.1-0.3V76.5c0-0.1,0-0.2,0.1-0.3c0.1-0.1,0.2-0.1,0.3-0.1h1.9
			c0.2,0,0.4,0.1,0.5,0.3l4.7,7.5c0.1,0.1,0.1,0.1,0.2,0l4.7-7.5c0.1-0.2,0.3-0.3,0.5-0.3h1.9c0.1,0,0.2,0,0.3,0.1s0.1,0.2,0.1,0.3
			v18.8c0,0.1,0,0.2-0.1,0.3c-0.1,0.1-0.2,0.1-0.3,0.1h-1.8c-0.1,0-0.2,0-0.3-0.1s-0.1-0.2-0.1-0.3V81c0-0.1,0-0.1-0.1-0.1
			c0,0-0.1,0-0.1,0.1l-3.8,6.2c-0.1,0.2-0.3,0.3-0.5,0.3h-0.9c-0.2,0-0.4-0.1-0.5-0.3l-3.8-6.2c0-0.1-0.1-0.1-0.1-0.1l-0.1,0.1v14.2
			c0,0.1,0,0.2-0.1,0.3c-0.1,0.1-0.2,0.1-0.3,0.1h-1.8C-856.6,95.6-856.7,95.6-856.7,95.5z"/>
		<path class="st2" d="M-836.9,95.5c-0.1-0.1-0.1-0.2-0.1-0.3V76.5c0-0.1,0-0.2,0.1-0.3c0.1-0.1,0.2-0.1,0.3-0.1h1.8
			c0.1,0,0.2,0,0.3,0.1s0.1,0.2,0.1,0.3v18.8c0,0.1,0,0.2-0.1,0.3c-0.1,0.1-0.2,0.1-0.3,0.1h-1.8C-836.8,95.6-836.9,95.6-836.9,95.5
			z"/>
		<path class="st2" d="M-829.7,95.5c-0.1-0.1-0.1-0.2-0.1-0.3V76.5c0-0.1,0-0.2,0.1-0.3c0.1-0.1,0.2-0.1,0.3-0.1h1.8
			c0.2,0,0.4,0.1,0.5,0.3l8.6,13.9c0,0.1,0.1,0.1,0.1,0.1l0.1-0.1V76.5c0-0.1,0-0.2,0.1-0.3c0.1-0.1,0.2-0.1,0.3-0.1h1.8
			c0.1,0,0.2,0,0.3,0.1s0.1,0.2,0.1,0.3v18.8c0,0.1,0,0.2-0.1,0.3c-0.1,0.1-0.2,0.1-0.3,0.1h-1.8c-0.2,0-0.4-0.1-0.5-0.3l-8.6-13.9
			c0-0.1-0.1-0.1-0.1-0.1l-0.1,0.1v13.7c0,0.1,0,0.2-0.1,0.3c-0.1,0.1-0.2,0.1-0.3,0.1h-1.8C-829.5,95.6-829.6,95.6-829.7,95.5z"/>
		<path class="st2" d="M-808,95.1c-1-0.5-1.8-1.3-2.4-2.3c-0.6-1-0.9-2.1-0.9-3.4v-13c0-0.1,0-0.2,0.1-0.3c0.1-0.1,0.2-0.1,0.3-0.1
			h1.8c0.1,0,0.2,0,0.3,0.1s0.1,0.2,0.1,0.3v13c0,1.2,0.4,2.2,1.2,2.9c0.8,0.7,1.8,1.1,3,1.1s2.3-0.4,3-1.1c0.8-0.7,1.1-1.7,1.1-2.9
			v-13c0-0.1,0-0.2,0.1-0.3c0.1-0.1,0.2-0.1,0.3-0.1h1.8c0.1,0,0.2,0,0.3,0.1s0.1,0.2,0.1,0.3v13c0,1.3-0.3,2.4-0.9,3.4
			c-0.6,1-1.4,1.7-2.4,2.3s-2.2,0.8-3.6,0.8C-805.7,95.9-806.9,95.6-808,95.1z"/>
		<path class="st2" d="M-780.5,76.1c0.1,0.1,0.1,0.2,0.1,0.3V78c0,0.1,0,0.2-0.1,0.3c-0.1,0.1-0.2,0.1-0.3,0.1h-5.2
			c-0.1,0-0.1,0-0.1,0.1v16.7c0,0.1,0,0.2-0.1,0.3c-0.1,0.1-0.2,0.1-0.3,0.1h-1.8c-0.1,0-0.2,0-0.3-0.1s-0.1-0.2-0.1-0.3V78.5
			c0-0.1,0-0.1-0.1-0.1h-5c-0.1,0-0.2,0-0.3-0.1s-0.1-0.2-0.1-0.3v-1.5c0-0.1,0-0.2,0.1-0.3c0.1-0.1,0.2-0.1,0.3-0.1h13.1
			C-780.7,76-780.6,76.1-780.5,76.1z"/>
		<path class="st2" d="M-764.1,78.2c-0.1,0.1-0.2,0.1-0.3,0.1h-9.8c-0.1,0-0.1,0-0.1,0.1v6c0,0.1,0,0.1,0.1,0.1h6.7
			c0.1,0,0.2,0,0.3,0.1s0.1,0.2,0.1,0.3v1.5c0,0.1,0,0.2-0.1,0.3c-0.1,0.1-0.2,0.1-0.3,0.1h-6.7c-0.1,0-0.1,0-0.1,0.1V93
			c0,0.1,0,0.1,0.1,0.1h9.8c0.1,0,0.2,0,0.3,0.1s0.1,0.2,0.1,0.3V95c0,0.1,0,0.2-0.1,0.3c-0.1,0.1-0.2,0.1-0.3,0.1h-12.2
			c-0.1,0-0.2,0-0.3-0.1s-0.1-0.2-0.1-0.3V76.5c0-0.1,0-0.2,0.1-0.3c0.1-0.1,0.2-0.1,0.3-0.1h12.2c0.1,0,0.2,0,0.3,0.1
			s0.1,0.2,0.1,0.3V78C-764,78.1-764.1,78.2-764.1,78.2z"/>
		<path class="st2" d="M-757.9,95.2c-1-0.4-1.9-1.1-2.4-1.9s-0.9-1.8-0.9-2.9v-0.7c0-0.1,0-0.2,0.1-0.3s0.2-0.1,0.3-0.1h1.8
			c0.1,0,0.2,0,0.3,0.1s0.1,0.2,0.1,0.3v0.5c0,1,0.4,1.7,1.2,2.4c0.8,0.6,1.9,0.9,3.3,0.9c1.3,0,2.3-0.3,2.9-0.8
			c0.7-0.5,1-1.2,1-2.1c0-0.6-0.2-1.1-0.5-1.5s-0.8-0.8-1.5-1.1c-0.6-0.3-1.6-0.8-2.8-1.2c-1.4-0.5-2.4-1-3.2-1.4s-1.5-1-2-1.7
			s-0.8-1.6-0.8-2.6c0-1.6,0.6-2.9,1.7-3.8c1.1-0.9,2.7-1.4,4.7-1.4c1.4,0,2.6,0.2,3.6,0.7s1.9,1.1,2.4,2s0.9,1.8,0.9,2.9v0.4
			c0,0.1,0,0.2-0.1,0.3c-0.1,0.1-0.2,0.1-0.3,0.1h-1.8c-0.1,0-0.2,0-0.3-0.1s-0.1-0.2-0.1-0.3v-0.3c0-1-0.4-1.8-1.2-2.4
			s-1.8-1-3.2-1c-1.2,0-2.1,0.2-2.7,0.7c-0.6,0.5-1,1.2-1,2.1c0,0.6,0.2,1.1,0.5,1.5s0.8,0.7,1.4,1s1.6,0.7,2.9,1.2
			c1.3,0.5,2.4,1,3.2,1.4s1.5,1,2,1.7s0.8,1.6,0.8,2.7s-0.3,2-0.8,2.8s-1.3,1.4-2.4,1.9c-1,0.4-2.2,0.7-3.6,0.7
			C-755.7,95.9-756.9,95.6-757.9,95.2z"/>
		<path class="st2" d="M-725.4,78.2c-0.1,0.1-0.2,0.1-0.3,0.1h-9.7c-0.1,0-0.1,0-0.1,0.1v6c0,0.1,0,0.1,0.1,0.1h6.6
			c0.1,0,0.2,0,0.3,0.1s0.1,0.2,0.1,0.3v1.5c0,0.1,0,0.2-0.1,0.3c-0.1,0.1-0.2,0.1-0.3,0.1h-6.6c-0.1,0-0.1,0-0.1,0.1V95
			c0,0.1,0,0.2-0.1,0.3c-0.1,0.1-0.2,0.1-0.3,0.1h-1.8c-0.1,0-0.2,0-0.3-0.1s-0.1-0.2-0.1-0.3V76.5c0-0.1,0-0.2,0.1-0.3
			c0.1-0.1,0.2-0.1,0.3-0.1h12.2c0.1,0,0.2,0,0.3,0.1s0.1,0.2,0.1,0.3V78C-725.3,78.1-725.3,78.2-725.4,78.2z"/>
		<path class="st2" d="M-711.6,95.3l-3.9-8.3c0-0.1-0.1-0.1-0.2-0.1h-3.9c-0.1,0-0.1,0-0.1,0.1v8.1c0,0.1,0,0.2-0.1,0.3
			c-0.1,0.1-0.2,0.1-0.3,0.1h-1.8c-0.1,0-0.2,0-0.3-0.1s-0.1-0.2-0.1-0.3V76.4c0-0.1,0-0.2,0.1-0.3c0.1-0.1,0.2-0.1,0.3-0.1h7.4
			c1.1,0,2.1,0.2,3,0.7s1.5,1.1,2,2c0.5,0.8,0.7,1.8,0.7,2.9c0,1.3-0.3,2.4-1,3.3s-1.6,1.5-2.8,1.8c-0.1,0-0.1,0.1-0.1,0.2l4,8.3
			l0.1,0.2c0,0.2-0.1,0.3-0.4,0.3h-1.9C-711.4,95.6-711.5,95.5-711.6,95.3z M-719.7,78.5v6.2c0,0.1,0,0.1,0.1,0.1h4.6
			c1,0,1.8-0.3,2.4-0.9c0.6-0.6,0.9-1.4,0.9-2.3c0-1-0.3-1.8-0.9-2.4c-0.6-0.6-1.4-0.9-2.4-0.9h-4.6
			C-719.7,78.3-719.7,78.4-719.7,78.5z"/>
		<path class="st2" d="M-702.5,95c-1-0.6-1.9-1.3-2.4-2.4c-0.6-1-0.9-2.2-0.9-3.5v-6.7c0-1.3,0.3-2.5,0.9-3.5c0.6-1,1.4-1.8,2.4-2.4
			s2.2-0.8,3.6-0.8c1.4,0,2.6,0.3,3.6,0.8c1,0.6,1.9,1.3,2.4,2.4c0.6,1,0.9,2.2,0.9,3.5v6.7c0,1.3-0.3,2.5-0.9,3.5
			c-0.6,1-1.4,1.8-2.4,2.4s-2.3,0.8-3.6,0.8C-700.2,95.9-701.4,95.6-702.5,95z M-695.8,92.4c0.8-0.8,1.2-1.8,1.2-3.1v-6.8
			c0-1.3-0.4-2.4-1.2-3.1c-0.8-0.8-1.8-1.2-3.1-1.2s-2.3,0.4-3.1,1.2c-0.8,0.8-1.2,1.8-1.2,3.1v6.8c0,1.3,0.4,2.3,1.2,3.1
			c0.8,0.8,1.8,1.2,3.1,1.2S-696.6,93.2-695.8,92.4z"/>
		<path class="st2" d="M-687.7,95.5c-0.1-0.1-0.1-0.2-0.1-0.3V76.5c0-0.1,0-0.2,0.1-0.3c0.1-0.1,0.2-0.1,0.3-0.1h1.9
			c0.2,0,0.4,0.1,0.5,0.3l4.7,7.5c0.1,0.1,0.1,0.1,0.2,0l4.7-7.5c0.1-0.2,0.3-0.3,0.5-0.3h1.9c0.1,0,0.2,0,0.3,0.1s0.1,0.2,0.1,0.3
			v18.8c0,0.1,0,0.2-0.1,0.3c-0.1,0.1-0.2,0.1-0.3,0.1h-1.8c-0.1,0-0.2,0-0.3-0.1s-0.1-0.2-0.1-0.3V81c0-0.1,0-0.1-0.1-0.1
			c0,0-0.1,0-0.1,0.1l-3.8,6.2c-0.1,0.2-0.3,0.3-0.5,0.3h-0.9c-0.2,0-0.4-0.1-0.5-0.3l-3.8-6.2c0-0.1-0.1-0.1-0.1-0.1l-0.1,0.1v14.2
			c0,0.1,0,0.2-0.1,0.3c-0.1,0.1-0.2,0.1-0.3,0.1h-1.8C-687.5,95.6-687.6,95.6-687.7,95.5z"/>
	</g>
	<g class="st1">
		<path class="st2" d="M-806.5,128.8l-0.8-2.6c0-0.1-0.1-0.1-0.2-0.1h-6.9c-0.1,0-0.1,0-0.2,0.1l-0.8,2.6c-0.1,0.3-0.3,0.4-0.5,0.4
			h-3.2c-0.2,0-0.3-0.1-0.4-0.2c-0.1-0.1-0.1-0.2,0-0.4l6-18.7c0.1-0.3,0.3-0.4,0.5-0.4h4.1c0.3,0,0.4,0.1,0.5,0.4l6,18.7
			c0,0,0,0.1,0,0.2c0,0.1,0,0.2-0.1,0.3s-0.2,0.1-0.3,0.1h-3.2C-806.2,129.2-806.4,129.1-806.5,128.8z M-813.3,123h5
			c0.1,0,0.2-0.1,0.1-0.2l-2.5-8.5c0-0.1-0.1-0.1-0.1-0.1s-0.1,0-0.1,0.1l-2.5,8.5C-813.5,123-813.5,123-813.3,123z"/>
		<path class="st2" d="M-799.8,128.8v-18.6c0-0.3,0.2-0.5,0.5-0.5h3c0.3,0,0.5,0.2,0.5,0.5v18.6c0,0.3-0.2,0.5-0.5,0.5h-3
			C-799.6,129.2-799.8,129.1-799.8,128.8z"/>
		<path class="st2" d="M-782.1,128.9l-3.4-7.6c0-0.1-0.1-0.1-0.2-0.1h-2.5c-0.1,0-0.2,0.1-0.2,0.2v7.5c0,0.3-0.2,0.5-0.5,0.5h-3
			c-0.3,0-0.5-0.2-0.5-0.5v-18.7c0-0.3,0.2-0.5,0.5-0.5h7.9c1.2,0,2.2,0.2,3.2,0.7c0.9,0.5,1.6,1.2,2.1,2.1s0.7,1.9,0.7,3.1
			c0,1.3-0.3,2.4-1,3.3c-0.6,0.9-1.5,1.6-2.6,1.9c-0.1,0-0.1,0.1-0.1,0.1v0.1l3.7,7.7c0.1,0.1,0.1,0.2,0.1,0.3s0,0.2-0.1,0.2
			c-0.1,0.1-0.2,0.1-0.3,0.1h-3.2C-781.8,129.2-782,129.1-782.1,128.9z M-788.4,113.2v4.7c0,0.1,0.1,0.2,0.2,0.2h3.6
			c0.8,0,1.4-0.2,1.9-0.7s0.7-1.1,0.7-1.8c0-0.7-0.2-1.4-0.7-1.8c-0.5-0.5-1.1-0.7-1.9-0.7h-3.6C-788.4,113-788.4,113.1-788.4,113.2
			z"/>
		<path class="st2" d="M-763.9,110.4c0.9,0.5,1.7,1.2,2.2,2.1s0.8,2,0.8,3.2s-0.3,2.2-0.8,3.1s-1.3,1.6-2.2,2.1
			c-1,0.5-2.1,0.7-3.3,0.7h-3.9c-0.1,0-0.2,0.1-0.2,0.2v7c0,0.3-0.2,0.5-0.5,0.5h-3c-0.3,0-0.5-0.2-0.5-0.5v-18.7
			c0-0.3,0.2-0.5,0.5-0.5h7.8C-765.9,109.6-764.8,109.9-763.9,110.4z M-765.6,117.7c0.5-0.5,0.8-1.1,0.8-1.9s-0.3-1.5-0.8-2
			s-1.2-0.8-2.1-0.8h-3.5c-0.1,0-0.2,0.1-0.2,0.2v5.1c0,0.1,0.1,0.2,0.2,0.2h3.5C-766.8,118.5-766.2,118.2-765.6,117.7z"/>
		<path class="st2" d="M-755.4,128.6c-1.1-0.6-2-1.4-2.6-2.5s-0.9-2.3-0.9-3.7v-6c0-1.4,0.3-2.6,0.9-3.7c0.6-1.1,1.5-1.9,2.6-2.5
			s2.4-0.9,3.8-0.9c1.5,0,2.8,0.3,3.9,0.9c1.1,0.6,2,1.4,2.6,2.5s0.9,2.3,0.9,3.7v6c0,1.4-0.3,2.6-0.9,3.7c-0.6,1.1-1.5,1.9-2.6,2.5
			s-2.4,0.9-3.9,0.9C-753,129.5-754.3,129.2-755.4,128.6z M-749,125.2c0.6-0.7,1-1.5,1-2.6v-6.2c0-1.1-0.3-2-0.9-2.6
			c-0.6-0.7-1.5-1-2.5-1s-1.9,0.3-2.5,1s-0.9,1.5-0.9,2.6v6.2c0,1.1,0.3,2,0.9,2.6c0.6,0.7,1.5,1,2.5,1S-749.7,125.8-749,125.2z"/>
		<path class="st2" d="M-730.8,128.9l-3.4-7.6c0-0.1-0.1-0.1-0.2-0.1h-2.5c-0.1,0-0.2,0.1-0.2,0.2v7.5c0,0.3-0.2,0.5-0.5,0.5h-3
			c-0.3,0-0.5-0.2-0.5-0.5v-18.7c0-0.3,0.2-0.5,0.5-0.5h7.9c1.2,0,2.2,0.2,3.2,0.7c0.9,0.5,1.6,1.2,2.1,2.1s0.7,1.9,0.7,3.1
			c0,1.3-0.3,2.4-1,3.3c-0.6,0.9-1.5,1.6-2.6,1.9c-0.1,0-0.1,0.1-0.1,0.1v0.1l3.7,7.7c0.1,0.1,0.1,0.2,0.1,0.3s0,0.2-0.1,0.2
			c-0.1,0.1-0.2,0.1-0.3,0.1h-3.2C-730.5,129.2-730.7,129.1-730.8,128.9z M-737.2,113.2v4.7c0,0.1,0.1,0.2,0.2,0.2h3.6
			c0.8,0,1.4-0.2,1.9-0.7s0.7-1.1,0.7-1.8c0-0.7-0.2-1.4-0.7-1.8c-0.5-0.5-1.1-0.7-1.9-0.7h-3.6C-737.1,113-737.2,113.1-737.2,113.2
			z"/>
		<path class="st2" d="M-710,110.1v2.5c0,0.3-0.2,0.5-0.5,0.5h-4.8c-0.1,0-0.2,0.1-0.2,0.2v15.5c0,0.3-0.2,0.5-0.5,0.5h-3
			c-0.3,0-0.5-0.2-0.5-0.5v-15.5c0-0.1-0.1-0.2-0.2-0.2h-4.7c-0.3,0-0.5-0.2-0.5-0.5v-2.5c0-0.3,0.2-0.5,0.5-0.5h13.8
			C-710.2,109.6-710,109.8-710,110.1z"/>
	</g>
	<g class="st1">
		<g>
			<path class="st2" d="M110.6,10.8h1.9c0.6,0,0.9,0.3,0.9,0.9v59c0,0.6-0.3,0.9-0.9,0.9h-1.6c-0.6,0-0.9-0.3-0.9-0.9V15.1
				c0-0.1,0-0.2-0.1-0.3s-0.2-0.1-0.3,0l-10,4.9L99.2,20c-0.2,0-0.3-0.1-0.4-0.2c-0.2-0.2-0.2-0.4-0.2-0.6v-1c0-0.4,0.2-0.8,0.6-1
				l10.3-6.2C109.8,10.8,110.2,10.8,110.6,10.8z"/>
		</g>
		<g>
			<path class="st2" d="M48.1,88.4c0.1-0.1,0.2-0.1,0.3-0.1h1.8c0.1,0,0.2,0,0.3,0.1s0.1,0.2,0.1,0.3v18.8c0,0.1,0,0.2-0.1,0.3
				s-0.2,0.1-0.3,0.1h-1.8c-0.1,0-0.2,0-0.3-0.1s-0.1-0.2-0.1-0.3v-8.1c0-0.1,0-0.1-0.1-0.1H40c-0.1,0-0.1,0-0.1,0.1v8.1
				c0,0.1,0,0.2-0.1,0.3c-0.1,0.1-0.2,0.1-0.3,0.1h-1.8c-0.1,0-0.2,0-0.3-0.1c-0.1-0.1-0.1-0.2-0.1-0.3V88.7c0-0.1,0-0.2,0.1-0.3
				c0.1-0.1,0.2-0.1,0.3-0.1h1.8c0.1,0,0.2,0,0.3,0.1s0.1,0.2,0.1,0.3v8c0,0.1,0,0.1,0.1,0.1h7.9c0.1,0,0.1,0,0.1-0.1v-8
				C48,88.6,48,88.5,48.1,88.4z"/>
			<path class="st2" d="M57.9,107.3c-1-0.6-1.9-1.3-2.4-2.4c-0.6-1-0.9-2.2-0.9-3.5v-6.7c0-1.3,0.3-2.5,0.9-3.5
				c0.6-1,1.4-1.8,2.4-2.4s2.2-0.8,3.6-0.8c1.4,0,2.6,0.3,3.6,0.8c1,0.6,1.9,1.3,2.4,2.4c0.6,1,0.9,2.2,0.9,3.5v6.7
				c0,1.3-0.3,2.5-0.9,3.5s-1.4,1.8-2.4,2.4s-2.3,0.8-3.6,0.8C60.2,108.2,59,107.9,57.9,107.3z M64.6,104.7c0.8-0.8,1.2-1.8,1.2-3.1
				v-6.8c0-1.3-0.4-2.4-1.2-3.1c-0.8-0.8-1.8-1.2-3.1-1.2s-2.3,0.4-3.1,1.2c-0.8,0.8-1.2,1.8-1.2,3.1v6.8c0,1.3,0.4,2.3,1.2,3.1
				c0.8,0.8,1.8,1.2,3.1,1.2S63.8,105.5,64.6,104.7z"/>
			<path class="st2" d="M75.7,107.3c-1-0.5-1.8-1.3-2.4-2.3c-0.6-1-0.9-2.1-0.9-3.4v-13c0-0.1,0-0.2,0.1-0.3
				c0.1-0.1,0.2-0.1,0.3-0.1h1.8c0.1,0,0.2,0,0.3,0.1s0.1,0.2,0.1,0.3v13c0,1.2,0.4,2.2,1.2,2.9c0.8,0.7,1.8,1.1,3,1.1
				s2.3-0.4,3-1.1c0.8-0.7,1.1-1.7,1.1-2.9v-13c0-0.1,0-0.2,0.1-0.3c0.1-0.1,0.2-0.1,0.3-0.1h1.8c0.1,0,0.2,0,0.3,0.1
				c0.1,0.1,0.1,0.2,0.1,0.3v13c0,1.3-0.3,2.4-0.9,3.4s-1.4,1.7-2.4,2.3c-1,0.5-2.2,0.8-3.6,0.8C77.9,108.1,76.7,107.9,75.7,107.3z"
				/>
			<path class="st2" d="M101.3,107.6l-3.9-8.3c0-0.1-0.1-0.1-0.2-0.1h-3.9c-0.1,0-0.1,0-0.1,0.1v8.1c0,0.1,0,0.2-0.1,0.3
				c-0.1,0.1-0.2,0.1-0.3,0.1H91c-0.1,0-0.2,0-0.3-0.1c-0.1-0.1-0.1-0.2-0.1-0.3V88.7c0-0.1,0-0.2,0.1-0.3c0.1-0.1,0.2-0.1,0.3-0.1
				h7.4c1.1,0,2.1,0.2,3,0.7c0.8,0.5,1.5,1.1,2,2c0.5,0.8,0.7,1.8,0.7,2.9c0,1.3-0.3,2.4-1,3.3s-1.6,1.5-2.8,1.8
				c-0.1,0-0.1,0.1-0.1,0.2l4,8.3l0.1,0.2c0,0.2-0.1,0.3-0.4,0.3H102C101.6,107.9,101.4,107.8,101.3,107.6z M93.2,90.8V97
				c0,0.1,0,0.1,0.1,0.1h4.6c1,0,1.8-0.3,2.4-0.9s0.9-1.4,0.9-2.3c0-1-0.3-1.8-0.9-2.4s-1.4-0.9-2.4-0.9h-4.6
				C93.2,90.6,93.2,90.7,93.2,90.8z"/>
			<path class="st2" d="M126.2,90.5c-0.1,0.1-0.2,0.1-0.3,0.1h-9.7c-0.1,0-0.1,0-0.1,0.1v6c0,0.1,0,0.1,0.1,0.1h6.6
				c0.1,0,0.2,0,0.3,0.1c0.1,0.1,0.1,0.2,0.1,0.3v1.5c0,0.1,0,0.2-0.1,0.3c-0.1,0.1-0.2,0.1-0.3,0.1h-6.6c-0.1,0-0.1,0-0.1,0.1v8.1
				c0,0.1,0,0.2-0.1,0.3c-0.1,0.1-0.2,0.1-0.3,0.1h-1.8c-0.1,0-0.2,0-0.3-0.1c-0.1-0.1-0.1-0.2-0.1-0.3V88.7c0-0.1,0-0.2,0.1-0.3
				c0.1-0.1,0.2-0.1,0.3-0.1h12.2c0.1,0,0.2,0,0.3,0.1s0.1,0.2,0.1,0.3v1.5C126.3,90.4,126.2,90.5,126.2,90.5z"/>
			<path class="st2" d="M139.9,107.6l-3.9-8.3c0-0.1-0.1-0.1-0.2-0.1h-3.9c-0.1,0-0.1,0-0.1,0.1v8.1c0,0.1,0,0.2-0.1,0.3
				c-0.1,0.1-0.2,0.1-0.3,0.1h-1.8c-0.1,0-0.2,0-0.3-0.1s-0.1-0.2-0.1-0.3V88.7c0-0.1,0-0.2,0.1-0.3c0.1-0.1,0.2-0.1,0.3-0.1h7.4
				c1.1,0,2.1,0.2,3,0.7c0.8,0.5,1.5,1.1,2,2c0.5,0.8,0.7,1.8,0.7,2.9c0,1.3-0.3,2.4-1,3.3s-1.6,1.5-2.8,1.8c-0.1,0-0.1,0.1-0.1,0.2
				l4,8.3l0.1,0.2c0,0.2-0.1,0.3-0.4,0.3h-1.9C140.2,107.9,140,107.8,139.9,107.6z M131.8,90.8V97c0,0.1,0,0.1,0.1,0.1h4.6
				c1,0,1.8-0.3,2.4-0.9c0.6-0.6,0.9-1.4,0.9-2.3c0-1-0.3-1.8-0.9-2.4c-0.6-0.6-1.4-0.9-2.4-0.9h-4.6
				C131.8,90.6,131.8,90.7,131.8,90.8z"/>
			<path class="st2" d="M149,107.3c-1-0.6-1.9-1.3-2.4-2.4c-0.6-1-0.9-2.2-0.9-3.5v-6.7c0-1.3,0.3-2.5,0.9-3.5
				c0.6-1,1.4-1.8,2.4-2.4s2.2-0.8,3.6-0.8c1.4,0,2.6,0.3,3.6,0.8c1,0.6,1.9,1.3,2.4,2.4c0.6,1,0.9,2.2,0.9,3.5v6.7
				c0,1.3-0.3,2.5-0.9,3.5c-0.6,1-1.4,1.8-2.4,2.4s-2.3,0.8-3.6,0.8C151.3,108.2,150.1,107.9,149,107.3z M155.7,104.7
				c0.8-0.8,1.2-1.8,1.2-3.1v-6.8c0-1.3-0.4-2.4-1.2-3.1c-0.8-0.8-1.8-1.2-3.1-1.2s-2.3,0.4-3.1,1.2c-0.8,0.8-1.2,1.8-1.2,3.1v6.8
				c0,1.3,0.4,2.3,1.2,3.1c0.8,0.8,1.8,1.2,3.1,1.2S154.9,105.5,155.7,104.7z"/>
			<path class="st2" d="M163.8,107.8c-0.1-0.1-0.1-0.2-0.1-0.3V88.7c0-0.1,0-0.2,0.1-0.3c0.1-0.1,0.2-0.1,0.3-0.1h1.9
				c0.2,0,0.4,0.1,0.5,0.3l4.7,7.5c0.1,0.1,0.1,0.1,0.2,0l4.7-7.5c0.1-0.2,0.3-0.3,0.5-0.3h1.9c0.1,0,0.2,0,0.3,0.1s0.1,0.2,0.1,0.3
				v18.8c0,0.1,0,0.2-0.1,0.3c-0.1,0.1-0.2,0.1-0.3,0.1h-1.9c-0.1,0-0.2,0-0.3-0.1s-0.1-0.2-0.1-0.3V93.3c0-0.1,0-0.1-0.1-0.1
				c0,0-0.1,0-0.1,0.1l-3.8,6.2c-0.1,0.2-0.3,0.3-0.5,0.3h-0.9c-0.2,0-0.4-0.1-0.5-0.3l-3.8-6.2c0-0.1-0.1-0.1-0.1-0.1l-0.1,0.1
				v14.2c0,0.1,0,0.2-0.1,0.3c-0.1,0.1-0.2,0.1-0.3,0.1h-1.8C164,107.9,163.9,107.9,163.8,107.8z"/>
		</g>
		<g>
			<path class="st2" d="M65.7,141.1l-0.8-2.6c0-0.1-0.1-0.1-0.2-0.1h-6.9c-0.1,0-0.1,0-0.2,0.1l-0.8,2.6c-0.1,0.3-0.3,0.4-0.5,0.4
				h-3.2c-0.2,0-0.3-0.1-0.4-0.2c-0.1-0.1-0.1-0.2,0-0.4l6-18.7c0.1-0.3,0.3-0.4,0.5-0.4h4.1c0.3,0,0.4,0.1,0.5,0.4l6,18.7
				c0,0,0,0.1,0,0.2c0,0.1,0,0.2-0.1,0.3s-0.2,0.1-0.3,0.1h-3.2C66,141.5,65.8,141.4,65.7,141.1z M58.9,135.3h5
				c0.1,0,0.2-0.1,0.1-0.2l-2.5-8.5c0-0.1-0.1-0.1-0.1-0.1s-0.1,0-0.1,0.1l-2.5,8.5C58.7,135.3,58.8,135.3,58.9,135.3z"/>
			<path class="st2" d="M75.4,140.9c-1.1-0.6-1.9-1.3-2.5-2.4c-0.6-1-0.9-2.2-0.9-3.5v-12.6c0-0.3,0.2-0.5,0.5-0.5h3
				c0.3,0,0.5,0.2,0.5,0.5v12.7c0,1,0.3,1.8,0.9,2.4c0.6,0.6,1.4,0.9,2.4,0.9s1.8-0.3,2.4-0.9c0.6-0.6,0.9-1.4,0.9-2.4v-12.7
				c0-0.3,0.2-0.5,0.5-0.5h3c0.3,0,0.5,0.2,0.5,0.5V135c0,1.3-0.3,2.5-0.9,3.5s-1.5,1.8-2.5,2.4c-1.1,0.6-2.4,0.8-3.8,0.8
				C77.8,141.7,76.5,141.5,75.4,140.9z"/>
			<path class="st2" d="M92.5,141c-1.1-0.5-2-1.2-2.5-2s-0.9-1.9-0.9-3.1v-0.5c0-0.3,0.2-0.5,0.5-0.5h2.9c0.3,0,0.5,0.1,0.5,0.4v0.4
				c0,0.7,0.3,1.4,1,1.9s1.6,0.8,2.7,0.8c1,0,1.7-0.2,2.2-0.6c0.5-0.4,0.7-0.9,0.7-1.6c0-0.4-0.2-0.8-0.4-1.1
				c-0.3-0.3-0.7-0.6-1.2-0.8s-1.3-0.6-2.4-1c-1.3-0.4-2.3-0.9-3.2-1.3c-0.9-0.4-1.6-1.1-2.2-1.8c-0.6-0.8-0.9-1.7-0.9-2.9
				c0-1.1,0.3-2.1,0.9-2.9s1.4-1.5,2.4-1.9s2.2-0.7,3.5-0.7c1.4,0,2.7,0.3,3.8,0.8s2,1.2,2.6,2.1s0.9,2,0.9,3.1v0.3
				c0,0.3-0.2,0.5-0.5,0.5H100c-0.3,0-0.5-0.1-0.5-0.3V128c0-0.8-0.3-1.5-1-2c-0.6-0.6-1.5-0.8-2.6-0.8c-0.9,0-1.6,0.2-2.1,0.6
				s-0.7,0.9-0.7,1.5c0,0.5,0.1,0.9,0.4,1.2s0.7,0.6,1.3,0.9c0.6,0.3,1.5,0.6,2.6,1c1.3,0.5,2.3,0.9,3.1,1.3
				c0.8,0.4,1.5,0.9,2.1,1.7c0.6,0.7,0.9,1.7,0.9,2.9c0,1.1-0.3,2.1-0.9,3s-1.4,1.5-2.5,2s-2.3,0.7-3.8,0.7S93.6,141.5,92.5,141z"/>
			<path class="st2" d="M119.9,122.4v2.5c0,0.3-0.2,0.5-0.5,0.5h-4.8c-0.1,0-0.2,0.1-0.2,0.2V141c0,0.3-0.2,0.5-0.5,0.5h-3
				c-0.3,0-0.5-0.2-0.5-0.5v-15.5c0-0.1-0.1-0.2-0.2-0.2h-4.6c-0.3,0-0.5-0.2-0.5-0.5v-2.5c0-0.3,0.2-0.5,0.5-0.5h13.8
				C119.8,121.9,119.9,122.1,119.9,122.4z"/>
			<path class="st2" d="M132.8,141.2l-3.4-7.6c0-0.1-0.1-0.1-0.2-0.1h-2.6c-0.1,0-0.2,0.1-0.2,0.2v7.5c0,0.3-0.2,0.5-0.5,0.5h-3
				c-0.3,0-0.5-0.2-0.5-0.5v-18.7c0-0.3,0.2-0.5,0.5-0.5h7.9c1.2,0,2.2,0.2,3.2,0.7c0.9,0.5,1.6,1.2,2.1,2.1s0.7,1.9,0.7,3.1
				c0,1.3-0.3,2.4-1,3.3s-1.5,1.6-2.6,1.9c-0.1,0-0.1,0.1-0.1,0.1v0.1l3.7,7.7c0.1,0.1,0.1,0.2,0.1,0.3s0,0.2-0.1,0.2
				c-0.1,0.1-0.2,0.1-0.3,0.1h-3.2C133.1,141.5,132.9,141.4,132.8,141.2z M126.4,125.5v4.7c0,0.1,0.1,0.2,0.2,0.2h3.6
				c0.8,0,1.4-0.2,1.9-0.7s0.7-1.1,0.7-1.8s-0.2-1.4-0.7-1.8c-0.5-0.5-1.1-0.7-1.9-0.7h-3.6C126.5,125.3,126.4,125.4,126.4,125.5z"
				/>
			<path class="st2" d="M139.7,141v-18.6c0-0.3,0.2-0.5,0.5-0.5h3c0.3,0,0.5,0.2,0.5,0.5V141c0,0.3-0.2,0.5-0.5,0.5h-3
				C139.8,141.5,139.7,141.4,139.7,141z"/>
			<path class="st2" d="M159.1,141.1l-0.8-2.6c0-0.1-0.1-0.1-0.2-0.1h-6.9c-0.1,0-0.1,0-0.2,0.1l-0.8,2.6c-0.1,0.3-0.3,0.4-0.5,0.4
				h-3.2c-0.2,0-0.3-0.1-0.4-0.2c-0.1-0.1-0.1-0.2,0-0.4l6-18.7c0.1-0.3,0.3-0.4,0.5-0.4h4.1c0.3,0,0.4,0.1,0.5,0.4l6,18.7
				c0,0,0,0.1,0,0.2c0,0.1,0,0.2-0.1,0.3s-0.2,0.1-0.3,0.1h-3.2C159.4,141.5,159.2,141.4,159.1,141.1z M152.2,135.3h5
				c0.1,0,0.2-0.1,0.1-0.2l-2.5-8.5c0-0.1-0.1-0.1-0.1-0.1s-0.1,0-0.1,0.1l-2.5,8.5C152.1,135.3,152.1,135.3,152.2,135.3z"/>
		</g>
	</g>
</g>
<g id="Layer_3" class="st0">
	<g class="st1">
		<g>
			<path class="st2" d="M110.5,10.5h1.9c0.6,0,0.9,0.3,0.9,0.9v59c0,0.6-0.3,0.9-0.9,0.9h-1.6c-0.6,0-0.9-0.3-0.9-0.9V14.9
				c0-0.1,0-0.2-0.1-0.3s-0.2-0.1-0.3,0l-10,4.9l-0.4,0.2c-0.2,0-0.3-0.1-0.4-0.2s-0.2-0.3-0.2-0.6v-1c0-0.4,0.2-0.8,0.6-1l10.3-6.1
				C109.6,10.6,110,10.5,110.5,10.5z"/>
		</g>
		<g>
			<path class="st2" d="M47.9,88.2c0.1-0.1,0.2-0.1,0.3-0.1H50c0.1,0,0.2,0,0.3,0.1s0.1,0.2,0.1,0.3v18.8c0,0.1,0,0.2-0.1,0.3
				s-0.2,0.1-0.3,0.1h-1.8c-0.1,0-0.2,0-0.3-0.1s-0.1-0.2-0.1-0.3v-8.1c0-0.1,0-0.1-0.1-0.1h-7.9c-0.1,0-0.1,0-0.1,0.1v8.1
				c0,0.1,0,0.2-0.1,0.3c-0.1,0.1-0.2,0.1-0.3,0.1h-1.8c-0.1,0-0.2,0-0.3-0.1c-0.1-0.1-0.1-0.2-0.1-0.3V88.5c0-0.1,0-0.2,0.1-0.3
				c0.1-0.1,0.2-0.1,0.3-0.1h1.8c0.1,0,0.2,0,0.3,0.1s0.1,0.2,0.1,0.3v8c0,0.1,0,0.1,0.1,0.1h7.9c0.1,0,0.1,0,0.1-0.1v-8
				C47.8,88.4,47.8,88.3,47.9,88.2z"/>
			<path class="st2" d="M57.7,107.1c-1-0.6-1.9-1.3-2.4-2.4c-0.6-1-0.9-2.2-0.9-3.5v-6.7c0-1.3,0.3-2.5,0.9-3.5
				c0.6-1,1.4-1.8,2.4-2.4s2.2-0.8,3.6-0.8c1.4,0,2.6,0.3,3.6,0.8c1,0.6,1.9,1.3,2.4,2.4c0.6,1,0.9,2.2,0.9,3.5v6.7
				c0,1.3-0.3,2.5-0.9,3.5c-0.6,1-1.4,1.8-2.4,2.4s-2.3,0.8-3.6,0.8C60,107.9,58.8,107.6,57.7,107.1z M64.4,104.4
				c0.8-0.8,1.2-1.8,1.2-3.1v-6.8c0-1.3-0.4-2.4-1.2-3.1c-0.8-0.8-1.8-1.2-3.1-1.2s-2.3,0.4-3.1,1.2c-0.8,0.8-1.2,1.8-1.2,3.1v6.8
				c0,1.3,0.4,2.3,1.2,3.1c0.8,0.8,1.8,1.2,3.1,1.2S63.7,105.2,64.4,104.4z"/>
			<path class="st2" d="M75.5,107.1c-1-0.5-1.8-1.3-2.4-2.3c-0.6-1-0.9-2.1-0.9-3.4v-13c0-0.1,0-0.2,0.1-0.3
				c0.1-0.1,0.2-0.1,0.3-0.1h1.8c0.1,0,0.2,0,0.3,0.1s0.1,0.2,0.1,0.3v13c0,1.2,0.4,2.2,1.2,2.9c0.8,0.7,1.8,1.1,3,1.1
				s2.3-0.4,3-1.1c0.8-0.7,1.1-1.7,1.1-2.9v-13c0-0.1,0-0.2,0.1-0.3c0.1-0.1,0.2-0.1,0.3-0.1h1.8c0.1,0,0.2,0,0.3,0.1
				c0.1,0.1,0.1,0.2,0.1,0.3v13c0,1.3-0.3,2.4-0.9,3.4s-1.4,1.7-2.4,2.3c-1,0.5-2.2,0.8-3.6,0.8C77.7,107.9,76.5,107.6,75.5,107.1z"
				/>
			<path class="st2" d="M101.1,107.4l-3.9-8.3c0-0.1-0.1-0.1-0.2-0.1h-3.9C93,99,93,99,93,99.1v8.1c0,0.1,0,0.2-0.1,0.3
				c-0.1,0.1-0.2,0.1-0.3,0.1h-1.8c-0.1,0-0.2,0-0.3-0.1c-0.1-0.1-0.1-0.2-0.1-0.3V88.5c0-0.1,0-0.2,0.1-0.3
				c0.1-0.1,0.2-0.1,0.3-0.1h7.4c1.1,0,2.1,0.2,3,0.7c0.8,0.5,1.5,1.1,2,2c0.5,0.8,0.7,1.8,0.7,2.9c0,1.3-0.3,2.4-1,3.3
				s-1.6,1.5-2.8,1.8c-0.1,0-0.1,0.1-0.1,0.2l4,8.3l0.1,0.2c0,0.2-0.1,0.3-0.4,0.3h-2.1C101.4,107.7,101.2,107.6,101.1,107.4z
				 M93,90.5v6.2c0,0.1,0,0.1,0.1,0.1h4.6c1,0,1.8-0.3,2.4-0.9s0.9-1.4,0.9-2.3c0-1-0.3-1.8-0.9-2.4s-1.4-0.9-2.4-0.9h-4.6
				C93.1,90.4,93,90.4,93,90.5z"/>
			<path class="st2" d="M126,90.3c-0.1,0.1-0.2,0.1-0.3,0.1H116c-0.1,0-0.1,0-0.1,0.1v6c0,0.1,0,0.1,0.1,0.1h6.6
				c0.1,0,0.2,0,0.3,0.1c0.1,0.1,0.1,0.2,0.1,0.3v1.5c0,0.1,0,0.2-0.1,0.3c-0.1,0.1-0.2,0.1-0.3,0.1H116c-0.1,0-0.1,0-0.1,0.1v8.1
				c0,0.1,0,0.2-0.1,0.3c-0.1,0.1-0.2,0.1-0.3,0.1h-1.8c-0.1,0-0.2,0-0.3-0.1c-0.1-0.1-0.1-0.2-0.1-0.3V88.5c0-0.1,0-0.2,0.1-0.3
				c0.1-0.1,0.2-0.1,0.3-0.1h12.2c0.1,0,0.2,0,0.3,0.1s0.1,0.2,0.1,0.3V90C126.1,90.1,126.1,90.2,126,90.3z"/>
			<path class="st2" d="M139.7,107.4l-3.9-8.3c0-0.1-0.1-0.1-0.2-0.1h-3.9c-0.1,0-0.1,0-0.1,0.1v8.1c0,0.1,0,0.2-0.1,0.3
				c-0.1,0.1-0.2,0.1-0.3,0.1h-1.8c-0.1,0-0.2,0-0.3-0.1c-0.1-0.1-0.1-0.2-0.1-0.3V88.5c0-0.1,0-0.2,0.1-0.3
				c0.1-0.1,0.2-0.1,0.3-0.1h7.4c1.1,0,2.1,0.2,3,0.7c0.8,0.5,1.5,1.1,2,2c0.5,0.8,0.7,1.8,0.7,2.9c0,1.3-0.3,2.4-1,3.3
				s-1.6,1.5-2.8,1.8c-0.1,0-0.1,0.1-0.1,0.2l4,8.3l0.1,0.2c0,0.2-0.1,0.3-0.4,0.3h-1.9C140,107.7,139.8,107.6,139.7,107.4z
				 M131.6,90.5v6.2c0,0.1,0,0.1,0.1,0.1h4.6c1,0,1.8-0.3,2.4-0.9c0.6-0.6,0.9-1.4,0.9-2.3c0-1-0.3-1.8-0.9-2.4
				c-0.6-0.6-1.4-0.9-2.4-0.9h-4.6C131.7,90.4,131.6,90.4,131.6,90.5z"/>
			<path class="st2" d="M148.9,107.1c-1-0.6-1.9-1.3-2.4-2.4c-0.6-1-0.9-2.2-0.9-3.5v-6.7c0-1.3,0.3-2.5,0.9-3.5
				c0.6-1,1.4-1.8,2.4-2.4s2.2-0.8,3.6-0.8c1.4,0,2.6,0.3,3.6,0.8c1,0.6,1.9,1.3,2.4,2.4c0.6,1,0.9,2.2,0.9,3.5v6.7
				c0,1.3-0.3,2.5-0.9,3.5c-0.6,1-1.4,1.8-2.4,2.4s-2.3,0.8-3.6,0.8C151.1,107.9,149.9,107.6,148.9,107.1z M155.5,104.4
				c0.8-0.8,1.2-1.8,1.2-3.1v-6.8c0-1.3-0.4-2.4-1.2-3.1c-0.8-0.8-1.8-1.2-3.1-1.2s-2.3,0.4-3.1,1.2c-0.8,0.8-1.2,1.8-1.2,3.1v6.8
				c0,1.3,0.4,2.3,1.2,3.1c0.8,0.8,1.8,1.2,3.1,1.2S154.8,105.2,155.5,104.4z"/>
			<path class="st2" d="M163.6,107.6c-0.1-0.1-0.1-0.2-0.1-0.3V88.5c0-0.1,0-0.2,0.1-0.3c0.1-0.1,0.2-0.1,0.3-0.1h1.9
				c0.2,0,0.4,0.1,0.5,0.3l4.7,7.5c0.1,0.1,0.1,0.1,0.2,0l4.7-7.5c0.1-0.2,0.3-0.3,0.5-0.3h1.9c0.1,0,0.2,0,0.3,0.1s0.1,0.2,0.1,0.3
				v18.8c0,0.1,0,0.2-0.1,0.3c-0.1,0.1-0.2,0.1-0.3,0.1h-1.8c-0.1,0-0.2,0-0.3-0.1s-0.1-0.2-0.1-0.3V93c0-0.1,0-0.1-0.1-0.1
				c0,0-0.1,0-0.1,0.1l-3.8,6.2c-0.1,0.2-0.3,0.3-0.5,0.3h-0.9c-0.2,0-0.4-0.1-0.5-0.3l-3.8-6.2c0-0.1-0.1-0.1-0.1-0.1l-0.1,0.1
				v14.2c0,0.1,0,0.2-0.1,0.3c-0.1,0.1-0.2,0.1-0.3,0.1H164C163.8,107.7,163.7,107.6,163.6,107.6z"/>
		</g>
		<g>
			<path class="st2" d="M48.8,140.8c-1.1-0.5-2-1.2-2.5-2s-0.9-1.9-0.9-3.1v-0.5c0-0.3,0.2-0.5,0.5-0.5h2.9c0.3,0,0.5,0.1,0.5,0.4
				v0.4c0,0.7,0.3,1.4,1,1.9s1.6,0.8,2.7,0.8c1,0,1.7-0.2,2.2-0.6c0.5-0.4,0.7-0.9,0.7-1.6c0-0.4-0.2-0.8-0.4-1.1
				c-0.3-0.3-0.7-0.6-1.2-0.8s-1.3-0.6-2.4-1c-1.3-0.4-2.3-0.9-3.2-1.3c-0.9-0.4-1.6-1.1-2.2-1.8c-0.6-0.8-0.9-1.7-0.9-2.9
				c0-1.1,0.3-2.1,0.9-2.9c0.6-0.8,1.4-1.5,2.4-1.9s2.2-0.7,3.5-0.7c1.4,0,2.7,0.3,3.8,0.8s2,1.2,2.6,2.1s0.9,2,0.9,3.1v0.3
				c0,0.3-0.2,0.5-0.5,0.5h-2.9c-0.3,0-0.5-0.1-0.5-0.3v-0.3c0-0.8-0.3-1.5-1-2c-0.6-0.6-1.5-0.8-2.6-0.8c-0.9,0-1.6,0.2-2.1,0.6
				s-0.7,0.9-0.7,1.5c0,0.5,0.1,0.9,0.4,1.2c0.3,0.3,0.7,0.6,1.3,0.9c0.6,0.3,1.5,0.6,2.6,1c1.3,0.5,2.3,0.9,3.1,1.3
				c0.8,0.4,1.5,0.9,2.1,1.7c0.6,0.7,0.9,1.7,0.9,2.9c0,1.1-0.3,2.1-0.9,3c-0.6,0.9-1.4,1.5-2.5,2s-2.3,0.7-3.8,0.7
				S49.9,141.3,48.8,140.8z"/>
			<path class="st2" d="M62.5,140.8v-18.6c0-0.3,0.2-0.5,0.5-0.5h3c0.3,0,0.5,0.2,0.5,0.5v15.6c0,0.1,0.1,0.2,0.2,0.2h9
				c0.3,0,0.5,0.2,0.5,0.5v2.4c0,0.3-0.2,0.5-0.5,0.5H63C62.7,141.3,62.5,141.1,62.5,140.8z"/>
			<path class="st2" d="M81.5,140.7c-1.1-0.6-2-1.4-2.6-2.5s-0.9-2.3-0.9-3.7v-6c0-1.4,0.3-2.6,0.9-3.7s1.5-1.9,2.6-2.5
				s2.4-0.9,3.8-0.9c1.5,0,2.8,0.3,3.9,0.9s2,1.4,2.6,2.5s0.9,2.3,0.9,3.7v6c0,1.4-0.3,2.6-0.9,3.7c-0.6,1.1-1.5,1.9-2.6,2.5
				s-2.4,0.9-3.9,0.9C83.9,141.6,82.6,141.3,81.5,140.7z M87.8,137.2c0.6-0.7,1-1.5,1-2.6v-6.2c0-1.1-0.3-2-0.9-2.6
				c-0.6-0.7-1.5-1-2.5-1s-1.9,0.3-2.5,1s-0.9,1.5-0.9,2.6v6.2c0,1.1,0.3,2,0.9,2.6c0.6,0.7,1.5,1,2.5,1S87.2,137.9,87.8,137.2z"/>
			<path class="st2" d="M99.8,140.9l-5.7-18.7c0,0,0-0.1,0-0.2c0-0.2,0.1-0.4,0.4-0.4h3.2c0.3,0,0.4,0.1,0.5,0.4l3.7,13.5
				c0,0.1,0.1,0.1,0.1,0.1s0.1,0,0.1-0.1l3.6-13.5c0.1-0.3,0.3-0.4,0.5-0.4h3.2c0.2,0,0.3,0.1,0.4,0.2s0.1,0.2,0,0.4l-5.8,18.7
				c-0.1,0.3-0.3,0.4-0.5,0.4h-3.2C100,141.3,99.9,141.1,99.8,140.9z"/>
			<path class="st2" d="M125.4,125.1h-9c-0.1,0-0.2,0.1-0.2,0.2v4.3c0,0.1,0.1,0.2,0.2,0.2h5.9c0.3,0,0.5,0.2,0.5,0.5v2.4
				c0,0.3-0.2,0.5-0.5,0.5h-5.9c-0.1,0-0.2,0.1-0.2,0.2v4.5c0,0.1,0.1,0.2,0.2,0.2h9c0.3,0,0.5,0.2,0.5,0.5v2.4
				c0,0.3-0.2,0.5-0.5,0.5h-12.7c-0.3,0-0.5-0.2-0.5-0.5v-18.6c0-0.3,0.2-0.5,0.5-0.5h12.7c0.3,0,0.5,0.2,0.5,0.5v2.4
				C125.8,124.9,125.7,125.1,125.4,125.1z"/>
			<path class="st2" d="M128.6,140.8v-18.6c0-0.3,0.2-0.5,0.5-0.5h2.9c0.2,0,0.4,0.1,0.6,0.3l7,11.6c0,0.1,0.1,0.1,0.1,0.1l0.1-0.1
				v-11.4c0-0.3,0.2-0.5,0.5-0.5h2.9c0.3,0,0.5,0.2,0.5,0.5v18.6c0,0.3-0.2,0.5-0.5,0.5h-2.9c-0.2,0-0.4-0.1-0.6-0.3l-7-11.8
				c0-0.1-0.1-0.1-0.1-0.1l-0.1,0.1v11.6c0,0.3-0.2,0.5-0.5,0.5h-3C128.7,141.3,128.6,141.1,128.6,140.8z"/>
			<path class="st2" d="M147,140.8v-18.6c0-0.3,0.2-0.5,0.5-0.5h3c0.3,0,0.5,0.2,0.5,0.5v18.6c0,0.3-0.2,0.5-0.5,0.5h-3
				C147.2,141.3,147,141.1,147,140.8z"/>
			<path class="st2" d="M166.4,140.9l-0.8-2.6c0-0.1-0.1-0.1-0.2-0.1h-6.8c-0.1,0-0.1,0-0.2,0.1l-0.8,2.6c-0.1,0.3-0.3,0.4-0.5,0.4
				h-3.2c-0.2,0-0.3-0.1-0.4-0.2c-0.1-0.1-0.1-0.2,0-0.4l6-18.7c0.1-0.3,0.3-0.4,0.5-0.4h4.1c0.3,0,0.4,0.1,0.5,0.4l6,18.7
				c0,0,0,0.1,0,0.2c0,0.1,0,0.2-0.1,0.3s-0.2,0.1-0.3,0.1H167C166.7,141.3,166.5,141.1,166.4,140.9z M159.6,135.1h5
				c0.1,0,0.2-0.1,0.1-0.2l-2.5-8.5c0-0.1-0.1-0.1-0.1-0.1s-0.1,0-0.1,0.1l-2.5,8.5C159.4,135,159.5,135.1,159.6,135.1z"/>
		</g>
	</g>
</g>
<g id="Layer_4" class="st0">
	<g class="st1">
		<g>
			<path class="st2" d="M114.9,10.4h1.9c0.6,0,0.9,0.3,0.9,0.9v59c0,0.6-0.3,0.9-0.9,0.9h-1.6c-0.6,0-0.9-0.3-0.9-0.9V14.8
				c0-0.1,0-0.2-0.1-0.3s-0.2-0.1-0.3,0l-10,4.9l-0.4,0.2c-0.2,0-0.3-0.1-0.4-0.2s-0.2-0.3-0.2-0.6v-1c0-0.4,0.2-0.8,0.6-1l10.3-6.1
				C114.1,10.5,114.5,10.4,114.9,10.4z"/>
		</g>
		<g>
			<path class="st2" d="M52.4,88.1c0.1-0.1,0.2-0.1,0.3-0.1h1.8c0.1,0,0.2,0,0.3,0.1s0.1,0.2,0.1,0.3v18.8c0,0.1,0,0.2-0.1,0.3
				s-0.2,0.1-0.3,0.1h-1.8c-0.1,0-0.2,0-0.3-0.1s-0.1-0.2-0.1-0.3V99c0-0.1,0-0.1-0.1-0.1h-7.9c-0.1,0-0.1,0-0.1,0.1v8.1
				c0,0.1,0,0.2-0.1,0.3c-0.1,0.1-0.2,0.1-0.3,0.1H42c-0.1,0-0.2,0-0.3-0.1c-0.1-0.1-0.1-0.2-0.1-0.3V88.4c0-0.1,0-0.2,0.1-0.3
				c-0.1-0.1,0-0.1,0.1-0.1h1.8c0.1,0,0.2,0,0.3,0.1c0.1,0.1,0.1,0.2,0.1,0.3v8c0,0.1,0,0.1,0.1,0.1H52c0.1,0,0.1,0,0.1-0.1v-8
				C52.3,88.3,52.3,88.2,52.4,88.1z"/>
			<path class="st2" d="M62.2,107c-1-0.6-1.9-1.3-2.4-2.4c-0.6-1-0.9-2.2-0.9-3.5v-6.7c0-1.3,0.3-2.5,0.9-3.5c0.6-1,1.4-1.8,2.4-2.4
				s2.2-0.8,3.6-0.8c1.4,0,2.6,0.3,3.6,0.8c1,0.6,1.9,1.3,2.4,2.4c0.6,1,0.9,2.2,0.9,3.5v6.7c0,1.3-0.3,2.5-0.9,3.5
				c-0.6,1-1.4,1.8-2.4,2.4s-2.3,0.8-3.6,0.8C64.4,107.8,63.2,107.6,62.2,107z M68.9,104.3c0.8-0.8,1.2-1.8,1.2-3.1v-6.8
				c0-1.3-0.4-2.4-1.2-3.1c-0.8-0.8-1.8-1.2-3.1-1.2c-1.3,0-2.3,0.4-3.1,1.2c-0.8,0.8-1.2,1.8-1.2,3.1v6.8c0,1.3,0.4,2.3,1.2,3.1
				c0.8,0.8,1.8,1.2,3.1,1.2C67.1,105.5,68.1,105.1,68.9,104.3z"/>
			<path class="st2" d="M79.9,107c-1-0.5-1.8-1.3-2.4-2.3s-0.9-2.1-0.9-3.4v-13c0-0.1,0-0.2,0.1-0.3c0.1-0.1,0.2-0.1,0.3-0.1h1.8
				c0.1,0,0.2,0,0.3,0.1s0.1,0.2,0.1,0.3v13c0,1.2,0.4,2.2,1.2,2.9c0.8,0.7,1.8,1.1,3,1.1s2.3-0.4,3-1.1c0.8-0.7,1.1-1.7,1.1-2.9
				v-13c0-0.1,0-0.2,0.1-0.3c0.1-0.1,0.2-0.1,0.3-0.1h1.8c0.1,0,0.2,0,0.3,0.1c0.1,0.1,0.1,0.2,0.1,0.3v13c0,1.3-0.3,2.4-0.9,3.4
				s-1.4,1.7-2.4,2.3c-1,0.5-2.2,0.8-3.6,0.8C82.2,107.8,81,107.6,79.9,107z"/>
			<path class="st2" d="M105.6,107.3l-3.9-8.3c0-0.1-0.1-0.1-0.2-0.1h-3.9c-0.1,0-0.1,0-0.1,0.1v8.1c0,0.1,0,0.2-0.1,0.3
				c-0.1,0.1-0.2,0.1-0.3,0.1h-1.8c-0.1,0-0.2,0-0.3-0.1c-0.1-0.1-0.1-0.2-0.1-0.3V88.4c0-0.1,0-0.2,0.1-0.3
				c0.1-0.1,0.2-0.1,0.3-0.1h7.3c1.1,0,2.1,0.2,3,0.7c0.8,0.5,1.5,1.1,2,2c0.5,0.8,0.7,1.8,0.7,2.9c0,1.3-0.3,2.4-1,3.3
				s-1.6,1.5-2.8,1.8c-0.1,0-0.1,0.1-0.1,0.2l4,8.3l0.1,0.2c0,0.2-0.1,0.3-0.4,0.3h-1.9C105.8,107.6,105.7,107.5,105.6,107.3z
				 M97.5,90.4v6.2c0,0.1,0,0.1,0.1,0.1h4.6c1,0,1.8-0.3,2.4-0.9s0.9-1.4,0.9-2.3c0-1-0.3-1.8-0.9-2.4s-1.4-0.9-2.4-0.9h-4.6
				C97.5,90.3,97.5,90.3,97.5,90.4z"/>
			<path class="st2" d="M130.4,90.2c-0.1,0.1-0.2,0.1-0.3,0.1h-9.7c-0.1,0-0.1,0-0.1,0.1v6c0,0.1,0,0.1,0.1,0.1h6.6
				c0.1,0,0.2,0,0.3,0.1c0.1,0.1,0.1,0.2,0.1,0.3v1.5c0,0.1,0,0.2-0.1,0.3c-0.1,0.1-0.2,0.1-0.3,0.1h-6.6c-0.1,0-0.1,0-0.1,0.1v8.1
				c0,0.1,0,0.2-0.1,0.3c-0.1,0.1-0.2,0.1-0.3,0.1h-1.8c-0.1,0-0.2,0-0.3-0.1c-0.1-0.1-0.1-0.2-0.1-0.3V88.4c0-0.1,0-0.2,0.1-0.3
				c0.1-0.1,0.2-0.1,0.3-0.1h12.2c0.1,0,0.2,0,0.3,0.1s0.1,0.2,0.1,0.3v1.5C130.5,90,130.5,90.1,130.4,90.2z"/>
			<path class="st2" d="M144.2,107.3l-3.9-8.3c0-0.1-0.1-0.1-0.2-0.1h-3.9c-0.1,0-0.1,0-0.1,0.1v8.1c0,0.1,0,0.2-0.1,0.3
				c-0.1,0.1-0.2,0.1-0.3,0.1h-1.8c-0.1,0-0.2,0-0.3-0.1s-0.1-0.2-0.1-0.3V88.4c0-0.1,0-0.2,0.1-0.3c0.1-0.1,0.2-0.1,0.3-0.1h7.4
				c1.1,0,2.1,0.2,3,0.7c0.8,0.5,1.5,1.1,2,2c0.5,0.8,0.7,1.8,0.7,2.9c0,1.3-0.3,2.4-1,3.3s-1.6,1.5-2.8,1.8c-0.1,0-0.1,0.1-0.1,0.2
				l4,8.3l0.1,0.2c0,0.2-0.1,0.3-0.4,0.3h-1.9C144.4,107.6,144.3,107.5,144.2,107.3z M136.1,90.4v6.2c0,0.1,0,0.1,0.1,0.1h4.6
				c1,0,1.8-0.3,2.4-0.9c0.6-0.6,0.9-1.4,0.9-2.3c0-1-0.3-1.8-0.9-2.4c-0.6-0.6-1.4-0.9-2.4-0.9h-4.6
				C136.1,90.3,136.1,90.3,136.1,90.4z"/>
			<path class="st2" d="M153.3,107c-1-0.6-1.9-1.3-2.4-2.4c-0.6-1-0.9-2.2-0.9-3.5v-6.7c0-1.3,0.3-2.5,0.9-3.5
				c0.6-1,1.4-1.8,2.4-2.4s2.2-0.8,3.6-0.8c1.4,0,2.6,0.3,3.6,0.8c1,0.6,1.9,1.3,2.4,2.4c0.6,1,0.9,2.2,0.9,3.5v6.7
				c0,1.3-0.3,2.5-0.9,3.5c-0.6,1-1.4,1.8-2.4,2.4s-2.3,0.8-3.6,0.8S154.4,107.6,153.3,107z M160,104.3c0.8-0.8,1.2-1.8,1.2-3.1
				v-6.8c0-1.3-0.4-2.4-1.2-3.1c-0.8-0.8-1.8-1.2-3.1-1.2s-2.3,0.4-3.1,1.2c-0.8,0.8-1.2,1.8-1.2,3.1v6.8c0,1.3,0.4,2.3,1.2,3.1
				c0.8,0.8,1.8,1.2,3.1,1.2S159.2,105.1,160,104.3z"/>
			<path class="st2" d="M168.1,107.5c-0.1-0.1-0.1-0.2-0.1-0.3V88.4c0-0.1,0-0.2,0.1-0.3c0.1-0.1,0.2-0.1,0.3-0.1h1.9
				c0.2,0,0.4,0.1,0.5,0.3l4.7,7.5c0.1,0.1,0.1,0.1,0.2,0l4.7-7.5c0.1-0.2,0.3-0.3,0.5-0.3h1.9c0.1,0,0.2,0,0.3,0.1s0.1,0.2,0.1,0.3
				v18.8c0,0.1,0,0.2-0.1,0.3c-0.1,0.1-0.2,0.1-0.3,0.1H181c-0.1,0-0.2,0-0.3-0.1s-0.1-0.2-0.1-0.3V93c0-0.1,0-0.1-0.1-0.1
				c0,0-0.1,0-0.1,0.1l-3.8,6.2c-0.1,0.2-0.3,0.3-0.5,0.3h-0.9c-0.2,0-0.4-0.1-0.5-0.3l-3.8-6.2c0-0.1-0.1-0.1-0.1-0.1l-0.1,0.1
				v14.2c0,0.1,0,0.2-0.1,0.3c-0.1,0.1-0.2,0.1-0.3,0.1h-1.8C168.3,107.6,168.2,107.6,168.1,107.5z"/>
		</g>
		<g>
			<path class="st2" d="M77.7,140.7v-18.6c0-0.3,0.2-0.5,0.5-0.5h3c0.3,0,0.5,0.2,0.5,0.5v18.6c0,0.3-0.2,0.5-0.5,0.5h-3
				C77.8,141.2,77.7,141,77.7,140.7z"/>
			<path class="st2" d="M98.9,122.1v2.5c0,0.3-0.2,0.5-0.5,0.5h-4.8c-0.1,0-0.2,0.1-0.2,0.2v15.5c0,0.3-0.2,0.5-0.5,0.5h-3
				c-0.3,0-0.5-0.2-0.5-0.5v-15.5c0-0.1-0.1-0.2-0.2-0.2h-4.6c-0.3,0-0.5-0.2-0.5-0.5v-2.5c0-0.3,0.2-0.5,0.5-0.5h13.8
				C98.7,121.6,98.9,121.8,98.9,122.1z"/>
			<path class="st2" d="M111.7,140.8l-0.8-2.6c0-0.1-0.1-0.1-0.2-0.1h-6.9c-0.1,0-0.1,0-0.2,0.1l-0.8,2.6c-0.1,0.3-0.3,0.4-0.5,0.4
				h-3.2c-0.2,0-0.3-0.1-0.4-0.2c-0.1-0.1-0.1-0.2,0-0.4l6-18.7c0.1-0.3,0.3-0.4,0.5-0.4h4.1c0.3,0,0.4,0.1,0.5,0.4l6,18.7
				c0,0,0,0.1,0,0.2c0,0.1,0,0.2-0.1,0.3s-0.2,0.1-0.3,0.1h-3.2C112,141.2,111.8,141.1,111.7,140.8z M104.9,135h5
				c0.1,0,0.2-0.1,0.1-0.2l-2.5-8.5c0-0.1-0.1-0.1-0.1-0.1s-0.1,0-0.1,0.1l-2.5,8.5C104.7,134.9,104.8,135,104.9,135z"/>
			<path class="st2" d="M118.4,140.7v-18.6c0-0.3,0.2-0.5,0.5-0.5h3c0.3,0,0.5,0.2,0.5,0.5v15.6c0,0.1,0.1,0.2,0.2,0.2h9
				c0.3,0,0.5,0.2,0.5,0.5v2.4c0,0.3-0.2,0.5-0.5,0.5H119C118.6,141.2,118.4,141,118.4,140.7z"/>
			<path class="st2" d="M138,140.7v-6.9l-0.1-0.2l-5.7-11.4c-0.1-0.1-0.1-0.2-0.1-0.3c0-0.1,0-0.2,0.1-0.2c0.1-0.1,0.2-0.1,0.3-0.1
				h3.2c0.3,0,0.4,0.1,0.6,0.4l3.4,7.3c0,0.1,0.1,0.1,0.1,0.1s0.1,0,0.1-0.1l3.4-7.3c0.1-0.2,0.3-0.4,0.6-0.4h3.3
				c0.3,0,0.4,0.1,0.4,0.3c0,0.1,0,0.2-0.1,0.2l-5.7,11.4l-0.1,0.2v6.9c0,0.3-0.2,0.5-0.5,0.5h-3C138.2,141.2,138,141,138,140.7z"/>
		</g>
	</g>
</g>
<g id="Layer_6" class="st0">
	<g class="st1">
		<g>
			<path class="st2" d="M81.6,10.7h1.9c0.6,0,0.9,0.3,0.9,0.9v59c0,0.6-0.3,0.9-0.9,0.9h-1.6c-0.6,0-0.9-0.3-0.9-0.9V15
				c0-0.1,0-0.2-0.1-0.3s-0.2-0.1-0.3,0l-10,4.9l-0.4,0.2c-0.2,0-0.3-0.1-0.4-0.2c-0.2-0.1-0.2-0.3-0.2-0.5v-1c0-0.4,0.2-0.8,0.6-1
				L80.5,11C80.8,10.8,81.2,10.7,81.6,10.7z"/>
			<path class="st2" d="M102.8,10.7h1.5c0.6,0,0.9,0.3,0.9,0.9v34.7c0,0.6-0.3,0.9-0.9,0.9h-1.1c-0.6,0-0.9-0.3-0.9-0.9V14.1
				c0-0.1,0-0.2-0.1-0.3s-0.2-0.1-0.2,0l-3.3,1l-0.3,0.1c-0.5,0-0.7-0.3-0.7-0.9v-0.5c0-0.5,0.2-0.8,0.7-1l3.4-1.5
				C102.1,10.8,102.5,10.7,102.8,10.7z M103.2,71.1c-0.1-0.2,0-0.4,0.1-0.7l38-59.1c0.3-0.4,0.6-0.6,1-0.6h1.2
				c0.3,0,0.6,0.1,0.7,0.3c0.1,0.2,0,0.4-0.1,0.7L106,70.8c-0.3,0.4-0.6,0.6-1,0.6h-1.1C103.5,71.4,103.3,71.3,103.2,71.1z
				 M137.3,70.6v-1c0-0.4,0.1-0.8,0.3-1l2.2-2.8c4.2-5.1,7.4-9.1,9.6-12.2c3.3-4.3,4.9-7.6,4.9-10.1c0-2-0.7-3.5-2-4.7
				S149.2,37,147,37c-2.1,0-3.9,0.6-5.2,1.8s-1.9,2.8-1.9,4.8V45c0,0.6-0.3,0.9-0.9,0.9h-1.1c-0.6,0-0.9-0.3-0.9-0.9v-1.7
				c0.1-2.6,1-4.7,2.8-6.3s4.2-2.4,7.1-2.4c3,0,5.4,0.9,7.3,2.6c1.9,1.7,2.8,3.9,2.8,6.5c0,3-1.6,6.6-4.9,10.9
				c-2.8,3.7-6.5,8.4-11,14.1c-0.2,0.3-0.1,0.4,0.2,0.4h16.1c0.6,0,0.9,0.3,0.9,0.9v0.7c0,0.6-0.3,0.9-0.9,0.9H138
				C137.6,71.4,137.3,71.2,137.3,70.6z"/>
		</g>
		<g>
			<path class="st2" d="M44.6,88.4c0.1-0.1,0.2-0.1,0.3-0.1h1.8c0.1,0,0.2,0,0.3,0.1s0.1,0.2,0.1,0.3v18.8c0,0.1,0,0.2-0.1,0.3
				s-0.2,0.1-0.3,0.1h-1.8c-0.1,0-0.2,0-0.3-0.1s-0.1-0.2-0.1-0.3v-8.1c0-0.1,0-0.1-0.1-0.1h-7.9c-0.1,0-0.1,0-0.1,0.1v8.1
				c0,0.1,0,0.2-0.1,0.3c-0.1,0.1-0.2,0.1-0.3,0.1h-1.8c-0.1,0-0.2,0-0.3-0.1c-0.1-0.1-0.1-0.2-0.1-0.3V88.7c0-0.1,0-0.2,0.1-0.3
				c0.1-0.1,0.2-0.1,0.3-0.1H36c0.1,0,0.2,0,0.3,0.1s0.1,0.2,0.1,0.3v8c0,0.1,0,0.1,0.1,0.1h7.9c0.1,0,0.1,0,0.1-0.1v-8
				C44.5,88.5,44.5,88.4,44.6,88.4z"/>
			<path class="st2" d="M54.4,107.3c-1-0.6-1.9-1.3-2.4-2.4c-0.6-1-0.9-2.2-0.9-3.5v-6.7c0-1.3,0.3-2.5,0.9-3.5
				c0.6-1,1.4-1.8,2.4-2.4S56.6,88,58,88c1.4,0,2.6,0.3,3.6,0.8c1,0.6,1.9,1.3,2.4,2.4c0.6,1,0.9,2.2,0.9,3.5v6.7
				c0,1.3-0.3,2.5-0.9,3.5c-0.6,1-1.4,1.8-2.4,2.4s-2.3,0.8-3.6,0.8C56.7,108.1,55.5,107.8,54.4,107.3z M61.1,104.6
				c0.8-0.8,1.2-1.8,1.2-3.1v-6.8c0-1.3-0.4-2.4-1.2-3.1c-0.8-0.8-1.8-1.2-3.1-1.2s-2.3,0.4-3.1,1.2c-0.8,0.8-1.2,1.8-1.2,3.1v6.8
				c0,1.3,0.4,2.3,1.2,3.1c0.8,0.8,1.8,1.2,3.1,1.2S60.4,105.4,61.1,104.6z"/>
			<path class="st2" d="M72.2,107.3c-1-0.5-1.8-1.3-2.4-2.3c-0.6-1-0.9-2.1-0.9-3.4v-13c0-0.1,0-0.2,0.1-0.3
				c0.1-0.1,0.2-0.1,0.3-0.1h1.8c0.1,0,0.2,0,0.3,0.1s0.1,0.2,0.1,0.3v13c0,1.2,0.4,2.2,1.2,2.9c0.8,0.7,1.8,1.1,3,1.1
				c1.3,0,2.3-0.4,3-1.1c0.8-0.7,1.1-1.7,1.1-2.9v-13c0-0.1,0-0.2,0.1-0.3c0.1-0.1,0.2-0.1,0.3-0.1H82c0.1,0,0.2,0,0.3,0.1
				c0.1,0.1,0.1,0.2,0.1,0.3v13c0,1.3-0.3,2.4-0.9,3.4s-1.4,1.7-2.4,2.3c-1,0.5-2.2,0.8-3.6,0.8C74.4,108.1,73.2,107.8,72.2,107.3z"
				/>
			<path class="st2" d="M97.8,107.5l-3.9-8.3c0-0.1-0.1-0.1-0.2-0.1h-3.9c-0.1,0-0.1,0-0.1,0.1v8.1c0,0.1,0,0.2-0.1,0.3
				c-0.1,0.1-0.2,0.1-0.3,0.1h-1.8c-0.1,0-0.2,0-0.3-0.1c-0.1-0.1-0.1-0.2-0.1-0.3V88.6c0-0.1,0-0.2,0.1-0.3
				c0.1-0.1,0.2-0.1,0.3-0.1h7.4c1.1,0,2.1,0.2,3,0.7c0.8,0.5,1.5,1.1,2,2c0.5,0.8,0.7,1.8,0.7,2.9c0,1.3-0.3,2.4-1,3.3
				s-1.6,1.5-2.8,1.8c-0.2,0.1-0.3,0.1-0.2,0.2l4,8.3l0.1,0.2c0,0.2-0.1,0.3-0.4,0.3h-1.9C98.1,107.8,97.9,107.7,97.8,107.5z
				 M89.7,90.7v6.2c0,0.1,0,0.1,0.1,0.1h4.6c1,0,1.8-0.3,2.4-0.9s0.9-1.4,0.9-2.3c0-1-0.3-1.8-0.9-2.4s-1.4-0.9-2.4-0.9h-4.6
				C89.8,90.5,89.7,90.6,89.7,90.7z"/>
			<path class="st2" d="M106.6,107.4c-1-0.4-1.9-1.1-2.4-1.9c-0.6-0.8-0.9-1.8-0.9-2.9v-0.7c0-0.1,0-0.2,0.1-0.3s0.2-0.1,0.3-0.1
				h1.8c0.1,0,0.2,0,0.3,0.1c0.1,0.1,0.1,0.2,0.1,0.3v0.5c0,1,0.4,1.7,1.2,2.4c0.8,0.6,1.9,0.9,3.3,0.9c1.3,0,2.3-0.3,2.9-0.8
				c0.7-0.5,1-1.3,1-2.1c0-0.6-0.2-1.1-0.5-1.5s-0.8-0.8-1.5-1.1c-0.6-0.3-1.6-0.8-2.8-1.2c-1.4-0.5-2.4-1-3.2-1.4
				c-0.8-0.4-1.5-1-2-1.7s-0.8-1.6-0.8-2.6c0-1.6,0.6-2.9,1.7-3.8s2.7-1.4,4.7-1.4c1.4,0,2.6,0.2,3.6,0.7s1.9,1.1,2.4,2
				s0.9,1.8,0.9,2.9V94c0,0.1,0,0.2-0.1,0.3c-0.1,0.1-0.2,0.1-0.3,0.1h-1.8c-0.1,0-0.2,0-0.3-0.1c-0.1-0.1-0.1-0.2-0.1-0.3v-0.3
				c0-1-0.4-1.8-1.2-2.4s-1.8-1-3.2-1c-1.2,0-2.1,0.2-2.7,0.7s-1,1.2-1,2.1c0,0.6,0.2,1.1,0.5,1.5s0.8,0.7,1.4,1s1.6,0.7,2.9,1.2
				s2.4,1,3.2,1.4c0.8,0.4,1.5,1,2,1.7s0.8,1.6,0.8,2.7s-0.3,2-0.8,2.8s-1.3,1.4-2.4,1.9c-1,0.4-2.2,0.7-3.6,0.7
				C108.8,108.1,107.6,107.8,106.6,107.4z"/>
			<path class="st2" d="M139.1,90.5c-0.1,0.1-0.2,0.1-0.3,0.1h-9.7c-0.1,0-0.1,0-0.1,0.1v6c0,0.1,0,0.1,0.1,0.1h6.6
				c0.1,0,0.2,0,0.3,0.1s0.1,0.2,0.1,0.3v1.5c0,0.1,0,0.2-0.1,0.3c-0.1,0.1-0.2,0.1-0.3,0.1h-6.6c-0.1,0-0.1,0-0.1,0.1v8.1
				c0,0.1,0,0.2-0.1,0.3c-0.1,0.1-0.2,0.1-0.3,0.1h-1.8c-0.1,0-0.2,0-0.3-0.1c-0.1-0.1-0.1-0.2-0.1-0.3V88.7c0-0.1,0-0.2,0.1-0.3
				c0.1-0.1,0.2-0.1,0.3-0.1H139c0.1,0,0.2,0,0.3,0.1s0.1,0.2,0.1,0.3v1.5C139.3,90.3,139.2,90.4,139.1,90.5z"/>
			<path class="st2" d="M152.9,107.5l-3.9-8.3c0-0.1-0.1-0.1-0.2-0.1h-3.9c-0.1,0-0.1,0-0.1,0.1v8.1c0,0.1,0,0.2-0.1,0.3
				c-0.1,0.1-0.2,0.1-0.3,0.1h-1.8c-0.1,0-0.2,0-0.3-0.1s-0.1-0.2-0.1-0.3V88.6c0-0.1,0-0.2,0.1-0.3c0.1-0.1,0.2-0.1,0.3-0.1h7.4
				c1.1,0,2.1,0.2,3,0.7c0.8,0.5,1.5,1.1,2,2c0.5,0.8,0.7,1.8,0.7,2.9c0,1.3-0.3,2.4-1,3.3s-1.6,1.5-2.8,1.8c-0.1,0-0.1,0.1-0.1,0.2
				l4,8.3l0.1,0.2c0,0.2-0.1,0.3-0.4,0.3h-1.9C153.1,107.8,153,107.7,152.9,107.5z M144.8,90.7v6.2c0,0.1,0,0.1,0.1,0.1h4.6
				c1,0,1.8-0.3,2.4-0.9c0.6-0.6,0.9-1.4,0.9-2.3c0-1-0.3-1.8-0.9-2.4c-0.6-0.6-1.4-0.9-2.4-0.9h-4.6
				C144.8,90.5,144.8,90.6,144.8,90.7z"/>
			<path class="st2" d="M162,107.3c-1-0.6-1.9-1.3-2.4-2.4c-0.6-1-0.9-2.2-0.9-3.5v-6.7c0-1.3,0.3-2.5,0.9-3.5
				c0.6-1,1.4-1.8,2.4-2.4s2.2-0.8,3.6-0.8c1.4,0,2.6,0.3,3.6,0.8c1,0.6,1.9,1.3,2.4,2.4c0.6,1,0.9,2.2,0.9,3.5v6.7
				c0,1.3-0.3,2.5-0.9,3.5c-0.6,1-1.4,1.8-2.4,2.4s-2.3,0.8-3.6,0.8C164.3,108.1,163.1,107.8,162,107.3z M168.7,104.6
				c0.8-0.8,1.2-1.8,1.2-3.1v-6.8c0-1.3-0.4-2.4-1.2-3.1c-0.8-0.8-1.8-1.2-3.1-1.2s-2.3,0.4-3.1,1.2c-0.8,0.8-1.2,1.8-1.2,3.1v6.8
				c0,1.3,0.4,2.3,1.2,3.1c0.8,0.8,1.8,1.2,3.1,1.2S167.9,105.4,168.7,104.6z"/>
			<path class="st2" d="M176.8,107.7c-0.1-0.1-0.1-0.2-0.1-0.3V88.7c0-0.1,0-0.2,0.1-0.3c0.1-0.1,0.2-0.1,0.3-0.1h1.9
				c0.2,0,0.4,0.1,0.5,0.3l4.7,7.5c0.1,0.1,0.1,0.1,0.2,0l4.7-7.5c0.1-0.2,0.3-0.3,0.5-0.3h1.9c0.1,0,0.2,0,0.3,0.1s0.1,0.2,0.1,0.3
				v18.8c0,0.1,0,0.2-0.1,0.3c-0.1,0.1-0.2,0.1-0.3,0.1h-1.9c-0.1,0-0.2,0-0.3-0.1s-0.1-0.2-0.1-0.3V93.2c0-0.1,0-0.1-0.1-0.1
				c0,0-0.1,0-0.1,0.1l-3.8,6.2c-0.1,0.2-0.3,0.3-0.5,0.3h-0.9c-0.2,0-0.4-0.1-0.5-0.3l-3.8-6.2c0-0.1-0.1-0.1-0.1-0.1l-0.1,0.1
				v14.2c0,0.1,0,0.2-0.1,0.3c-0.1,0.1-0.2,0.1-0.3,0.1h-1.8C177,107.8,176.9,107.8,176.8,107.7z"/>
		</g>
		<g>
			<path class="st2" d="M55.1,140.8c-1.1-0.6-2-1.4-2.6-2.4s-0.9-2.2-0.9-3.6v-6.3c0-1.4,0.3-2.6,0.9-3.6s1.5-1.9,2.6-2.4
				c1.1-0.6,2.4-0.9,3.8-0.9c1.4,0,2.7,0.3,3.8,0.8c1.1,0.6,1.9,1.3,2.5,2.3s0.9,2,0.9,3.2v0.1c0,0.3-0.2,0.5-0.5,0.5h-3
				c-0.1,0-0.3,0-0.3-0.1c-0.1,0-0.1-0.1-0.1-0.2V128c0-0.9-0.3-1.6-0.9-2.2c-0.6-0.6-1.4-0.9-2.4-0.9s-1.8,0.3-2.4,0.9
				c-0.6,0.6-0.9,1.4-0.9,2.5v6.5c0,1,0.3,1.8,1,2.4c0.7,0.6,1.5,0.9,2.5,0.9s1.7-0.3,2.3-0.8s0.9-1.2,0.9-2.1V134
				c0-0.1-0.1-0.2-0.2-0.2h-3c-0.3,0-0.5-0.2-0.5-0.5V131c0-0.3,0.2-0.5,0.5-0.5h6.5c0.3,0,0.5,0.2,0.5,0.5v3.6
				c0,1.4-0.3,2.7-0.9,3.7c-0.6,1-1.4,1.8-2.5,2.4c-1.1,0.6-2.4,0.8-3.8,0.8S56.2,141.4,55.1,140.8z"/>
			<path class="st2" d="M82.1,125.2h-9c-0.1,0-0.2,0.1-0.2,0.2v4.3c0,0.1,0.1,0.2,0.2,0.2H79c0.3,0,0.5,0.2,0.5,0.5v2.4
				c0,0.3-0.2,0.5-0.5,0.5h-5.9c-0.1,0-0.2,0.1-0.2,0.2v4.5c0,0.1,0.1,0.2,0.2,0.2h9c0.3,0,0.5,0.2,0.5,0.5v2.4
				c0,0.3-0.2,0.5-0.5,0.5H69.5c-0.3,0-0.5-0.2-0.5-0.5v-18.6c0-0.3,0.2-0.5,0.5-0.5h12.7c0.3,0,0.5,0.2,0.5,0.5v2.4
				C82.6,125.1,82.4,125.2,82.1,125.2z"/>
			<path class="st2" d="M95.6,141.1l-3.4-7.6c0-0.1-0.1-0.1-0.2-0.1h-2.5c-0.1,0-0.2,0.1-0.2,0.2v7.5c0,0.3-0.2,0.5-0.5,0.5h-3
				c-0.3,0-0.5-0.2-0.5-0.5v-18.7c0-0.3,0.2-0.5,0.5-0.5h7.9c1.2,0,2.2,0.2,3.2,0.7c0.9,0.5,1.6,1.2,2.1,2.1s0.7,1.9,0.7,3.1
				c0,1.3-0.3,2.4-1,3.3s-1.5,1.6-2.6,1.9c-0.1,0-0.1,0.1-0.1,0.1v0.1l3.7,7.7c0.1,0.1,0.1,0.2,0.1,0.3s0,0.2-0.1,0.2
				c-0.1,0.1-0.2,0.1-0.3,0.1h-3.2C95.9,141.4,95.8,141.3,95.6,141.1z M89.3,125.4v4.7c0,0.1,0.1,0.2,0.2,0.2h3.6
				c0.8,0,1.4-0.2,1.9-0.7s0.7-1.1,0.7-1.8s-0.2-1.4-0.7-1.8c-0.5-0.5-1.1-0.7-1.9-0.7h-3.6C89.3,125.2,89.3,125.3,89.3,125.4z"/>
			<path class="st2" d="M102.5,141v-18.6c0-0.3,0.2-0.5,0.5-0.5h3c0.2,0,0.4,0.1,0.6,0.3l4.1,6.6c0,0.1,0.1,0.1,0.1,0.1
				s0.1,0,0.1-0.1l4.1-6.6c0.1-0.2,0.3-0.3,0.6-0.3h3c0.3,0,0.5,0.2,0.5,0.5V141c0,0.3-0.2,0.5-0.5,0.5h-3c-0.3,0-0.5-0.2-0.5-0.5
				v-12.1c0-0.1,0-0.1-0.1-0.1c0,0-0.1,0-0.1,0.1l-2.8,4.6c-0.1,0.2-0.3,0.3-0.6,0.3h-1.4c-0.2,0-0.4-0.1-0.6-0.3l-2.8-4.6
				c0-0.1-0.1-0.1-0.1-0.1l-0.1,0.1V141c0,0.3-0.2,0.5-0.5,0.5h-3C102.7,141.4,102.5,141.3,102.5,141z"/>
			<path class="st2" d="M134.5,141.1l-0.8-2.6c0-0.1-0.1-0.1-0.2-0.1h-6.9c-0.1,0-0.1,0-0.2,0.1l-0.8,2.6c-0.1,0.3-0.3,0.4-0.5,0.4
				h-3.2c-0.2,0-0.3-0.1-0.4-0.2c-0.1-0.1-0.1-0.2,0-0.4l6-18.7c0.1-0.3,0.3-0.4,0.5-0.4h4.1c0.3,0,0.4,0.1,0.5,0.4l6,18.7
				c0,0,0,0.1,0,0.2c0,0.1,0,0.2-0.1,0.3c-0.1,0.1-0.2,0.1-0.3,0.1H135C134.8,141.4,134.6,141.3,134.5,141.1z M127.6,135.3h5
				c0.1,0,0.2-0.1,0.1-0.2l-2.5-8.5c0-0.1-0.1-0.1-0.1-0.1s-0.1,0-0.1,0.1l-2.5,8.5C127.5,135.2,127.5,135.3,127.6,135.3z"/>
			<path class="st2" d="M141.2,141v-18.6c0-0.3,0.2-0.5,0.5-0.5h2.9c0.2,0,0.4,0.1,0.6,0.3l7,11.6c0,0.1,0.1,0.1,0.1,0.1l0.1-0.1
				v-11.4c0-0.3,0.2-0.5,0.5-0.5h2.9c0.3,0,0.5,0.2,0.5,0.5V141c0,0.3-0.2,0.5-0.5,0.5h-2.9c-0.2,0-0.4-0.1-0.6-0.3l-7-11.8
				c0-0.1-0.1-0.1-0.1-0.1l-0.1,0.1V141c0,0.3-0.2,0.5-0.5,0.5h-3C141.4,141.4,141.2,141.3,141.2,141z"/>
			<path class="st2" d="M164.6,140.9V134l-0.1-0.2l-5.7-11.4c-0.1-0.1-0.1-0.2-0.1-0.3c0-0.1,0-0.2,0.1-0.2c0.1-0.1,0.2-0.1,0.3-0.1
				h3.2c0.3,0,0.4,0.1,0.6,0.4l3.4,7.3c0,0.1,0.1,0.1,0.1,0.1s0.1,0,0.1-0.1l3.4-7.3c0.1-0.2,0.3-0.4,0.6-0.4h3.3
				c0.3,0,0.4,0.1,0.4,0.3c0,0.1,0,0.2-0.1,0.2l-5.7,11.4l-0.1,0.2v6.9c0,0.3-0.2,0.5-0.5,0.5h-3
				C164.8,141.4,164.6,141.3,164.6,140.9z"/>
		</g>
	</g>
</g>
<g>
	<path class="st2" d="M81.2,11.3h1.9c0.6,0,0.9,0.3,0.9,0.9v58.4c0,0.6-0.3,0.9-0.9,0.9h-1.6c-0.6,0-0.9-0.3-0.9-0.9v-55
		c0-0.1,0-0.2-0.1-0.3c-0.1-0.1-0.2-0.1-0.3,0l-9.9,4.9l-0.4,0.2c-0.2,0-0.3-0.1-0.4-0.2c-0.1-0.1-0.2-0.3-0.2-0.6v-1
		c0-0.4,0.2-0.7,0.6-1l10.2-6C80.4,11.4,80.8,11.3,81.2,11.3z"/>
	<path class="st2" d="M102.2,11.3h1.5c0.6,0,0.9,0.3,0.9,0.9v34.4c0,0.6-0.3,0.9-0.9,0.9h-1.1c-0.6,0-0.9-0.3-0.9-0.9V14.7
		c0-0.1,0-0.2-0.1-0.3c-0.1-0.1-0.2-0.1-0.2,0l-3.3,0.9l-0.3,0.1c-0.5,0-0.7-0.3-0.7-0.9V14c0-0.5,0.2-0.8,0.7-0.9l3.4-1.5
		C101.5,11.4,101.8,11.3,102.2,11.3z M102.6,71.1c-0.1-0.2,0-0.4,0.1-0.7l37.6-58.5c0.3-0.4,0.6-0.6,1-0.6h1.2
		c0.3,0,0.6,0.1,0.6,0.3c0.1,0.2,0,0.4-0.1,0.7l-37.7,58.5c-0.3,0.4-0.6,0.6-1,0.6h-1.1C102.9,71.4,102.7,71.3,102.6,71.1z
		 M136.3,70.6v-0.9c0-0.4,0.1-0.7,0.3-1l2.1-2.7c4.1-5,7.3-9,9.5-12c3.3-4.2,4.9-7.6,4.9-10c0-1.9-0.7-3.5-2-4.7s-3.1-1.8-5.2-1.8
		c-2.1,0-3.8,0.6-5.1,1.8c-1.3,1.2-1.9,2.8-1.8,4.7v1.4c0,0.6-0.3,0.9-0.9,0.9h-1.1c-0.6,0-0.9-0.3-0.9-0.9v-1.7
		c0.1-2.6,1-4.7,2.8-6.3s4.1-2.4,7-2.4c3,0,5.4,0.8,7.2,2.5c1.8,1.7,2.7,3.8,2.7,6.4c0,2.9-1.6,6.5-4.9,10.8
		c-2.7,3.7-6.4,8.3-10.9,13.9c-0.2,0.3-0.1,0.4,0.2,0.4h16c0.6,0,0.9,0.3,0.9,0.9v0.7c0,0.6-0.3,0.9-0.9,0.9h-19.2
		C136.6,71.4,136.3,71.1,136.3,70.6z"/>
</g>
<g>
	<path class="st2" d="M45.2,88.2c0.1-0.1,0.2-0.1,0.3-0.1h1.8c0.1,0,0.2,0,0.3,0.1c0.1,0.1,0.1,0.2,0.1,0.3V107c0,0.1,0,0.2-0.1,0.3
		c-0.1,0.1-0.2,0.1-0.3,0.1h-1.8c-0.1,0-0.2,0-0.3-0.1c-0.1-0.1-0.1-0.2-0.1-0.3V99c0-0.1,0-0.1-0.1-0.1h-7.8c-0.1,0-0.1,0-0.1,0.1
		v8.1c0,0.1,0,0.2-0.1,0.3c-0.1,0.1-0.2,0.1-0.3,0.1h-1.8c-0.1,0-0.2,0-0.3-0.1c-0.1-0.1-0.1-0.2-0.1-0.3V88.5c0-0.1,0-0.2,0.1-0.3
		c0.1-0.1,0.2-0.1,0.3-0.1h1.8c0.1,0,0.2,0,0.3,0.1c0.1,0.1,0.1,0.2,0.1,0.3v7.9c0,0.1,0,0.1,0.1,0.1H45c0.1,0,0.1,0,0.1-0.1v-7.9
		C45.1,88.3,45.2,88.2,45.2,88.2z"/>
	<path class="st2" d="M55,106.9c-1-0.6-1.8-1.3-2.4-2.3c-0.6-1-0.9-2.2-0.9-3.5v-6.6c0-1.3,0.3-2.5,0.9-3.5c0.6-1,1.4-1.8,2.4-2.3
		c1-0.6,2.2-0.8,3.6-0.8c1.4,0,2.6,0.3,3.6,0.8c1,0.6,1.8,1.3,2.4,2.3c0.6,1,0.9,2.2,0.9,3.5v6.6c0,1.3-0.3,2.5-0.9,3.5
		c-0.6,1-1.4,1.8-2.4,2.3c-1,0.6-2.2,0.8-3.6,0.8C57.2,107.7,56,107.4,55,106.9z M61.6,104.2c0.8-0.8,1.2-1.8,1.2-3.1v-6.7
		c0-1.3-0.4-2.3-1.2-3.1c-0.8-0.8-1.8-1.2-3.1-1.2c-1.3,0-2.3,0.4-3,1.2c-0.8,0.8-1.2,1.8-1.2,3.1v6.7c0,1.3,0.4,2.3,1.2,3.1
		c0.8,0.8,1.8,1.2,3,1.2C59.8,105.4,60.8,105,61.6,104.2z"/>
	<path class="st2" d="M72.5,106.9c-1-0.5-1.8-1.3-2.4-2.2s-0.9-2.1-0.9-3.3V88.5c0-0.1,0-0.2,0.1-0.3c0.1-0.1,0.2-0.1,0.3-0.1h1.8
		c0.1,0,0.2,0,0.3,0.1c0.1,0.1,0.1,0.2,0.1,0.3v12.9c0,1.2,0.4,2.2,1.1,2.9c0.8,0.7,1.8,1.1,3,1.1c1.2,0,2.2-0.4,3-1.1
		c0.8-0.7,1.1-1.7,1.1-2.9V88.5c0-0.1,0-0.2,0.1-0.3c0.1-0.1,0.2-0.1,0.3-0.1h1.8c0.1,0,0.2,0,0.3,0.1c0.1,0.1,0.1,0.2,0.1,0.3v12.8
		c0,1.3-0.3,2.4-0.8,3.3c-0.6,1-1.4,1.7-2.4,2.2c-1,0.5-2.2,0.8-3.6,0.8C74.7,107.7,73.5,107.4,72.5,106.9z"/>
	<path class="st2" d="M97.9,107.1l-3.8-8.2c0-0.1-0.1-0.1-0.2-0.1H90c-0.1,0-0.1,0-0.1,0.1v8.1c0,0.1,0,0.2-0.1,0.3
		c-0.1,0.1-0.2,0.1-0.3,0.1h-1.8c-0.1,0-0.2,0-0.3-0.1c-0.1-0.1-0.1-0.2-0.1-0.3V88.4c0-0.1,0-0.2,0.1-0.3c0.1-0.1,0.2-0.1,0.3-0.1
		h7.3c1.1,0,2.1,0.2,2.9,0.7c0.8,0.5,1.5,1.1,2,1.9c0.5,0.8,0.7,1.8,0.7,2.9c0,1.3-0.3,2.4-1,3.3c-0.7,0.9-1.6,1.5-2.8,1.8
		c-0.1,0-0.1,0.1-0.1,0.2l3.9,8.2l0.1,0.2c0,0.2-0.1,0.3-0.4,0.3h-1.9C98.1,107.5,98,107.3,97.9,107.1z M89.9,90.5v6.2
		c0,0.1,0,0.1,0.1,0.1h4.6c1,0,1.7-0.3,2.3-0.9c0.6-0.6,0.9-1.4,0.9-2.3c0-1-0.3-1.8-0.9-2.4c-0.6-0.6-1.4-0.9-2.4-0.9H90
		C89.9,90.3,89.9,90.4,89.9,90.5z"/>
	<path class="st2" d="M106.5,107c-1-0.4-1.8-1.1-2.4-1.9c-0.6-0.8-0.8-1.8-0.8-2.9v-0.7c0-0.1,0-0.2,0.1-0.3
		c0.1-0.1,0.2-0.1,0.3-0.1h1.8c0.1,0,0.2,0,0.3,0.1c0.1,0.1,0.1,0.2,0.1,0.3v0.5c0,0.9,0.4,1.7,1.2,2.3c0.8,0.6,1.9,0.9,3.2,0.9
		c1.3,0,2.2-0.3,2.9-0.8c0.6-0.5,1-1.2,1-2.1c0-0.6-0.2-1.1-0.5-1.5c-0.3-0.4-0.8-0.8-1.5-1.1c-0.6-0.3-1.6-0.8-2.8-1.2
		c-1.3-0.5-2.4-1-3.2-1.4c-0.8-0.4-1.4-1-2-1.7s-0.8-1.6-0.8-2.6c0-1.6,0.6-2.8,1.7-3.7c1.1-0.9,2.7-1.4,4.6-1.4
		c1.4,0,2.6,0.2,3.6,0.7c1,0.5,1.8,1.1,2.4,1.9c0.6,0.8,0.8,1.8,0.8,2.9v0.4c0,0.1,0,0.2-0.1,0.3c-0.1,0.1-0.2,0.1-0.3,0.1h-1.8
		c-0.1,0-0.2,0-0.3-0.1s-0.1-0.2-0.1-0.3v-0.3c0-1-0.4-1.8-1.2-2.4c-0.8-0.6-1.8-1-3.2-1c-1.1,0-2,0.2-2.7,0.7
		c-0.6,0.5-0.9,1.1-0.9,2c0,0.6,0.2,1.1,0.5,1.5c0.3,0.4,0.8,0.7,1.4,1c0.6,0.3,1.6,0.7,2.8,1.2c1.3,0.5,2.4,1,3.2,1.4
		c0.8,0.4,1.5,1,2,1.7c0.5,0.7,0.8,1.6,0.8,2.6c0,1.1-0.3,2-0.8,2.8c-0.5,0.8-1.3,1.4-2.3,1.9c-1,0.4-2.2,0.7-3.6,0.7
		C108.8,107.7,107.6,107.5,106.5,107z"/>
	<path class="st2" d="M138.8,90.2c-0.1,0.1-0.2,0.1-0.3,0.1h-9.6c-0.1,0-0.1,0-0.1,0.1v5.9c0,0.1,0,0.1,0.1,0.1h6.6
		c0.1,0,0.2,0,0.3,0.1c0.1,0.1,0.1,0.2,0.1,0.3v1.5c0,0.1,0,0.2-0.1,0.3c-0.1,0.1-0.2,0.1-0.3,0.1h-6.6c-0.1,0-0.1,0-0.1,0.1v8.1
		c0,0.1,0,0.2-0.1,0.3c-0.1,0.1-0.2,0.1-0.3,0.1h-1.8c-0.1,0-0.2,0-0.3-0.1c-0.1-0.1-0.1-0.2-0.1-0.3V88.5c0-0.1,0-0.2,0.1-0.3
		c0.1-0.1,0.2-0.1,0.3-0.1h12c0.1,0,0.2,0,0.3,0.1c0.1,0.1,0.1,0.2,0.1,0.3v1.5C138.9,90.1,138.8,90.2,138.8,90.2z"/>
	<path class="st2" d="M152.4,107.1l-3.8-8.2c0-0.1-0.1-0.1-0.2-0.1h-3.9c-0.1,0-0.1,0-0.1,0.1v8.1c0,0.1,0,0.2-0.1,0.3
		c-0.1,0.1-0.2,0.1-0.3,0.1h-1.8c-0.1,0-0.2,0-0.3-0.1c-0.1-0.1-0.1-0.2-0.1-0.3V88.4c0-0.1,0-0.2,0.1-0.3c0.1-0.1,0.2-0.1,0.3-0.1
		h7.3c1.1,0,2.1,0.2,2.9,0.7c0.8,0.5,1.5,1.1,2,1.9c0.5,0.8,0.7,1.8,0.7,2.9c0,1.3-0.3,2.4-1,3.3c-0.7,0.9-1.6,1.5-2.8,1.8
		c-0.1,0-0.1,0.1-0.1,0.2l3.9,8.2l0.1,0.2c0,0.2-0.1,0.3-0.4,0.3h-1.9C152.6,107.5,152.5,107.3,152.4,107.1z M144.3,90.5v6.2
		c0,0.1,0,0.1,0.1,0.1h4.6c1,0,1.7-0.3,2.3-0.9c0.6-0.6,0.9-1.4,0.9-2.3c0-1-0.3-1.8-0.9-2.4c-0.6-0.6-1.4-0.9-2.4-0.9h-4.6
		C144.4,90.3,144.3,90.4,144.3,90.5z"/>
	<path class="st2" d="M161.4,106.9c-1-0.6-1.8-1.3-2.4-2.3c-0.6-1-0.9-2.2-0.9-3.5v-6.6c0-1.3,0.3-2.5,0.9-3.5
		c0.6-1,1.4-1.8,2.4-2.3c1-0.6,2.2-0.8,3.6-0.8c1.4,0,2.6,0.3,3.6,0.8c1,0.6,1.8,1.3,2.4,2.3c0.6,1,0.9,2.2,0.9,3.5v6.6
		c0,1.3-0.3,2.5-0.9,3.5c-0.6,1-1.4,1.8-2.4,2.3c-1,0.6-2.2,0.8-3.6,0.8C163.6,107.7,162.4,107.4,161.4,106.9z M168,104.2
		c0.8-0.8,1.2-1.8,1.2-3.1v-6.7c0-1.3-0.4-2.3-1.2-3.1c-0.8-0.8-1.8-1.2-3.1-1.2c-1.3,0-2.3,0.4-3,1.2c-0.8,0.8-1.2,1.8-1.2,3.1v6.7
		c0,1.3,0.4,2.3,1.2,3.1s1.8,1.2,3,1.2C166.2,105.4,167.3,105,168,104.2z"/>
	<path class="st2" d="M176,107.3c-0.1-0.1-0.1-0.2-0.1-0.3V88.5c0-0.1,0-0.2,0.1-0.3c0.1-0.1,0.2-0.1,0.3-0.1h1.9
		c0.2,0,0.4,0.1,0.5,0.3l4.7,7.4c0.1,0.1,0.1,0.1,0.2,0l4.7-7.4c0.1-0.2,0.3-0.3,0.5-0.3h1.9c0.1,0,0.2,0,0.3,0.1
		c0.1,0.1,0.1,0.2,0.1,0.3V107c0,0.1,0,0.2-0.1,0.3c-0.1,0.1-0.2,0.1-0.3,0.1h-1.8c-0.1,0-0.2,0-0.3-0.1c-0.1-0.1-0.1-0.2-0.1-0.3
		V93c0-0.1,0-0.1-0.1-0.1c0,0-0.1,0-0.1,0.1l-3.8,6.1c-0.1,0.2-0.3,0.3-0.5,0.3H183c-0.2,0-0.4-0.1-0.5-0.3l-3.7-6.1
		c0-0.1-0.1-0.1-0.1-0.1c0,0-0.1,0.1-0.1,0.1V107c0,0.1,0,0.2-0.1,0.3c-0.1,0.1-0.2,0.1-0.3,0.1h-1.8
		C176.2,107.5,176.1,107.4,176,107.3z"/>
</g>
<g>
	<path class="st2" d="M11.2,140.1c-1.1-0.6-1.9-1.4-2.5-2.4c-0.6-1-0.9-2.2-0.9-3.5v-6.4c0-1.3,0.3-2.5,0.9-3.5
		c0.6-1,1.4-1.8,2.5-2.4c1.1-0.6,2.4-0.8,3.8-0.8c1.4,0,2.7,0.3,3.8,0.8c1.1,0.5,1.9,1.3,2.5,2.2c0.6,1,0.9,2.1,0.9,3.4
		c0,0.2-0.1,0.3-0.4,0.3l-3,0.2h-0.1c-0.3,0-0.4,0-0.4-0.1v-0.2c0-1-0.3-1.8-0.9-2.4c-0.6-0.6-1.4-0.9-2.4-0.9c-1,0-1.8,0.3-2.4,0.9
		c-0.6,0.6-0.9,1.4-0.9,2.4v6.7c0,1,0.3,1.7,0.9,2.3c0.6,0.6,1.4,0.9,2.4,0.9c1,0,1.8-0.3,2.4-0.9c0.6-0.6,0.9-1.4,0.9-2.3
		c0-0.1,0-0.2,0.1-0.2c0.1-0.1,0.2-0.1,0.3-0.1l3,0.1c0.3,0,0.5,0.1,0.5,0.1v0.1c0,1.3-0.3,2.4-0.9,3.4s-1.4,1.7-2.5,2.3
		c-1.1,0.5-2.3,0.8-3.8,0.8C13.5,140.9,12.3,140.6,11.2,140.1z"/>
	<path class="st2" d="M24.2,140.2v-2.7c0-0.2,0.1-0.4,0.2-0.6l8.9-12.1c0-0.1,0-0.1,0-0.1c0,0-0.1-0.1-0.1-0.1h-8.5
		c-0.3,0-0.5-0.2-0.5-0.5v-2.4c0-0.3,0.2-0.5,0.5-0.5h12.6c0.3,0,0.5,0.2,0.5,0.5v2.7c0,0.2-0.1,0.4-0.2,0.6l-8.9,12.1
		c0,0.1,0,0.1,0,0.1c0,0,0.1,0.1,0.1,0.1h8.5c0.3,0,0.5,0.2,0.5,0.5v2.4c0,0.3-0.2,0.5-0.5,0.5H24.7
		C24.4,140.7,24.2,140.5,24.2,140.2z"/>
	<path class="st2" d="M53.4,124.7h-8.9c-0.1,0-0.2,0.1-0.2,0.2v4.2c0,0.1,0.1,0.2,0.2,0.2h5.8c0.3,0,0.5,0.2,0.5,0.5v2.4
		c0,0.3-0.2,0.5-0.5,0.5h-5.8c-0.1,0-0.2,0.1-0.2,0.2v4.4c0,0.1,0.1,0.2,0.2,0.2h8.9c0.3,0,0.5,0.2,0.5,0.5v2.4
		c0,0.3-0.2,0.5-0.5,0.5H40.9c-0.3,0-0.5-0.2-0.5-0.5v-18.5c0-0.3,0.2-0.5,0.5-0.5h12.5c0.3,0,0.5,0.2,0.5,0.5v2.4
		C53.9,124.5,53.7,124.7,53.4,124.7z"/>
	<path class="st2" d="M59.6,140.1c-1.1-0.6-1.9-1.4-2.5-2.4c-0.6-1-0.9-2.2-0.9-3.5v-6.4c0-1.3,0.3-2.5,0.9-3.5
		c0.6-1,1.4-1.8,2.5-2.4c1.1-0.6,2.4-0.8,3.8-0.8c1.4,0,2.7,0.3,3.8,0.8s1.9,1.3,2.5,2.2c0.6,1,0.9,2.1,0.9,3.4
		c0,0.2-0.1,0.3-0.4,0.3l-3,0.2h-0.1c-0.3,0-0.4,0-0.4-0.1v-0.2c0-1-0.3-1.8-0.9-2.4c-0.6-0.6-1.4-0.9-2.4-0.9c-1,0-1.8,0.3-2.4,0.9
		c-0.6,0.6-0.9,1.4-0.9,2.4v6.7c0,1,0.3,1.7,0.9,2.3c0.6,0.6,1.4,0.9,2.4,0.9c1,0,1.8-0.3,2.4-0.9c0.6-0.6,0.9-1.4,0.9-2.3
		c0-0.1,0-0.2,0.1-0.2c0.1-0.1,0.2-0.1,0.3-0.1l3,0.1c0.3,0,0.5,0.1,0.5,0.1v0.1c0,1.3-0.3,2.4-0.9,3.4s-1.4,1.7-2.5,2.3
		c-1.1,0.5-2.3,0.8-3.8,0.8C62,140.9,60.7,140.6,59.6,140.1z"/>
	<path class="st2" d="M84.2,121.3h3c0.3,0,0.5,0.2,0.5,0.5v18.5c0,0.3-0.2,0.5-0.5,0.5h-3c-0.3,0-0.5-0.2-0.5-0.5v-7.5
		c0-0.1-0.1-0.2-0.2-0.2h-6.1c-0.1,0-0.2,0.1-0.2,0.2v7.5c0,0.3-0.2,0.5-0.5,0.5h-3c-0.3,0-0.5-0.2-0.5-0.5v-18.5
		c0-0.3,0.2-0.5,0.5-0.5h3c0.3,0,0.5,0.2,0.5,0.5v7.3c0,0.1,0.1,0.2,0.2,0.2h6.1c0.1,0,0.2-0.1,0.2-0.2v-7.3
		C83.8,121.5,83.9,121.3,84.2,121.3z"/>
	<path class="st2" d="M106.6,140.3l-3.4-7.5c0-0.1-0.1-0.1-0.2-0.1h-2.5c-0.1,0-0.2,0.1-0.2,0.2v7.4c0,0.3-0.2,0.5-0.5,0.5h-3
		c-0.3,0-0.5-0.2-0.5-0.5v-18.5c0-0.3,0.2-0.5,0.5-0.5h7.8c1.2,0,2.2,0.2,3.1,0.7c0.9,0.5,1.6,1.2,2.1,2.1c0.5,0.9,0.7,1.9,0.7,3.1
		c0,1.3-0.3,2.3-0.9,3.2c-0.6,0.9-1.5,1.5-2.6,1.9c-0.1,0-0.1,0-0.1,0.1c0,0,0,0.1,0,0.1l3.7,7.6c0.1,0.1,0.1,0.2,0.1,0.3
		c0,0.1,0,0.2-0.1,0.2c-0.1,0.1-0.2,0.1-0.3,0.1h-3.1C106.9,140.7,106.7,140.6,106.6,140.3z M100.3,124.8v4.7c0,0.1,0.1,0.2,0.2,0.2
		h3.6c0.8,0,1.4-0.2,1.9-0.7c0.5-0.5,0.7-1,0.7-1.8s-0.2-1.3-0.7-1.8c-0.5-0.5-1.1-0.7-1.9-0.7h-3.6
		C100.4,124.7,100.3,124.7,100.3,124.8z"/>
	<path class="st2" d="M126.4,124.7h-8.9c-0.1,0-0.2,0.1-0.2,0.2v4.2c0,0.1,0.1,0.2,0.2,0.2h5.8c0.3,0,0.5,0.2,0.5,0.5v2.4
		c0,0.3-0.2,0.5-0.5,0.5h-5.8c-0.1,0-0.2,0.1-0.2,0.2v4.4c0,0.1,0.1,0.2,0.2,0.2h8.9c0.3,0,0.5,0.2,0.5,0.5v2.4
		c0,0.3-0.2,0.5-0.5,0.5h-12.5c-0.3,0-0.5-0.2-0.5-0.5v-18.5c0-0.3,0.2-0.5,0.5-0.5h12.5c0.3,0,0.5,0.2,0.5,0.5v2.4
		C126.9,124.5,126.7,124.7,126.4,124.7z"/>
	<path class="st2" d="M140.8,122c0.9,0.5,1.6,1.2,2.1,2.1c0.5,0.9,0.8,2,0.8,3.1c0,1.2-0.3,2.2-0.8,3.1c-0.5,0.9-1.3,1.6-2.2,2.1
		c-1,0.5-2,0.7-3.3,0.7h-3.9c-0.1,0-0.2,0.1-0.2,0.2v6.9c0,0.3-0.2,0.5-0.5,0.5h-3c-0.3,0-0.5-0.2-0.5-0.5v-18.5
		c0-0.3,0.2-0.5,0.5-0.5h7.7C138.8,121.3,139.9,121.5,140.8,122z M139.1,129.3c0.5-0.5,0.8-1.1,0.8-1.9c0-0.8-0.3-1.5-0.8-2
		c-0.5-0.5-1.2-0.7-2-0.7h-3.5c-0.1,0-0.2,0.1-0.2,0.2v5c0,0.1,0.1,0.2,0.2,0.2h3.5C137.9,130,138.6,129.8,139.1,129.3z"/>
	<path class="st2" d="M149.4,140.1c-1.1-0.6-1.9-1.3-2.5-2.3c-0.6-1-0.9-2.2-0.9-3.5v-12.5c0-0.3,0.2-0.5,0.5-0.5h3
		c0.3,0,0.5,0.2,0.5,0.5v12.5c0,1,0.3,1.8,0.9,2.4c0.6,0.6,1.4,0.9,2.4,0.9c1,0,1.8-0.3,2.4-0.9c0.6-0.6,0.9-1.4,0.9-2.4v-12.5
		c0-0.3,0.2-0.5,0.5-0.5h3c0.3,0,0.5,0.2,0.5,0.5v12.5c0,1.3-0.3,2.5-0.9,3.5c-0.6,1-1.4,1.8-2.5,2.3c-1.1,0.6-2.3,0.8-3.8,0.8
		C151.8,140.9,150.5,140.6,149.4,140.1z"/>
	<path class="st2" d="M175,130.7c0,0,0,0.1,0.1,0.1c1.7,0.9,2.6,2.4,2.6,4.5c0,1.8-0.6,3.1-1.8,4.1c-1.2,0.9-2.8,1.4-4.8,1.4h-7
		c-0.3,0-0.5-0.2-0.5-0.5v-18.5c0-0.3,0.2-0.5,0.5-0.5h6.8c4.4,0,6.6,1.8,6.6,5.3C177.4,128.5,176.6,129.8,175,130.7
		C175,130.6,175,130.6,175,130.7z M167.5,124.8v4.3c0,0.1,0.1,0.2,0.2,0.2h3.2c0.9,0,1.5-0.2,2-0.6c0.5-0.4,0.7-1,0.7-1.7
		c0-0.7-0.2-1.3-0.7-1.7c-0.5-0.4-1.2-0.6-2-0.6h-3.2C167.5,124.7,167.5,124.7,167.5,124.8z M173.1,136.7c0.5-0.4,0.7-1,0.7-1.8
		c0-0.8-0.2-1.4-0.7-1.8c-0.5-0.4-1.2-0.7-2-0.7h-3.4c-0.1,0-0.2,0.1-0.2,0.2v4.5c0,0.1,0.1,0.2,0.2,0.2h3.4
		C171.9,137.3,172.6,137.1,173.1,136.7z"/>
	<path class="st2" d="M180.7,140.2v-18.5c0-0.3,0.2-0.5,0.5-0.5h3c0.3,0,0.5,0.2,0.5,0.5v15.4c0,0.1,0.1,0.2,0.2,0.2h8.9
		c0.3,0,0.5,0.2,0.5,0.5v2.4c0,0.3-0.2,0.5-0.5,0.5h-12.5C180.9,140.7,180.7,140.5,180.7,140.2z"/>
	<path class="st2" d="M196.6,140.2v-18.5c0-0.3,0.2-0.5,0.5-0.5h3c0.3,0,0.5,0.2,0.5,0.5v18.5c0,0.3-0.2,0.5-0.5,0.5h-3
		C196.8,140.7,196.6,140.5,196.6,140.2z"/>
	<path class="st2" d="M206.9,140.1c-1.1-0.6-1.9-1.4-2.5-2.4c-0.6-1-0.9-2.2-0.9-3.5v-6.4c0-1.3,0.3-2.5,0.9-3.5
		c0.6-1,1.4-1.8,2.5-2.4c1.1-0.6,2.4-0.8,3.8-0.8c1.4,0,2.7,0.3,3.8,0.8s1.9,1.3,2.5,2.2c0.6,1,0.9,2.1,0.9,3.4
		c0,0.2-0.1,0.3-0.4,0.3l-3,0.2h-0.1c-0.3,0-0.4,0-0.4-0.1v-0.2c0-1-0.3-1.8-0.9-2.4c-0.6-0.6-1.4-0.9-2.4-0.9c-1,0-1.8,0.3-2.4,0.9
		c-0.6,0.6-0.9,1.4-0.9,2.4v6.7c0,1,0.3,1.7,0.9,2.3c0.6,0.6,1.4,0.9,2.4,0.9c1,0,1.8-0.3,2.4-0.9c0.6-0.6,0.9-1.4,0.9-2.3
		c0-0.1,0-0.2,0.1-0.2c0.1-0.1,0.2-0.1,0.3-0.1l3,0.1c0.3,0,0.5,0.1,0.5,0.1v0.1c0,1.3-0.3,2.4-0.9,3.4s-1.4,1.7-2.5,2.3
		c-1.1,0.5-2.3,0.8-3.8,0.8C209.3,140.9,208,140.6,206.9,140.1z"/>
</g>
</svg>
