<?xml version="1.0" encoding="utf-8"?>
<!-- Generator: Adobe Illustrator 27.5.0, SVG Export Plug-In . SVG Version: 6.00 Build 0)  -->
<svg version="1.1" id="Layer_1" xmlns="http://www.w3.org/2000/svg" xmlns:xlink="http://www.w3.org/1999/xlink" x="0px" y="0px"
	 viewBox="0 0 199.9 152" style="enable-background:new 0 0 199.9 152;" xml:space="preserve">
<style type="text/css">
	.st0{display:none;}
	.st1{display:inline;}
	.st2{fill:#BB945B;}
</style>
<g id="Layer_1_00000139290838505137882250000008945365908696768701_" class="st0">
	<g class="st1">
		<path class="st2" d="M58.2,70.6v-1.5c0-0.4,0.1-0.8,0.3-1l8.7-11.4c3.8-4.9,7.6-9.7,11.2-14.6c5.6-7.3,8.3-13.2,8.3-17.4
			c0-3.5-1.2-6.3-3.5-8.4s-5.5-3.2-9.3-3.2s-6.8,1.1-9.1,3.2c-2.3,2.1-3.4,5-3.3,8.5v2.9c0,0.6-0.3,0.9-0.9,0.9H59
			c-0.6,0-0.9-0.3-0.9-0.9v-3.2c0.1-4.3,1.5-7.8,4.5-10.4c2.9-2.7,6.7-4,11.3-4c4.9,0,8.8,1.4,11.8,4.1s4.5,6.3,4.5,10.6
			c0,5-2.8,11.2-8.5,18.7c-3.8,5.1-8.8,11.5-14.8,19.4L62.7,68c-0.2,0.3-0.1,0.4,0.2,0.4h28.6c0.6,0,0.9,0.3,0.9,0.9v1.3
			c0,0.6-0.3,0.9-0.9,0.9H59C58.4,71.5,58.2,71.2,58.2,70.6z"/>
		<path class="st2" d="M109.8,67.8c-3.1-3-4.7-7-4.7-11.9V26.4c0-5,1.6-9,4.7-11.9c3.1-3,7.3-4.5,12.5-4.5s9.4,1.5,12.6,4.5
			c3.2,3,4.8,7,4.8,11.9v29.5c0,4.9-1.6,8.9-4.8,11.9s-7.4,4.5-12.6,4.5S112.9,70.8,109.8,67.8z M132.5,65.6
			c2.5-2.4,3.8-5.6,3.8-9.6V26.2c0-3.9-1.3-7.1-3.8-9.5s-5.9-3.6-10.2-3.6c-4.1,0-7.4,1.2-10,3.6c-2.5,2.4-3.8,5.6-3.8,9.5V56
			c0,4,1.3,7.2,3.8,9.6c2.5,2.4,5.9,3.6,10,3.6C126.5,69.2,129.9,68,132.5,65.6z"/>
		<path class="st2" d="M7.6,107.8c-0.1-0.1-0.1-0.2-0.1-0.3V88.7c0-0.1,0-0.2,0.1-0.3c0.1-0.1,0.2-0.1,0.3-0.1h1.9
			c0.2,0,0.4,0.1,0.5,0.3l4.7,7.5c0.1,0.1,0.1,0.1,0.2,0l4.7-7.5c0.1-0.2,0.3-0.3,0.5-0.3h1.9c0.1,0,0.2,0,0.3,0.1
			c0.1,0.1,0.1,0.2,0.1,0.3v18.8c0,0.1,0,0.2-0.1,0.3c-0.1,0.1-0.2,0.1-0.3,0.1h-1.8c-0.1,0-0.2,0-0.3-0.1c-0.1-0.1-0.1-0.2-0.1-0.3
			V93.3c0-0.1,0-0.1-0.1-0.1c0,0-0.1,0-0.1,0.1L16,99.4c-0.1,0.2-0.3,0.3-0.5,0.3h-0.9c-0.2,0-0.4-0.1-0.5-0.3l-3.8-6.2
			c0-0.1-0.1-0.1-0.1-0.1l-0.1,0.1v14.2c0,0.1,0,0.2-0.1,0.3c-0.1,0.1-0.2,0.1-0.3,0.1H7.9C7.8,107.9,7.7,107.9,7.6,107.8z"/>
		<path class="st2" d="M27.4,107.8c-0.1-0.1-0.1-0.2-0.1-0.3V88.7c0-0.1,0-0.2,0.1-0.3c0.1-0.1,0.2-0.1,0.3-0.1h1.8
			c0.1,0,0.2,0,0.3,0.1c0.1,0.1,0.1,0.2,0.1,0.3v18.8c0,0.1,0,0.2-0.1,0.3c-0.1,0.1-0.2,0.1-0.3,0.1h-1.8
			C27.6,107.9,27.5,107.9,27.4,107.8z"/>
		<path class="st2" d="M34.7,107.8c-0.1-0.1-0.1-0.2-0.1-0.3V88.7c0-0.1,0-0.2,0.1-0.3c0.1-0.1,0.2-0.1,0.3-0.1h1.8
			c0.2,0,0.4,0.1,0.5,0.3l8.6,13.9c0,0.1,0.1,0.1,0.1,0.1l0.1-0.1V88.7c0-0.1,0-0.2,0.1-0.3c0.1-0.1,0.2-0.1,0.3-0.1h1.8
			c0.1,0,0.2,0,0.3,0.1s0.1,0.2,0.1,0.3v18.8c0,0.1,0,0.2-0.1,0.3c-0.1,0.1-0.2,0.1-0.3,0.1h-1.8c-0.2,0-0.4-0.1-0.5-0.3l-8.6-13.9
			c0-0.1-0.1-0.1-0.1-0.1l-0.1,0.1v13.7c0,0.1,0,0.2-0.1,0.3c-0.1,0.1-0.2,0.1-0.3,0.1H35C34.9,107.9,34.8,107.9,34.7,107.8z"/>
		<path class="st2" d="M56.4,107.3c-1-0.5-1.8-1.3-2.4-2.3c-0.6-1-0.9-2.1-0.9-3.4v-13c0-0.1,0-0.2,0.1-0.3c0.1-0.1,0.2-0.1,0.3-0.1
			h1.8c0.1,0,0.2,0,0.3,0.1s0.1,0.2,0.1,0.3v13c0,1.2,0.4,2.2,1.2,2.9c0.8,0.7,1.8,1.1,3,1.1s2.3-0.4,3-1.1c0.8-0.7,1.1-1.7,1.1-2.9
			v-13c0-0.1,0-0.2,0.1-0.3c0.1-0.1,0.2-0.1,0.3-0.1h1.8c0.1,0,0.2,0,0.3,0.1c0.1,0.1,0.1,0.2,0.1,0.3v13c0,1.3-0.3,2.4-0.9,3.4
			s-1.4,1.7-2.4,2.3c-1,0.5-2.2,0.8-3.6,0.8C58.6,108.1,57.4,107.9,56.4,107.3z"/>
		<path class="st2" d="M83.9,88.4c0.1,0.1,0.1,0.2,0.1,0.3v1.5c0,0.1,0,0.2-0.1,0.3c-0.1,0.1-0.2,0.1-0.3,0.1h-5.2
			c-0.1,0-0.1,0-0.1,0.1v16.7c0,0.1,0,0.2-0.1,0.3c-0.1,0.1-0.2,0.1-0.3,0.1h-1.8c-0.1,0-0.2,0-0.3-0.1c-0.1-0.1-0.1-0.2-0.1-0.3
			V90.8c0-0.1,0-0.1-0.1-0.1h-5c-0.1,0-0.2,0-0.3-0.1C70,90.5,70,90.4,70,90.2v-1.5c0-0.1,0-0.2,0.1-0.3c0.1-0.1,0.2-0.1,0.3-0.1
			h13.1C83.7,88.3,83.8,88.3,83.9,88.4z"/>
		<path class="st2" d="M100.2,90.5c-0.1,0.1-0.2,0.1-0.3,0.1h-9.8c-0.1,0-0.1,0-0.1,0.1v6c0,0.1,0,0.1,0.1,0.1h6.7
			c0.1,0,0.2,0,0.3,0.1s0.1,0.2,0.1,0.3v1.5c0,0.1,0,0.2-0.1,0.3c-0.1,0.1-0.2,0.1-0.3,0.1h-6.7c-0.1,0-0.1,0-0.1,0.1v6.1
			c0,0.1,0,0.1,0.1,0.1h9.8c0.1,0,0.2,0,0.3,0.1c0.1,0.1,0.1,0.2,0.1,0.3v1.5c0,0.1,0,0.2-0.1,0.3c-0.1,0.1-0.2,0.1-0.3,0.1H87.7
			c-0.1,0-0.2,0-0.3-0.1c-0.1-0.1-0.1-0.2-0.1-0.3V88.7c0-0.1,0-0.2,0.1-0.3c0.1-0.1,0.2-0.1,0.3-0.1h12.2c0.1,0,0.2,0,0.3,0.1
			c0.1,0.1,0.1,0.2,0.1,0.3v1.5C100.3,90.3,100.3,90.4,100.2,90.5z"/>
		<path class="st2" d="M106.4,107.5c-1-0.4-1.9-1.1-2.4-1.9c-0.6-0.8-0.9-1.8-0.9-2.9V102c0-0.1,0-0.2,0.1-0.3
			c0.1-0.1,0.2-0.1,0.3-0.1h1.8c0.1,0,0.2,0,0.3,0.1c0.1,0.1,0.1,0.2,0.1,0.3v0.5c0,1,0.4,1.7,1.2,2.4s1.9,0.9,3.3,0.9
			c1.3,0,2.3-0.3,2.9-0.8s1-1.3,1-2.1c0-0.6-0.2-1.1-0.5-1.5s-0.8-0.8-1.5-1.1s-1.6-0.8-2.8-1.2c-1.4-0.5-2.4-1-3.2-1.4
			c-0.8-0.4-1.5-1-2-1.7s-0.8-1.6-0.8-2.6c0-1.6,0.6-2.9,1.7-3.8s2.7-1.4,4.7-1.4c1.4,0,2.6,0.2,3.6,0.7s1.9,1.1,2.4,2
			s0.9,1.8,0.9,2.9v0.4c0,0.1,0,0.2-0.1,0.3c-0.1,0.1-0.2,0.1-0.3,0.1h-1.8c-0.1,0-0.2,0-0.3-0.1c-0.1-0.1-0.1-0.2-0.1-0.3v-0.3
			c0-1-0.4-1.8-1.2-2.4c-0.8-0.6-1.8-1-3.2-1c-1.2,0-2.1,0.2-2.7,0.7s-1,1.2-1,2.1c0,0.6,0.2,1.1,0.5,1.5s0.8,0.7,1.4,1
			s1.6,0.7,2.9,1.2s2.4,1,3.2,1.4s1.5,1,2,1.7s0.8,1.6,0.8,2.7s-0.3,2-0.8,2.8s-1.3,1.4-2.4,1.9c-1,0.4-2.2,0.7-3.6,0.7
			C108.7,108.1,107.5,107.9,106.4,107.5z"/>
		<path class="st2" d="M139,90.5c-0.1,0.1-0.2,0.1-0.3,0.1H129c-0.1,0-0.1,0-0.1,0.1v6c0,0.1,0,0.1,0.1,0.1h6.6c0.1,0,0.2,0,0.3,0.1
			s0.1,0.2,0.1,0.3v1.5c0,0.1,0,0.2-0.1,0.3c-0.1,0.1-0.2,0.1-0.3,0.1H129c-0.1,0-0.1,0-0.1,0.1v8.1c0,0.1,0,0.2-0.1,0.3
			c-0.1,0.1-0.2,0.1-0.3,0.1h-1.8c-0.1,0-0.2,0-0.3-0.1c-0.1-0.1-0.1-0.2-0.1-0.3V88.7c0-0.1,0-0.2,0.1-0.3c0.1-0.1,0.2-0.1,0.3-0.1
			h12.2c0.1,0,0.2,0,0.3,0.1s0.1,0.2,0.1,0.3v1.5C139.1,90.3,139.1,90.4,139,90.5z"/>
		<path class="st2" d="M152.7,107.6l-3.9-8.3c0-0.1-0.1-0.1-0.2-0.1h-3.9c-0.1,0-0.1,0-0.1,0.1v8.1c0,0.1,0,0.2-0.1,0.3
			c-0.1,0.1-0.2,0.1-0.3,0.1h-1.8c-0.1,0-0.2,0-0.3-0.1s-0.1-0.2-0.1-0.3V88.7c0-0.1,0-0.2,0.1-0.3c0.1-0.1,0.2-0.1,0.3-0.1h7.4
			c1.1,0,2.1,0.2,3,0.7c0.8,0.5,1.5,1.1,2,2c0.5,0.8,0.7,1.8,0.7,2.9c0,1.3-0.3,2.4-1,3.3s-1.6,1.5-2.8,1.8c-0.1,0-0.1,0.1-0.1,0.2
			l4,8.3l0.1,0.2c0,0.2-0.1,0.3-0.4,0.3h-1.9C153,107.9,152.8,107.8,152.7,107.6z M144.6,90.7V97c0,0.1,0,0.1,0.1,0.1h4.6
			c1,0,1.8-0.3,2.4-0.9s0.9-1.4,0.9-2.3c0-1-0.3-1.8-0.9-2.4c-0.6-0.6-1.4-0.9-2.4-0.9h-4.6C144.7,90.6,144.6,90.6,144.6,90.7z"/>
		<path class="st2" d="M161.9,107.3c-1-0.6-1.9-1.3-2.4-2.4c-0.6-1-0.9-2.2-0.9-3.5v-6.7c0-1.3,0.3-2.5,0.9-3.5
			c0.6-1,1.4-1.8,2.4-2.4s2.2-0.8,3.6-0.8c1.4,0,2.6,0.3,3.6,0.8c1,0.6,1.9,1.3,2.4,2.4c0.6,1,0.9,2.2,0.9,3.5v6.7
			c0,1.3-0.3,2.5-0.9,3.5c-0.6,1-1.4,1.8-2.4,2.4s-2.3,0.8-3.6,0.8C164.1,108.2,162.9,107.9,161.9,107.3z M168.6,104.7
			c0.8-0.8,1.2-1.8,1.2-3.1v-6.8c0-1.3-0.4-2.4-1.2-3.2c-0.8-0.8-1.8-1.2-3.1-1.2s-2.3,0.4-3.1,1.2c-0.8,0.8-1.2,1.8-1.2,3.2v6.8
			c0,1.3,0.4,2.3,1.2,3.1c0.8,0.8,1.8,1.2,3.1,1.2S167.8,105.4,168.6,104.7z"/>
		<path class="st2" d="M176.6,107.8c-0.1-0.1-0.1-0.2-0.1-0.3V88.7c0-0.1,0-0.2,0.1-0.3c0.1-0.1,0.2-0.1,0.3-0.1h1.9
			c0.2,0,0.4,0.1,0.5,0.3l4.7,7.5c0.1,0.1,0.1,0.1,0.2,0l4.7-7.5c0.1-0.2,0.3-0.3,0.5-0.3h1.9c0.1,0,0.2,0,0.3,0.1s0.1,0.2,0.1,0.3
			v18.8c0,0.1,0,0.2-0.1,0.3c-0.1,0.1-0.2,0.1-0.3,0.1h-1.8c-0.1,0-0.2,0-0.3-0.1s-0.1-0.2-0.1-0.3V93.3c0-0.1,0-0.1-0.1-0.1
			c0,0-0.1,0-0.1,0.1l-3.8,6.2c-0.1,0.2-0.3,0.3-0.5,0.3h-0.9c-0.2,0-0.4-0.1-0.5-0.3l-3.8-6.2c0-0.1-0.1-0.1-0.1-0.1l-0.1,0.1v14.2
			c0,0.1,0,0.2-0.1,0.3c-0.1,0.1-0.2,0.1-0.3,0.1H177C176.8,107.9,176.7,107.9,176.6,107.8z"/>
		<path class="st2" d="M64.9,131.3c0,0,0,0.1,0.1,0.1c1.8,0.9,2.6,2.4,2.6,4.5c0,1.8-0.6,3.2-1.8,4.1c-1.2,0.9-2.8,1.4-4.8,1.4h-7.1
			c-0.3,0-0.5-0.2-0.5-0.5v-18.6c0-0.3,0.2-0.5,0.5-0.5h6.9c4.4,0,6.6,1.8,6.6,5.4C67.4,129.2,66.6,130.5,64.9,131.3
			C65,131.3,64.9,131.3,64.9,131.3z M57.3,125.5v4.3c0,0.1,0.1,0.2,0.2,0.2h3.2c0.9,0,1.6-0.2,2-0.6c0.5-0.4,0.7-1,0.7-1.7
			s-0.2-1.3-0.7-1.7s-1.2-0.6-2-0.6h-3.2C57.4,125.3,57.3,125.3,57.3,125.5z M63,137.4c0.5-0.4,0.7-1,0.7-1.8s-0.2-1.4-0.7-1.8
			s-1.2-0.7-2-0.7h-3.4c-0.1,0-0.2,0.1-0.2,0.2v4.6c0,0.1,0.1,0.2,0.2,0.2H61C61.8,138.1,62.5,137.9,63,137.4z"/>
		<path class="st2" d="M73.8,140.9c-1.1-0.6-2-1.4-2.6-2.5s-0.9-2.3-0.9-3.7v-6c0-1.4,0.3-2.6,0.9-3.7s1.5-1.9,2.6-2.5
			s2.4-0.9,3.8-0.9c1.5,0,2.8,0.3,3.9,0.9s2,1.4,2.6,2.5s0.9,2.3,0.9,3.7v6c0,1.4-0.3,2.6-0.9,3.7c-0.6,1.1-1.5,1.9-2.6,2.5
			s-2.4,0.9-3.9,0.9C76.2,141.8,74.9,141.5,73.8,140.9z M80.2,137.4c0.6-0.7,1-1.5,1-2.6v-6.2c0-1.1-0.3-2-0.9-2.6
			c-0.6-0.7-1.5-1-2.5-1s-1.9,0.3-2.5,1s-0.9,1.5-0.9,2.6v6.2c0,1.1,0.3,2,0.9,2.6c0.6,0.7,1.5,1,2.5,1S79.5,138.1,80.2,137.4z"/>
		<path class="st2" d="M90.9,141c-1.1-0.5-2-1.2-2.5-2c-0.6-0.9-0.9-1.9-0.9-3.1v-0.5c0-0.3,0.2-0.5,0.5-0.5h2.9
			c0.3,0,0.5,0.1,0.5,0.4v0.4c0,0.7,0.3,1.4,1,1.9s1.6,0.8,2.7,0.8c1,0,1.7-0.2,2.2-0.6c0.5-0.4,0.7-0.9,0.7-1.6
			c0-0.4-0.2-0.8-0.4-1.1c-0.3-0.3-0.7-0.6-1.2-0.8s-1.3-0.6-2.4-1c-1.3-0.4-2.3-0.9-3.2-1.3c-0.9-0.4-1.6-1.1-2.2-1.8
			c-0.6-0.8-0.9-1.7-0.9-2.9c0-1.1,0.3-2.1,0.9-2.9s1.4-1.5,2.4-1.9s2.2-0.7,3.5-0.7c1.4,0,2.7,0.3,3.8,0.8s2,1.2,2.6,2.1
			s0.9,2,0.9,3.2v0.3c0,0.3-0.2,0.5-0.5,0.5h-2.9c-0.3,0-0.5-0.1-0.5-0.3v-0.3c0-0.8-0.3-1.5-1-2s-1.5-0.8-2.6-0.8
			c-0.9,0-1.6,0.2-2.1,0.6s-0.7,0.9-0.7,1.5c0,0.5,0.1,0.9,0.4,1.2s0.7,0.6,1.3,0.9c0.6,0.3,1.5,0.6,2.6,1c1.3,0.5,2.3,0.9,3.1,1.3
			s1.5,0.9,2.1,1.7c0.6,0.7,0.9,1.7,0.9,2.9c0,1.1-0.3,2.1-0.9,3s-1.4,1.5-2.5,2s-2.3,0.7-3.8,0.7S92,141.5,90.9,141z"/>
		<path class="st2" d="M104.7,141v-18.6c0-0.3,0.2-0.5,0.5-0.5h2.9c0.2,0,0.4,0.1,0.6,0.3l7,11.6c0,0.1,0.1,0.1,0.1,0.1l0.1-0.1
			v-11.4c0-0.3,0.2-0.5,0.5-0.5h2.9c0.3,0,0.5,0.2,0.5,0.5V141c0,0.3-0.2,0.5-0.5,0.5h-2.9c-0.2,0-0.4-0.1-0.6-0.3l-7-11.8
			c0-0.1-0.1-0.1-0.1-0.1l-0.1,0.1V141c0,0.3-0.2,0.5-0.5,0.5h-3C104.8,141.5,104.7,141.3,104.7,141z"/>
		<path class="st2" d="M123.1,141v-18.6c0-0.3,0.2-0.5,0.5-0.5h3c0.3,0,0.5,0.2,0.5,0.5V141c0,0.3-0.2,0.5-0.5,0.5h-3
			C123.3,141.5,123.1,141.3,123.1,141z"/>
		<path class="st2" d="M142.5,141.1l-0.8-2.6c0-0.1-0.1-0.1-0.2-0.1h-6.9c-0.1,0-0.1,0-0.2,0.1l-0.8,2.6c-0.1,0.3-0.3,0.4-0.5,0.4
			H130c-0.2,0-0.3-0.1-0.4-0.2c-0.1-0.1-0.1-0.2,0-0.4l6-18.7c0.1-0.3,0.3-0.4,0.5-0.4h4.1c0.3,0,0.4,0.1,0.5,0.4l6,18.7
			c0,0,0,0.1,0,0.2c0,0.1,0,0.2-0.1,0.3s-0.2,0.1-0.3,0.1h-3.2C142.8,141.5,142.6,141.4,142.5,141.1z M135.7,135.3h5
			c0.1,0,0.2-0.1,0.1-0.2l-2.5-8.5c0-0.1-0.1-0.1-0.1-0.1s-0.1,0-0.1,0.1l-2.5,8.5C135.5,135.2,135.6,135.3,135.7,135.3z"/>
	</g>
</g>
<g id="Layer_2_00000178202316443337656830000014593538981539322799_" class="st0">
	<g class="st1">
		<path class="st2" d="M-796.5-1.5h1.9c0.6,0,0.9,0.3,0.9,0.9v59c0,0.6-0.3,0.9-0.9,0.9h-1.6c-0.6,0-0.9-0.3-0.9-0.9V2.8
			c0-0.1,0-0.2-0.1-0.3s-0.2-0.1-0.3,0l-10,4.9l-0.4,0.2c-0.2,0-0.3-0.1-0.4-0.2c-0.1-0.1-0.2-0.3-0.2-0.6v-1c0-0.4,0.2-0.8,0.6-1
			l10.3-6.1C-797.4-1.4-797-1.5-796.5-1.5z"/>
		<path class="st2" d="M-745.5,40.8c0,2.8-0.2,5.1-0.5,6.9c-0.8,3.8-2.6,6.7-5.4,8.9c-2.8,2.2-6.2,3.3-10.2,3.3
			c-3.9,0-7.2-1-9.9-3.1s-4.5-4.9-5.4-8.3c-0.3-1-0.5-2.1-0.6-3.2v-0.2c0-0.5,0.3-0.7,0.8-0.7h1.7c0.6,0,0.9,0.3,0.9,0.9
			c0.1,0.8,0.2,1.4,0.3,1.8c0.6,3,2,5.3,4.1,7.1c2.2,1.8,4.8,2.6,8,2.6c3.3,0,6-0.9,8.2-2.8c2.2-1.9,3.6-4.4,4.2-7.7
			c0.2-1.2,0.3-3,0.3-5.5c0-1.9-0.1-4-0.3-6.2c-0.4-3.2-1.7-5.6-3.9-7.2s-5-2.5-8.5-2.5c-3,0-5.6,0.7-7.8,2s-3.7,3.1-4.5,5.4
			c-0.1,0.5-0.4,0.7-1,0.7h-1.7c-0.6,0-0.9-0.3-0.9-0.9V-0.7c0-0.6,0.3-0.9,0.9-0.9h27.7c0.6,0,0.9,0.3,0.9,0.9v1.3
			c0,0.6-0.3,0.9-0.9,0.9h-24.8c-0.2,0-0.3,0.1-0.3,0.3l-0.1,24.8c0,0.1,0,0.2,0.1,0.3c0.1,0.1,0.2,0,0.3-0.1
			c1.3-1.6,3.1-2.8,5.3-3.7c2.2-0.9,4.6-1.3,7.1-1.3c4,0,7.5,1,10.2,2.9s4.5,4.8,5.2,8.5C-745.7,35.6-745.5,38.1-745.5,40.8z"/>
	</g>
	<g class="st1">
		<path class="st2" d="M-869.3,95.5c-0.1-0.1-0.1-0.2-0.1-0.3V76.5c0-0.1,0-0.2,0.1-0.3c0.1-0.1,0.2-0.1,0.3-0.1h1.9
			c0.2,0,0.4,0.1,0.5,0.3l4.7,7.5c0.1,0.1,0.1,0.1,0.2,0l4.7-7.5c0.1-0.2,0.3-0.3,0.5-0.3h1.9c0.1,0,0.2,0,0.3,0.1s0.1,0.2,0.1,0.3
			v18.8c0,0.1,0,0.2-0.1,0.3c-0.1,0.1-0.2,0.1-0.3,0.1h-1.8c-0.1,0-0.2,0-0.3-0.1s-0.1-0.2-0.1-0.3V81c0-0.1,0-0.1-0.1-0.1
			c0,0-0.1,0-0.1,0.1l-3.8,6.2c-0.1,0.2-0.3,0.3-0.5,0.3h-0.9c-0.2,0-0.4-0.1-0.5-0.3l-3.8-6.2c0-0.1-0.1-0.1-0.1-0.1l-0.1,0.1v14.2
			c0,0.1,0,0.2-0.1,0.3c-0.1,0.1-0.2,0.1-0.3,0.1h-1.8C-869.2,95.6-869.3,95.6-869.3,95.5z"/>
		<path class="st2" d="M-849.5,95.5c-0.1-0.1-0.1-0.2-0.1-0.3V76.5c0-0.1,0-0.2,0.1-0.3c0.1-0.1,0.2-0.1,0.3-0.1h1.8
			c0.1,0,0.2,0,0.3,0.1s0.1,0.2,0.1,0.3v18.8c0,0.1,0,0.2-0.1,0.3c-0.1,0.1-0.2,0.1-0.3,0.1h-1.8C-849.4,95.6-849.5,95.6-849.5,95.5
			z"/>
		<path class="st2" d="M-842.3,95.5c-0.1-0.1-0.1-0.2-0.1-0.3V76.5c0-0.1,0-0.2,0.1-0.3c0.1-0.1,0.2-0.1,0.3-0.1h1.8
			c0.2,0,0.4,0.1,0.5,0.3l8.6,13.9c0,0.1,0.1,0.1,0.1,0.1l0.1-0.1V76.5c0-0.1,0-0.2,0.1-0.3c0.1-0.1,0.2-0.1,0.3-0.1h1.8
			c0.1,0,0.2,0,0.3,0.1s0.1,0.2,0.1,0.3v18.8c0,0.1,0,0.2-0.1,0.3c-0.1,0.1-0.2,0.1-0.3,0.1h-1.8c-0.2,0-0.4-0.1-0.5-0.3l-8.6-13.9
			c0-0.1-0.1-0.1-0.1-0.1l-0.1,0.1v13.7c0,0.1,0,0.2-0.1,0.3c-0.1,0.1-0.2,0.1-0.3,0.1h-1.8C-842.1,95.6-842.2,95.6-842.3,95.5z"/>
		<path class="st2" d="M-820.6,95.1c-1-0.5-1.8-1.3-2.4-2.3c-0.6-1-0.9-2.1-0.9-3.4v-13c0-0.1,0-0.2,0.1-0.3
			c0.1-0.1,0.2-0.1,0.3-0.1h1.8c0.1,0,0.2,0,0.3,0.1s0.1,0.2,0.1,0.3v13c0,1.2,0.4,2.2,1.2,2.9c0.8,0.7,1.8,1.1,3,1.1s2.3-0.4,3-1.1
			c0.8-0.7,1.1-1.7,1.1-2.9v-13c0-0.1,0-0.2,0.1-0.3c0.1-0.1,0.2-0.1,0.3-0.1h1.8c0.1,0,0.2,0,0.3,0.1s0.1,0.2,0.1,0.3v13
			c0,1.3-0.3,2.4-0.9,3.4c-0.6,1-1.4,1.7-2.4,2.3s-2.2,0.8-3.6,0.8C-818.3,95.9-819.5,95.6-820.6,95.1z"/>
		<path class="st2" d="M-793.1,76.1c0.1,0.1,0.1,0.2,0.1,0.3V78c0,0.1,0,0.2-0.1,0.3c-0.1,0.1-0.2,0.1-0.3,0.1h-5.2
			c-0.1,0-0.1,0-0.1,0.1v16.7c0,0.1,0,0.2-0.1,0.3c-0.1,0.1-0.2,0.1-0.3,0.1h-1.8c-0.1,0-0.2,0-0.3-0.1s-0.1-0.2-0.1-0.3V78.5
			c0-0.1,0-0.1-0.1-0.1h-5c-0.1,0-0.2,0-0.3-0.1s-0.1-0.2-0.1-0.3v-1.5c0-0.1,0-0.2,0.1-0.3c0.1-0.1,0.2-0.1,0.3-0.1h13.1
			C-793.3,76-793.2,76.1-793.1,76.1z"/>
		<path class="st2" d="M-776.7,78.2c-0.1,0.1-0.2,0.1-0.3,0.1h-9.8c-0.1,0-0.1,0-0.1,0.1v6c0,0.1,0,0.1,0.1,0.1h6.7
			c0.1,0,0.2,0,0.3,0.1s0.1,0.2,0.1,0.3v1.5c0,0.1,0,0.2-0.1,0.3c-0.1,0.1-0.2,0.1-0.3,0.1h-6.7c-0.1,0-0.1,0-0.1,0.1V93
			c0,0.1,0,0.1,0.1,0.1h9.8c0.1,0,0.2,0,0.3,0.1s0.1,0.2,0.1,0.3V95c0,0.1,0,0.2-0.1,0.3c-0.1,0.1-0.2,0.1-0.3,0.1h-12.2
			c-0.1,0-0.2,0-0.3-0.1s-0.1-0.2-0.1-0.3V76.5c0-0.1,0-0.2,0.1-0.3c0.1-0.1,0.2-0.1,0.3-0.1h12.2c0.1,0,0.2,0,0.3,0.1
			s0.1,0.2,0.1,0.3V78C-776.6,78.1-776.7,78.2-776.7,78.2z"/>
		<path class="st2" d="M-770.5,95.2c-1-0.4-1.9-1.1-2.4-1.9s-0.9-1.8-0.9-2.9v-0.7c0-0.1,0-0.2,0.1-0.3s0.2-0.1,0.3-0.1h1.8
			c0.1,0,0.2,0,0.3,0.1s0.1,0.2,0.1,0.3v0.5c0,1,0.4,1.7,1.2,2.4c0.8,0.6,1.9,0.9,3.3,0.9c1.3,0,2.3-0.3,2.9-0.8
			c0.7-0.5,1-1.2,1-2.1c0-0.6-0.2-1.1-0.5-1.5s-0.8-0.8-1.5-1.1c-0.6-0.3-1.6-0.8-2.8-1.2c-1.4-0.5-2.4-1-3.2-1.4s-1.5-1-2-1.7
			s-0.8-1.6-0.8-2.6c0-1.6,0.6-2.9,1.7-3.8c1.1-0.9,2.7-1.4,4.7-1.4c1.4,0,2.6,0.2,3.6,0.7s1.9,1.1,2.4,2s0.9,1.8,0.9,2.9v0.4
			c0,0.1,0,0.2-0.1,0.3c-0.1,0.1-0.2,0.1-0.3,0.1h-1.8c-0.1,0-0.2,0-0.3-0.1s-0.1-0.2-0.1-0.3v-0.3c0-1-0.4-1.8-1.2-2.4
			s-1.8-1-3.2-1c-1.2,0-2.1,0.2-2.7,0.7c-0.6,0.5-1,1.2-1,2.1c0,0.6,0.2,1.1,0.5,1.5s0.8,0.7,1.4,1s1.6,0.7,2.9,1.2
			c1.3,0.5,2.4,1,3.2,1.4s1.5,1,2,1.7s0.8,1.6,0.8,2.7s-0.3,2-0.8,2.8s-1.3,1.4-2.4,1.9c-1,0.4-2.2,0.7-3.6,0.7
			C-768.3,95.9-769.5,95.6-770.5,95.2z"/>
		<path class="st2" d="M-738,78.2c-0.1,0.1-0.2,0.1-0.3,0.1h-9.7c-0.1,0-0.1,0-0.1,0.1v6c0,0.1,0,0.1,0.1,0.1h6.6
			c0.1,0,0.2,0,0.3,0.1s0.1,0.2,0.1,0.3v1.5c0,0.1,0,0.2-0.1,0.3c-0.1,0.1-0.2,0.1-0.3,0.1h-6.6c-0.1,0-0.1,0-0.1,0.1V95
			c0,0.1,0,0.2-0.1,0.3c-0.1,0.1-0.2,0.1-0.3,0.1h-1.8c-0.1,0-0.2,0-0.3-0.1s-0.1-0.2-0.1-0.3V76.5c0-0.1,0-0.2,0.1-0.3
			c0.1-0.1,0.2-0.1,0.3-0.1h12.2c0.1,0,0.2,0,0.3,0.1s0.1,0.2,0.1,0.3V78C-737.9,78.1-737.9,78.2-738,78.2z"/>
		<path class="st2" d="M-724.2,95.3l-3.9-8.3c0-0.1-0.1-0.1-0.2-0.1h-3.9c-0.1,0-0.1,0-0.1,0.1v8.1c0,0.1,0,0.2-0.1,0.3
			c-0.1,0.1-0.2,0.1-0.3,0.1h-1.8c-0.1,0-0.2,0-0.3-0.1s-0.1-0.2-0.1-0.3V76.4c0-0.1,0-0.2,0.1-0.3c0.1-0.1,0.2-0.1,0.3-0.1h7.4
			c1.1,0,2.1,0.2,3,0.7s1.5,1.1,2,2c0.5,0.8,0.7,1.8,0.7,2.9c0,1.3-0.3,2.4-1,3.3s-1.6,1.5-2.8,1.8c-0.1,0-0.1,0.1-0.1,0.2l4,8.3
			l0.1,0.2c0,0.2-0.1,0.3-0.4,0.3h-1.9C-724,95.6-724.1,95.5-724.2,95.3z M-732.3,78.5v6.2c0,0.1,0,0.1,0.1,0.1h4.6
			c1,0,1.8-0.3,2.4-0.9c0.6-0.6,0.9-1.4,0.9-2.3c0-1-0.3-1.8-0.9-2.4c-0.6-0.6-1.4-0.9-2.4-0.9h-4.6
			C-732.3,78.3-732.3,78.4-732.3,78.5z"/>
		<path class="st2" d="M-715.1,95c-1-0.6-1.9-1.3-2.4-2.4c-0.6-1-0.9-2.2-0.9-3.5v-6.7c0-1.3,0.3-2.5,0.9-3.5c0.6-1,1.4-1.8,2.4-2.4
			s2.2-0.8,3.6-0.8c1.4,0,2.6,0.3,3.6,0.8c1,0.6,1.9,1.3,2.4,2.4c0.6,1,0.9,2.2,0.9,3.5v6.7c0,1.3-0.3,2.5-0.9,3.5
			c-0.6,1-1.4,1.8-2.4,2.4s-2.3,0.8-3.6,0.8C-712.8,95.9-714,95.6-715.1,95z M-708.4,92.4c0.8-0.8,1.2-1.8,1.2-3.1v-6.8
			c0-1.3-0.4-2.4-1.2-3.1c-0.8-0.8-1.8-1.2-3.1-1.2s-2.3,0.4-3.1,1.2c-0.8,0.8-1.2,1.8-1.2,3.1v6.8c0,1.3,0.4,2.3,1.2,3.1
			c0.8,0.8,1.8,1.2,3.1,1.2S-709.2,93.2-708.4,92.4z"/>
		<path class="st2" d="M-700.3,95.5c-0.1-0.1-0.1-0.2-0.1-0.3V76.5c0-0.1,0-0.2,0.1-0.3c0.1-0.1,0.2-0.1,0.3-0.1h1.9
			c0.2,0,0.4,0.1,0.5,0.3l4.7,7.5c0.1,0.1,0.1,0.1,0.2,0l4.7-7.5c0.1-0.2,0.3-0.3,0.5-0.3h1.9c0.1,0,0.2,0,0.3,0.1s0.1,0.2,0.1,0.3
			v18.8c0,0.1,0,0.2-0.1,0.3c-0.1,0.1-0.2,0.1-0.3,0.1h-1.8c-0.1,0-0.2,0-0.3-0.1s-0.1-0.2-0.1-0.3V81c0-0.1,0-0.1-0.1-0.1
			c0,0-0.1,0-0.1,0.1l-3.8,6.2c-0.1,0.2-0.3,0.3-0.5,0.3h-0.9c-0.2,0-0.4-0.1-0.5-0.3l-3.8-6.2c0-0.1-0.1-0.1-0.1-0.1l-0.1,0.1v14.2
			c0,0.1,0,0.2-0.1,0.3c-0.1,0.1-0.2,0.1-0.3,0.1h-1.8C-700.1,95.6-700.2,95.6-700.3,95.5z"/>
	</g>
	<g class="st1">
		<path class="st2" d="M-819.1,128.8l-0.8-2.6c0-0.1-0.1-0.1-0.2-0.1h-6.9c-0.1,0-0.1,0-0.2,0.1l-0.8,2.6c-0.1,0.3-0.3,0.4-0.5,0.4
			h-3.2c-0.2,0-0.3-0.1-0.4-0.2c-0.1-0.1-0.1-0.2,0-0.4l6-18.7c0.1-0.3,0.3-0.4,0.5-0.4h4.1c0.3,0,0.4,0.1,0.5,0.4l6,18.7
			c0,0,0,0.1,0,0.2c0,0.1,0,0.2-0.1,0.3s-0.2,0.1-0.3,0.1h-3.2C-818.8,129.2-819,129.1-819.1,128.8z M-825.9,123h5
			c0.1,0,0.2-0.1,0.1-0.2l-2.5-8.5c0-0.1-0.1-0.1-0.1-0.1s-0.1,0-0.1,0.1l-2.5,8.5C-826.1,123-826.1,123-825.9,123z"/>
		<path class="st2" d="M-812.4,128.8v-18.6c0-0.3,0.2-0.5,0.5-0.5h3c0.3,0,0.5,0.2,0.5,0.5v18.6c0,0.3-0.2,0.5-0.5,0.5h-3
			C-812.2,129.2-812.4,129.1-812.4,128.8z"/>
		<path class="st2" d="M-794.7,128.9l-3.4-7.6c0-0.1-0.1-0.1-0.2-0.1h-2.5c-0.1,0-0.2,0.1-0.2,0.2v7.5c0,0.3-0.2,0.5-0.5,0.5h-3
			c-0.3,0-0.5-0.2-0.5-0.5v-18.7c0-0.3,0.2-0.5,0.5-0.5h7.9c1.2,0,2.2,0.2,3.2,0.7c0.9,0.5,1.6,1.2,2.1,2.1s0.7,1.9,0.7,3.1
			c0,1.3-0.3,2.4-1,3.3c-0.6,0.9-1.5,1.6-2.6,1.9c-0.1,0-0.1,0.1-0.1,0.1v0.1l3.7,7.7c0.1,0.1,0.1,0.2,0.1,0.3s0,0.2-0.1,0.2
			c-0.1,0.1-0.2,0.1-0.3,0.1h-3.2C-794.4,129.2-794.6,129.1-794.7,128.9z M-801,113.2v4.7c0,0.1,0.1,0.2,0.2,0.2h3.6
			c0.8,0,1.4-0.2,1.9-0.7s0.7-1.1,0.7-1.8c0-0.7-0.2-1.4-0.7-1.8c-0.5-0.5-1.1-0.7-1.9-0.7h-3.6C-801,113-801,113.1-801,113.2z"/>
		<path class="st2" d="M-776.5,110.4c0.9,0.5,1.7,1.2,2.2,2.1s0.8,2,0.8,3.2s-0.3,2.2-0.8,3.1s-1.3,1.6-2.2,2.1
			c-1,0.5-2.1,0.7-3.3,0.7h-3.9c-0.1,0-0.2,0.1-0.2,0.2v7c0,0.3-0.2,0.5-0.5,0.5h-3c-0.3,0-0.5-0.2-0.5-0.5v-18.7
			c0-0.3,0.2-0.5,0.5-0.5h7.8C-778.5,109.6-777.4,109.9-776.5,110.4z M-778.2,117.7c0.5-0.5,0.8-1.1,0.8-1.9s-0.3-1.5-0.8-2
			s-1.2-0.8-2.1-0.8h-3.5c-0.1,0-0.2,0.1-0.2,0.2v5.1c0,0.1,0.1,0.2,0.2,0.2h3.5C-779.4,118.5-778.8,118.2-778.2,117.7z"/>
		<path class="st2" d="M-768,128.6c-1.1-0.6-2-1.4-2.6-2.5s-0.9-2.3-0.9-3.7v-6c0-1.4,0.3-2.6,0.9-3.7c0.6-1.1,1.5-1.9,2.6-2.5
			s2.4-0.9,3.8-0.9c1.5,0,2.8,0.3,3.9,0.9c1.1,0.6,2,1.4,2.6,2.5s0.9,2.3,0.9,3.7v6c0,1.4-0.3,2.6-0.9,3.7c-0.6,1.1-1.5,1.9-2.6,2.5
			s-2.4,0.9-3.9,0.9C-765.6,129.5-766.9,129.2-768,128.6z M-761.6,125.2c0.6-0.7,1-1.5,1-2.6v-6.2c0-1.1-0.3-2-0.9-2.6
			c-0.6-0.7-1.5-1-2.5-1s-1.9,0.3-2.5,1s-0.9,1.5-0.9,2.6v6.2c0,1.1,0.3,2,0.9,2.6c0.6,0.7,1.5,1,2.5,1S-762.3,125.8-761.6,125.2z"
			/>
		<path class="st2" d="M-743.4,128.9l-3.4-7.6c0-0.1-0.1-0.1-0.2-0.1h-2.5c-0.1,0-0.2,0.1-0.2,0.2v7.5c0,0.3-0.2,0.5-0.5,0.5h-3
			c-0.3,0-0.5-0.2-0.5-0.5v-18.7c0-0.3,0.2-0.5,0.5-0.5h7.9c1.2,0,2.2,0.2,3.2,0.7c0.9,0.5,1.6,1.2,2.1,2.1s0.7,1.9,0.7,3.1
			c0,1.3-0.3,2.4-1,3.3c-0.6,0.9-1.5,1.6-2.6,1.9c-0.1,0-0.1,0.1-0.1,0.1v0.1l3.7,7.7c0.1,0.1,0.1,0.2,0.1,0.3s0,0.2-0.1,0.2
			c-0.1,0.1-0.2,0.1-0.3,0.1h-3.2C-743.1,129.2-743.3,129.1-743.4,128.9z M-749.8,113.2v4.7c0,0.1,0.1,0.2,0.2,0.2h3.6
			c0.8,0,1.4-0.2,1.9-0.7s0.7-1.1,0.7-1.8c0-0.7-0.2-1.4-0.7-1.8c-0.5-0.5-1.1-0.7-1.9-0.7h-3.6C-749.7,113-749.8,113.1-749.8,113.2
			z"/>
		<path class="st2" d="M-722.6,110.1v2.5c0,0.3-0.2,0.5-0.5,0.5h-4.8c-0.1,0-0.2,0.1-0.2,0.2v15.5c0,0.3-0.2,0.5-0.5,0.5h-3
			c-0.3,0-0.5-0.2-0.5-0.5v-15.5c0-0.1-0.1-0.2-0.2-0.2h-4.7c-0.3,0-0.5-0.2-0.5-0.5v-2.5c0-0.3,0.2-0.5,0.5-0.5h13.8
			C-722.8,109.6-722.6,109.8-722.6,110.1z"/>
	</g>
	<g class="st1">
		<g>
			<path class="st2" d="M98,10.8h1.9c0.6,0,0.9,0.3,0.9,0.9v59c0,0.6-0.3,0.9-0.9,0.9h-1.6c-0.6,0-0.9-0.3-0.9-0.9V15.1
				c0-0.1,0-0.2-0.1-0.3s-0.2-0.1-0.3,0l-10,4.9L86.6,20c-0.2,0-0.3-0.1-0.4-0.2C86,19.6,86,19.4,86,19.2v-1c0-0.4,0.2-0.8,0.6-1
				L96.9,11C97.2,10.8,97.6,10.8,98,10.8z"/>
		</g>
		<g>
			<path class="st2" d="M35.5,88.4c0.1-0.1,0.2-0.1,0.3-0.1h1.8c0.1,0,0.2,0,0.3,0.1s0.1,0.2,0.1,0.3v18.8c0,0.1,0,0.2-0.1,0.3
				s-0.2,0.1-0.3,0.1h-1.8c-0.1,0-0.2,0-0.3-0.1s-0.1-0.2-0.1-0.3v-8.1c0-0.1,0-0.1-0.1-0.1h-7.9c-0.1,0-0.1,0-0.1,0.1v8.1
				c0,0.1,0,0.2-0.1,0.3c-0.1,0.1-0.2,0.1-0.3,0.1h-1.8c-0.1,0-0.2,0-0.3-0.1c-0.1-0.1-0.1-0.2-0.1-0.3V88.7c0-0.1,0-0.2,0.1-0.3
				c0.1-0.1,0.2-0.1,0.3-0.1h1.8c0.1,0,0.2,0,0.3,0.1c0.1,0.1,0.1,0.2,0.1,0.3v8c0,0.1,0,0.1,0.1,0.1h7.9c0.1,0,0.1,0,0.1-0.1v-8
				C35.4,88.6,35.4,88.5,35.5,88.4z"/>
			<path class="st2" d="M45.3,107.3c-1-0.6-1.9-1.3-2.4-2.4c-0.6-1-0.9-2.2-0.9-3.5v-6.7c0-1.3,0.3-2.5,0.9-3.5
				c0.6-1,1.4-1.8,2.4-2.4s2.2-0.8,3.6-0.8c1.4,0,2.6,0.3,3.6,0.8c1,0.6,1.9,1.3,2.4,2.4c0.6,1,0.9,2.2,0.9,3.5v6.7
				c0,1.3-0.3,2.5-0.9,3.5c-0.6,1-1.4,1.8-2.4,2.4s-2.3,0.8-3.6,0.8C47.6,108.2,46.4,107.9,45.3,107.3z M52,104.7
				c0.8-0.8,1.2-1.8,1.2-3.1v-6.8c0-1.3-0.4-2.4-1.2-3.1c-0.8-0.8-1.8-1.2-3.1-1.2s-2.3,0.4-3.1,1.2c-0.8,0.8-1.2,1.8-1.2,3.1v6.8
				c0,1.3,0.4,2.3,1.2,3.1c0.8,0.8,1.8,1.2,3.1,1.2S51.2,105.5,52,104.7z"/>
			<path class="st2" d="M63.1,107.3c-1-0.5-1.8-1.3-2.4-2.3s-0.9-2.1-0.9-3.4v-13c0-0.1,0-0.2,0.1-0.3c0.1-0.1,0.2-0.1,0.3-0.1H62
				c0.1,0,0.2,0,0.3,0.1s0.1,0.2,0.1,0.3v13c0,1.2,0.4,2.2,1.2,2.9c0.8,0.7,1.8,1.1,3,1.1s2.3-0.4,3-1.1c0.8-0.7,1.1-1.7,1.1-2.9
				v-13c0-0.1,0-0.2,0.1-0.3c0.1-0.1,0.2-0.1,0.3-0.1h1.8c0.1,0,0.2,0,0.3,0.1c0.1,0.1,0.1,0.2,0.1,0.3v13c0,1.3-0.3,2.4-0.9,3.4
				s-1.4,1.7-2.4,2.3c-1,0.5-2.2,0.8-3.6,0.8C65.3,108.1,64.1,107.9,63.1,107.3z"/>
			<path class="st2" d="M88.7,107.6l-3.9-8.3c0-0.1-0.1-0.1-0.2-0.1h-3.9c-0.1,0-0.1,0-0.1,0.1v8.1c0,0.1,0,0.2-0.1,0.3
				c-0.1,0.1-0.2,0.1-0.3,0.1h-1.8c-0.1,0-0.2,0-0.3-0.1c-0.1-0.1-0.1-0.2-0.1-0.3V88.7c0-0.1,0-0.2,0.1-0.3
				c0.1-0.1,0.2-0.1,0.3-0.1h7.4c1.1,0,2.1,0.2,3,0.7c0.8,0.5,1.5,1.1,2,2c0.5,0.8,0.7,1.8,0.7,2.9c0,1.3-0.3,2.4-1,3.3
				s-1.6,1.5-2.8,1.8c-0.1,0-0.1,0.1-0.1,0.2l4,8.3l0.1,0.2c0,0.2-0.1,0.3-0.4,0.3h-1.9C89,107.9,88.8,107.8,88.7,107.6z M80.6,90.8
				V97c0,0.1,0,0.1,0.1,0.1h4.6c1,0,1.8-0.3,2.4-0.9s0.9-1.4,0.9-2.3c0-1-0.3-1.8-0.9-2.4s-1.4-0.9-2.4-0.9h-4.6
				C80.6,90.6,80.6,90.7,80.6,90.8z"/>
			<path class="st2" d="M113.6,90.5c-0.1,0.1-0.2,0.1-0.3,0.1h-9.7c-0.1,0-0.1,0-0.1,0.1v6c0,0.1,0,0.1,0.1,0.1h6.6
				c0.1,0,0.2,0,0.3,0.1c0.1,0.1,0.1,0.2,0.1,0.3v1.5c0,0.1,0,0.2-0.1,0.3c-0.1,0.1-0.2,0.1-0.3,0.1h-6.6c-0.1,0-0.1,0-0.1,0.1v8.1
				c0,0.1,0,0.2-0.1,0.3c-0.1,0.1-0.2,0.1-0.3,0.1h-1.8c-0.1,0-0.2,0-0.3-0.1c-0.1-0.1-0.1-0.2-0.1-0.3V88.7c0-0.1,0-0.2,0.1-0.3
				c0.1-0.1,0.2-0.1,0.3-0.1h12.2c0.1,0,0.2,0,0.3,0.1s0.1,0.2,0.1,0.3v1.5C113.7,90.4,113.6,90.5,113.6,90.5z"/>
			<path class="st2" d="M127.3,107.6l-3.9-8.3c0-0.1-0.1-0.1-0.2-0.1h-3.9c-0.1,0-0.1,0-0.1,0.1v8.1c0,0.1,0,0.2-0.1,0.3
				c-0.1,0.1-0.2,0.1-0.3,0.1H117c-0.1,0-0.2,0-0.3-0.1c-0.1-0.1-0.1-0.2-0.1-0.3V88.7c0-0.1,0-0.2,0.1-0.3c0.1-0.1,0.2-0.1,0.3-0.1
				h7.4c1.1,0,2.1,0.2,3,0.7c0.8,0.5,1.5,1.1,2,2c0.5,0.8,0.7,1.8,0.7,2.9c0,1.3-0.3,2.4-1,3.3s-1.6,1.5-2.8,1.8
				c-0.1,0-0.1,0.1-0.1,0.2l4,8.3l0.1,0.2c0,0.2-0.1,0.3-0.4,0.3H128C127.6,107.9,127.4,107.8,127.3,107.6z M119.2,90.8V97
				c0,0.1,0,0.1,0.1,0.1h4.6c1,0,1.8-0.3,2.4-0.9s0.9-1.4,0.9-2.3c0-1-0.3-1.8-0.9-2.4s-1.4-0.9-2.4-0.9h-4.6
				C119.2,90.6,119.2,90.7,119.2,90.8z"/>
			<path class="st2" d="M136.4,107.3c-1-0.6-1.9-1.3-2.4-2.4c-0.6-1-0.9-2.2-0.9-3.5v-6.7c0-1.3,0.3-2.5,0.9-3.5
				c0.6-1,1.4-1.8,2.4-2.4s2.2-0.8,3.6-0.8c1.4,0,2.6,0.3,3.6,0.8c1,0.6,1.9,1.3,2.4,2.4c0.6,1,0.9,2.2,0.9,3.5v6.7
				c0,1.3-0.3,2.5-0.9,3.5c-0.6,1-1.4,1.8-2.4,2.4s-2.3,0.8-3.6,0.8C138.7,108.2,137.5,107.9,136.4,107.3z M143.1,104.7
				c0.8-0.8,1.2-1.8,1.2-3.1v-6.8c0-1.3-0.4-2.4-1.2-3.1c-0.8-0.8-1.8-1.2-3.1-1.2s-2.3,0.4-3.1,1.2c-0.8,0.8-1.2,1.8-1.2,3.1v6.8
				c0,1.3,0.4,2.3,1.2,3.1c0.8,0.8,1.8,1.2,3.1,1.2S142.3,105.5,143.1,104.7z"/>
			<path class="st2" d="M151.2,107.8c-0.1-0.1-0.1-0.2-0.1-0.3V88.7c0-0.1,0-0.2,0.1-0.3c0.1-0.1,0.2-0.1,0.3-0.1h1.9
				c0.2,0,0.4,0.1,0.5,0.3l4.7,7.5c0.1,0.1,0.1,0.1,0.2,0l4.7-7.5c0.1-0.2,0.3-0.3,0.5-0.3h1.9c0.1,0,0.2,0,0.3,0.1s0.1,0.2,0.1,0.3
				v18.8c0,0.1,0,0.2-0.1,0.3c-0.1,0.1-0.2,0.1-0.3,0.1H164c-0.1,0-0.2,0-0.3-0.1s-0.1-0.2-0.1-0.3V93.3c0-0.1,0-0.1-0.1-0.1
				c0,0-0.1,0-0.1,0.1l-3.8,6.2c-0.1,0.2-0.3,0.3-0.5,0.3h-0.9c-0.2,0-0.4-0.1-0.5-0.3l-3.8-6.2c0-0.1-0.1-0.1-0.1-0.1l-0.1,0.1
				v14.2c0,0.1,0,0.2-0.1,0.3c-0.1,0.1-0.2,0.1-0.3,0.1h-1.8C151.4,107.9,151.3,107.9,151.2,107.8z"/>
		</g>
		<g>
			<path class="st2" d="M53.1,141.1l-0.8-2.6c0-0.1-0.1-0.1-0.2-0.1h-6.9c-0.1,0-0.1,0-0.2,0.1l-0.8,2.6c-0.1,0.3-0.3,0.4-0.5,0.4
				h-3.2c-0.2,0-0.3-0.1-0.4-0.2c-0.1-0.1-0.1-0.2,0-0.4l6-18.7c0.1-0.3,0.3-0.4,0.5-0.4h4.1c0.3,0,0.4,0.1,0.5,0.4l6,18.7
				c0,0,0,0.1,0,0.2c0,0.1,0,0.2-0.1,0.3s-0.2,0.1-0.3,0.1h-3.2C53.4,141.5,53.2,141.4,53.1,141.1z M46.3,135.3h5
				c0.1,0,0.2-0.1,0.1-0.2l-2.5-8.5c0-0.1-0.1-0.1-0.1-0.1s-0.1,0-0.1,0.1l-2.5,8.5C46.1,135.3,46.2,135.3,46.3,135.3z"/>
			<path class="st2" d="M62.8,140.9c-1.1-0.6-1.9-1.3-2.5-2.4c-0.6-1-0.9-2.2-0.9-3.5v-12.6c0-0.3,0.2-0.5,0.5-0.5h3
				c0.3,0,0.5,0.2,0.5,0.5v12.7c0,1,0.3,1.8,0.9,2.4c0.6,0.6,1.4,0.9,2.4,0.9s1.8-0.3,2.4-0.9c0.6-0.6,0.9-1.4,0.9-2.4v-12.7
				c0-0.3,0.2-0.5,0.5-0.5h3c0.3,0,0.5,0.2,0.5,0.5V135c0,1.3-0.3,2.5-0.9,3.5s-1.5,1.8-2.5,2.4c-1.1,0.6-2.4,0.8-3.8,0.8
				C65.2,141.7,63.9,141.5,62.8,140.9z"/>
			<path class="st2" d="M79.9,141c-1.1-0.5-2-1.2-2.5-2s-0.9-1.9-0.9-3.1v-0.5c0-0.3,0.2-0.5,0.5-0.5h2.9c0.3,0,0.5,0.1,0.5,0.4v0.4
				c0,0.7,0.3,1.4,1,1.9s1.6,0.8,2.7,0.8c1,0,1.7-0.2,2.2-0.6c0.5-0.4,0.7-0.9,0.7-1.6c0-0.4-0.2-0.8-0.4-1.1
				c-0.3-0.3-0.7-0.6-1.2-0.8s-1.3-0.6-2.4-1c-1.3-0.4-2.3-0.9-3.2-1.3c-0.9-0.4-1.6-1.1-2.2-1.8c-0.6-0.8-0.9-1.7-0.9-2.9
				c0-1.1,0.3-2.1,0.9-2.9s1.4-1.5,2.4-1.9s2.2-0.7,3.5-0.7c1.4,0,2.7,0.3,3.8,0.8s2,1.2,2.6,2.1s0.9,2,0.9,3.1v0.3
				c0,0.3-0.2,0.5-0.5,0.5h-2.9c-0.3,0-0.5-0.1-0.5-0.3V128c0-0.8-0.3-1.5-1-2c-0.6-0.6-1.5-0.8-2.6-0.8c-0.9,0-1.6,0.2-2.1,0.6
				s-0.7,0.9-0.7,1.5c0,0.5,0.1,0.9,0.4,1.2s0.7,0.6,1.3,0.9c0.6,0.3,1.5,0.6,2.6,1c1.3,0.5,2.3,0.9,3.1,1.3
				c0.8,0.4,1.5,0.9,2.1,1.7c0.6,0.7,0.9,1.7,0.9,2.9c0,1.1-0.3,2.1-0.9,3s-1.4,1.5-2.5,2s-2.3,0.7-3.8,0.7S81,141.5,79.9,141z"/>
			<path class="st2" d="M107.3,122.4v2.5c0,0.3-0.2,0.5-0.5,0.5H102c-0.1,0-0.2,0.1-0.2,0.2V141c0,0.3-0.2,0.5-0.5,0.5h-3
				c-0.3,0-0.5-0.2-0.5-0.5v-15.5c0-0.1-0.1-0.2-0.2-0.2H93c-0.3,0-0.5-0.2-0.5-0.5v-2.5c0-0.3,0.2-0.5,0.5-0.5h13.8
				C107.2,121.9,107.3,122.1,107.3,122.4z"/>
			<path class="st2" d="M120.2,141.2l-3.4-7.6c0-0.1-0.1-0.1-0.2-0.1H114c-0.1,0-0.2,0.1-0.2,0.2v7.5c0,0.3-0.2,0.5-0.5,0.5h-3
				c-0.3,0-0.5-0.2-0.5-0.5v-18.7c0-0.3,0.2-0.5,0.5-0.5h7.9c1.2,0,2.2,0.2,3.2,0.7c0.9,0.5,1.6,1.2,2.1,2.1s0.7,1.9,0.7,3.1
				c0,1.3-0.3,2.4-1,3.3s-1.5,1.6-2.6,1.9c-0.1,0-0.1,0.1-0.1,0.1v0.1l3.7,7.7c0.1,0.1,0.1,0.2,0.1,0.3s0,0.2-0.1,0.2
				c-0.1,0.1-0.2,0.1-0.3,0.1h-3.2C120.5,141.5,120.3,141.4,120.2,141.2z M113.8,125.5v4.7c0,0.1,0.1,0.2,0.2,0.2h3.6
				c0.8,0,1.4-0.2,1.9-0.7s0.7-1.1,0.7-1.8s-0.2-1.4-0.7-1.8c-0.5-0.5-1.1-0.7-1.9-0.7H114C113.9,125.3,113.8,125.4,113.8,125.5z"/>
			<path class="st2" d="M127.1,141v-18.6c0-0.3,0.2-0.5,0.5-0.5h3c0.3,0,0.5,0.2,0.5,0.5V141c0,0.3-0.2,0.5-0.5,0.5h-3
				C127.2,141.5,127.1,141.4,127.1,141z"/>
			<path class="st2" d="M146.5,141.1l-0.8-2.6c0-0.1-0.1-0.1-0.2-0.1h-6.9c-0.1,0-0.1,0-0.2,0.1l-0.8,2.6c-0.1,0.3-0.3,0.4-0.5,0.4
				h-3.2c-0.2,0-0.3-0.1-0.4-0.2c-0.1-0.1-0.1-0.2,0-0.4l6-18.7c0.1-0.3,0.3-0.4,0.5-0.4h4.1c0.3,0,0.4,0.1,0.5,0.4l6,18.7
				c0,0,0,0.1,0,0.2c0,0.1,0,0.2-0.1,0.3s-0.2,0.1-0.3,0.1H147C146.8,141.5,146.6,141.4,146.5,141.1z M139.6,135.3h5
				c0.1,0,0.2-0.1,0.1-0.2l-2.5-8.5c0-0.1-0.1-0.1-0.1-0.1s-0.1,0-0.1,0.1l-2.5,8.5C139.5,135.3,139.5,135.3,139.6,135.3z"/>
		</g>
	</g>
</g>
<g id="Layer_3" class="st0">
	<g class="st1">
		<g>
			<path class="st2" d="M97.9,10.5h1.9c0.6,0,0.9,0.3,0.9,0.9v59c0,0.6-0.3,0.9-0.9,0.9h-1.6c-0.6,0-0.9-0.3-0.9-0.9V14.9
				c0-0.1,0-0.2-0.1-0.3s-0.2-0.1-0.3,0l-10,4.9l-0.4,0.2c-0.2,0-0.3-0.1-0.4-0.2s-0.2-0.3-0.2-0.6v-1c0-0.4,0.2-0.8,0.6-1l10.3-6.1
				C97,10.6,97.4,10.5,97.9,10.5z"/>
		</g>
		<g>
			<path class="st2" d="M35.3,88.2c0.1-0.1,0.2-0.1,0.3-0.1h1.8c0.1,0,0.2,0,0.3,0.1s0.1,0.2,0.1,0.3v18.8c0,0.1,0,0.2-0.1,0.3
				s-0.2,0.1-0.3,0.1h-1.8c-0.1,0-0.2,0-0.3-0.1s-0.1-0.2-0.1-0.3v-8.1c0-0.1,0-0.1-0.1-0.1h-7.9c-0.1,0-0.1,0-0.1,0.1v8.1
				c0,0.1,0,0.2-0.1,0.3c-0.1,0.1-0.2,0.1-0.3,0.1h-1.8c-0.1,0-0.2,0-0.3-0.1c-0.1-0.1-0.1-0.2-0.1-0.3V88.5c0-0.1,0-0.2,0.1-0.3
				c0.1-0.1,0.2-0.1,0.3-0.1h1.8c0.1,0,0.2,0,0.3,0.1c0.1,0.1,0.1,0.2,0.1,0.3v8c0,0.1,0,0.1,0.1,0.1h7.9c0.1,0,0.1,0,0.1-0.1v-8
				C35.2,88.4,35.2,88.3,35.3,88.2z"/>
			<path class="st2" d="M45.1,107.1c-1-0.6-1.9-1.3-2.4-2.4c-0.6-1-0.9-2.2-0.9-3.5v-6.7c0-1.3,0.3-2.5,0.9-3.5
				c0.6-1,1.4-1.8,2.4-2.4s2.2-0.8,3.6-0.8c1.4,0,2.6,0.3,3.6,0.8c1,0.6,1.9,1.3,2.4,2.4c0.6,1,0.9,2.2,0.9,3.5v6.7
				c0,1.3-0.3,2.5-0.9,3.5c-0.6,1-1.4,1.8-2.4,2.4s-2.3,0.8-3.6,0.8C47.4,107.9,46.2,107.6,45.1,107.1z M51.8,104.4
				c0.8-0.8,1.2-1.8,1.2-3.1v-6.8c0-1.3-0.4-2.4-1.2-3.1c-0.8-0.8-1.8-1.2-3.1-1.2s-2.3,0.4-3.1,1.2c-0.8,0.8-1.2,1.8-1.2,3.1v6.8
				c0,1.3,0.4,2.3,1.2,3.1c0.8,0.8,1.8,1.2,3.1,1.2S51.1,105.2,51.8,104.4z"/>
			<path class="st2" d="M62.9,107.1c-1-0.5-1.8-1.3-2.4-2.3s-0.9-2.1-0.9-3.4v-13c0-0.1,0-0.2,0.1-0.3C59.8,88,59.9,88,60,88h1.8
				c0.1,0,0.2,0,0.3,0.1s0.1,0.2,0.1,0.3v13c0,1.2,0.4,2.2,1.2,2.9c0.8,0.7,1.8,1.1,3,1.1s2.3-0.4,3-1.1c0.8-0.7,1.1-1.7,1.1-2.9
				v-13c0-0.1,0-0.2,0.1-0.3c0.1-0.1,0.2-0.1,0.3-0.1h1.8c0.1,0,0.2,0,0.3,0.1c0.1,0.1,0.1,0.2,0.1,0.3v13c0,1.3-0.3,2.4-0.9,3.4
				s-1.4,1.7-2.4,2.3c-1,0.5-2.2,0.8-3.6,0.8C65.1,107.9,63.9,107.6,62.9,107.1z"/>
			<path class="st2" d="M88.5,107.4l-3.9-8.3c0-0.1-0.1-0.1-0.2-0.1h-3.9c-0.1,0-0.1,0-0.1,0.1v8.1c0,0.1,0,0.2-0.1,0.3
				c-0.1,0.1-0.2,0.1-0.3,0.1h-1.8c-0.1,0-0.2,0-0.3-0.1c-0.1-0.1-0.1-0.2-0.1-0.3V88.5c0-0.1,0-0.2,0.1-0.3
				c0.1-0.1,0.2-0.1,0.3-0.1h7.4c1.1,0,2.1,0.2,3,0.7c0.8,0.5,1.5,1.1,2,2c0.5,0.8,0.7,1.8,0.7,2.9c0,1.3-0.3,2.4-1,3.3
				s-1.6,1.5-2.8,1.8c-0.1,0-0.1,0.1-0.1,0.2l4,8.3l0.1,0.2c0,0.2-0.1,0.3-0.4,0.3H89C88.8,107.7,88.6,107.6,88.5,107.4z M80.4,90.5
				v6.2c0,0.1,0,0.1,0.1,0.1h4.6c1,0,1.8-0.3,2.4-0.9s0.9-1.4,0.9-2.3c0-1-0.3-1.8-0.9-2.4s-1.4-0.9-2.4-0.9h-4.6
				C80.5,90.4,80.4,90.4,80.4,90.5z"/>
			<path class="st2" d="M113.4,90.3c-0.1,0.1-0.2,0.1-0.3,0.1h-9.7c-0.1,0-0.1,0-0.1,0.1v6c0,0.1,0,0.1,0.1,0.1h6.6
				c0.1,0,0.2,0,0.3,0.1c0.1,0.1,0.1,0.2,0.1,0.3v1.5c0,0.1,0,0.2-0.1,0.3c-0.1,0.1-0.2,0.1-0.3,0.1h-6.6c-0.1,0-0.1,0-0.1,0.1v8.1
				c0,0.1,0,0.2-0.1,0.3c-0.1,0.1-0.2,0.1-0.3,0.1h-1.8c-0.1,0-0.2,0-0.3-0.1c-0.1-0.1-0.1-0.2-0.1-0.3V88.5c0-0.1,0-0.2,0.1-0.3
				c0.1-0.1,0.2-0.1,0.3-0.1h12.2c0.1,0,0.2,0,0.3,0.1s0.1,0.2,0.1,0.3V90C113.5,90.1,113.5,90.2,113.4,90.3z"/>
			<path class="st2" d="M127.1,107.4l-3.9-8.3c0-0.1-0.1-0.1-0.2-0.1h-3.9c-0.1,0-0.1,0-0.1,0.1v8.1c0,0.1,0,0.2-0.1,0.3
				c-0.1,0.1-0.2,0.1-0.3,0.1h-1.8c-0.1,0-0.2,0-0.3-0.1c-0.1-0.1-0.1-0.2-0.1-0.3V88.5c0-0.1,0-0.2,0.1-0.3
				c0.1-0.1,0.2-0.1,0.3-0.1h7.4c1.1,0,2.1,0.2,3,0.7c0.8,0.5,1.5,1.1,2,2c0.5,0.8,0.7,1.8,0.7,2.9c0,1.3-0.3,2.4-1,3.3
				s-1.6,1.5-2.8,1.8c-0.1,0-0.1,0.1-0.1,0.2l4,8.3l0.1,0.2c0,0.2-0.1,0.3-0.4,0.3h-1.9C127.4,107.7,127.2,107.6,127.1,107.4z
				 M119,90.5v6.2c0,0.1,0,0.1,0.1,0.1h4.6c1,0,1.8-0.3,2.4-0.9s0.9-1.4,0.9-2.3c0-1-0.3-1.8-0.9-2.4s-1.4-0.9-2.4-0.9h-4.6
				C119.1,90.4,119,90.4,119,90.5z"/>
			<path class="st2" d="M136.3,107.1c-1-0.6-1.9-1.3-2.4-2.4c-0.6-1-0.9-2.2-0.9-3.5v-6.7c0-1.3,0.3-2.5,0.9-3.5
				c0.6-1,1.4-1.8,2.4-2.4s2.2-0.8,3.6-0.8c1.4,0,2.6,0.3,3.6,0.8c1,0.6,1.9,1.3,2.4,2.4c0.6,1,0.9,2.2,0.9,3.5v6.7
				c0,1.3-0.3,2.5-0.9,3.5c-0.6,1-1.4,1.8-2.4,2.4s-2.3,0.8-3.6,0.8C138.5,107.9,137.3,107.6,136.3,107.1z M142.9,104.4
				c0.8-0.8,1.2-1.8,1.2-3.1v-6.8c0-1.3-0.4-2.4-1.2-3.1c-0.8-0.8-1.8-1.2-3.1-1.2s-2.3,0.4-3.1,1.2c-0.8,0.8-1.2,1.8-1.2,3.1v6.8
				c0,1.3,0.4,2.3,1.2,3.1c0.8,0.8,1.8,1.2,3.1,1.2S142.2,105.2,142.9,104.4z"/>
			<path class="st2" d="M151,107.6c-0.1-0.1-0.1-0.2-0.1-0.3V88.5c0-0.1,0-0.2,0.1-0.3c0.1-0.1,0.2-0.1,0.3-0.1h1.9
				c0.2,0,0.4,0.1,0.5,0.3l4.7,7.5c0.1,0.1,0.1,0.1,0.2,0l4.7-7.5c0.1-0.2,0.3-0.3,0.5-0.3h1.9c0.1,0,0.2,0,0.3,0.1s0.1,0.2,0.1,0.3
				v18.8c0,0.1,0,0.2-0.1,0.3c-0.1,0.1-0.2,0.1-0.3,0.1h-1.8c-0.1,0-0.2,0-0.3-0.1s-0.1-0.2-0.1-0.3V93c0-0.1,0-0.1-0.1-0.1
				c0,0-0.1,0-0.1,0.1l-3.8,6.2c-0.1,0.2-0.3,0.3-0.5,0.3h-0.9c-0.2,0-0.4-0.1-0.5-0.3l-3.8-6.2c0-0.1-0.1-0.1-0.1-0.1l-0.1,0.1
				v14.2c0,0.1,0,0.2-0.1,0.3c-0.1,0.1-0.2,0.1-0.3,0.1h-1.8C151.2,107.7,151.1,107.6,151,107.6z"/>
		</g>
		<g>
			<path class="st2" d="M36.2,140.8c-1.1-0.5-2-1.2-2.5-2s-0.9-1.9-0.9-3.1v-0.5c0-0.3,0.2-0.5,0.5-0.5h2.9c0.3,0,0.5,0.1,0.5,0.4
				v0.4c0,0.7,0.3,1.4,1,1.9s1.6,0.8,2.7,0.8c1,0,1.7-0.2,2.2-0.6c0.5-0.4,0.7-0.9,0.7-1.6c0-0.4-0.2-0.8-0.4-1.1
				c-0.3-0.3-0.7-0.6-1.2-0.8s-1.3-0.6-2.4-1c-1.3-0.4-2.3-0.9-3.2-1.3c-0.9-0.4-1.6-1.1-2.2-1.8c-0.6-0.8-0.9-1.7-0.9-2.9
				c0-1.1,0.3-2.1,0.9-2.9c0.6-0.8,1.4-1.5,2.4-1.9s2.2-0.7,3.5-0.7c1.4,0,2.7,0.3,3.8,0.8s2,1.2,2.6,2.1s0.9,2,0.9,3.1v0.3
				c0,0.3-0.2,0.5-0.5,0.5h-2.9c-0.3,0-0.5-0.1-0.5-0.3v-0.3c0-0.8-0.3-1.5-1-2c-0.6-0.6-1.5-0.8-2.6-0.8c-0.9,0-1.6,0.2-2.1,0.6
				s-0.7,0.9-0.7,1.5c0,0.5,0.1,0.9,0.4,1.2c0.3,0.3,0.7,0.6,1.3,0.9c0.6,0.3,1.5,0.6,2.6,1c1.3,0.5,2.3,0.9,3.1,1.3
				c0.8,0.4,1.5,0.9,2.1,1.7c0.6,0.7,0.9,1.7,0.9,2.9c0,1.1-0.3,2.1-0.9,3c-0.6,0.9-1.4,1.5-2.5,2s-2.3,0.7-3.8,0.7
				S37.3,141.3,36.2,140.8z"/>
			<path class="st2" d="M49.9,140.8v-18.6c0-0.3,0.2-0.5,0.5-0.5h3c0.3,0,0.5,0.2,0.5,0.5v15.6c0,0.1,0.1,0.2,0.2,0.2h9
				c0.3,0,0.5,0.2,0.5,0.5v2.4c0,0.3-0.2,0.5-0.5,0.5H50.4C50.1,141.3,49.9,141.1,49.9,140.8z"/>
			<path class="st2" d="M68.9,140.7c-1.1-0.6-2-1.4-2.6-2.5s-0.9-2.3-0.9-3.7v-6c0-1.4,0.3-2.6,0.9-3.7s1.5-1.9,2.6-2.5
				s2.4-0.9,3.8-0.9c1.5,0,2.8,0.3,3.9,0.9s2,1.4,2.6,2.5s0.9,2.3,0.9,3.7v6c0,1.4-0.3,2.6-0.9,3.7c-0.6,1.1-1.5,1.9-2.6,2.5
				s-2.4,0.9-3.9,0.9C71.3,141.6,70,141.3,68.9,140.7z M75.2,137.2c0.6-0.7,1-1.5,1-2.6v-6.2c0-1.1-0.3-2-0.9-2.6
				c-0.6-0.7-1.5-1-2.5-1s-1.9,0.3-2.5,1s-0.9,1.5-0.9,2.6v6.2c0,1.1,0.3,2,0.9,2.6c0.6,0.7,1.5,1,2.5,1S74.6,137.9,75.2,137.2z"/>
			<path class="st2" d="M87.2,140.9l-5.7-18.7c0,0,0-0.1,0-0.2c0-0.2,0.1-0.4,0.4-0.4h3.2c0.3,0,0.4,0.1,0.5,0.4l3.7,13.5
				c0,0.1,0.1,0.1,0.1,0.1s0.1,0,0.1-0.1l3.6-13.5c0.1-0.3,0.3-0.4,0.5-0.4h3.2c0.2,0,0.3,0.1,0.4,0.2s0.1,0.2,0,0.4l-5.8,18.7
				c-0.1,0.3-0.3,0.4-0.5,0.4h-3.2C87.4,141.3,87.3,141.1,87.2,140.9z"/>
			<path class="st2" d="M112.8,125.1h-9c-0.1,0-0.2,0.1-0.2,0.2v4.3c0,0.1,0.1,0.2,0.2,0.2h5.9c0.3,0,0.5,0.2,0.5,0.5v2.4
				c0,0.3-0.2,0.5-0.5,0.5h-5.9c-0.1,0-0.2,0.1-0.2,0.2v4.5c0,0.1,0.1,0.2,0.2,0.2h9c0.3,0,0.5,0.2,0.5,0.5v2.4
				c0,0.3-0.2,0.5-0.5,0.5h-12.7c-0.3,0-0.5-0.2-0.5-0.5v-18.6c0-0.3,0.2-0.5,0.5-0.5h12.7c0.3,0,0.5,0.2,0.5,0.5v2.4
				C113.2,124.9,113.1,125.1,112.8,125.1z"/>
			<path class="st2" d="M116,140.8v-18.6c0-0.3,0.2-0.5,0.5-0.5h2.9c0.2,0,0.4,0.1,0.6,0.3l7,11.6c0,0.1,0.1,0.1,0.1,0.1l0.1-0.1
				v-11.4c0-0.3,0.2-0.5,0.5-0.5h2.9c0.3,0,0.5,0.2,0.5,0.5v18.6c0,0.3-0.2,0.5-0.5,0.5h-2.9c-0.2,0-0.4-0.1-0.6-0.3l-7-11.8
				c0-0.1-0.1-0.1-0.1-0.1l-0.1,0.1v11.6c0,0.3-0.2,0.5-0.5,0.5h-3C116.1,141.3,116,141.1,116,140.8z"/>
			<path class="st2" d="M134.4,140.8v-18.6c0-0.3,0.2-0.5,0.5-0.5h3c0.3,0,0.5,0.2,0.5,0.5v18.6c0,0.3-0.2,0.5-0.5,0.5h-3
				C134.6,141.3,134.4,141.1,134.4,140.8z"/>
			<path class="st2" d="M153.8,140.9l-0.8-2.6c0-0.1-0.1-0.1-0.2-0.1H146c-0.1,0-0.1,0-0.2,0.1l-0.8,2.6c-0.1,0.3-0.3,0.4-0.5,0.4
				h-3.2c-0.2,0-0.3-0.1-0.4-0.2c-0.1-0.1-0.1-0.2,0-0.4l6-18.7c0.1-0.3,0.3-0.4,0.5-0.4h4.1c0.3,0,0.4,0.1,0.5,0.4l6,18.7
				c0,0,0,0.1,0,0.2c0,0.1,0,0.2-0.1,0.3s-0.2,0.1-0.3,0.1h-3.2C154.1,141.3,153.9,141.1,153.8,140.9z M147,135.1h5
				c0.1,0,0.2-0.1,0.1-0.2l-2.5-8.5c0-0.1-0.1-0.1-0.1-0.1s-0.1,0-0.1,0.1l-2.5,8.5C146.8,135,146.9,135.1,147,135.1z"/>
		</g>
	</g>
</g>
<g id="Layer_4" class="st0">
	<g class="st1">
		<g>
			<path class="st2" d="M102.3,10.4h1.9c0.6,0,0.9,0.3,0.9,0.9v59c0,0.6-0.3,0.9-0.9,0.9h-1.6c-0.6,0-0.9-0.3-0.9-0.9V14.8
				c0-0.1,0-0.2-0.1-0.3s-0.2-0.1-0.3,0l-10,4.9l-0.4,0.2c-0.2,0-0.3-0.1-0.4-0.2s-0.2-0.3-0.2-0.6v-1c0-0.4,0.2-0.8,0.6-1l10.3-6.1
				C101.5,10.5,101.9,10.4,102.3,10.4z"/>
		</g>
		<g>
			<path class="st2" d="M39.8,88.1C39.9,88,40,88,40.1,88h1.8c0.1,0,0.2,0,0.3,0.1s0.1,0.2,0.1,0.3v18.8c0,0.1,0,0.2-0.1,0.3
				s-0.2,0.1-0.3,0.1h-1.8c-0.1,0-0.2,0-0.3-0.1s-0.1-0.2-0.1-0.3V99c0-0.1,0-0.1-0.1-0.1h-7.9c-0.1,0-0.1,0-0.1,0.1v8.1
				c0,0.1,0,0.2-0.1,0.3c-0.1,0.1-0.2,0.1-0.3,0.1h-1.8c-0.1,0-0.2,0-0.3-0.1c-0.1-0.1-0.1-0.2-0.1-0.3V88.4c0-0.1,0-0.2,0.1-0.3
				C29,88,29.1,88,29.2,88H31c0.1,0,0.2,0,0.3,0.1c0.1,0.1,0.1,0.2,0.1,0.3v8c0,0.1,0,0.1,0.1,0.1h7.9c0.1,0,0.1,0,0.1-0.1v-8
				C39.7,88.3,39.7,88.2,39.8,88.1z"/>
			<path class="st2" d="M49.6,107c-1-0.6-1.9-1.3-2.4-2.4c-0.6-1-0.9-2.2-0.9-3.5v-6.7c0-1.3,0.3-2.5,0.9-3.5c0.6-1,1.4-1.8,2.4-2.4
				s2.2-0.8,3.6-0.8c1.4,0,2.6,0.3,3.6,0.8c1,0.6,1.9,1.3,2.4,2.4c0.6,1,0.9,2.2,0.9,3.5v6.7c0,1.3-0.3,2.5-0.9,3.5
				c-0.6,1-1.4,1.8-2.4,2.4s-2.3,0.8-3.6,0.8C51.8,107.8,50.6,107.6,49.6,107z M56.3,104.3c0.8-0.8,1.2-1.8,1.2-3.1v-6.8
				c0-1.3-0.4-2.4-1.2-3.1c-0.8-0.8-1.8-1.2-3.1-1.2s-2.3,0.4-3.1,1.2c-0.8,0.8-1.2,1.8-1.2,3.1v6.8c0,1.3,0.4,2.3,1.2,3.1
				c0.8,0.8,1.8,1.2,3.1,1.2S55.5,105.1,56.3,104.3z"/>
			<path class="st2" d="M67.3,107c-1-0.5-1.8-1.3-2.4-2.3s-0.9-2.1-0.9-3.4v-13c0-0.1,0-0.2,0.1-0.3c0.1-0.1,0.2-0.1,0.3-0.1h1.8
				c0.1,0,0.2,0,0.3,0.1s0.1,0.2,0.1,0.3v13c0,1.2,0.4,2.2,1.2,2.9c0.8,0.7,1.8,1.1,3,1.1s2.3-0.4,3-1.1c0.8-0.7,1.1-1.7,1.1-2.9
				v-13c0-0.1,0-0.2,0.1-0.3c0.1-0.1,0.2-0.1,0.3-0.1h1.8c0.1,0,0.2,0,0.3,0.1c0.1,0.1,0.1,0.2,0.1,0.3v13c0,1.3-0.3,2.4-0.9,3.4
				s-1.4,1.7-2.4,2.3c-1,0.5-2.2,0.8-3.6,0.8C69.6,107.8,68.4,107.6,67.3,107z"/>
			<path class="st2" d="M93,107.3L89.1,99c0-0.1-0.1-0.1-0.2-0.1H85c-0.1,0-0.1,0-0.1,0.1v8.1c0,0.1,0,0.2-0.1,0.3
				c-0.1,0.1-0.2,0.1-0.3,0.1h-1.8c-0.1,0-0.2,0-0.3-0.1c-0.1-0.1-0.1-0.2-0.1-0.3V88.4c0-0.1,0-0.2,0.1-0.3
				c0.1-0.1,0.2-0.1,0.3-0.1H90c1.1,0,2.1,0.2,3,0.7c0.8,0.5,1.5,1.1,2,2c0.5,0.8,0.7,1.8,0.7,2.9c0,1.3-0.3,2.4-1,3.3
				s-1.6,1.5-2.8,1.8c-0.1,0-0.1,0.1-0.1,0.2l4,8.3l0.1,0.2c0,0.2-0.1,0.3-0.4,0.3h-1.9C93.2,107.6,93.1,107.5,93,107.3z M84.9,90.4
				v6.2c0,0.1,0,0.1,0.1,0.1h4.6c1,0,1.8-0.3,2.4-0.9s0.9-1.4,0.9-2.3c0-1-0.3-1.8-0.9-2.4s-1.4-0.9-2.4-0.9H85
				C84.9,90.3,84.9,90.3,84.9,90.4z"/>
			<path class="st2" d="M117.8,90.2c-0.1,0.1-0.2,0.1-0.3,0.1h-9.7c-0.1,0-0.1,0-0.1,0.1v6c0,0.1,0,0.1,0.1,0.1h6.6
				c0.1,0,0.2,0,0.3,0.1c0.1,0.1,0.1,0.2,0.1,0.3v1.5c0,0.1,0,0.2-0.1,0.3c-0.1,0.1-0.2,0.1-0.3,0.1h-6.6c-0.1,0-0.1,0-0.1,0.1v8.1
				c0,0.1,0,0.2-0.1,0.3c-0.1,0.1-0.2,0.1-0.3,0.1h-1.8c-0.1,0-0.2,0-0.3-0.1c-0.1-0.1-0.1-0.2-0.1-0.3V88.4c0-0.1,0-0.2,0.1-0.3
				c0.1-0.1,0.2-0.1,0.3-0.1h12.2c0.1,0,0.2,0,0.3,0.1s0.1,0.2,0.1,0.3v1.5C117.9,90,117.9,90.1,117.8,90.2z"/>
			<path class="st2" d="M131.6,107.3l-3.9-8.3c0-0.1-0.1-0.1-0.2-0.1h-3.9c-0.1,0-0.1,0-0.1,0.1v8.1c0,0.1,0,0.2-0.1,0.3
				c-0.1,0.1-0.2,0.1-0.3,0.1h-1.8c-0.1,0-0.2,0-0.3-0.1c-0.1-0.1-0.1-0.2-0.1-0.3V88.4c0-0.1,0-0.2,0.1-0.3
				c0.1-0.1,0.2-0.1,0.3-0.1h7.4c1.1,0,2.1,0.2,3,0.7c0.8,0.5,1.5,1.1,2,2c0.5,0.8,0.7,1.8,0.7,2.9c0,1.3-0.3,2.4-1,3.3
				s-1.6,1.5-2.8,1.8c-0.1,0-0.1,0.1-0.1,0.2l4,8.3l0.1,0.2c0,0.2-0.1,0.3-0.4,0.3h-1.9C131.8,107.6,131.7,107.5,131.6,107.3z
				 M123.5,90.4v6.2c0,0.1,0,0.1,0.1,0.1h4.6c1,0,1.8-0.3,2.4-0.9c0.6-0.6,0.9-1.4,0.9-2.3c0-1-0.3-1.8-0.9-2.4
				c-0.6-0.6-1.4-0.9-2.4-0.9h-4.6C123.5,90.3,123.5,90.3,123.5,90.4z"/>
			<path class="st2" d="M140.7,107c-1-0.6-1.9-1.3-2.4-2.4c-0.6-1-0.9-2.2-0.9-3.5v-6.7c0-1.3,0.3-2.5,0.9-3.5
				c0.6-1,1.4-1.8,2.4-2.4s2.2-0.8,3.6-0.8c1.4,0,2.6,0.3,3.6,0.8c1,0.6,1.9,1.3,2.4,2.4c0.6,1,0.9,2.2,0.9,3.5v6.7
				c0,1.3-0.3,2.5-0.9,3.5c-0.6,1-1.4,1.8-2.4,2.4s-2.3,0.8-3.6,0.8S141.8,107.6,140.7,107z M147.4,104.3c0.8-0.8,1.2-1.8,1.2-3.1
				v-6.8c0-1.3-0.4-2.4-1.2-3.1c-0.8-0.8-1.8-1.2-3.1-1.2s-2.3,0.4-3.1,1.2c-0.8,0.8-1.2,1.8-1.2,3.1v6.8c0,1.3,0.4,2.3,1.2,3.1
				c0.8,0.8,1.8,1.2,3.1,1.2S146.6,105.1,147.4,104.3z"/>
			<path class="st2" d="M155.5,107.5c-0.1-0.1-0.1-0.2-0.1-0.3V88.4c0-0.1,0-0.2,0.1-0.3c0.1-0.1,0.2-0.1,0.3-0.1h1.9
				c0.2,0,0.4,0.1,0.5,0.3l4.7,7.5c0.1,0.1,0.1,0.1,0.2,0l4.7-7.5c0.1-0.2,0.3-0.3,0.5-0.3h1.9c0.1,0,0.2,0,0.3,0.1s0.1,0.2,0.1,0.3
				v18.8c0,0.1,0,0.2-0.1,0.3c-0.1,0.1-0.2,0.1-0.3,0.1h-1.8c-0.1,0-0.2,0-0.3-0.1s-0.1-0.2-0.1-0.3V93c0-0.1,0-0.1-0.1-0.1
				c0,0-0.1,0-0.1,0.1l-3.8,6.2c-0.1,0.2-0.3,0.3-0.5,0.3h-0.9c-0.2,0-0.4-0.1-0.5-0.3l-3.8-6.2c0-0.1-0.1-0.1-0.1-0.1l-0.1,0.1
				v14.2c0,0.1,0,0.2-0.1,0.3c-0.1,0.1-0.2,0.1-0.3,0.1h-1.8C155.7,107.6,155.6,107.6,155.5,107.5z"/>
		</g>
		<g>
			<path class="st2" d="M65.1,140.7v-18.6c0-0.3,0.2-0.5,0.5-0.5h3c0.3,0,0.5,0.2,0.5,0.5v18.6c0,0.3-0.2,0.5-0.5,0.5h-3
				C65.2,141.2,65.1,141,65.1,140.7z"/>
			<path class="st2" d="M86.3,122.1v2.5c0,0.3-0.2,0.5-0.5,0.5H81c-0.1,0-0.2,0.1-0.2,0.2v15.5c0,0.3-0.2,0.5-0.5,0.5h-3
				c-0.3,0-0.5-0.2-0.5-0.5v-15.5c0-0.1-0.1-0.2-0.2-0.2H72c-0.3,0-0.5-0.2-0.5-0.5v-2.5c0-0.3,0.2-0.5,0.5-0.5h13.8
				C86.1,121.6,86.3,121.8,86.3,122.1z"/>
			<path class="st2" d="M99.1,140.8l-0.8-2.6c0-0.1-0.1-0.1-0.2-0.1h-6.9c-0.1,0-0.1,0-0.2,0.1l-0.8,2.6c-0.1,0.3-0.3,0.4-0.5,0.4
				h-3.2c-0.2,0-0.3-0.1-0.4-0.2c-0.1-0.1-0.1-0.2,0-0.4l6-18.7c0.1-0.3,0.3-0.4,0.5-0.4h4.1c0.3,0,0.4,0.1,0.5,0.4l6,18.7
				c0,0,0,0.1,0,0.2c0,0.1,0,0.2-0.1,0.3s-0.2,0.1-0.3,0.1h-3.2C99.4,141.2,99.2,141.1,99.1,140.8z M92.3,135h5
				c0.1,0,0.2-0.1,0.1-0.2l-2.5-8.5c0-0.1-0.1-0.1-0.1-0.1s-0.1,0-0.1,0.1l-2.5,8.5C92.1,134.9,92.2,135,92.3,135z"/>
			<path class="st2" d="M105.8,140.7v-18.6c0-0.3,0.2-0.5,0.5-0.5h3c0.3,0,0.5,0.2,0.5,0.5v15.6c0,0.1,0.1,0.2,0.2,0.2h9
				c0.3,0,0.5,0.2,0.5,0.5v2.4c0,0.3-0.2,0.5-0.5,0.5h-12.6C106,141.2,105.8,141,105.8,140.7z"/>
			<path class="st2" d="M125.4,140.7v-6.9l-0.1-0.2l-5.7-11.4c-0.1-0.1-0.1-0.2-0.1-0.3c0-0.1,0-0.2,0.1-0.2
				c0.1-0.1,0.2-0.1,0.3-0.1h3.2c0.3,0,0.4,0.1,0.6,0.4l3.4,7.3c0,0.1,0.1,0.1,0.1,0.1s0.1,0,0.1-0.1l3.4-7.3
				c0.1-0.2,0.3-0.4,0.6-0.4h3.3c0.3,0,0.4,0.1,0.4,0.3c0,0.1,0,0.2-0.1,0.2l-5.7,11.4l-0.1,0.2v6.9c0,0.3-0.2,0.5-0.5,0.5h-3
				C125.6,141.2,125.4,141,125.4,140.7z"/>
		</g>
	</g>
</g>
<g id="Layer_6" class="st0">
	<g class="st1">
		<g>
			<path class="st2" d="M69,10.7h1.9c0.6,0,0.9,0.3,0.9,0.9v59c0,0.6-0.3,0.9-0.9,0.9h-1.6c-0.6,0-0.9-0.3-0.9-0.9V15
				c0-0.1,0-0.2-0.1-0.3s-0.2-0.1-0.3,0l-10,4.9l-0.4,0.2c-0.2,0-0.3-0.1-0.4-0.2C57,19.5,57,19.3,57,19.1v-1c0-0.4,0.2-0.8,0.6-1
				L67.9,11C68.2,10.8,68.6,10.7,69,10.7z"/>
			<path class="st2" d="M90.2,10.7h1.5c0.6,0,0.9,0.3,0.9,0.9v34.7c0,0.6-0.3,0.9-0.9,0.9h-1.1c-0.6,0-0.9-0.3-0.9-0.9V14.1
				c0-0.1,0-0.2-0.1-0.3s-0.2-0.1-0.2,0l-3.3,1l-0.3,0.1c-0.5,0-0.7-0.3-0.7-0.9v-0.5c0-0.5,0.2-0.8,0.7-1l3.4-1.5
				C89.5,10.8,89.9,10.7,90.2,10.7z M90.6,71.1c-0.1-0.2,0-0.4,0.1-0.7l38-59.1c0.3-0.4,0.6-0.6,1-0.6h1.2c0.3,0,0.6,0.1,0.7,0.3
				c0.1,0.2,0,0.4-0.1,0.7L93.4,70.8c-0.3,0.4-0.6,0.6-1,0.6h-1.1C90.9,71.4,90.7,71.3,90.6,71.1z M124.7,70.6v-1
				c0-0.4,0.1-0.8,0.3-1l2.2-2.8c4.2-5.1,7.4-9.1,9.6-12.2c3.3-4.3,4.9-7.6,4.9-10.1c0-2-0.7-3.5-2-4.7s-3.1-1.8-5.3-1.8
				c-2.1,0-3.9,0.6-5.2,1.8s-1.9,2.8-1.9,4.8V45c0,0.6-0.3,0.9-0.9,0.9h-1.1c-0.6,0-0.9-0.3-0.9-0.9v-1.7c0.1-2.6,1-4.7,2.8-6.3
				s4.2-2.4,7.1-2.4c3,0,5.4,0.9,7.3,2.6c1.9,1.7,2.8,3.9,2.8,6.5c0,3-1.6,6.6-4.9,10.9c-2.8,3.7-6.5,8.4-11,14.1
				c-0.2,0.3-0.1,0.4,0.2,0.4h16.1c0.6,0,0.9,0.3,0.9,0.9v0.7c0,0.6-0.3,0.9-0.9,0.9h-19.4C125,71.4,124.7,71.2,124.7,70.6z"/>
		</g>
		<g>
			<path class="st2" d="M32,88.4c0.1-0.1,0.2-0.1,0.3-0.1h1.8c0.1,0,0.2,0,0.3,0.1s0.1,0.2,0.1,0.3v18.8c0,0.1,0,0.2-0.1,0.3
				s-0.2,0.1-0.3,0.1h-1.8c-0.1,0-0.2,0-0.3-0.1c-0.1-0.1-0.1-0.2-0.1-0.3v-8.1c0-0.1,0-0.1-0.1-0.1h-7.9c-0.1,0-0.1,0-0.1,0.1v8.1
				c0,0.1,0,0.2-0.1,0.3c-0.1,0.1-0.2,0.1-0.3,0.1h-1.8c-0.1,0-0.2,0-0.3-0.1c-0.1-0.1-0.1-0.2-0.1-0.3V88.7c0-0.1,0-0.2,0.1-0.3
				c0.1-0.1,0.2-0.1,0.3-0.1h1.8c0.1,0,0.2,0,0.3,0.1c0.1,0.1,0.1,0.2,0.1,0.3v8c0,0.1,0,0.1,0.1,0.1h7.9c0.1,0,0.1,0,0.1-0.1v-8
				C31.9,88.5,31.9,88.4,32,88.4z"/>
			<path class="st2" d="M41.8,107.3c-1-0.6-1.9-1.3-2.4-2.4c-0.6-1-0.9-2.2-0.9-3.5v-6.7c0-1.3,0.3-2.5,0.9-3.5
				c0.6-1,1.4-1.8,2.4-2.4S44,88,45.4,88c1.4,0,2.6,0.3,3.6,0.8c1,0.6,1.9,1.3,2.4,2.4c0.6,1,0.9,2.2,0.9,3.5v6.7
				c0,1.3-0.3,2.5-0.9,3.5c-0.6,1-1.4,1.8-2.4,2.4s-2.3,0.8-3.6,0.8C44.1,108.1,42.9,107.8,41.8,107.3z M48.5,104.6
				c0.8-0.8,1.2-1.8,1.2-3.1v-6.8c0-1.3-0.4-2.4-1.2-3.1c-0.8-0.8-1.8-1.2-3.1-1.2s-2.3,0.4-3.1,1.2c-0.8,0.8-1.2,1.8-1.2,3.1v6.8
				c0,1.3,0.4,2.3,1.2,3.1c0.8,0.8,1.8,1.2,3.1,1.2S47.8,105.4,48.5,104.6z"/>
			<path class="st2" d="M59.6,107.3c-1-0.5-1.8-1.3-2.4-2.3s-0.9-2.1-0.9-3.4v-13c0-0.1,0-0.2,0.1-0.3c0.1-0.1,0.2-0.1,0.3-0.1h1.8
				c0.1,0,0.2,0,0.3,0.1s0.1,0.2,0.1,0.3v13c0,1.2,0.4,2.2,1.2,2.9c0.8,0.7,1.8,1.1,3,1.1c1.3,0,2.3-0.4,3-1.1
				c0.8-0.7,1.1-1.7,1.1-2.9v-13c0-0.1,0-0.2,0.1-0.3c0.1-0.1,0.2-0.1,0.3-0.1h1.8c0.1,0,0.2,0,0.3,0.1c0.1,0.1,0.1,0.2,0.1,0.3v13
				c0,1.3-0.3,2.4-0.9,3.4s-1.4,1.7-2.4,2.3c-1,0.5-2.2,0.8-3.6,0.8C61.8,108.1,60.6,107.8,59.6,107.3z"/>
			<path class="st2" d="M85.2,107.5l-3.9-8.3c0-0.1-0.1-0.1-0.2-0.1h-3.9c-0.1,0-0.1,0-0.1,0.1v8.1c0,0.1,0,0.2-0.1,0.3
				c-0.1,0.1-0.2,0.1-0.3,0.1h-1.8c-0.1,0-0.2,0-0.3-0.1c-0.1-0.1-0.1-0.2-0.1-0.3V88.6c0-0.1,0-0.2,0.1-0.3
				c0.1-0.1,0.2-0.1,0.3-0.1h7.4c1.1,0,2.1,0.2,3,0.7c0.8,0.5,1.5,1.1,2,2c0.5,0.8,0.7,1.8,0.7,2.9c0,1.3-0.3,2.4-1,3.3
				s-1.6,1.5-2.8,1.8C84,99,83.9,99,84,99.1l4,8.3l0.1,0.2c0,0.2-0.1,0.3-0.4,0.3h-1.9C85.5,107.8,85.3,107.7,85.2,107.5z
				 M77.1,90.7v6.2c0,0.1,0,0.1,0.1,0.1h4.6c1,0,1.8-0.3,2.4-0.9s0.9-1.4,0.9-2.3c0-1-0.3-1.8-0.9-2.4s-1.4-0.9-2.4-0.9h-4.6
				C77.2,90.5,77.1,90.6,77.1,90.7z"/>
			<path class="st2" d="M94,107.4c-1-0.4-1.9-1.1-2.4-1.9c-0.6-0.8-0.9-1.8-0.9-2.9v-0.7c0-0.1,0-0.2,0.1-0.3s0.2-0.1,0.3-0.1h1.8
				c0.1,0,0.2,0,0.3,0.1c0.1,0.1,0.1,0.2,0.1,0.3v0.5c0,1,0.4,1.7,1.2,2.4c0.8,0.6,1.9,0.9,3.3,0.9c1.3,0,2.3-0.3,2.9-0.8
				c0.7-0.5,1-1.3,1-2.1c0-0.6-0.2-1.1-0.5-1.5s-0.8-0.8-1.5-1.1c-0.6-0.3-1.6-0.8-2.8-1.2c-1.4-0.5-2.4-1-3.2-1.4
				c-0.8-0.4-1.5-1-2-1.7s-0.8-1.6-0.8-2.6c0-1.6,0.6-2.9,1.7-3.8s2.7-1.4,4.7-1.4c1.4,0,2.6,0.2,3.6,0.7s1.9,1.1,2.4,2
				s0.9,1.8,0.9,2.9V94c0,0.1,0,0.2-0.1,0.3c-0.1,0.1-0.2,0.1-0.3,0.1H102c-0.1,0-0.2,0-0.3-0.1c-0.1-0.1-0.1-0.2-0.1-0.3v-0.3
				c0-1-0.4-1.8-1.2-2.4s-1.8-1-3.2-1c-1.2,0-2.1,0.2-2.7,0.7s-1,1.2-1,2.1c0,0.6,0.2,1.1,0.5,1.5s0.8,0.7,1.4,1s1.6,0.7,2.9,1.2
				s2.4,1,3.2,1.4c0.8,0.4,1.5,1,2,1.7s0.8,1.6,0.8,2.7s-0.3,2-0.8,2.8s-1.3,1.4-2.4,1.9c-1,0.4-2.2,0.7-3.6,0.7
				C96.2,108.1,95,107.8,94,107.4z"/>
			<path class="st2" d="M126.5,90.5c-0.1,0.1-0.2,0.1-0.3,0.1h-9.7c-0.1,0-0.1,0-0.1,0.1v6c0,0.1,0,0.1,0.1,0.1h6.6
				c0.1,0,0.2,0,0.3,0.1c0.1,0.1,0.1,0.2,0.1,0.3v1.5c0,0.1,0,0.2-0.1,0.3c-0.1,0.1-0.2,0.1-0.3,0.1h-6.6c-0.1,0-0.1,0-0.1,0.1v8.1
				c0,0.1,0,0.2-0.1,0.3c-0.1,0.1-0.2,0.1-0.3,0.1h-1.8c-0.1,0-0.2,0-0.3-0.1c-0.1-0.1-0.1-0.2-0.1-0.3V88.7c0-0.1,0-0.2,0.1-0.3
				c0.1-0.1,0.2-0.1,0.3-0.1h12.2c0.1,0,0.2,0,0.3,0.1s0.1,0.2,0.1,0.3v1.5C126.7,90.3,126.6,90.4,126.5,90.5z"/>
			<path class="st2" d="M140.3,107.5l-3.9-8.3c0-0.1-0.1-0.1-0.2-0.1h-3.9c-0.1,0-0.1,0-0.1,0.1v8.1c0,0.1,0,0.2-0.1,0.3
				c-0.1,0.1-0.2,0.1-0.3,0.1H130c-0.1,0-0.2,0-0.3-0.1s-0.1-0.2-0.1-0.3V88.6c0-0.1,0-0.2,0.1-0.3c0.1-0.1,0.2-0.1,0.3-0.1h7.4
				c1.1,0,2.1,0.2,3,0.7c0.8,0.5,1.5,1.1,2,2c0.5,0.8,0.7,1.8,0.7,2.9c0,1.3-0.3,2.4-1,3.3s-1.6,1.5-2.8,1.8c-0.1,0-0.1,0.1-0.1,0.2
				l4,8.3l0.1,0.2c0,0.2-0.1,0.3-0.4,0.3H141C140.5,107.8,140.4,107.7,140.3,107.5z M132.2,90.7v6.2c0,0.1,0,0.1,0.1,0.1h4.6
				c1,0,1.8-0.3,2.4-0.9c0.6-0.6,0.9-1.4,0.9-2.3c0-1-0.3-1.8-0.9-2.4c-0.6-0.6-1.4-0.9-2.4-0.9h-4.6
				C132.2,90.5,132.2,90.6,132.2,90.7z"/>
			<path class="st2" d="M149.4,107.3c-1-0.6-1.9-1.3-2.4-2.4c-0.6-1-0.9-2.2-0.9-3.5v-6.7c0-1.3,0.3-2.5,0.9-3.5
				c0.6-1,1.4-1.8,2.4-2.4s2.2-0.8,3.6-0.8c1.4,0,2.6,0.3,3.6,0.8c1,0.6,1.9,1.3,2.4,2.4c0.6,1,0.9,2.2,0.9,3.5v6.7
				c0,1.3-0.3,2.5-0.9,3.5c-0.6,1-1.4,1.8-2.4,2.4s-2.3,0.8-3.6,0.8C151.7,108.1,150.5,107.8,149.4,107.3z M156.1,104.6
				c0.8-0.8,1.2-1.8,1.2-3.1v-6.8c0-1.3-0.4-2.4-1.2-3.1c-0.8-0.8-1.8-1.2-3.1-1.2s-2.3,0.4-3.1,1.2c-0.8,0.8-1.2,1.8-1.2,3.1v6.8
				c0,1.3,0.4,2.3,1.2,3.1c0.8,0.8,1.8,1.2,3.1,1.2S155.3,105.4,156.1,104.6z"/>
			<path class="st2" d="M164.2,107.7c-0.1-0.1-0.1-0.2-0.1-0.3V88.7c0-0.1,0-0.2,0.1-0.3c0.1-0.1,0.2-0.1,0.3-0.1h1.9
				c0.2,0,0.4,0.1,0.5,0.3l4.7,7.5c0.1,0.1,0.1,0.1,0.2,0l4.7-7.5c0.1-0.2,0.3-0.3,0.5-0.3h1.9c0.1,0,0.2,0,0.3,0.1s0.1,0.2,0.1,0.3
				v18.8c0,0.1,0,0.2-0.1,0.3c-0.1,0.1-0.2,0.1-0.3,0.1H177c-0.1,0-0.2,0-0.3-0.1s-0.1-0.2-0.1-0.3V93.2c0-0.1,0-0.1-0.1-0.1
				c0,0-0.1,0-0.1,0.1l-3.8,6.2c-0.1,0.2-0.3,0.3-0.5,0.3h-0.9c-0.2,0-0.4-0.1-0.5-0.3l-3.8-6.2c0-0.1-0.1-0.1-0.1-0.1l-0.1,0.1
				v14.2c0,0.1,0,0.2-0.1,0.3c-0.1,0.1-0.2,0.1-0.3,0.1h-1.8C164.4,107.8,164.3,107.8,164.2,107.7z"/>
		</g>
		<g>
			<path class="st2" d="M42.5,140.8c-1.1-0.6-2-1.4-2.6-2.4s-0.9-2.2-0.9-3.6v-6.3c0-1.4,0.3-2.6,0.9-3.6s1.5-1.9,2.6-2.4
				c1.1-0.6,2.4-0.9,3.8-0.9c1.4,0,2.7,0.3,3.8,0.8c1.1,0.6,1.9,1.3,2.5,2.3s0.9,2,0.9,3.2v0.1c0,0.3-0.2,0.5-0.5,0.5h-3
				c-0.1,0-0.3,0-0.3-0.1c-0.1,0-0.1-0.1-0.1-0.2V128c0-0.9-0.3-1.6-0.9-2.2c-0.6-0.6-1.4-0.9-2.4-0.9s-1.8,0.3-2.4,0.9
				c-0.6,0.6-0.9,1.4-0.9,2.5v6.5c0,1,0.3,1.8,1,2.4c0.7,0.6,1.5,0.9,2.5,0.9s1.7-0.3,2.3-0.8s0.9-1.2,0.9-2.1V134
				c0-0.1-0.1-0.2-0.2-0.2h-3c-0.3,0-0.5-0.2-0.5-0.5V131c0-0.3,0.2-0.5,0.5-0.5H53c0.3,0,0.5,0.2,0.5,0.5v3.6
				c0,1.4-0.3,2.7-0.9,3.7c-0.6,1-1.4,1.8-2.5,2.4c-1.1,0.6-2.4,0.8-3.8,0.8S43.6,141.4,42.5,140.8z"/>
			<path class="st2" d="M69.5,125.2h-9c-0.1,0-0.2,0.1-0.2,0.2v4.3c0,0.1,0.1,0.2,0.2,0.2h5.9c0.3,0,0.5,0.2,0.5,0.5v2.4
				c0,0.3-0.2,0.5-0.5,0.5h-5.9c-0.1,0-0.2,0.1-0.2,0.2v4.5c0,0.1,0.1,0.2,0.2,0.2h9c0.3,0,0.5,0.2,0.5,0.5v2.4
				c0,0.3-0.2,0.5-0.5,0.5H56.9c-0.3,0-0.5-0.2-0.5-0.5v-18.6c0-0.3,0.2-0.5,0.5-0.5h12.7c0.3,0,0.5,0.2,0.5,0.5v2.4
				C70,125.1,69.8,125.2,69.5,125.2z"/>
			<path class="st2" d="M83,141.1l-3.4-7.6c0-0.1-0.1-0.1-0.2-0.1h-2.5c-0.1,0-0.2,0.1-0.2,0.2v7.5c0,0.3-0.2,0.5-0.5,0.5h-3
				c-0.3,0-0.5-0.2-0.5-0.5v-18.7c0-0.3,0.2-0.5,0.5-0.5h7.9c1.2,0,2.2,0.2,3.2,0.7c0.9,0.5,1.6,1.2,2.1,2.1s0.7,1.9,0.7,3.1
				c0,1.3-0.3,2.4-1,3.3s-1.5,1.6-2.6,1.9c-0.1,0-0.1,0.1-0.1,0.1v0.1l3.7,7.7c0.1,0.1,0.1,0.2,0.1,0.3s0,0.2-0.1,0.2
				c-0.1,0.1-0.2,0.1-0.3,0.1h-3.2C83.3,141.4,83.2,141.3,83,141.1z M76.7,125.4v4.7c0,0.1,0.1,0.2,0.2,0.2h3.6
				c0.8,0,1.4-0.2,1.9-0.7s0.7-1.1,0.7-1.8s-0.2-1.4-0.7-1.8c-0.5-0.5-1.1-0.7-1.9-0.7h-3.6C76.7,125.2,76.7,125.3,76.7,125.4z"/>
			<path class="st2" d="M89.9,141v-18.6c0-0.3,0.2-0.5,0.5-0.5h3c0.2,0,0.4,0.1,0.6,0.3l4.1,6.6c0,0.1,0.1,0.1,0.1,0.1
				s0.1,0,0.1-0.1l4.1-6.6c0.1-0.2,0.3-0.3,0.6-0.3h3c0.3,0,0.5,0.2,0.5,0.5V141c0,0.3-0.2,0.5-0.5,0.5h-3c-0.3,0-0.5-0.2-0.5-0.5
				v-12.1c0-0.1,0-0.1-0.1-0.1c0,0-0.1,0-0.1,0.1l-2.8,4.6c-0.1,0.2-0.3,0.3-0.6,0.3h-1.4c-0.2,0-0.4-0.1-0.6-0.3l-2.8-4.6
				c0-0.1-0.1-0.1-0.1-0.1l-0.1,0.1V141c0,0.3-0.2,0.5-0.5,0.5h-3C90.1,141.4,89.9,141.3,89.9,141z"/>
			<path class="st2" d="M121.9,141.1l-0.8-2.6c0-0.1-0.1-0.1-0.2-0.1H114c-0.1,0-0.1,0-0.2,0.1l-0.8,2.6c-0.1,0.3-0.3,0.4-0.5,0.4
				h-3.2c-0.2,0-0.3-0.1-0.4-0.2c-0.1-0.1-0.1-0.2,0-0.4l6-18.7c0.1-0.3,0.3-0.4,0.5-0.4h4.1c0.3,0,0.4,0.1,0.5,0.4l6,18.7
				c0,0,0,0.1,0,0.2c0,0.1,0,0.2-0.1,0.3s-0.2,0.1-0.3,0.1h-3.2C122.2,141.4,122,141.3,121.9,141.1z M115,135.3h5
				c0.1,0,0.2-0.1,0.1-0.2l-2.5-8.5c0-0.1-0.1-0.1-0.1-0.1s-0.1,0-0.1,0.1l-2.5,8.5C114.9,135.2,114.9,135.3,115,135.3z"/>
			<path class="st2" d="M128.6,141v-18.6c0-0.3,0.2-0.5,0.5-0.5h2.9c0.2,0,0.4,0.1,0.6,0.3l7,11.6c0,0.1,0.1,0.1,0.1,0.1l0.1-0.1
				v-11.4c0-0.3,0.2-0.5,0.5-0.5h2.9c0.3,0,0.5,0.2,0.5,0.5V141c0,0.3-0.2,0.5-0.5,0.5h-2.9c-0.2,0-0.4-0.1-0.6-0.3l-7-11.8
				c0-0.1-0.1-0.1-0.1-0.1l-0.1,0.1V141c0,0.3-0.2,0.5-0.5,0.5h-3C128.8,141.4,128.6,141.3,128.6,141z"/>
			<path class="st2" d="M152,140.9V134l-0.1-0.2l-5.7-11.4c-0.1-0.1-0.1-0.2-0.1-0.3c0-0.1,0-0.2,0.1-0.2c0.1-0.1,0.2-0.1,0.3-0.1
				h3.2c0.3,0,0.4,0.1,0.6,0.4l3.4,7.3c0,0.1,0.1,0.1,0.1,0.1s0.1,0,0.1-0.1l3.4-7.3c0.1-0.2,0.3-0.4,0.6-0.4h3.3
				c0.3,0,0.4,0.1,0.4,0.3c0,0.1,0,0.2-0.1,0.2l-5.7,11.4l-0.1,0.2v6.9c0,0.3-0.2,0.5-0.5,0.5h-3C152.2,141.4,152,141.3,152,140.9z"
				/>
		</g>
	</g>
</g>
<g>
	<path class="st2" d="M64.2,11.8h1.9c0.6,0,0.9,0.3,0.9,0.9v58.4c0,0.6-0.3,0.9-0.9,0.9h-1.6c-0.6,0-0.9-0.3-0.9-0.9v-55
		c0-0.1,0-0.2-0.1-0.3c-0.1-0.1-0.2-0.1-0.3,0l-9.9,4.9l-0.4,0.2c-0.2,0-0.3-0.1-0.4-0.2c-0.1-0.1-0.2-0.3-0.2-0.6v-1
		c0-0.4,0.2-0.7,0.6-1l10.2-6C63.3,11.9,63.7,11.8,64.2,11.8z"/>
	<path class="st2" d="M100.2,36.3c0,2.5-0.4,4.6-1.3,6.4c-0.8,1.6-1.9,2.8-3.4,3.7c-1.5,0.9-3.3,1.3-5.3,1.3c-2.3,0-4.3-0.6-5.9-1.9
		c-1.6-1.3-2.7-2.9-3.4-5.1c-0.3-0.9-0.5-2.1-0.5-3.4c0-0.6,0.3-0.9,0.9-0.9h1.1c0.6,0,0.9,0.3,0.9,0.9c0,0.7,0.1,1.6,0.2,2.5
		c0.3,1.6,1,2.9,2.3,3.9c1.2,1,2.7,1.5,4.5,1.5c2.9,0,4.9-1.1,6.1-3.4c0.7-1.6,1.1-3.4,1.1-5.3c0-2.4-0.4-4.4-1.3-5.9
		c-1.1-2.3-3.1-3.4-5.9-3.4c-0.6,0-1,0.1-1.3,0.2h-0.3c-0.3,0-0.6-0.1-0.8-0.3l-0.4-0.5c-0.2-0.2-0.3-0.4-0.3-0.6
		c0-0.2,0.1-0.4,0.3-0.6L96.2,14c0.1-0.1,0.1-0.2,0.1-0.3c-0.1-0.1-0.1-0.1-0.3-0.1H81.4c-0.6,0-0.9-0.3-0.9-0.9V12
		c0-0.6,0.3-0.9,0.9-0.9H99c0.6,0,0.9,0.3,0.9,0.9v0.9c0,0.4-0.1,0.7-0.3,1l-8.2,10.5c-0.1,0.1-0.1,0.2-0.1,0.3
		c0.1,0.1,0.2,0.1,0.3,0.1c3.3,0.2,5.6,1.7,7.1,4.5C99.7,31.3,100.2,33.6,100.2,36.3z M94.4,71.6c-0.1-0.2,0-0.4,0.1-0.7l37.6-58.5
		c0.3-0.4,0.6-0.6,1-0.6h1.2c0.3,0,0.6,0.1,0.6,0.3c0.1,0.2,0,0.4-0.1,0.7L97.2,71.3c-0.3,0.4-0.6,0.6-1,0.6H95
		C94.7,71.9,94.5,71.8,94.4,71.6z M149.2,60.2V61c0,0.6-0.3,0.9-0.9,0.9h-1.6c-0.2,0-0.3,0.1-0.3,0.3v8.8c0,0.6-0.3,0.9-0.9,0.9
		h-1.1c-0.6,0-0.9-0.3-0.9-0.9v-8.8c0-0.2-0.1-0.3-0.3-0.3h-14.8c-0.6,0-0.9-0.3-0.9-0.9v-0.9c0-0.3,0.1-0.6,0.3-1l10.6-22.7
		c0.2-0.4,0.5-0.6,0.9-0.6h1c0.3,0,0.5,0.1,0.6,0.3c0.1,0.2,0.1,0.4,0,0.7l-10.3,22c-0.1,0.1-0.1,0.2,0,0.3c0.1,0.1,0.1,0.1,0.3,0.1
		h12.2c0.2,0,0.3-0.1,0.3-0.3v-8.2c0-0.6,0.3-0.9,0.9-0.9h1.1c0.6,0,0.9,0.3,0.9,0.9V59c0,0.2,0.1,0.3,0.3,0.3h1.6
		C148.9,59.3,149.2,59.6,149.2,60.2z"/>
</g>
<g>
	<path class="st2" d="M32.6,88.7c0.1-0.1,0.2-0.1,0.3-0.1h1.8c0.1,0,0.2,0,0.3,0.1c0.1,0.1,0.1,0.2,0.1,0.3v18.6
		c0,0.1,0,0.2-0.1,0.3c-0.1,0.1-0.2,0.1-0.3,0.1h-1.8c-0.1,0-0.2,0-0.3-0.1c-0.1-0.1-0.1-0.2-0.1-0.3v-8.1c0-0.1,0-0.1-0.1-0.1h-7.8
		c-0.1,0-0.1,0-0.1,0.1v8.1c0,0.1,0,0.2-0.1,0.3c-0.1,0.1-0.2,0.1-0.3,0.1h-1.8c-0.1,0-0.2,0-0.3-0.1c-0.1-0.1-0.1-0.2-0.1-0.3V89
		c0-0.1,0-0.2,0.1-0.3c0.1-0.1,0.2-0.1,0.3-0.1h1.8c0.1,0,0.2,0,0.3,0.1c0.1,0.1,0.1,0.2,0.1,0.3v7.9c0,0.1,0,0.1,0.1,0.1h7.8
		c0.1,0,0.1,0,0.1-0.1V89C32.4,88.8,32.5,88.7,32.6,88.7z"/>
	<path class="st2" d="M42.3,107.4c-1-0.6-1.8-1.3-2.4-2.3c-0.6-1-0.9-2.2-0.9-3.5V95c0-1.3,0.3-2.5,0.9-3.5c0.6-1,1.4-1.8,2.4-2.3
		c1-0.6,2.2-0.8,3.6-0.8c1.4,0,2.6,0.3,3.6,0.8c1,0.6,1.8,1.3,2.4,2.3c0.6,1,0.9,2.2,0.9,3.5v6.6c0,1.3-0.3,2.5-0.9,3.5
		c-0.6,1-1.4,1.8-2.4,2.3c-1,0.6-2.2,0.8-3.6,0.8C44.5,108.2,43.3,107.9,42.3,107.4z M48.9,104.7c0.8-0.8,1.2-1.8,1.2-3.1v-6.7
		c0-1.3-0.4-2.3-1.2-3.1c-0.8-0.8-1.8-1.2-3.1-1.2c-1.3,0-2.3,0.4-3,1.2c-0.8,0.8-1.2,1.8-1.2,3.1v6.7c0,1.3,0.4,2.3,1.2,3.1
		c0.8,0.8,1.8,1.2,3,1.2C47.1,105.9,48.1,105.5,48.9,104.7z"/>
	<path class="st2" d="M59.8,107.4c-1-0.5-1.8-1.3-2.4-2.2c-0.6-1-0.9-2.1-0.9-3.3V89c0-0.1,0-0.2,0.1-0.3c0.1-0.1,0.2-0.1,0.3-0.1
		h1.8c0.1,0,0.2,0,0.3,0.1c0.1,0.1,0.1,0.2,0.1,0.3v12.9c0,1.2,0.4,2.2,1.1,2.9c0.8,0.7,1.8,1.1,3,1.1c1.2,0,2.2-0.4,3-1.1
		c0.8-0.7,1.1-1.7,1.1-2.9V89c0-0.1,0-0.2,0.1-0.3c0.1-0.1,0.2-0.1,0.3-0.1h1.8c0.1,0,0.2,0,0.3,0.1c0.1,0.1,0.1,0.2,0.1,0.3v12.8
		c0,1.3-0.3,2.4-0.8,3.3c-0.6,1-1.4,1.7-2.4,2.2c-1,0.5-2.2,0.8-3.6,0.8C62,108.2,60.9,107.9,59.8,107.4z"/>
	<path class="st2" d="M85.2,107.7l-3.8-8.2c0-0.1-0.1-0.1-0.2-0.1h-3.9c-0.1,0-0.1,0-0.1,0.1v8.1c0,0.1,0,0.2-0.1,0.3
		c-0.1,0.1-0.2,0.1-0.3,0.1h-1.8c-0.1,0-0.2,0-0.3-0.1c-0.1-0.1-0.1-0.2-0.1-0.3V88.9c0-0.1,0-0.2,0.1-0.3c0.1-0.1,0.2-0.1,0.3-0.1
		h7.3c1.1,0,2.1,0.2,2.9,0.7c0.8,0.5,1.5,1.1,2,1.9c0.5,0.8,0.7,1.8,0.7,2.9c0,1.3-0.3,2.4-1,3.3c-0.7,0.9-1.6,1.5-2.8,1.8
		c-0.1,0-0.1,0.1-0.1,0.2l3.9,8.2l0.1,0.2c0,0.2-0.1,0.3-0.4,0.3h-1.9C85.5,108,85.3,107.9,85.2,107.7z M77.2,91v6.2
		c0,0.1,0,0.1,0.1,0.1h4.6c1,0,1.7-0.3,2.3-0.9c0.6-0.6,0.9-1.4,0.9-2.3c0-1-0.3-1.8-0.9-2.4c-0.6-0.6-1.4-0.9-2.4-0.9h-4.6
		C77.2,90.8,77.2,90.9,77.2,91z"/>
	<path class="st2" d="M93.9,107.5c-1-0.4-1.8-1.1-2.4-1.9c-0.6-0.8-0.8-1.8-0.8-2.9v-0.7c0-0.1,0-0.2,0.1-0.3
		c0.1-0.1,0.2-0.1,0.3-0.1h1.8c0.1,0,0.2,0,0.3,0.1c0.1,0.1,0.1,0.2,0.1,0.3v0.5c0,0.9,0.4,1.7,1.2,2.3c0.8,0.6,1.9,0.9,3.2,0.9
		c1.3,0,2.2-0.3,2.9-0.8c0.6-0.5,1-1.2,1-2.1c0-0.6-0.2-1.1-0.5-1.5c-0.3-0.4-0.8-0.8-1.5-1.1s-1.6-0.8-2.8-1.2
		c-1.3-0.5-2.4-1-3.2-1.4c-0.8-0.4-1.4-1-2-1.7s-0.8-1.6-0.8-2.6c0-1.6,0.6-2.8,1.7-3.7c1.1-0.9,2.7-1.4,4.6-1.4
		c1.4,0,2.6,0.2,3.6,0.7c1,0.5,1.8,1.1,2.4,1.9c0.6,0.8,0.8,1.8,0.8,2.9v0.4c0,0.1,0,0.2-0.1,0.3c-0.1,0.1-0.2,0.1-0.3,0.1h-1.8
		c-0.1,0-0.2,0-0.3-0.1c-0.1-0.1-0.1-0.2-0.1-0.3V94c0-1-0.4-1.8-1.2-2.4c-0.8-0.6-1.8-1-3.2-1c-1.1,0-2,0.2-2.7,0.7
		c-0.6,0.5-0.9,1.1-0.9,2c0,0.6,0.2,1.1,0.5,1.5c0.3,0.4,0.8,0.7,1.4,1c0.6,0.3,1.6,0.7,2.8,1.2c1.3,0.5,2.4,1,3.2,1.4
		c0.8,0.4,1.5,1,2,1.7c0.5,0.7,0.8,1.6,0.8,2.6s-0.3,2-0.8,2.8c-0.5,0.8-1.3,1.4-2.3,1.9c-1,0.4-2.2,0.7-3.6,0.7
		C96.1,108.2,94.9,108,93.9,107.5z"/>
	<path class="st2" d="M126.1,90.7c-0.1,0.1-0.2,0.1-0.3,0.1h-9.6c-0.1,0-0.1,0-0.1,0.1v5.9c0,0.1,0,0.1,0.1,0.1h6.6
		c0.1,0,0.2,0,0.3,0.1c0.1,0.1,0.1,0.2,0.1,0.3v1.5c0,0.1,0,0.2-0.1,0.3c-0.1,0.1-0.2,0.1-0.3,0.1h-6.6c-0.1,0-0.1,0-0.1,0.1v8.1
		c0,0.1,0,0.2-0.1,0.3c-0.1,0.1-0.2,0.1-0.3,0.1h-1.8c-0.1,0-0.2,0-0.3-0.1c-0.1-0.1-0.1-0.2-0.1-0.3V89c0-0.1,0-0.2,0.1-0.3
		c0.1-0.1,0.2-0.1,0.3-0.1h12c0.1,0,0.2,0,0.3,0.1c0.1,0.1,0.1,0.2,0.1,0.3v1.5C126.2,90.6,126.2,90.7,126.1,90.7z"/>
	<path class="st2" d="M139.7,107.7l-3.8-8.2c0-0.1-0.1-0.1-0.2-0.1h-3.9c-0.1,0-0.1,0-0.1,0.1v8.1c0,0.1,0,0.2-0.1,0.3
		c-0.1,0.1-0.2,0.1-0.3,0.1h-1.8c-0.1,0-0.2,0-0.3-0.1c-0.1-0.1-0.1-0.2-0.1-0.3V88.9c0-0.1,0-0.2,0.1-0.3c0.1-0.1,0.2-0.1,0.3-0.1
		h7.3c1.1,0,2.1,0.2,2.9,0.7c0.8,0.5,1.5,1.1,2,1.9c0.5,0.8,0.7,1.8,0.7,2.9c0,1.3-0.3,2.4-1,3.3c-0.7,0.9-1.6,1.5-2.8,1.8
		c-0.1,0-0.1,0.1-0.1,0.2l3.9,8.2l0.1,0.2c0,0.2-0.1,0.3-0.4,0.3h-1.9C139.9,108,139.8,107.9,139.7,107.7z M131.7,91v6.2
		c0,0.1,0,0.1,0.1,0.1h4.6c1,0,1.7-0.3,2.3-0.9c0.6-0.6,0.9-1.4,0.9-2.3c0-1-0.3-1.8-0.9-2.4c-0.6-0.6-1.4-0.9-2.4-0.9h-4.6
		C131.7,90.8,131.7,90.9,131.7,91z"/>
	<path class="st2" d="M148.7,107.4c-1-0.6-1.8-1.3-2.4-2.3c-0.6-1-0.9-2.2-0.9-3.5V95c0-1.3,0.3-2.5,0.9-3.5c0.6-1,1.4-1.8,2.4-2.3
		c1-0.6,2.2-0.8,3.6-0.8c1.4,0,2.6,0.3,3.6,0.8c1,0.6,1.8,1.3,2.4,2.3c0.6,1,0.9,2.2,0.9,3.5v6.6c0,1.3-0.3,2.5-0.9,3.5
		c-0.6,1-1.4,1.8-2.4,2.3c-1,0.6-2.2,0.8-3.6,0.8C151,108.2,149.8,107.9,148.7,107.4z M155.4,104.7c0.8-0.8,1.2-1.8,1.2-3.1v-6.7
		c0-1.3-0.4-2.3-1.2-3.1c-0.8-0.8-1.8-1.2-3.1-1.2c-1.3,0-2.3,0.4-3,1.2c-0.8,0.8-1.2,1.8-1.2,3.1v6.7c0,1.3,0.4,2.3,1.2,3.1
		c0.8,0.8,1.8,1.2,3,1.2C153.6,105.9,154.6,105.5,155.4,104.7z"/>
	<path class="st2" d="M163.4,107.8c-0.1-0.1-0.1-0.2-0.1-0.3V89c0-0.1,0-0.2,0.1-0.3c0.1-0.1,0.2-0.1,0.3-0.1h1.9
		c0.2,0,0.4,0.1,0.5,0.3l4.7,7.4c0.1,0.1,0.1,0.1,0.2,0l4.7-7.4c0.1-0.2,0.3-0.3,0.5-0.3h1.9c0.1,0,0.2,0,0.3,0.1
		c0.1,0.1,0.1,0.2,0.1,0.3v18.6c0,0.1,0,0.2-0.1,0.3c-0.1,0.1-0.2,0.1-0.3,0.1H176c-0.1,0-0.2,0-0.3-0.1c-0.1-0.1-0.1-0.2-0.1-0.3
		V93.5c0-0.1,0-0.1-0.1-0.1c0,0-0.1,0-0.1,0.1l-3.8,6.1c-0.1,0.2-0.3,0.3-0.5,0.3h-0.9c-0.2,0-0.4-0.1-0.5-0.3l-3.7-6.1
		c0-0.1-0.1-0.1-0.1-0.1c0,0-0.1,0.1-0.1,0.1v14.1c0,0.1,0,0.2-0.1,0.3c-0.1,0.1-0.2,0.1-0.3,0.1h-1.8
		C163.5,108,163.4,107.9,163.4,107.8z"/>
</g>
<g>
	<path class="st2" d="M61,122.5c0.9,0.5,1.6,1.2,2.1,2.1c0.5,0.9,0.8,2,0.8,3.1c0,1.2-0.3,2.2-0.8,3.1c-0.5,0.9-1.3,1.6-2.2,2.1
		c-1,0.5-2,0.7-3.3,0.7h-3.9c-0.1,0-0.2,0.1-0.2,0.2v6.9c0,0.3-0.2,0.5-0.5,0.5h-3c-0.3,0-0.5-0.2-0.5-0.5v-18.5
		c0-0.3,0.2-0.5,0.5-0.5h7.7C59,121.8,60,122,61,122.5z M59.2,129.8c0.5-0.5,0.8-1.1,0.8-1.9c0-0.8-0.3-1.5-0.8-2
		c-0.5-0.5-1.2-0.7-2-0.7h-3.5c-0.1,0-0.2,0.1-0.2,0.2v5c0,0.1,0.1,0.2,0.2,0.2h3.5C58,130.5,58.7,130.3,59.2,129.8z"/>
	<path class="st2" d="M69.4,140.6c-1.1-0.6-2-1.4-2.6-2.5c-0.6-1.1-0.9-2.3-0.9-3.7v-5.9c0-1.4,0.3-2.6,0.9-3.6
		c0.6-1,1.5-1.9,2.6-2.4c1.1-0.6,2.4-0.9,3.8-0.9c1.5,0,2.7,0.3,3.8,0.9c1.1,0.6,2,1.4,2.6,2.4c0.6,1.1,0.9,2.3,0.9,3.6v5.9
		c0,1.4-0.3,2.6-0.9,3.7c-0.6,1.1-1.5,1.9-2.6,2.5c-1.1,0.6-2.4,0.9-3.8,0.9C71.7,141.5,70.5,141.2,69.4,140.6z M75.6,137.2
		c0.6-0.6,0.9-1.5,0.9-2.6v-6.1c0-1.1-0.3-1.9-0.9-2.6c-0.6-0.7-1.4-1-2.5-1c-1,0-1.8,0.3-2.5,1c-0.6,0.7-0.9,1.5-0.9,2.6v6.1
		c0,1.1,0.3,1.9,0.9,2.6c0.6,0.6,1.4,1,2.5,1C74.2,138.2,75,137.8,75.6,137.2z"/>
	<path class="st2" d="M83.5,140.7v-18.5c0-0.3,0.2-0.5,0.5-0.5h3c0.3,0,0.5,0.2,0.5,0.5v15.4c0,0.1,0.1,0.2,0.2,0.2h8.9
		c0.3,0,0.5,0.2,0.5,0.5v2.4c0,0.3-0.2,0.5-0.5,0.5H83.9C83.6,141.2,83.5,141,83.5,140.7z"/>
	<path class="st2" d="M111.7,140.8l-0.8-2.6c0-0.1-0.1-0.1-0.2-0.1H104c-0.1,0-0.1,0-0.2,0.1l-0.8,2.6c-0.1,0.3-0.3,0.4-0.5,0.4
		h-3.2c-0.2,0-0.3,0-0.4-0.2c-0.1-0.1-0.1-0.2,0-0.4l5.9-18.5c0.1-0.3,0.3-0.4,0.5-0.4h4.1c0.3,0,0.4,0.1,0.5,0.4l5.9,18.5
		c0,0,0,0.1,0,0.2c0,0.1,0,0.2-0.1,0.3c-0.1,0.1-0.2,0.1-0.3,0.1h-3.2C112,141.2,111.8,141.1,111.7,140.8z M105,135.1h4.9
		c0.1,0,0.2-0.1,0.1-0.2l-2.5-8.5c0-0.1-0.1-0.1-0.1-0.1s-0.1,0-0.1,0.1l-2.5,8.5C104.8,135,104.8,135.1,105,135.1z"/>
	<path class="st2" d="M118.4,140.7v-18.5c0-0.3,0.2-0.5,0.5-0.5h2.9c0.2,0,0.4,0.1,0.6,0.3l6.9,11.5c0,0.1,0.1,0.1,0.1,0.1
		c0,0,0.1-0.1,0.1-0.1v-11.3c0-0.3,0.2-0.5,0.5-0.5h2.9c0.3,0,0.5,0.2,0.5,0.5v18.5c0,0.3-0.2,0.5-0.5,0.5h-2.8
		c-0.2,0-0.4-0.1-0.6-0.3l-7-11.6c0-0.1-0.1-0.1-0.1-0.1s-0.1,0.1-0.1,0.1l0,11.4c0,0.3-0.2,0.5-0.5,0.5h-2.9
		C118.6,141.2,118.4,141,118.4,140.7z"/>
	<path class="st2" d="M136.5,140.7v-18.5c0-0.3,0.2-0.5,0.5-0.5h6.8c1.4,0,2.6,0.2,3.6,0.7c1,0.5,1.9,1.2,2.4,2.1
		c0.6,0.9,0.9,1.9,0.9,3.1v7.6c0,1.2-0.3,2.2-0.9,3.1c-0.6,0.9-1.4,1.6-2.4,2.1c-1,0.5-2.3,0.7-3.6,0.7H137
		C136.6,141.2,136.5,141,136.5,140.7z M140.6,137.8h3.3c0.9,0,1.5-0.3,2.1-0.9c0.5-0.6,0.8-1.3,0.8-2.3v-6.4c0-1-0.3-1.7-0.8-2.3
		c-0.5-0.6-1.2-0.9-2.1-0.9h-3.3c-0.1,0-0.2,0.1-0.2,0.2v12.4C140.4,137.8,140.4,137.8,140.6,137.8z"/>
</g>
</svg>
