<?xml version="1.0" encoding="utf-8"?>
<!-- Generator: Adobe Illustrator 27.5.0, SVG Export Plug-In . SVG Version: 6.00 Build 0)  -->
<svg version="1.1" id="Layer_1_copy" xmlns="http://www.w3.org/2000/svg" xmlns:xlink="http://www.w3.org/1999/xlink" x="0px"
	 y="0px" viewBox="0 0 22.7 34.1" style="enable-background:new 0 0 22.7 34.1;" xml:space="preserve">
<style type="text/css">
	.st0{fill:url(#SVGID_1_);}
	.st1{fill:#3D3A44;}
</style>
<linearGradient id="SVGID_1_" gradientUnits="userSpaceOnUse" x1="11.2917" y1="1.196" x2="11.2917" y2="33.2198">
	<stop  offset="0" style="stop-color:#FFFFFF"/>
	<stop  offset="0.3614" style="stop-color:#FCFCFC"/>
	<stop  offset="0.5965" style="stop-color:#F4F4F4"/>
	<stop  offset="0.7957" style="stop-color:#E5E5E5"/>
	<stop  offset="0.9737" style="stop-color:#D0D0D0"/>
	<stop  offset="1" style="stop-color:#CCCCCC"/>
</linearGradient>
<rect x="1.5" y="1.2" class="st0" width="19.6" height="32"/>
<path class="st1" d="M21.3-0.7h-21c-1-0.8-1.8,0.8-1.8,1.8v31.7c0,0.9,0.8,1.7,1.7,1.7h23.5c0.3,0,0.5-0.2,0.5-0.5V1.7
	C24.2,0,22.9-1.5,21.3-0.7z M2.3,3.2c0-0.2,0.1-0.3,0.2-0.5c0.1-0.1,0.3-0.2,0.5-0.2h16.8c0.2,0,0.3,0.1,0.5,0.2
	c0.1,0.1,0.2,0.3,0.2,0.5v25H2.3V3.2z M11.3,32.8c-0.6,0-1.1-0.4-1.4-0.9c-0.1-0.2-0.2-0.4-0.2-0.7c0-0.9,0.7-1.6,1.6-1.6
	c0.9,0,1.6,0.7,1.6,1.6c0,0.3-0.1,0.5-0.2,0.7C12.4,32.4,11.9,32.8,11.3,32.8z"/>
</svg>
