<?xml version="1.0" encoding="utf-8"?>
<!-- Generator: Adobe Illustrator 27.5.0, SVG Export Plug-In . SVG Version: 6.00 Build 0)  -->
<svg version="1.1" id="Layer_1" xmlns="http://www.w3.org/2000/svg" xmlns:xlink="http://www.w3.org/1999/xlink" x="0px" y="0px"
	 viewBox="0 0 40 35" style="enable-background:new 0 0 40 35;" xml:space="preserve">
<style type="text/css">
	.st0{fill:url(#SVGID_1_);}
	.st1{fill:#3D3A44;}
	.st2{fill:url(#SVGID_00000062880921496445122110000007865941235956552883_);}
</style>
<linearGradient id="SVGID_1_" gradientUnits="userSpaceOnUse" x1="20.7195" y1="2.0793" x2="20.7195" y2="21.1297">
	<stop  offset="0" style="stop-color:#FFFFFF"/>
	<stop  offset="0.3614" style="stop-color:#FCFCFC"/>
	<stop  offset="0.5965" style="stop-color:#F4F4F4"/>
	<stop  offset="0.7957" style="stop-color:#E5E5E5"/>
	<stop  offset="0.9737" style="stop-color:#D0D0D0"/>
	<stop  offset="1" style="stop-color:#CCCCCC"/>
</linearGradient>
<rect x="6.8" y="2.1" class="st0" width="27.7" height="19.1"/>
<path class="st1" d="M7.2,2.9c0-0.1,0-0.1,0.1-0.1s0.1-0.1,0.1-0.1h26.6c0.1,0,0.1,0,0.1,0.1c0,0,0.1,0.1,0.1,0.1v18.1
	c0,0,0,0.1,0,0.1c0,0,0,0,0,0.1c0,0,0,0-0.1,0c0,0-0.1,0-0.1,0H15.7v2.6h18.3c1.6,0,2.9-1.3,2.9-2.9V2.9c0-1.6-1.3-2.9-2.9-2.9H7.5
	C5.9,0,4.6,1.3,4.6,2.9v5.8h2.6V2.9z M39,24.9H15.7v3.8h21.6c1.5,0,2.7-1.2,2.7-2.7C40,25.3,39.5,24.9,39,24.9z"/>
<linearGradient id="SVGID_00000045602841918428860590000001728572752666039452_" gradientUnits="userSpaceOnUse" x1="8.312" y1="11.2895" x2="8.312" y2="33.4121">
	<stop  offset="0" style="stop-color:#FFFFFF"/>
	<stop  offset="0.3614" style="stop-color:#FCFCFC"/>
	<stop  offset="0.5965" style="stop-color:#F4F4F4"/>
	<stop  offset="0.7957" style="stop-color:#E5E5E5"/>
	<stop  offset="0.9737" style="stop-color:#D0D0D0"/>
	<stop  offset="1" style="stop-color:#CCCCCC"/>
</linearGradient>
<rect x="1.6" y="11.3" style="fill:url(#SVGID_00000045602841918428860590000001728572752666039452_);" width="13.5" height="22.1"/>
<path class="st1" d="M15.3,9.5h-14c-0.2,0-0.4,0.2-0.4,0.4v23.8c0,0.2,0.2,0.4,0.4,0.4h14.2c0.2,0,0.3-0.1,0.3-0.3V10
	C15.7,9.7,15.5,9.5,15.3,9.5z M3.1,12.1c0-0.1,0-0.2,0.1-0.3c0.1-0.1,0.2-0.1,0.3-0.1h9.7c0.1,0,0.2,0,0.3,0.1
	c0.1,0.1,0.1,0.2,0.1,0.3v18.5H3.1V12.1z M8.3,33.2c-0.4,0-0.6-0.2-0.8-0.5c-0.1-0.1-0.1-0.3-0.1-0.4c0-0.5,0.4-0.9,0.9-0.9
	c0.5,0,0.9,0.4,0.9,0.9c0,0.1,0,0.3-0.1,0.4C9,33,8.7,33.2,8.3,33.2z"/>
</svg>
