<?xml version="1.0" encoding="utf-8"?>
<!-- Generator: Adobe Illustrator 27.5.0, SVG Export Plug-In . SVG Version: 6.00 Build 0)  -->
<svg version="1.1" id="Layer_1" xmlns="http://www.w3.org/2000/svg" xmlns:xlink="http://www.w3.org/1999/xlink" x="0px" y="0px"
	 viewBox="0 0 40 35" style="enable-background:new 0 0 40 35;" xml:space="preserve">
<style type="text/css">
	.st0{fill:#3D3A44;}
	.st1{fill:#FFFFFF;}
</style>
<path class="st0" d="M31.5,14.1c0.3-0.4,0.5-0.8,0.6-1.2s0.1-0.9,0.1-1.4c-0.1-0.5-0.2-0.9-0.5-1.3c-0.2-0.4-0.6-0.7-0.9-1l-0.2-0.1
	c-0.4-0.3-0.8-0.7-1-1.1c-0.3-0.5-0.4-0.9-0.4-1.5V6.4c0-0.4-0.1-0.9-0.3-1.3s-0.7-0.8-1-1.1c-0.3-0.3-0.7-0.5-1.2-0.7
	s-0.9-0.2-1.4-0.2h-0.2c-0.5,0-1,0-1.5-0.2s-0.9-0.5-1.3-0.8L22.2,2c-0.3-0.3-0.7-0.6-1.1-0.8C20.7,1.1,20.2,1,19.8,1
	c-0.4,0-0.9,0.1-1.3,0.3C18,1.4,17.7,1.7,17.3,2l-0.1,0.2c-0.4,0.4-0.8,0.6-1.3,0.8c-0.5,0.2-1,0.2-1.5,0.2h-0.3
	c-0.4,0-0.9,0-1.3,0.1C12.4,3.4,12,3.7,11.6,4S11,4.6,10.8,5s-0.3,0.8-0.3,1.3v0.1c0,0.5-0.2,1-0.4,1.5S9.4,8.7,9,9L8.8,9.1
	c-0.4,0.3-0.7,0.6-1,1s-0.4,0.8-0.5,1.3s-0.1,0.9,0.1,1.4C7.5,13.2,7.7,13.6,8,14l0,0c0.3,0.4,0.5,0.9,0.6,1.4
	c0.1,0.6,0.1,1.1,0,1.6l-0.1,0.2c-0.2,0.6-0.2,1.2,0,1.8s0.5,1.1,0.9,1.6s1,0.7,1.6,0.8l0,0c0.2,0.1,0.4,0.2,0.5,0.4
	c0.1,0.2,0.1,0.4,0,0.6l-3.6,8.4c-0.1,0.2,0,0.4,0.1,0.5c0.1,0.2,0.3,0.2,0.5,0.2l2.4-0.6c0.3-0.1,0.6-0.1,0.9,0.1
	c0.3,0.1,0.5,0.3,0.7,0.6l1.2,2.2c0.1,0.2,0.2,0.2,0.4,0.2s0.3-0.1,0.4-0.3l3.5-8.2c0.1-0.3,0.3-0.4,0.5-0.5c0.7-0.2,1.5-0.2,2.2,0
	c0.3,0.1,0.4,0.3,0.5,0.5l3.5,8.2c0.1,0.2,0.2,0.3,0.4,0.3c0.2,0,0.3-0.1,0.4-0.2l1.2-2.2c0.2-0.3,0.4-0.5,0.7-0.6
	c0.3-0.1,0.6-0.1,0.9-0.1l2.4,0.6c0.2,0,0.3,0,0.5-0.2c0.1-0.2,0.2-0.3,0.1-0.5l-3.6-8.4c-0.1-0.2-0.1-0.3,0-0.5s0.2-0.3,0.4-0.3
	h0.2c0.4-0.1,0.9-0.3,1.3-0.6c0.4-0.3,0.7-0.6,0.9-1c0.2-0.4,0.4-0.8,0.4-1.3s0-0.9-0.1-1.4l-0.1-0.2c-0.1-0.5-0.2-1-0.1-1.6
	C30.9,15,31.2,14.6,31.5,14.1L31.5,14.1z"/>
<circle class="st1" cx="19.9" cy="13.3" r="8.9"/>
</svg>
