<?xml version="1.0" encoding="utf-8"?>
<!-- Generator: Adobe Illustrator 27.5.0, SVG Export Plug-In . SVG Version: 6.00 Build 0)  -->
<svg version="1.1" id="Layer_1" xmlns="http://www.w3.org/2000/svg" xmlns:xlink="http://www.w3.org/1999/xlink" x="0px" y="0px"
	 viewBox="0 0 41 40" style="enable-background:new 0 0 41 40;" xml:space="preserve">
<style type="text/css">
	.st0{fill:#FFFFFF;}
	.st1{fill:none;stroke:#FFFFFF;stroke-width:0.5;stroke-miterlimit:10;}
</style>
<path class="st0" d="M38.2,1.6c-0.1-0.5-0.5-0.9-1-0.9h-4.4c-0.6,0-1.1,0.5-1.1,1.2c0,0.6,0.5,1.2,1.1,1.2l1.7,0.3l-4,5.5
	c-0.3,0.4-0.6,0.8-0.9,1.2c-7.1,8.1-15.3,12.9-25.8,11.9c-0.6-0.1-1.1,0.4-1.2,1.1c-0.1,0.6,0.4,1.2,1,1.3c1,0.1,1.9,0.1,2.9,0.1
	c9.4,0,16.9-4.3,23.4-11.3c1.1-1.2,2.1-2.4,3-3.7L36,5l0.1,1.6c0,0.6,0.5,1.2,1.1,1.2c0.6,0,1.1-0.5,1.1-1.2V3.1L38.2,1.6z"/>
<path class="st0" d="M39.5,37.7h-1.2V11.3c0-0.5-0.3-0.9-0.8-1.1c-0.5-0.2-1,0-1.3,0.3l-0.7,0.9c-1.2,1.4-2.5,2.8-3.9,4
	c-0.1,0.1-0.2,0.2-0.3,0.4c-0.1,0.2-0.1,0.3-0.1,0.5v21.4h-2.3V19.9c0-0.2-0.1-0.4-0.2-0.6c-0.1-0.2-0.3-0.3-0.5-0.4
	c-0.4-0.2-0.8-0.2-1.2,0.1c-1.5,1-3,1.9-4.6,2.7c-0.2,0.1-0.4,0.2-0.5,0.4s-0.2,0.4-0.2,0.6v15h-2.3v-13c0-0.2,0-0.4-0.1-0.5
	c-0.1-0.2-0.2-0.3-0.4-0.4c-0.3-0.2-0.7-0.3-1.1-0.1c-1.5,0.5-3,1-4.6,1.3c-0.3,0.1-0.5,0.2-0.7,0.4c-0.2,0.2-0.3,0.5-0.3,0.7v11.6
	h-2.3V26.8c0-0.2,0-0.3-0.1-0.5C10,26.2,9.9,26.1,9.7,26c-0.3-0.2-0.6-0.3-0.9-0.3c-1.5,0.2-3,0.3-4.6,0.3c-0.6,0-1.2,0.5-1.2,1.2
	v10.6H1.8c-0.6,0-1.2,0.5-1.2,1.2c0,0.6,0.5,1.2,1.2,1.2h37.7c0.6,0,1.2-0.5,1.2-1.2C40.7,38.2,40.1,37.7,39.5,37.7z"/>
<line class="st1" x1="1.2" y1="37.4" x2="39.5" y2="37.4"/>
</svg>
