<?xml version="1.0" encoding="utf-8"?>
<!-- Generator: Adobe Illustrator 27.5.0, SVG Export Plug-In . SVG Version: 6.00 Build 0)  -->
<svg version="1.1" id="Layer_1" xmlns="http://www.w3.org/2000/svg" xmlns:xlink="http://www.w3.org/1999/xlink" x="0px" y="0px"
	 viewBox="0 0 40 36" style="enable-background:new 0 0 40 36;" xml:space="preserve">
<style type="text/css">
	.st0{fill:url(#SVGID_1_);}
	.st1{fill:#3D3A44;}
	.st2{fill:#001F3F;}
</style>
<linearGradient id="SVGID_1_" gradientUnits="userSpaceOnUse" x1="24.9172" y1="7.0661" x2="24.9172" y2="33.8911">
	<stop  offset="0" style="stop-color:#FFFFFF"/>
	<stop  offset="1" style="stop-color:#CCCCCC"/>
</linearGradient>
<circle class="st0" cx="24.9" cy="20.5" r="13.4"/>
<path class="st1" d="M34.3,20.7c0-0.2,0.1-0.4,0.2-0.5c0.1-0.1,0.3-0.2,0.5-0.2h0.7c-0.2-2.3-1.1-4.6-2.6-6.3l-0.5,0.5
	c-0.1,0.1-0.3,0.2-0.5,0.2c-0.2,0-0.4-0.1-0.5-0.2c-0.1-0.1-0.2-0.3-0.2-0.5c0-0.2,0.1-0.4,0.2-0.5l0.5-0.5c-1.8-1.6-4-2.5-6.3-2.6
	v0.7c0,0.2-0.1,0.4-0.2,0.5c-0.1,0.1-0.3,0.2-0.5,0.2c-0.2,0-0.4-0.1-0.5-0.2c-0.1-0.1-0.2-0.3-0.2-0.5V10c-2.3,0.2-4.6,1.1-6.3,2.6
	l0.5,0.5c0.1,0.1,0.2,0.3,0.2,0.5c0,0.2-0.1,0.4-0.2,0.5c-0.1,0.1-0.3,0.2-0.5,0.2c-0.2,0-0.4-0.1-0.5-0.2l-0.5-0.5
	c-1.6,1.8-2.5,4-2.6,6.3H15c0.2,0,0.4,0.1,0.5,0.2c0.1,0.1,0.2,0.3,0.2,0.5c0,0.2-0.1,0.4-0.2,0.5c-0.1,0.1-0.3,0.2-0.5,0.2h-0.7
	c0.2,2.3,1.1,4.6,2.6,6.3l0.5-0.5c0.1-0.1,0.3-0.2,0.5-0.2c0.2,0,0.4,0.1,0.5,0.2c0.1,0.1,0.2,0.3,0.2,0.5c0,0.2-0.1,0.4-0.2,0.5
	l-0.5,0.5c1.8,1.6,4,2.5,6.3,2.6v-0.7c0-0.2,0.1-0.4,0.2-0.5c0.1-0.1,0.3-0.2,0.5-0.2c0.2,0,0.4,0.1,0.5,0.2
	c0.1,0.1,0.2,0.3,0.2,0.5v0.7c2.3-0.2,4.6-1.1,6.3-2.6l-0.5-0.5c-0.1-0.1-0.2-0.3-0.2-0.5c0-0.2,0.1-0.4,0.2-0.5
	c0.1-0.1,0.3-0.2,0.5-0.2c0.2,0,0.4,0.1,0.5,0.2l0.5,0.5c1.6-1.8,2.5-4,2.6-6.3H35c-0.2,0-0.4-0.1-0.5-0.2
	C34.4,21.1,34.3,20.9,34.3,20.7z M30.8,16l-3.8,3.8c0.1,0.3,0.2,0.6,0.2,0.9c0,0.4-0.1,0.8-0.4,1.2c-0.2,0.4-0.6,0.6-1,0.8
	c-0.4,0.2-0.8,0.2-1.2,0.1c-0.4-0.1-0.8-0.3-1.1-0.6s-0.5-0.7-0.6-1.1c-0.1-0.4,0-0.8,0.1-1.2c0.2-0.4,0.4-0.7,0.8-1
	c0.4-0.2,0.8-0.4,1.2-0.4c0.3,0,0.6,0.1,0.9,0.2l3.8-3.8c0.1-0.1,0.1-0.1,0.2-0.2c0.1,0,0.2-0.1,0.3-0.1s0.2,0,0.3,0.1
	c0.1,0,0.2,0.1,0.2,0.2c0.1,0.1,0.1,0.1,0.2,0.2c0,0.1,0.1,0.2,0.1,0.3s0,0.2-0.1,0.3C30.9,15.8,30.8,15.9,30.8,16z"/>
<path class="st2" d="M25,21.4c0.4,0,0.7-0.3,0.7-0.7S25.4,20,25,20c-0.4,0-0.7,0.3-0.7,0.7S24.6,21.4,25,21.4z"/>
<path class="st1" d="M27.1,5.9V4.3h0.7c0.6,0,1.1-0.2,1.5-0.6C29.8,3.3,30,2.7,30,2.1c0-0.6-0.2-1.1-0.6-1.5C29,0.2,28.4,0,27.9,0
	h-5.7c-0.6,0-1.1,0.2-1.5,0.6C20.2,1,20,1.6,20,2.1c0,0.6,0.2,1.1,0.6,1.5c0.4,0.4,0.9,0.6,1.5,0.6h0.7v1.6
	c-3.8,0.5-7.2,2.5-9.5,5.4c-2.4,3-3.5,6.7-3.3,10.5c0.3,3.8,2,7.3,4.7,9.9c2.8,2.6,6.4,4,10.2,4s7.4-1.4,10.2-4
	c2.8-2.6,4.5-6.1,4.7-9.9c0.3-3.8-0.9-7.5-3.3-10.5C34.3,8.4,30.9,6.4,27.1,5.9z M25,32.9c-2.4,0-4.7-0.7-6.7-2
	c-2-1.3-3.6-3.2-4.5-5.4c-0.9-2.2-1.2-4.7-0.7-7c0.5-2.4,1.6-4.5,3.3-6.2s3.9-2.9,6.2-3.3c2.4-0.5,4.8-0.2,7,0.7
	c2.2,0.9,4.1,2.5,5.4,4.5c1.3,2,2,4.3,2,6.7c0,3.2-1.3,6.3-3.6,8.6C31.3,31.6,28.2,32.9,25,32.9z M7.9,20H4.3
	c-0.2,0-0.4,0.1-0.5,0.2c-0.1,0.1-0.2,0.3-0.2,0.5c0,0.2,0.1,0.4,0.2,0.5c0.1,0.1,0.3,0.2,0.5,0.2h3.6c0.2,0,0.4-0.1,0.5-0.2
	c0.1-0.1,0.2-0.3,0.2-0.5c0-0.2-0.1-0.4-0.2-0.5C8.2,20.1,8,20,7.9,20z"/>
<path class="st1" d="M0.7,17.1h7.7c0.2,0,0.4-0.1,0.5-0.2c0.1-0.1,0.2-0.3,0.2-0.5c0-0.2-0.1-0.4-0.2-0.5c-0.1-0.1-0.3-0.2-0.5-0.2
	H0.7c-0.2,0-0.4,0.1-0.5,0.2C0.1,16.1,0,16.2,0,16.4c0,0.2,0.1,0.4,0.2,0.5C0.3,17.1,0.5,17.1,0.7,17.1z M2.9,12.9h7.3
	c0.2,0,0.4-0.1,0.5-0.2c0.1-0.1,0.2-0.3,0.2-0.5c0-0.2-0.1-0.4-0.2-0.5c-0.1-0.1-0.3-0.2-0.5-0.2H2.9c-0.2,0-0.4,0.1-0.5,0.2
	c-0.1,0.1-0.2,0.3-0.2,0.5c0,0.2,0.1,0.4,0.2,0.5C2.5,12.8,2.7,12.9,2.9,12.9z M10.2,28.6H2.9c-0.2,0-0.4,0.1-0.5,0.2
	c-0.1,0.1-0.2,0.3-0.2,0.5c0,0.2,0.1,0.4,0.2,0.5C2.5,29.9,2.7,30,2.9,30h7.3c0.2,0,0.4-0.1,0.5-0.2c0.1-0.1,0.2-0.3,0.2-0.5
	c0-0.2-0.1-0.4-0.2-0.5C10.5,28.6,10.4,28.6,10.2,28.6z M9.1,25c0-0.2-0.1-0.4-0.2-0.5c-0.1-0.1-0.3-0.2-0.5-0.2H0.7
	c-0.2,0-0.4,0.1-0.5,0.2C0.1,24.6,0,24.8,0,25s0.1,0.4,0.2,0.5c0.1,0.1,0.3,0.2,0.5,0.2h7.7c0.2,0,0.4-0.1,0.5-0.2
	C9,25.4,9.1,25.2,9.1,25z"/>
</svg>
