<?xml version="1.0" encoding="utf-8"?>
<!-- Generator: Adobe Illustrator 27.5.0, SVG Export Plug-In . SVG Version: 6.00 Build 0)  -->
<svg version="1.1" id="Layer_1" xmlns="http://www.w3.org/2000/svg" xmlns:xlink="http://www.w3.org/1999/xlink" x="0px" y="0px"
	 viewBox="0 0 132 132" style="enable-background:new 0 0 132 132;" xml:space="preserve">
<style type="text/css">
	.st0{fill:#FFFFFF;}
</style>
<path class="st0" d="M65.8,2.3c-17.2,0-19.4,0.1-26.2,0.4c-6.8,0.3-11.4,1.4-15.4,3C20,7.3,16.5,9.4,13,13C9.4,16.5,7.3,20,5.6,24.2
	c-1.6,4-2.6,8.7-3,15.4c-0.3,6.8-0.4,8.9-0.4,26.2S2.4,85.2,2.7,92c0.3,6.8,1.4,11.4,3,15.4c1.6,4.2,3.8,7.7,7.3,11.3
	c3.5,3.5,7.1,5.7,11.2,7.3c4,1.6,8.7,2.6,15.4,3c6.8,0.3,8.9,0.4,26.2,0.4c17.3,0,19.4-0.1,26.2-0.4c6.8-0.3,11.4-1.4,15.4-3
	c4.2-1.6,7.7-3.8,11.2-7.3c3.5-3.5,5.7-7.1,7.3-11.3c1.6-4,2.6-8.7,3-15.4c0.3-6.8,0.4-8.9,0.4-26.2s-0.1-19.4-0.4-26.2
	c-0.3-6.8-1.4-11.4-3-15.4c-1.6-4.2-3.8-7.7-7.3-11.3c-3.5-3.5-7.1-5.7-11.2-7.3c-4-1.6-8.7-2.6-15.4-3C85.2,2.4,83.1,2.3,65.8,2.3
	L65.8,2.3z M60.1,13.7c1.7,0,3.6,0,5.7,0c17,0,19,0.1,25.7,0.4c6.2,0.3,9.6,1.3,11.8,2.2c3,1.2,5.1,2.5,7.3,4.8
	c2.2,2.2,3.6,4.3,4.8,7.3c0.9,2.2,1.9,5.6,2.2,11.8c0.3,6.7,0.4,8.7,0.4,25.7s-0.1,19-0.4,25.7c-0.3,6.2-1.3,9.6-2.2,11.8
	c-1.2,3-2.5,5.1-4.8,7.3c-2.2,2.2-4.3,3.6-7.3,4.8c-2.2,0.9-5.6,1.9-11.8,2.2c-6.7,0.3-8.7,0.4-25.7,0.4c-17,0-19-0.1-25.7-0.4
	c-6.2-0.3-9.6-1.3-11.8-2.2c-3-1.2-5.1-2.5-7.3-4.8s-3.6-4.3-4.8-7.3c-0.9-2.2-1.9-5.6-2.2-11.8c-0.3-6.7-0.4-8.7-0.4-25.7
	s0.1-19,0.4-25.7c0.3-6.2,1.3-9.6,2.2-11.8c1.2-3,2.5-5.1,4.8-7.3s4.3-3.6,7.3-4.8c2.2-0.9,5.6-1.9,11.8-2.2
	C46,13.8,48.3,13.7,60.1,13.7L60.1,13.7z M99.7,24.3c-4.2,0-7.6,3.4-7.6,7.6c0,4.2,3.4,7.6,7.6,7.6c4.2,0,7.6-3.4,7.6-7.6
	S103.9,24.3,99.7,24.3L99.7,24.3z M65.8,33.2c-18,0-32.6,14.6-32.6,32.6s14.6,32.6,32.6,32.6c18,0,32.6-14.6,32.6-32.6
	S83.8,33.2,65.8,33.2L65.8,33.2z M65.8,44.6c11.7,0,21.2,9.5,21.2,21.2C87,77.5,77.5,87,65.8,87c-11.7,0-21.2-9.5-21.2-21.2
	C44.7,54.1,54.1,44.6,65.8,44.6z"/>
</svg>
