<?xml version="1.0" encoding="utf-8"?>
<!-- Generator: Adobe Illustrator 27.5.0, SVG Export Plug-In . SVG Version: 6.00 Build 0)  -->
<svg version="1.1" xmlns="http://www.w3.org/2000/svg" xmlns:xlink="http://www.w3.org/1999/xlink" x="0px" y="0px"
	 viewBox="0 0 1435.3 840" style="enable-background:new 0 0 1435.3 840;" xml:space="preserve">
<style type="text/css">
	.st0{fill:#050505;}
	.st1{fill:url(#SVGID_1_);}
	.st2{fill:#05E723;}
	.st3{fill:#00E676;}
	.st4{fill:#FF6809;}
	.st5{display:none;}
	.st6{display:inline;fill:#050505;}
	.st7{display:inline;fill:url(#SVGID_00000156547335933437754480000001708354286114279332_);}
	.st8{display:inline;fill:url(#SVGID_00000075855946950992083500000001467629277331737228_);}
	.st9{display:inline;fill:url(#SVGID_00000082360084798193737260000013598356108354409355_);}
	.st10{display:inline;fill:#05E723;}
	.st11{display:inline;fill:#00E676;}
	.st12{display:inline;fill:#FF6809;}
	.st13{fill:url(#SVGID_00000145763364803952324280000009222371396949552302_);}
	.st14{fill:url(#SVGID_00000071531783201291769150000013051718173448295842_);}
	.st15{fill:url(#SVGID_00000017510430765267191490000010995458777005239480_);}
	.st16{fill:url(#SVGID_00000155829935552875149840000000591097247536808102_);}
	.st17{fill:url(#SVGID_00000081615251767254000290000003028950123099880089_);}
	.st18{fill:url(#SVGID_00000155126995419074639160000006274633580803466679_);}
	.st19{fill:url(#SVGID_00000163046871772742699810000000240372010115914160_);}
	.st20{fill:url(#SVGID_00000142866026103803135580000013803326053582031038_);}
	.st21{fill:url(#SVGID_00000097467513503047153660000001859951409647726765_);}
	.st22{display:inline;fill:url(#SVGID_00000040559465491989956310000000272946961383029130_);}
	.st23{fill:#FFFFFF;}
	.st24{fill:#FF6000;}
</style>
<g id="Layer_1">
	<path class="st0" d="M241.8,531.1"/>
	<path class="st0" d="M202.7,571.3"/>
	<path class="st0" d="M183,590"/>
	<path class="st0" d="M181,592"/>
	<linearGradient id="SVGID_1_" gradientUnits="userSpaceOnUse" x1="169.452" y1="389.8161" x2="768.0158" y2="389.8161">
		<stop  offset="1.277974e-03" style="stop-color:#3D3A44"/>
		<stop  offset="1" style="stop-color:#3D3A44"/>
	</linearGradient>
	<path class="st1" d="M169.5,614.8c0.8-0.8,95-95,95.8-95.8c2.6-2.6,5.2-5.2,7.9-7.9c1.9-1.9,3.8-3.8,5.6-5.6
		c4.6-4.6,9.2-9.2,13.7-13.7c5.3-5.3,10.7-10.7,16-16c9.5-9.5,19-19.1,28.6-28.6c9.2-9.2,18.5-18.5,27.7-27.7
		c0.6-0.6,1.1-1.1,1.7-1.7c0.6-0.6,1.1-1.1,1.7-1.7c10.5-10.5,21-21,31.6-31.6c3.7-3.7,7.4-7.4,11.1-11.1c4.5-4.5,9.1-9.1,13.6-13.6
		c2.3-2.3,4.6-4.6,6.9-6.9c2.5-2.5,5-5,7.5-7.5c0.7-0.7,1.4-1.4,2.2-2.2c3.9-4,7.7-8,11.3-12.2c2.1-2.4,4.2-4.6,6.4-6.8
		c1.4-1.4,1.4-1.4,2.7-2.7c1-1,2-1.9,2.9-2.9c1-1,2.1-2.1,3.1-3.1c2.8-2.8,5.6-5.6,8.5-8.4c3-2.9,5.9-5.9,8.9-8.8
		c5.6-5.6,11.2-11.1,16.7-16.7c6.4-6.3,12.7-12.7,19.1-19.1c12.2-12.2,24.3-24.3,36.5-36.5c1.6-1.6,1.9-4.1,0.8-6l0,0
		c-0.5-0.9-0.5-0.9-1-1.9c-6.7-11.1-19.7-18.6-30.1-25.8c-0.8-0.5-1.5-1-2.3-1.6c-3.9-2.7-7.8-5.3-11.6-8
		c-8.5-5.8-16.9-11.7-25.3-17.6c-2.6-1.8-5.2-3.6-7.8-5.3c-1.5-1-3-2.1-4.5-3.1c-0.7-0.5-1.3-0.9-2-1.4c-5.2-3.6-10.2-7.7-12.3-13.8
		c-0.1-0.1-0.1-0.3-0.1-0.5c-0.8-6.4-0.8-6.6,1.2-9.2c0.1-0.1,0.2-0.2,0.3-0.3c1.8-1.5,3.6-2.8,5.5-4.1c0,0,0.1,0,0.1-0.1
		c0.6-0.5,1.2-1,1.9-1.5c0.6-0.5,1.3-0.9,1.9-1.4l1.5-1.1c0.2-0.1,0.4-0.2,0.6-0.3c6.3-1.9,13.4,0.8,19.3,3.2
		c1.2,0.4,1.2,0.4,2.3,0.9c2.5,1,5,1.9,7.5,2.9c1.8,0.7,3.5,1.3,5.3,2c8.3,3.2,16.7,6.4,25,9.6c2.7,1.1,5.4,2.1,8.1,3.2
		c3.4,1.3,6.8,2.7,10.2,4c1.6,0.6,3.1,1.2,4.7,1.8c0.7,0.3,1.4,0.6,2.1,0.9c3.4,1.3,6.3,2.3,9.9,2c0.4,0,0.7-0.2,1-0.4
		c2.1-1.8,2.2-2,4.3-4.5c0,0,0.1-0.1,0.1-0.1c5.2-5.5,5.4-5.7,9-6.2c0.3,0,0.6-0.1,0.9,0c5.8,0.6,9,2.7,13,6.8
		c0.1,0.1,0.2,0.2,0.2,0.3c3.2,3.9,4.1,6.6,4.1,11.5c0,0.4-0.1,0.9-0.3,1.3l0,0.1c-0.8,1.8,0.2,3.8,2.1,4.2c32.8,6.9,37,4,54-6.3
		c8.4-5.4,15.8-11.9,23.1-18.6c1.7-1.5,3.5-3.1,5.2-4.6c3.1-2.8,6.1-5.6,9.1-8.4c41.4-38.2,41.6-38.4,63.8-31
		c0.2,0.1,0.4,0.2,0.6,0.3c4.8,3.5,8.2,7.6,9.3,13.5c0,0.1,0,0.3,0,0.4c0.5,21.2-15.6,39.1-29,53.8c-2.4,2.6-4.7,5.3-7,8
		c-0.8,0.9-1.6,1.8-2.4,2.8c-25.7,29.5-35.4,48.2-32.5,66.6c0.1,0.4-0.1,0.8,0,1.2c0.7,5.7,1.5,11.4,2.4,17c0.3,2.1,2.4,3.5,4.4,3
		c0,0,0,0,0.1,0c4-0.7,6.2-1,9.7,0.7c0.3,0.2,0.7,0.4,0.9,0.6c8.8,7.6,8.9,7.8,9.8,14c0,0.2,0,0.4,0,0.6
		c-0.9,6.6-5.8,11.3-10.6,15.7c-0.5,0.5-0.7,1.2-0.5,1.9c2.5,7.7,5.5,15.1,8.5,22.5c1.3,3.3,2.7,6.6,4,9.9c2.5,6.1,5,12.2,7.5,18.4
		c1.7,4.3,3.5,8.5,5.2,12.8c0.7,1.6,1.3,3.2,2,4.9c0.9,2.3,1.8,4.5,2.8,6.8c0.3,0.7,0.6,1.3,0.8,2c1.9,4.7,2.2,8.4,1.9,13.3
		c0,0.2-0.1,0.5-0.2,0.7c-1.2,2.7-1.3,2.8-3,5.4l-1.7,2.7c0,0-0.1,0.1-0.1,0.1c-2.5,3.1-4.8,5.9-8.8,6.8c-0.2,0-0.5,0.1-0.7,0
		c-6.8-0.9-11.5-4-16.1-9.2c0,0-0.1-0.1-0.1-0.1c-1.6-2.1-3.1-4.2-4.5-6.3c-0.8-1.2-0.8-1.2-1.7-2.4c-1.1-1.6-2.3-3.3-3.4-4.9
		c-2-3-4.1-5.9-6.2-8.8c-1-1.4-2-2.8-3-4.2c-5.2-7.4-10.5-14.7-15.8-22c-1.2-1.6-2.3-3.2-3.5-4.8c-15.3-18.1-14.9-21.7-31.7-33.4
		c-2.6-1.8-6.2-1.5-8.4,0.7c-6.5,6.5-13.1,13-19.6,19.6c-3.6,3.6-7.3,7.3-10.9,10.9c-3.5,3.5-7,7-10.5,10.5c-1.3,1.3-2.7,2.7-4,4
		c-1.9,1.9-3.8,3.8-5.6,5.6c-0.8,0.8-0.8,0.8-1.7,1.6c-2.7,2.7-5.2,5.4-7.7,8.3c-5.3,6-11,11.6-16.7,17.3c-1.3,1.3-2.6,2.6-3.8,3.9
		c-3.5,3.5-7,7-10.5,10.5c-3.8,3.8-7.6,7.6-11.4,11.4c-9.1,9.1-18.3,18.3-27.4,27.4c-4.3,4.3-8.6,8.6-12.9,12.9
		c-14.3,14.3-28.6,28.6-42.9,42.9c-3.7,3.7-7.4,7.4-11.1,11.1c-0.9,0.9-1.8,1.8-2.8,2.8c-14.9,15-29.9,29.9-44.8,44.9
		c-15.3,15.4-30.7,30.7-46,46.1c-8.6,8.6-17.2,17.2-25.8,25.9c-7.3,7.3-14.7,14.7-22,22c-3.7,3.7-7.5,7.5-11.2,11.2
		c-3.4,3.4-6.8,6.9-10.3,10.3c-1.2,1.2-2.5,2.5-3.7,3.7c-1.7,1.7-3.4,3.4-5.1,5c-0.7,0.7-0.7,0.7-1.4,1.5c-3.9,3.8-8,6.1-13.4,7.1
		c-0.1,0-0.3,0-0.4,0c-7.9-0.1-13.7-2.8-19.3-8.3c0,0-0.1-0.1-0.1-0.1"/>
	<path class="st2" d="M234.2,528.9"/>
	<path class="st2" d="M487.2,276.9c-0.8,0.8-1.5,1.6-2.3,2.4"/>
	<path class="st2" d="M511,253c-0.6,0.8-1.2,1.5-1.8,2.3"/>
	<path class="st2" d="M518,247c-0.7,0-1.3,0-2,0"/>
	<path class="st3" d="M437.3,309.7c-32.3-22.3-71.1-30.1-109.9-23.2c-32.6,6.5-64.3,24.5-84.4,51.4c-0.7,0.9-1.3,1.7-2,2.6
		c-23.6,31.2-31.7,69.1-27.5,107.6c0.6,4,1.5,7.9,2.5,11.8c0.2,0.8,0.4,1.6,0.6,2.3c5.3,20.4,12.5,35.1,21.2,46.1l-83.2,82.4
		C123,552.2,103.5,504.5,98,455c-0.1-0.8-0.2-1.6-0.3-2.4C90.6,385.6,111,319.9,152,267c0.8-1,1.5-1.9,2.3-2.9
		c14.5-18.1,31.1-33.3,49.7-47.1c0.9-0.7,1.8-1.4,2.8-2.1C225,201.8,245,191.8,266,184c1.1-0.4,1.1-0.4,2.2-0.8
		C344.6,154.9,437,167.2,503,215c1.5,1.1,1.5,1.1,3.1,2.2c7.6,5.6,7.2,5.1,13,10.4L437.3,309.7z"/>
	<path class="st2" d="M479,283c0,0.7,0,1.3,0,2"/>
	<path class="st4" d="M460.3,523.7"/>
</g>
<g id="Layer_1_copy" class="st5">
	<path class="st6" d="M241.8,531.1"/>
	<path class="st6" d="M202.7,571.3"/>
	<path class="st6" d="M183,590"/>
	<path class="st6" d="M181,592"/>
	
		<linearGradient id="SVGID_00000033354940812217846780000007196407406317033626_" gradientUnits="userSpaceOnUse" x1="600.725" y1="161.6116" x2="600.725" y2="161.6116">
		<stop  offset="1.277974e-03" style="stop-color:#3D3A44"/>
		<stop  offset="1" style="stop-color:#3D3A44"/>
	</linearGradient>
	<path style="display:inline;fill:url(#SVGID_00000033354940812217846780000007196407406317033626_);" d="M600.7,161.6"/>
	
		<linearGradient id="SVGID_00000158025374723656100370000003771314134166346685_" gradientUnits="userSpaceOnUse" x1="583.6763" y1="156.2217" x2="583.6763" y2="156.2217">
		<stop  offset="1.277974e-03" style="stop-color:#3D3A44"/>
		<stop  offset="1" style="stop-color:#3D3A44"/>
	</linearGradient>
	<path style="display:inline;fill:url(#SVGID_00000158025374723656100370000003771314134166346685_);" d="M583.7,156.2"/>
	
		<linearGradient id="SVGID_00000026128625202113653420000002758840453772133275_" gradientUnits="userSpaceOnUse" x1="169.452" y1="388.4352" x2="767.6747" y2="388.4352">
		<stop  offset="1.277974e-03" style="stop-color:#3D3A44"/>
		<stop  offset="1" style="stop-color:#3D3A44"/>
	</linearGradient>
	<path style="display:inline;fill:url(#SVGID_00000026128625202113653420000002758840453772133275_);" d="M169.5,614.8
		c0.8-0.8,95-95,95.8-95.8c2.6-2.6,5.2-5.2,7.9-7.9c1.9-1.9,3.8-3.8,5.6-5.6c4.6-4.6,9.2-9.2,13.7-13.7c5.3-5.3,10.7-10.7,16-16
		c9.5-9.5,19-19.1,28.6-28.6c9.2-9.2,18.5-18.5,27.7-27.7c0.6-0.6,1.1-1.1,1.7-1.7c0.6-0.6,1.1-1.1,1.7-1.7
		c10.5-10.5,21-21,31.6-31.6c3.7-3.7,7.4-7.4,11.1-11.1c4.5-4.5,9.1-9.1,13.6-13.6c2.3-2.3,4.6-4.6,6.9-6.9c2.5-2.5,5-5,7.5-7.5
		c0.7-0.7,1.4-1.4,2.2-2.2c3.9-4,7.7-8,11.3-12.2c2.1-2.4,4.2-4.6,6.4-6.8c1.4-1.4,1.4-1.4,2.7-2.7c1-1,2-1.9,2.9-2.9
		c1-1,2.1-2.1,3.1-3.1c2.8-2.8,5.6-5.6,8.5-8.4c3-2.9,5.9-5.9,8.9-8.8c5.6-5.6,11.2-11.1,16.7-16.7c6.4-6.3,12.7-12.7,19.1-19.1
		c12.2-12.2,24.3-24.3,36.5-36.5c1.6-1.6,1.9-4.1,0.8-6l0,0c-0.5-0.9-0.5-0.9-1-1.9c-6.7-11.1-19.7-18.6-30.1-25.8
		c-0.8-0.5-1.5-1-2.3-1.6c-3.9-2.7-7.8-5.3-11.6-8c-8.5-5.8-16.9-11.7-25.3-17.6c-2.6-1.8-5.2-3.6-7.8-5.3c-1.5-1-3-2.1-4.5-3.1
		c-0.7-0.5-1.3-0.9-2-1.4c-5.2-3.6-10.2-7.7-12.3-13.8c-0.1-0.2-0.1-0.4-0.1-0.6c-0.7-5.4-0.8-6.4,0.4-8.2c0.5-0.8,1.1-1.4,1.9-2
		c1.4-1.2,2.9-2.3,4.5-3.3c0.2-0.1,0.4-0.3,0.5-0.4c0.6-0.4,1.1-0.9,1.7-1.3c0.6-0.5,1.3-0.9,1.9-1.4l0,0c1.4-1,3-1.7,4.7-1.9
		c5.6-0.6,11.6,1.7,16.7,3.7c1.2,0.4,1.2,0.4,2.3,0.9c2.5,1,5,1.9,7.5,2.9c1.8,0.7,3.5,1.3,5.3,2c8.3,3.2,16.7,6.4,25,9.6
		c2.7,1.1,5.4,2.1,8.1,3.2c2,0.8,4,1.5,5.9,2.3c2.9,1.1,5.7,2.3,8.5,3.6l50.6,23.6c25.9,0.4,33.3-4,50.3-14.4
		c8.4-5.4,15.8-11.9,23.1-18.6c1.7-1.5,3.5-3.1,5.2-4.6c3.1-2.8,6.1-5.6,9.1-8.4c33.9-31.3,42.8-40.5,56.1-36.8
		c0,0,22.9,5.3,16,26.4c-6.6,20-16.3,31.7-26.5,46.2c-0.5,0.8-1.1,1.5-1.7,2.2c-2,2.3-4.1,4.6-6.1,6.9c-0.8,0.9-1.6,1.8-2.4,2.8
		c-25.7,29.5-35.4,48.2-32.5,66.6c0.1,0.4-0.1,0.8,0,1.2c0.7,5.7,1.5,11.4,2.4,17l13.9,36.5c2.5,7.7,5.5,15.1,8.5,22.5
		c1.3,3.3,2.7,6.6,4,9.9c2.5,6.1,5,12.2,7.5,18.4c1.7,4.3,3.5,8.5,5.2,12.8c0.7,1.6,1.3,3.2,2,4.9c0.9,2.3,1.8,4.5,2.8,6.8
		c0.3,0.7,0.6,1.3,0.8,2c1.8,4.7,2.2,8.3,1.9,13.2c0,0.3-0.1,0.6-0.2,0.9c-1.2,2.6-1.3,2.8-3,5.3l-1.7,2.7c0,0-0.1,0.1-0.1,0.1
		c-2.5,3.1-4.8,5.9-8.8,6.8c-0.2,0.1-0.5,0.1-0.8,0c-6.8-0.9-11.5-4-16.1-9.2c0,0-0.1-0.1-0.1-0.1c-1.6-2.1-3.1-4.2-4.5-6.3
		c-0.8-1.2-0.8-1.2-1.7-2.4c-1.1-1.6-2.3-3.3-3.4-4.9c-2-3-4.1-5.9-6.2-8.8c-1-1.4-2-2.8-3-4.2c-5.2-7.4-10.5-14.7-15.8-22
		c-1.2-1.6-2.3-3.2-3.5-4.8c-15.3-18.1-14.9-21.7-31.6-33.3c-2.6-1.8-6.2-1.5-8.5,0.8c-6.5,6.5-13,13-19.6,19.5
		c-3.6,3.6-7.3,7.3-10.9,10.9c-3.5,3.5-7,7-10.5,10.5c-1.3,1.3-2.7,2.7-4,4c-1.9,1.9-3.8,3.8-5.6,5.6c-0.8,0.8-0.8,0.8-1.7,1.6
		c-2.7,2.7-5.2,5.4-7.7,8.3c-5.3,6-11,11.6-16.7,17.3c-1.3,1.3-2.6,2.6-3.8,3.9c-3.5,3.5-7,7-10.5,10.5c-3.8,3.8-7.6,7.6-11.4,11.4
		c-9.1,9.1-18.3,18.3-27.4,27.4c-4.3,4.3-8.6,8.6-12.9,12.9c-14.3,14.3-28.6,28.6-42.9,42.9c-3.7,3.7-7.4,7.4-11.1,11.1
		c-0.9,0.9-1.8,1.8-2.8,2.8c-14.9,15-29.9,29.9-44.8,44.9c-15.3,15.4-30.7,30.7-46,46.1c-8.6,8.6-17.2,17.2-25.8,25.9
		c-7.3,7.3-14.7,14.7-22,22c-3.7,3.7-7.5,7.5-11.2,11.2c-3.4,3.4-6.8,6.9-10.3,10.3c-1.2,1.2-2.5,2.5-3.7,3.7
		c-1.7,1.7-3.4,3.4-5.1,5c-0.7,0.7-0.7,0.7-1.4,1.5c-3.9,3.8-8,6.1-13.4,7.1c-0.2,0-0.3,0-0.5,0c-7.8-0.1-13.7-2.8-19.3-8.3
		c0,0-0.1-0.1-0.1-0.1"/>
	<path class="st10" d="M234.2,528.9"/>
	<path class="st10" d="M487.2,276.9c-0.8,0.8-1.5,1.6-2.3,2.4"/>
	<path class="st10" d="M511,253c-0.6,0.8-1.2,1.5-1.8,2.3"/>
	<path class="st10" d="M518,247c-0.7,0-1.3,0-2,0"/>
	<path class="st11" d="M437.3,309.7c-32.3-22.3-71.1-30.1-109.9-23.2c-32.6,6.5-64.3,24.5-84.4,51.4c-0.7,0.9-1.3,1.7-2,2.6
		c-23.6,31.2-31.7,69.1-27.5,107.6c0.6,4,1.5,7.9,2.5,11.8c0.2,0.8,0.4,1.6,0.6,2.3c5.3,20.4,12.5,35.1,21.2,46.1l-83.2,82.4
		C123,552.2,103.5,504.5,98,455c-0.1-0.8-0.2-1.6-0.3-2.4C90.6,385.6,111,319.9,152,267c0.8-1,1.5-1.9,2.3-2.9
		c14.5-18.1,31.1-33.3,49.7-47.1c0.9-0.7,1.8-1.4,2.8-2.1C225,201.8,245,191.8,266,184c1.1-0.4,1.1-0.4,2.2-0.8
		C344.6,154.9,437,167.2,503,215c1.5,1.1,1.5,1.1,3.1,2.2c7.6,5.6,7.2,5.1,13,10.4L437.3,309.7z"/>
	<path class="st10" d="M479,283c0,0.7,0,1.3,0,2"/>
	<path class="st12" d="M460.3,523.7"/>
</g>
<g id="wordmark">
	<g>
		
			<linearGradient id="SVGID_00000068644376123246096860000008975561916024667529_" gradientUnits="userSpaceOnUse" x1="670.8024" y1="596.8413" x2="785.403" y2="596.8413">
			<stop  offset="1.277974e-03" style="stop-color:#3D3A44"/>
			<stop  offset="1" style="stop-color:#3D3A44"/>
		</linearGradient>
		<path style="fill:url(#SVGID_00000068644376123246096860000008975561916024667529_);" d="M691.3,559.1l13,48.7l16-48.7h15.6
			l16,48.7l13-48.7h20.5l-22.5,75.4h-20l-14.8-43.7l-14.8,43.7h-20l-22.5-75.4H691.3z"/>
		
			<linearGradient id="SVGID_00000040533354311756914580000011672513407048157072_" gradientUnits="userSpaceOnUse" x1="793.3024" y1="596.8413" x2="836.2018" y2="596.8413">
			<stop  offset="1.277974e-03" style="stop-color:#3D3A44"/>
			<stop  offset="1" style="stop-color:#3D3A44"/>
		</linearGradient>
		<path style="fill:url(#SVGID_00000040533354311756914580000011672513407048157072_);" d="M836.2,575.7h-23.3v12.6h22v16.6h-22v13
			h23.3v16.6h-42.9v-75.4h42.9V575.7z"/>
		
			<linearGradient id="SVGID_00000180340740762418676760000010452616898049363079_" gradientUnits="userSpaceOnUse" x1="850.3015" y1="596.8413" x2="907.8015" y2="596.8413">
			<stop  offset="1.277974e-03" style="stop-color:#3D3A44"/>
			<stop  offset="1" style="stop-color:#3D3A44"/>
		</linearGradient>
		<path style="fill:url(#SVGID_00000180340740762418676760000010452616898049363079_);" d="M850.3,559.1h29.2c6.9,0,12.2,1.7,15.8,5
			c3.6,3.3,5.4,8.1,5.4,14.4c0,3.8-0.7,7-2,9.5c-1.4,2.5-3.5,4.6-6.2,6.3c2.8,0.5,5.2,1.4,7.2,2.5c2,1.1,3.6,2.5,4.8,4
			c1.2,1.6,2.1,3.4,2.6,5.4c0.5,2,0.8,4.1,0.8,6.4c0,3.5-0.6,6.7-1.9,9.4c-1.2,2.7-3,5-5.2,6.9c-2.2,1.9-4.9,3.3-8.1,4.2
			c-3.2,0.9-6.8,1.4-10.8,1.4h-31.5V559.1z M869.9,588.7h3.6c6.1,0,9.2-2.4,9.2-7.3c0-4.9-3.1-7.3-9.2-7.3h-3.6V588.7z M869.9,619.3
			h4.3c4.9,0,8.5-0.6,10.6-1.9c2.1-1.3,3.2-3.3,3.2-6.1s-1.1-4.8-3.2-6.1c-2.1-1.3-5.7-1.9-10.6-1.9h-4.3V619.3z"/>
	</g>
	<g>
		
			<linearGradient id="SVGID_00000083050139843351782990000014094210194366663349_" gradientUnits="userSpaceOnUse" x1="959.2935" y1="594.2285" x2="1016.6938" y2="594.2285">
			<stop  offset="1.277974e-03" style="stop-color:#3D3A44"/>
			<stop  offset="1" style="stop-color:#3D3A44"/>
		</linearGradient>
		<path style="fill:url(#SVGID_00000083050139843351782990000014094210194366663349_);" d="M978.9,631.9h-19.6v-75.4h31.2
			c8.5,0,15,2.2,19.5,6.6c4.5,4.4,6.8,10.6,6.8,18.6s-2.2,14.2-6.8,18.6c-4.5,4.4-11,6.6-19.5,6.6h-11.6V631.9z M978.9,591.1h6.5
			c7.2,0,10.8-3.1,10.8-9.4c0-6.3-3.6-9.4-10.8-9.4h-6.5V591.1z"/>
		
			<linearGradient id="SVGID_00000151501958647085145910000008577285295152952448_" gradientUnits="userSpaceOnUse" x1="1027.0933" y1="594.2285" x2="1046.6929" y2="594.2285">
			<stop  offset="1.277974e-03" style="stop-color:#3D3A44"/>
			<stop  offset="1" style="stop-color:#3D3A44"/>
		</linearGradient>
		<path style="fill:url(#SVGID_00000151501958647085145910000008577285295152952448_);" d="M1046.7,556.5v75.4h-19.6v-75.4H1046.7z"
			/>
		
			<linearGradient id="SVGID_00000032614403518298964790000005434387272564495765_" gradientUnits="userSpaceOnUse" x1="1062.4917" y1="594.2285" x2="1105.5913" y2="594.2285">
			<stop  offset="1.277974e-03" style="stop-color:#3D3A44"/>
			<stop  offset="1" style="stop-color:#3D3A44"/>
		</linearGradient>
		<path style="fill:url(#SVGID_00000032614403518298964790000005434387272564495765_);" d="M1082.1,556.5v58.8h23.5v16.6h-43.1
			v-75.4H1082.1z"/>
		
			<linearGradient id="SVGID_00000017477176721149491910000004881765861910636967_" gradientUnits="userSpaceOnUse" x1="1110.7915" y1="594.2285" x2="1194.2915" y2="594.2285">
			<stop  offset="1.277974e-03" style="stop-color:#3D3A44"/>
			<stop  offset="1" style="stop-color:#3D3A44"/>
		</linearGradient>
		<path style="fill:url(#SVGID_00000017477176721149491910000004881765861910636967_);" d="M1110.8,594.2c0-5.6,1-10.8,3.1-15.6
			c2.1-4.8,4.9-9.1,8.6-12.7c3.7-3.6,8-6.4,13.1-8.5c5.1-2,10.7-3,16.9-3c6.1,0,11.7,1,16.8,3c5.1,2,9.5,4.9,13.2,8.5
			s6.6,7.8,8.7,12.7c2.1,4.8,3.1,10,3.1,15.6c0,5.6-1,10.8-3.1,15.7c-2.1,4.8-5,9-8.7,12.6c-3.7,3.6-8.1,6.4-13.2,8.5
			c-5.1,2-10.7,3-16.8,3c-6.1,0-11.8-1-16.9-3c-5.1-2-9.5-4.8-13.1-8.5c-3.7-3.6-6.5-7.8-8.6-12.6
			C1111.8,605,1110.8,599.8,1110.8,594.2z M1131.3,594.2c0,3,0.6,5.8,1.7,8.3c1.1,2.5,2.7,4.7,4.6,6.6c1.9,1.9,4.2,3.3,6.8,4.3
			c2.6,1,5.3,1.5,8.2,1.5c2.9,0,5.6-0.5,8.1-1.5c2.6-1,4.8-2.5,6.8-4.3c2-1.9,3.5-4.1,4.6-6.6c1.1-2.5,1.7-5.3,1.7-8.3
			s-0.6-5.8-1.7-8.3c-1.1-2.5-2.7-4.7-4.6-6.6c-2-1.9-4.2-3.3-6.8-4.4c-2.6-1-5.3-1.5-8.1-1.5c-2.9,0-5.6,0.5-8.2,1.5
			c-2.6,1-4.8,2.5-6.8,4.4c-1.9,1.9-3.5,4.1-4.6,6.6C1131.9,588.5,1131.3,591.2,1131.3,594.2z"/>
		
			<linearGradient id="SVGID_00000041261226694036220060000009976932253994090393_" gradientUnits="userSpaceOnUse" x1="1198.7905" y1="594.2285" x2="1250.5903" y2="594.2285">
			<stop  offset="1.277974e-03" style="stop-color:#3D3A44"/>
			<stop  offset="1" style="stop-color:#3D3A44"/>
		</linearGradient>
		<path style="fill:url(#SVGID_00000041261226694036220060000009976932253994090393_);" d="M1234.5,573.1v58.8h-19.6v-58.8h-16.1
			v-16.6h51.8v16.6H1234.5z"/>
		
			<linearGradient id="SVGID_00000017506583966220611210000005960247457558621340_" gradientUnits="userSpaceOnUse" x1="1255.9897" y1="594.2285" x2="1311.6899" y2="594.2285">
			<stop  offset="1.277974e-03" style="stop-color:#3D3A44"/>
			<stop  offset="1" style="stop-color:#3D3A44"/>
		</linearGradient>
		<path style="fill:url(#SVGID_00000017506583966220611210000005960247457558621340_);" d="M1300.8,575.8c-2.1-1.7-4.3-3-6.4-3.9
			c-2.1-0.8-4.2-1.2-6.2-1.2c-2.5,0-4.6,0.6-6.2,1.8c-1.6,1.2-2.4,2.8-2.4,4.7c0,1.3,0.4,2.4,1.2,3.3c0.8,0.9,1.9,1.6,3.2,2.2
			c1.3,0.6,2.8,1.2,4.4,1.7c1.6,0.5,3.2,1,4.9,1.5c6.4,2.1,11.1,5,14,8.5c3,3.6,4.5,8.2,4.5,14c0,3.9-0.7,7.4-2,10.5
			c-1.3,3.1-3.2,5.8-5.7,8c-2.5,2.2-5.6,4-9.2,5.2c-3.6,1.2-7.8,1.8-12.3,1.8c-9.5,0-18.4-2.8-26.5-8.5l8.4-15.8
			c2.9,2.6,5.8,4.5,8.7,5.8c2.9,1.3,5.7,1.9,8.5,1.9c3.2,0,5.6-0.7,7.2-2.2c1.6-1.5,2.3-3.1,2.3-5c0-1.1-0.2-2.1-0.6-3
			c-0.4-0.8-1.1-1.6-2-2.3c-0.9-0.7-2.2-1.3-3.7-2c-1.5-0.6-3.3-1.3-5.4-2c-2.5-0.8-5-1.7-7.5-2.6c-2.4-1-4.6-2.2-6.5-3.9
			c-1.9-1.6-3.4-3.6-4.6-6c-1.2-2.4-1.8-5.5-1.8-9.2c0-3.7,0.6-7.1,1.9-10.1c1.2-3,3-5.6,5.2-7.8c2.2-2.2,5-3.8,8.2-5
			c3.2-1.2,6.9-1.8,10.9-1.8c3.7,0,7.6,0.5,11.7,1.5c4.1,1,8,2.5,11.7,4.5L1300.8,575.8z"/>
	</g>
</g>
<g id="Layer_4" class="st5">
	
		<linearGradient id="SVGID_00000075122991368992998230000011260264327809849728_" gradientUnits="userSpaceOnUse" x1="344.6664" y1="427.4667" x2="368.6664" y2="427.4667">
		<stop  offset="1.277974e-03" style="stop-color:#3D3A44"/>
		<stop  offset="1" style="stop-color:#3D3A44"/>
	</linearGradient>
	
		<circle style="display:inline;fill:url(#SVGID_00000075122991368992998230000011260264327809849728_);" cx="356.7" cy="427.5" r="12"/>
</g>
<g id="Layer_3">
	<circle class="st23" cx="356.6" cy="427.4" r="143.8"/>
</g>
<g id="Layer_5">
	<path class="st24" d="M290.5,727.9c-2.9-2.9-5.2-5.5-6.8-8.7c0,0,0-0.1-0.1-0.1c-2.8-5.7-1.5-12.6,3-17.2l315.7-321.4
		c0.6-0.5,1-0.9,1.5-1.3c1.8-1.3,4.4-0.4,4.9,1.8c13,58.8-0.2,124.7-30.7,175.9c-9.6,15.5-20.1,30-32.5,43.3
		c-1.9,2.1-3.8,4.2-5.7,6.4c-3.5,4-7.2,7.9-11,11.7c-0.7,0.7-1.4,1.4-2.1,2.1c-2.3,2.3-4.6,4.6-6.9,7c-1.7,1.7-3.3,3.3-5,5
		c-5.4,5.5-10.9,10.9-16.3,16.4c-0.9,0.9-1.9,1.9-2.8,2.8c-8.7,8.8-17.5,17.5-26.2,26.3c-2,2-4,4-6.1,6.1c-0.5,0.5-1,1-1.5,1.5
		c-8.1,8.2-16.3,16.3-24.4,24.5c-8.4,8.4-16.7,16.8-25.1,25.2c-4.7,4.7-9.4,9.4-14.1,14.1c-4.4,4.4-8.8,8.9-13.2,13.3
		c-1.6,1.6-3.2,3.2-4.8,4.9c-2.2,2.2-4.4,4.4-6.6,6.6c-0.6,0.6-1.3,1.3-1.9,2c0,0-0.1,0.1-0.1,0.1c-8.5,8.2-21.9,8.9-31.2,1.6
		c-3.8-2.9-7.2-6.6-10.8-10.2L290.5,727.9z"/>
</g>
</svg>
