<?xml version="1.0" encoding="utf-8"?>
<!-- Generator: Adobe Illustrator 27.5.0, SVG Export Plug-In . SVG Version: 6.00 Build 0)  -->
<svg version="1.1" id="Layer_2" xmlns="http://www.w3.org/2000/svg" xmlns:xlink="http://www.w3.org/1999/xlink" x="0px" y="0px"
	 viewBox="0 0 1243 995.2" style="enable-background:new 0 0 1243 995.2;" xml:space="preserve">
<style type="text/css">
	.st0{fill:#FFFFFF;}
</style>
<path class="st0" d="M795.6,466.9c-2.7-0.7-2.9-2.6-3.5-4.5c-2.5-7.5-4.7-15-7.4-22.3c-0.9-2.5-0.5-4.2,0.7-6.4
	c3.9-6.7,6.7-13.8,7.4-21.6c1.7-21.2-8.7-38.6-29.7-49.5c-12.3-6.5-25.6-10.8-39-14.1c-3.5-0.9-4.9-2.2-5-6.2
	c-0.1-12.6-0.5-25.3-1.1-37.9c-1.2-26.7-7.6-51.7-25.2-72.5c-3.5-4.1-3.6-6.4,0.1-10.3c19.1-20.8,35-43.6,41.9-71.7
	c9-36.6-8.1-64.2-44.9-72.7c-17.7-4.1-35.4-3.4-53.2-0.6c-24.3,3.7-47.2,12.1-69.6,22.2c-3.4,1.5-5.4,1.1-8-1.5
	c-7.9-8-16.3-15.3-23.9-23.7c-16.5-17.9-36.9-21.7-59.7-18.1c-22.8,3.6-43.4,13.3-63.1,25.1c-37.8,22.4-70.5,51-100.6,82.8
	c-34.2,36.1-64.3,75.4-86.6,120.2c-12.6,25.4-22.8,51.6-21.9,80.6c0.5,17.2,6.4,31.9,19.9,43.1c5.7,4.7,11.3,9.7,17.2,14.5
	c2.1,1.7,3.1,3.1,2,6.2c-2.6,7-3.9,14.3-4.7,21.8c-7.7,64.1,46.4,107.8,92.6,110.8c4.5,0.2,6.2,1.9,8,5.7
	c14.6,31.5,35.3,58.6,62.1,80.5c50.2,41.3,108.7,58.6,168.5,59.1c39.5-0.2,73.8-5.2,106.6-18.1c64.7-25.4,110.4-69.7,133-136.2
	c6.2-18.6,10.6-37.6,7.9-57.5C814.8,481.4,809.7,470.5,795.6,466.9z M378.8,507.8c-9.2,23.8-32.7,33.7-59.2,26.4
	c-26.2-7.1-58.1-32.9-58.1-72.3c-1.4-39.4,26.9-69.2,65.8-68.3c20.3,0.5,35.8,11.1,45.4,28.4C387.9,449.4,390.1,478.7,378.8,507.8z
	 M310,364c-2,5-4.6,7.2-9.7,8.6c-17.3,4.5-31.9,13.8-43,27.9c-3,3.7-4.2,2.6-7.5,0.5c-24.8-16.2-26.5-39.3-19.6-64.8
	c8-29.8,22.4-56.5,39-82.1c39.1-60.1,87.9-110.7,148.8-148.8C437.7,93,458.2,82.9,481.4,79c14-2.4,26.7-1.1,36.8,10.8
	c6.5,7.7,14,14.7,21.6,22.7c-30.3,17.7-58.1,36.9-85.3,57.5C387.3,220.8,340.4,286.2,310,364z M516.3,170.5
	c-2.6,6.7-4.6,11.7-6.6,16.7c-0.5,1.4-1.5,2.9-0.2,4c1.7,1.7,3-0.4,4.2-1.1c19.2-11.7,39.6-19.6,61.9-22.6c1.4-0.2,2.9-0.4,4.4-0.4
	c0.5,0,1.1,0.4,2.2,0.7c-2.9,3-5.6,5.6-8.1,8.5c-1.1,1.2-3.5,2.4-2.4,4.6c0.9,1.6,3,1,4.6,1.1c16.8,1.4,33,5.2,48.5,12.2
	c2.1,1,4.6,1.6,6.2,4.6c-70.9-14.1-136.1,0-196.4,38.8C457.5,210.8,483.5,188,516.3,170.5z M782.4,549.2
	c-19.7,38.6-51,64.2-91.1,79.4c-45.1,17-90.4,18.7-134.9-1.9c-83.5-38.6-80.6-138.4-36.6-185.8c7-7.5,7.1-10.1,0.6-18.1
	c-7.4-9-15.6-17.2-22.2-26.8c-22.4-32.4-19.7-73.4,6.7-99c13.5-13.1,29.5-19.3,48.6-17.3c12.8,1.4,25.6,2.4,38.4,3
	c17.6,0.7,32.9-5.2,46.4-16.5c3.5-2.9,7-5.9,11-8.1c15-8.4,30.5-3.4,38.1,12.1c5.1,10.2,6.4,21.4,7,32.7c1,16,1.6,31.9,2.5,47.9
	c0.6,11.7,3.4,15,14.7,18.6c14.2,4.5,28.9,7.5,42,15c18.2,10.3,21.6,26.5,8.8,43.1c-2.2,3-4.9,5.7-7.6,8.2
	c-20.9,18.9-46.4,29.4-73.2,36.8c-35.4,9.8-71.4,12.8-107.8,7.2c-24.9-3.7-39.4,17.8-38.1,38.5c1.1,19.6,12.8,31.2,29.7,38.6
	c19.6,8.7,40.1,11.2,61.4,10.1c36.8-2,71.7-10.7,103.5-29.8c11.1-6.6,21.3-14.5,29.5-24.4c1.4-1.6,3.5-3,2.9-6.5
	c-25.9,17-53.1,29.8-82.5,37.6c-31.7,8.6-63.6,11.5-95.9,3.5c-8.1-2-15.8-5-22.4-10.3c-5-4-8.4-8.8-9.5-16.1
	c15.3,4.4,30.3,7.5,45.6,8.4c18.2,1.1,36-0.4,53.5-6.1c1.7-0.6,4.9-0.7,4.4-3.5c-0.5-2.9-3.4-1.5-5.2-1.4c-31.2,2.7-61.7,0.6-91.6-9
	c-5.9-1.9-6.1-2.9-2.4-7.9c3.4-4.5,8-5.9,13.2-5.5c10.1,0.7,20.2,2.2,30.4,2.6c48,1.6,94.1-6.1,137.2-28.5
	c9.2-4.7,18.1-10.1,26.3-16.3c2.9-2.2,4.1-2.1,5.5,1.5c3.1,8.7,6,17.7,7.6,26.8c0.4,2.4,0.9,3.9,4,4.2c9.7,0.7,13.8,5.4,14,15.5
	C794.9,518.4,790,534.2,782.4,549.2L782.4,549.2z M1049.9,833.9c0-8.9-1.4-17.6-4.2-26.1c-10-29.4-48-29.9-62.1-12.8
	c-4.1,5.1-7.3,10.6-10,16.6c-1.4,3-2.5,6-4.6,8.5c-0.9,1.1-1.9,2-3.6,1.5c-1.6-0.5-2-1.9-1.9-3.3c0.1-2.4,0.3-4.7,0.5-7.2
	c1-12.5-5.7-22.4-17.7-25.8c-8.5-2.4-16.9-2.4-25.4,0.3c-12.9,4.1-20.6,13.6-25.7,25.5c-1,2.5-1.7,5.1-2.7,7.5
	c-0.7,1.7-1.7,3.5-4,2.9c-2.3-0.7-2.1-2.9-1.7-4.6c0.5-2.3,1.4-4.6,2.2-6.8c2.5-6.3,3-12.8,2.7-19.4c-0.2-2.9-0.9-4.1-4.2-4.1
	c-8.7,0.3-17.5,0.3-26.2,0c-3.3-0.1-3.9,1-3.9,4.1c0.2,20.3,0.1,40.6,0.1,60.9c0,19.9,0.2,39.7-0.1,59.6c-0.1,4.1,1.3,4.8,4.9,4.7
	c12-0.3,23.9-0.3,35.9,0c4.1,0.1,4.7-1.3,4.7-4.9c-0.2-21.8-0.1-43.6-0.1-65.5c0-6.4,1-12.7,5.6-17.7c6.7-7.4,17.4-5.7,21.3,3.5
	c1.2,2.9,1.6,5.9,1.6,9c0,23.8,0.1,47.6-0.1,71.4c0,3.5,1,4.1,4.2,4.1c12.4-0.2,24.8-0.3,37.2,0c3.5,0.1,4.1-1.1,4.1-4.3
	c-0.2-21.7-0.1-43.4-0.1-65.1c0-5.8,0.6-11.6,3.9-16.6c3.2-4.9,7.8-7.4,13.6-6.5c5.7,0.8,8.5,4.9,10.1,10.1c0.8,2.8,0.8,5.6,0.8,8.4
	c0,23.2,0.1,46.5-0.1,69.7c0,3.1,0.5,4.4,4.1,4.3c12.4-0.3,24.8-0.2,37.2,0c3,0.1,3.7-0.8,3.7-3.8
	C1049.8,886,1049.9,860,1049.9,833.9z M232.5,807.2c-5.1-12.9-14.1-21-28.2-23c-15.1-2.1-27.8,1.9-36.9,15
	c-3.1,4.6-5.4,9.6-7.7,14.5c-0.9,2-2,4-3.2,5.9c-0.9,1.5-2.2,2.7-4.1,2c-1.7-0.7-2-2.2-1.9-3.8l0.5-6.3c1.1-13.4-5.9-23.2-19-26.5
	c-22.7-5.7-42.8,5.7-50.7,28.7c-0.8,2.1-1.4,4.2-2.4,6.3c-0.5,1.2-1.6,2.1-3,1.8c-1.6-0.3-2.2-1.7-2.2-3.2c0-2.6,0.9-5,1.9-7.3
	c2.8-6.8,3.6-13.8,3.1-21c-0.2-2.5-0.9-3.6-3.8-3.5c-8.9,0.2-17.7,0.3-26.6,0c-3-0.1-3.6,0.8-3.6,3.7c0.2,20.3,0.1,40.6,0.1,60.9
	c0,20.3,0.1,40.6-0.1,60.9c0,2.9,0.7,3.8,3.7,3.8c12.4-0.2,24.8-0.3,37.2,0c3.5,0.1,4.4-0.9,4.4-4.4c-0.2-21.4-0.2-42.8-0.1-64.2
	c0-6.5,0.6-12.9,4.7-18.4c3.4-4.4,7.9-6.3,13.4-5.3c5.2,1,8.1,4.8,9.6,9.6c0.8,2.5,0.9,5.2,0.9,7.9c0,23.4,0.1,46.7-0.2,70.1
	c0,4.1,1.3,4.7,4.9,4.6c12-0.3,23.9-0.3,35.9,0c3.7,0.1,4.9-0.8,4.9-4.7c-0.3-22.2-0.1-44.5-0.1-66.8c0-5.6,1-11,4.5-15.5
	c3.2-4.2,7.7-6.3,12.9-5.5c5.1,0.8,8,4.3,9.7,9c1,2.7,1.1,5.5,1.1,8.3c0,23.8,0,47.6-0.1,71.3c0,2.9,0.7,3.8,3.7,3.8
	c12.5-0.2,25.1-0.2,37.6,0c3.2,0.1,4-0.9,3.9-4.1c-0.2-24.3,0-48.7-0.1-73C237,828.1,236.5,817.4,232.5,807.2L232.5,807.2z
	 M1189.9,810.2c-10.7-21-33.6-31.3-55.7-25c-13.8,3.9-21.6,13.9-26.9,26.5c-1,2.5-1.9,5-3,7.4c-0.7,1.5-1.8,3.1-3.9,2.5
	c-2.5-0.7-2-2.9-1.7-4.6c0.4-2,1.3-4,2-6c2.5-6.8,3.5-13.8,2.5-21.1c-0.3-2.6-1.3-3.2-3.7-3.1c-9.3,0.1-18.6,0.2-27.9,0
	c-2.6,0-3.3,0.7-3.3,3.3c0.1,51.9,0.1,103.9,0,155.8c0,2.7,0.8,3.3,3.4,3.3c12.7-0.1,25.4-0.2,38,0c3.5,0.1,4.5-0.8,4.4-4.3
	c-0.2-14.9-0.1-29.8-0.1-44.6c5.4,7.5,11.7,13.3,20.4,16.1c20.3,6.7,41.8-1.3,53.1-19.6c6.4-10.4,9.4-21.9,10.5-33.9
	C1199.6,844.6,1198.3,826.7,1189.9,810.2L1189.9,810.2z M1149,878.7c-2.5,6.1-7.5,9.6-14.5,9.7c-6.9,0.1-11.2-3.9-14.4-9.5
	c-4.1-7.4-4.9-15.5-5.2-23.9c0.3-7.8,1.1-15.7,5-22.9c3-5.7,7.4-9.6,14.2-9.6c7,0,12.3,3.7,14.9,10
	C1155.5,847.8,1155.4,863.4,1149,878.7L1149,878.7z M773.3,834.8c0-7.2-0.8-14.3-2.5-21.3c-4.3-16.6-15.1-26.9-31.3-29
	c-17.2-2.3-31.8,2-41.3,17.9c-2.9,4.8-4.9,10.1-6.8,15.3c-0.7,1.9-1.4,4.6-4.2,3.6c-2.7-0.8-2-3.5-1.5-5.5c1-4.1,2.5-8,3.6-12.1
	c4.5-16.5,6.1-33.1,3.1-50c-0.4-2.5-1.4-3.2-3.9-3.1c-10.7,0.1-21.4,0.3-32.1,0c-3.5-0.1-4.1,1.1-4.1,4.2
	c0.1,26.2,0.1,52.3,0.1,78.5c0,26,0.1,52.1-0.1,78.1c0,3.5,0.9,4.4,4.4,4.3c12.3-0.3,24.5-0.3,36.8,0c3.5,0.1,4.4-1,4.4-4.5
	c-0.2-21.6-0.1-43.4-0.1-65c0-6.5,1.4-12.6,5.7-17.6c3.7-4.1,8.4-6.2,13.9-5c5.7,1.2,8.4,5.2,9.8,10.5c0.7,2.5,0.6,5,0.6,7.5
	c0,23.3,0.1,46.7-0.1,70.1c0,3.2,0.9,4,4,4c12.7-0.2,25.4-0.2,38,0c3,0.1,3.6-0.9,3.6-3.8C773.3,886.3,773.4,860.6,773.3,834.8
	L773.3,834.8z M376.8,848.2c0-6.8-0.4-13.5-1.6-20.1c-4.1-21.8-15.6-37.4-38-42.2c-26.8-5.7-52.5-0.7-77.3,9.8
	c-1.8,0.8-1.9,2-1.9,3.7c0.1,11.4,0,22.8,0,34.7c5.3-2.5,10.1-5,14.9-7.1c12.6-5.4,25.4-9.8,39.5-8.9c10.7,0.8,17.7,6.7,18.8,15.9
	c0.3,2.7,0.1,4.1-3.4,3.8c-12.5-0.8-25-1.2-37.4,0.6c-24.6,3.5-38.3,17.1-39.8,40.4c-0.8,13.9,4.1,25.4,16.2,33.1
	c18.8,12.1,56.4,10,69.7-23.9l2.3-5.8c0.5-1.2,1.4-1.8,2.6-1.6c1.4,0.3,1.9,1.2,1.9,2.5c-0.1,1.9-0.2,4-0.5,5.8
	c-1.5,8-1.1,15.9,0.5,23.8c0.5,2.4,1.5,3.1,4,3.1c8.5-0.2,16.9-0.3,25.4,0c3.5,0.1,4.5-0.8,4.5-4.3
	C376.8,890.4,376.8,869.3,376.8,848.2L376.8,848.2z M329.1,865c-2.5,12.1-14.4,21.6-26.7,21.6c-6.8,0-11.3-2.6-12.4-7.3
	c-1.4-6,1.4-11.2,8-14c9.6-4.2,19.8-3.3,29.8-3C329.9,862.3,329.3,863.7,329.1,865z M627.4,792.8c-17.5-8.6-35.9-11.1-54.9-8.2
	c-19.9,3-35.5,13-44.6,31.5c-7.4,15-8.5,31-6.2,47.3c2.5,16.8,9.5,31.4,23.2,42.1c23.7,18.4,62.8,17.7,86.6-1.5
	c1.8-1.4,2.1-3,2.1-5.1c-0.1-12,0-23.9-0.1-35.9c0-1,0.6-2.2-0.8-3.1c-6.8,4.5-13.9,8.4-21.7,10.8c-12.9,4.1-25.9,5.4-38.7-0.2
	c-8.2-3.5-12.2-10.1-12.3-18.9c-0.2-8.7,3.6-15,11.1-19.4c5.7-3.3,12.1-4.5,18.6-4.6c15.9-0.2,29.9,5.2,43.8,14.3
	c0-13.5-0.3-26.3,0.2-39C633.9,797.8,631.9,795.1,627.4,792.8L627.4,792.8z M506.3,754c0-2.9-0.8-3.5-3.5-3.5
	c-12.5,0.2-25.1,0.3-37.6,0c-3.4-0.1-3.8,1.1-3.8,4.1c0.1,26.2,0.1,52.4,0.1,78.6c0,26.4,0.1,52.7-0.1,79c0,2.9,0.7,3.8,3.7,3.8
	c12.5-0.2,25.1-0.2,37.6,0c2.6,0,3.6-0.4,3.6-3.5C506.2,859.5,506.2,806.8,506.3,754L506.3,754z M836.9,795.8v-4
	c-15,5.1-29.8,5.1-44.6,0.1c-0.1,0.8-0.2,1.4-0.2,1.9c0,39.6,0,79.1-0.1,118.7c0,2.6,0.8,3.4,3.3,3.3c12.4-0.1,24.8-0.2,37.2,0
	c3.5,0.1,4.5-0.7,4.5-4.3C836.8,873,836.9,834.4,836.9,795.8L836.9,795.8z M441.4,795.8v-3.7c-21.2,4.7-27.7,4.7-44.6-0.1
	c-0.1,0.8-0.2,1.4-0.2,1.9c0,39.6,0,79.1-0.1,118.7c0,2.6,0.8,3.4,3.3,3.3c12.4-0.1,24.8-0.2,37.2,0c3.5,0.1,4.5-0.7,4.5-4.3
	C441.3,873,441.4,834.4,441.4,795.8L441.4,795.8z M438,753.7c-5.8-3.1-12.2-4-18.8-4.1c-8.4,0-15.3,1.6-20.3,4.6
	c-10.9,6.6-11.2,19.6-0.1,25.8c12.8,7.1,26.4,6.8,39.6,0.5c5.5-2.6,9-7.1,8.7-13.7C446.9,760.5,443.1,756.5,438,753.7L438,753.7z
	 M834.4,754.3c-12.9-6.8-26.5-6.5-39.6-0.1c-5.2,2.5-8.5,7-8.5,13.1c0,6.3,3.7,10.4,8.9,13.3c5.9,3.3,12.4,4.2,19.2,4.5
	c6.8-0.3,13.6-1.1,19.8-4.6C845.5,773.9,846,760.5,834.4,754.3z"/>
<path class="st0" d="M358.9,500.2c-11.5,7.4-26.1-1.9-27-17c-0.5-6.7,1-13.1,3.1-19.4c3.7-11.2-0.4-20.9-10.1-24.6
	c-10.1-3.7-19.8,1.1-24.4,12.1c-1.4,3.2-2.5,6.6-4.1,9.7c-0.9,1.6-2.6,2.7-4.7,2.2c-1.9-0.5-2.6-2.1-2.7-3.9
	c-1.5-13.3,2.9-24.7,12.7-33.5c9.6-8.6,21.3-10.2,33-5c12,5.4,18.2,15.2,18.9,27c-0.1,8.2-2.1,14.8-4.9,21.1
	c-1.5,3.4-3,6.9-3.9,10.5c-2,8,3.5,13.5,11.6,12.2c2.5-0.4,5.7-2.5,7,1.2C364.6,496.6,361.5,498.6,358.9,500.2L358.9,500.2z"/>
<path class="st0" d="M665.6,362.2c9.7,3.1,15-0.7,15.1-11.2v-1.9c-0.4-10.7-2.1-21.1-7.4-30.5c-2.4-4.2-6.1-6.9-11.3-5.6
	c-5.2,1.2-7.2,5.2-7.5,10.2c-0.5,12.2,2,23.8,7.6,34.8C663,359.6,663.8,361.6,665.6,362.2z"/>
<path class="st0" d="M543,373.1c11.8-3.6,23.7-6,35.9-1.7c4.5,1.5,8.8,3.5,13.2,5.2c2.5,1,5.5,3,7.4,0.5c2-2.7-0.5-5.5-2.4-7.7
	c-8.5-9.7-19.3-14.5-33.9-14.6c-11.1,0.2-22.2,4.4-31.2,13.6c-1.6,1.6-3.4,3.6-2.1,6c1.4,2.9,3.9,1.4,6,0.7
	C538.1,374.6,540.6,373.8,543,373.1L543,373.1z"/>
<path class="st0" d="M594.7,386.9c-4.9-4-10.6-5.5-17.8-5.5c-7.4,0.6-15.3,2.6-21.1,9.5c-1.1,1.4-2.6,2.9-1.4,5
	c1.4,2.1,3.2,1.2,5,0.6c10.7-4.2,21.7-5.1,33-3.5c1.7,0.2,3.6,0.2,4.5-1.4C598,389.4,596.1,388,594.7,386.9L594.7,386.9z"/>
<path class="st0" d="M676.1,376.9c-5-0.4-8.8,4.5-9.1,11.1c-0.1,6.9,3.1,11.8,8,12.1c5,0.4,9.2-5,9.3-11.7
	C684.3,382.4,680.7,377.2,676.1,376.9z"/>
<path class="st0" d="M644.3,411c5.2,0.4,9-2.4,9.2-6.9c0.2-6-5.6-11.3-12.7-11.7c-5.6-0.4-9.1,2.1-9.3,6.6
	C631.2,404.6,637.5,410.5,644.3,411L644.3,411z"/>
<path class="st0" d="M356.4,491.7c-8.1,1.2-13.5-4.4-11.6-12.2c0.9-3.6,2.5-7,3.9-10.5c2.7-6.4,4.6-12.8,4.9-21.1
	c-0.7-11.8-7-21.7-18.9-27c-11.8-5.2-23.4-3.6-33,5c-9.8,8.7-14.2,20.2-12.7,33.5c0.2,1.6,1,3.4,2.7,3.9c2.1,0.5,3.9-0.6,4.7-2.2
	c1.6-3.1,2.7-6.5,4.1-9.7c4.6-11,14.3-15.8,24.4-12.1c9.7,3.6,13.8,13.5,10.1,24.6c-2.1,6.4-3.6,12.7-3.1,19.4
	c1,15.1,15.6,24.2,27,17c2.6-1.6,5.7-3.6,4.5-7.2C362,489.2,358.9,491.4,356.4,491.7L356.4,491.7z"/>
</svg>
