<?xml version="1.0" encoding="utf-8"?>
<!-- Generator: Adobe Illustrator 27.5.0, SVG Export Plug-In . SVG Version: 6.00 Build 0)  -->
<svg version="1.1" id="Layer_1" xmlns="http://www.w3.org/2000/svg" xmlns:xlink="http://www.w3.org/1999/xlink" x="0px" y="0px"
	 viewBox="0 0 785 558" style="enable-background:new 0 0 785 558;" xml:space="preserve">
<style type="text/css">
	.st0{fill:#FFFFFF;}
	.st1{fill-rule:evenodd;clip-rule:evenodd;fill:#FFFFFF;}
</style>
<path class="st0" d="M497.1,276.4c2.7-4.1,4-9.8,4-17.1c0-7.3-1.4-13-4-17c-2.7-4-6.7-5.9-12.2-5.9c-5.6,0-9.6,1.9-12.2,5.9
	c-2.6,4-4,9.7-4,17c0,7.3,1.3,13,4,17.1c2.6,4,6.6,6,12.2,6C490.4,282.3,494.4,280.4,497.1,276.4z"/>
<path class="st0" d="M642.2,242.3c-1.7,2.6-2.8,6-3.4,10h30.3c-0.3-3.9-1.1-7.4-2.8-10c-2.6-4-6.3-6.2-11.9-6.2
	S644.8,238.3,642.2,242.3z"/>
<path class="st0" d="M301.8,242.3c-1.7,2.6-2.8,6-3.4,10h30.3c-0.3-3.9-1.1-7.4-2.8-10c-2.7-4-6.3-6.2-11.9-6.2
	C308.3,236.1,304.4,238.3,301.8,242.3z"/>
<path class="st0" d="M204,277.6c0.6,0.9,0.8,1.2,2.5,2.5c0,0,3.8,3,12.5,2.5c6.1-0.4,11.5-1.5,11.5-1.5v-19.3c0,0-5.4-0.9-11.5-1
	c-8.7-0.1-12.4,3.1-12.3,3.1c-2.6,1.8-3.8,4.5-3.8,8.2C202.7,274.5,203.2,276.3,204,277.6z"/>
<path class="st1" d="M422.5,34.4c-36.4,0-69.3,15.3-93,39.9c-26-34-67.1-56-113.2-56C137.6,18.4,73.8,82,73.8,160.6
	c0,20.1,4.2,39.2,11.7,56.6C49,238.5,24.3,278.5,24.3,324.3c0,68.3,54.8,123.7,122.4,123.7c8.6,0,17-0.9,25.2-2.6
	c18.6,50.4,67,86.3,123.7,86.3c54.5,0,101.3-33.1,121.4-80.3c15.3,7.4,32.4,11.6,50.6,11.6c43.3,0,81.1-23.9,100.9-59.2
	c10.3,2.1,20.7,3.1,31.1,3.1c87.3,0,158.1-71.4,158.1-159.5c0-88.1-70.8-159.5-158.1-159.5c-22.8,0-44.4,4.9-63.9,13.6
	C513.1,61.4,470.9,34.4,422.5,34.4z M457.2,198c1.6,0.3,2.8,0.6,4.2,1c0.3,0.1,1.1,0.5,0.8,1.5l-3.2,8.9c-0.3,0.7-0.5,1.1-1.9,0.7
	c-0.3-0.1-0.9-0.3-2.2-0.5c-0.9-0.2-2.2-0.3-3.5-0.3c-1.7,0-3.2,0.2-4.6,0.6c-1.3,0.4-2.5,1.2-3.6,2.2c-1.1,1.1-2.3,2.6-3,4.5
	c-1.3,3.8-2,7.9-2.2,9.2l-0.1,0.4h13.6c1.1,0,1.5,0.5,1.4,1.4l-1.6,8.8c-0.2,1.3-1.4,1.2-1.4,1.2h-14l-9.6,54.2
	c-1,5.6-2.3,10.4-3.7,14.3c-1.5,3.9-3,6.8-5.5,9.5c-2.3,2.5-4.9,4.4-7.9,5.5c-3,1.1-6.5,1.6-10.4,1.6c-1.9,0-3.9,0-6.2-0.6
	c-1.7-0.4-2.6-0.7-3.9-1.1c-0.5-0.2-1-0.9-0.7-1.7c0.3-0.8,2.8-7.7,3.2-8.6c0.4-1.1,1.5-0.7,1.5-0.7c0.8,0.3,1.3,0.5,2.3,0.7
	c1,0.2,2.4,0.4,3.4,0.4c1.8,0,3.5-0.2,5-0.7c1.8-0.6,2.8-1.6,3.9-3c1.1-1.4,2-3.4,3-6.1c1-2.7,1.8-6.2,2.6-10.5l9.5-53.2h-9.4
	c-1.1,0-1.5-0.5-1.4-1.4l1.6-8.8c0.3-1.3,1.4-1.2,1.4-1.2h9.6l0.5-2.9c1.4-8.5,4.3-15,8.5-19.3c4.2-4.3,10.3-6.5,18-6.5
	C453.6,197.6,455.6,197.7,457.2,198z M270.3,292.2c0.7,0,1.2-0.6,1.2-1.3v-90.7c0-0.7-0.5-1.3-1.2-1.3H259c-0.7,0-1.2,0.6-1.2,1.3
	v90.7c0,0.7,0.5,1.3,1.2,1.3H270.3z M130.8,286.1c-0.2-0.2-0.6-0.6-0.2-1.5l3-8.2c0.5-1.4,1.5-0.9,2-0.7c0.3,0.2,0.7,0.4,1,0.6
	c0.4,0.3,0.9,0.6,1.5,0.9c8.7,5.5,16.8,5.6,19.4,5.6c6.5,0,10.6-3.5,10.6-8.1v-0.3c0-5.1-6.2-7-13.5-9.2l-1.6-0.5
	c-9.9-2.8-20.5-6.9-20.5-19.5v-0.2c0-11.9,9.6-20.2,23.4-20.2l1.5,0c8.1,0,15.9,2.3,21.6,5.8c0.5,0.3,1,0.9,0.7,1.7
	c-0.3,0.7-2.8,7.5-3.1,8.2c-0.5,1.4-2,0.5-2,0.5c-5-2.7-12.6-4.9-19.1-4.9c-5.8,0-9.6,3.1-9.6,7.3v0.3c0,4.9,6.4,7,13.9,9.4l1.3,0.4
	c9.9,3.1,20.4,7.5,20.4,19.4v0.3c0,12.9-9.3,20.9-24.4,20.9c-7.4,0-14.4-1.2-21.9-5.1l-0.9-0.5c-1.1-0.6-2.2-1.2-3.3-2
	C130.8,286.2,130.8,286.1,130.8,286.1z M351,286.1c-0.2-0.2-0.6-0.6-0.2-1.5l3-8.2c0.4-1.3,1.7-0.9,2-0.7l0.5,0.3
	c0.6,0.4,1.1,0.8,2,1.2c8.7,5.5,16.8,5.6,19.4,5.6c6.5,0,10.6-3.5,10.6-8.1v-0.3c0-5.1-6.2-7-13.4-9.2l-1.6-0.5
	c-9.9-2.8-20.5-6.9-20.5-19.5v-0.2c0-11.9,9.6-20.2,23.4-20.2l1.5,0c8.1,0,15.9,2.3,21.6,5.8c0.5,0.3,1,0.9,0.7,1.7
	c-0.3,0.7-2.8,7.5-3.1,8.2c-0.5,1.4-2,0.5-2,0.5c-5-2.7-12.6-4.9-19.1-4.9c-5.8,0-9.6,3.1-9.6,7.3v0.3c0,4.9,6.4,7,13.9,9.4l1.3,0.4
	c9.9,3.1,20.4,7.5,20.4,19.4v0.3c0,12.9-9.3,20.9-24.4,20.9c-7.4,0-14.4-1.2-21.9-5.1l-0.9-0.5c-1.1-0.6-2.2-1.2-3.3-2
	C351.1,286.2,351,286.2,351,286.1C351,286.1,351,286.1,351,286.1z M508,234.9c2.6,3.1,4.5,6.7,5.7,10.9c1.2,4.1,1.8,8.7,1.8,13.5
	c0,4.8-0.6,9.4-1.8,13.5c-1.2,4.2-3.2,7.8-5.7,10.9c-2.6,3.1-5.8,5.5-9.6,7.3c-3.8,1.7-8.4,2.6-13.5,2.6c-5.1,0-9.6-0.9-13.5-2.6
	c-3.8-1.7-7.1-4.2-9.6-7.3c-2.6-3.1-4.5-6.8-5.7-10.9c-1.2-4.1-1.8-8.7-1.8-13.5c0-4.8,0.6-9.3,1.8-13.5c1.2-4.2,3.2-7.8,5.7-10.9
	c2.6-3.1,5.8-5.5,9.7-7.3c3.8-1.8,8.4-2.7,13.5-2.7c5.1,0,9.6,0.9,13.5,2.7C502.2,229.4,505.4,231.8,508,234.9z M615.2,279.6
	c0,0,1.2-0.5,1.6,0.8l3.1,8.5c0.4,1.1-0.5,1.5-0.5,1.5c-4.7,1.9-11.3,3.2-17.8,3.2c-10.9,0-19.2-3.1-24.8-9.3
	c-5.5-6.2-8.4-14.6-8.4-25c0-4.8,0.7-9.4,2-13.5c1.4-4.2,3.4-7.8,6.1-10.9c2.7-3.1,6.1-5.5,10.1-7.3c4-1.8,8.7-2.7,14-2.7
	c3.5,0,6.7,0.2,9.4,0.6c2.9,0.4,6.7,1.5,8.4,2.1c0.3,0.1,1.1,0.5,0.8,1.5c-0.8,2.2-1.4,4-2.1,5.8l-1,2.8c-0.5,1.3-1.5,0.9-1.5,0.9
	c-4.1-1.3-8.1-1.9-13.3-1.9c-6.2,0-10.9,2.1-13.9,6.1c-3.1,4.1-4.8,9.4-4.8,16.5c0,7.8,1.9,13.6,5.4,17.2c3.5,3.6,8.3,5.4,14.4,5.4
	c2.5,0,4.8-0.2,6.9-0.5C611.4,281,613.3,280.3,615.2,279.6z M675.6,233.5c1.7,1.9,4.4,5.9,5.4,9.9c2.5,9,1.5,16.8,1.3,18.1l0,0.2
	c-0.1,1.1-1.2,1.1-1.2,1.1l-42.5,0c0.3,6.5,1.8,11,5,14.1c3.1,3,7.9,5,14.5,5c9.2,0,13.6-1.7,16.6-2.8l0.8-0.3c0,0,1.2-0.4,1.6,0.7
	l2.8,7.8c0.6,1.3,0.1,1.8-0.4,2c-2.7,1.5-9.1,4.2-21.4,4.2c-6,0-11.2-0.8-15.4-2.5c-4.3-1.7-7.9-4-10.7-7.1c-2.8-3-4.9-6.7-6.2-10.8
	c-1.3-4.1-1.9-8.7-1.9-13.6c0-4.8,0.6-9.4,1.9-13.6c1.2-4.2,3.2-7.9,5.8-11c2.6-3.1,5.9-5.6,9.8-7.5c3.9-1.8,8.7-2.7,14-2.7
	c4.6,0,8.7,1,12.2,2.5C670.2,228.5,672.8,230.5,675.6,233.5z M335.2,233.5c1.7,1.9,4.4,5.9,5.4,9.9c2.6,8.9,1.5,16.7,1.3,18.1l0,0.2
	c-0.1,1.1-1.2,1.1-1.2,1.1l-42.5,0c0.3,6.5,1.8,11,5,14.1c3.1,3,7.9,5,14.5,5c9.2,0,13.6-1.7,16.6-2.8l0.8-0.3c0,0,1.2-0.4,1.6,0.7
	l2.8,7.8c0.6,1.3,0.1,1.8-0.4,2c-2.7,1.5-9.1,4.2-21.4,4.2c-6,0-11.2-0.8-15.4-2.5c-4.3-1.7-7.9-4-10.7-7.1c-2.8-3-4.9-6.7-6.2-10.8
	c-1.3-4.1-1.9-8.7-1.9-13.6c0-4.8,0.6-9.4,1.9-13.6c1.2-4.2,3.2-7.9,5.8-11c2.6-3.1,5.9-5.6,9.8-7.5c3.9-1.8,8.7-2.7,14-2.7
	c4.6,0,8.7,1,12.2,2.5C329.8,228.5,332.4,230.5,335.2,233.5z M216.7,250.1c2.7,0,4.9,0.1,6.6,0.2c0,0,3.4,0.3,7,0.8v-1.8
	c0-5.7-1.2-8.3-3.5-10.1c-2.4-1.8-5.9-2.7-10.5-2.7c0,0-10.3-0.1-18.5,4.3c-0.4,0.2-0.7,0.3-0.7,0.3s-1,0.4-1.4-0.7l-3-8.1
	c-0.5-1.2,0.4-1.7,0.4-1.7c3.8-3,13.1-4.8,13.1-4.8c3.1-0.6,8.2-1.1,11.4-1.1c8.5,0,15.1,2,19.5,5.9c4.5,3.9,6.8,10.2,6.8,18.8
	l0,38.9c0,0,0.1,1.1-1,1.4c-1,0.3-2,0.5-3,0.8c-1.4,0.3-6.5,1.4-10.7,2.1c-4.2,0.7-8.6,1.1-12.9,1.1c-4.1,0-7.9-0.4-11.3-1.1
	c-3.4-0.8-6.3-2-8.7-3.8c-2.4-1.7-4.3-4-5.5-6.6c-1.3-2.7-1.9-5.9-1.9-9.7c0-3.7,0.8-7,2.3-9.8c1.5-2.8,3.6-5.2,6.2-7
	c2.6-1.8,5.6-3.2,8.9-4.1C209.6,250.6,213.1,250.1,216.7,250.1z M565.6,226.9c0.3,0.1,1,0.6,0.6,1.5c-0.4,1.2-2.5,7-3.2,8.9
	c-0.3,0.7-0.7,1.2-1.5,1.1c0,0-2.4-0.6-4.7-0.6c-1.5,0-3.7,0.2-5.7,0.8c-1.9,0.6-3.7,1.6-5.3,3.2c-1.5,1.5-2.8,3.6-3.7,6.3
	c-0.9,2.7-1.4,6.9-1.4,11.2v31.7c0,0.3-0.1,0.7-0.4,0.9c-0.2,0.2-0.6,0.4-0.9,0.4h-11.2c-0.7,0-1.3-0.6-1.3-1.3v-63.4
	c0-0.7,0.5-1.3,1.2-1.3h10.9c0.7,0,1.2,0.6,1.2,1.3v5.2c1.6-2.2,4.6-4.1,7.2-5.3c2.7-1.2,5.6-2.1,11-1.8
	C561.2,225.8,564.8,226.6,565.6,226.9z"/>
</svg>
