<?xml version="1.0" encoding="utf-8"?>
<!-- Generator: Adobe Illustrator 27.5.0, SVG Export Plug-In . SVG Version: 6.00 Build 0)  -->
<svg version="1.1" id="Layer_1" xmlns="http://www.w3.org/2000/svg" xmlns:xlink="http://www.w3.org/1999/xlink" x="0px" y="0px"
	 viewBox="0 0 479 479" style="enable-background:new 0 0 479 479;" xml:space="preserve">
<style type="text/css">
	.st0{fill:none;stroke:#FFFFFF;stroke-width:20;}
	.st1{fill:#FFFFFF;}
</style>
<circle class="st0" cx="240" cy="240" r="190"/>
<path class="st1" d="M188,420l56-164l58,159l29-16l56-162c10-26,13-47,13-65c1-33-13-62-37-65c-22-2-34,19-33,32c2,30,32,47,32,88
	c0,30-19,77-32,122l-65-194c11-1,21-1,21-1c10-1,9-16-1-15c-33,3-63,2-96,0c-10-1-11,14-1,15c0,0,9,0,19,1l28,77l-40,119l-65-196
	c11-1,20-1,20-1c10-1,9-16-1-15c-30,2-59,4-66-1l-9,25l88,243L188,420z"/>
</svg>
