<?xml version="1.0" encoding="utf-8"?>
<!-- Generator: Adobe Illustrator 27.5.0, SVG Export Plug-In . SVG Version: 6.00 Build 0)  -->
<svg version="1.1" id="Layer_1" xmlns="http://www.w3.org/2000/svg" xmlns:xlink="http://www.w3.org/1999/xlink" x="0px" y="0px"
	 viewBox="0 0 365 173" style="enable-background:new 0 0 365 173;" xml:space="preserve">
<style type="text/css">
	.st0{fill:#FBBD71;}
</style>
<path class="st0" d="M208,30.3c-6,3-8.6,8.6-8.6,23.8c0,0,3-3,7.8-4.8c3.5-1.3,6-3,7.8-4.3c5.2-3.9,6-8.6,6-16.8
	C220.9,28.2,212.7,27.7,208,30.3z"/>
<path d="M171.3,33.8c-5.2,4.3-6.5,11.7-6.5,11.7L148,109.9l-13.8-52.7c-1.3-5.6-3.9-12.5-7.8-17.3c-4.8-6.1-14.8-6.5-16-6.5
	c-0.9,0-10.8,0.4-16,6.5c-3.9,4.8-6.5,11.7-7.8,17.3l-13,52.7L56.8,45.5c0,0-1.3-6.9-6.5-11.7C42.1,26.4,30,28.2,30,28.2l32,120.5
	c0,0,10.4,0.9,15.6-1.7c6.9-3.5,10.4-6,14.3-22.5C95.8,109.8,106.2,67,107,64c0.4-1.3,1.3-5.2,3.9-5.2s3.5,3.5,3.9,5.2
	c0.9,3,11.2,45.8,15.1,60.5c4.3,16.4,7.3,19,14.3,22.5c5.2,2.6,15.6,1.7,15.6,1.7l31.8-120.5C191.6,28.2,179.5,26.5,171.3,33.8z"/>
<path d="M220.9,47.6c0,0-2.2,3-6.5,5.6c-3,1.7-5.6,2.6-8.6,4.3c-5.2,2.6-6.5,5.2-6.5,9.1v1.3v6.5l0,0v1.3v72.6c0,0,8.2,0.9,13.4-1.7
	c6.9-3.5,8.2-6.9,8.2-21.6V52.4l0,0L220.9,47.6L220.9,47.6z"/>
<path d="M300.4,88.7L341,28.6c0,0-16.8-3-25.5,4.8c-5.6,4.8-11.2,13.8-11.2,13.8l-14.7,21.6c-0.9,1.3-1.7,2.2-3,2.2s-2.6-1.3-3-2.2
	l-14.7-21.6c0,0-6-8.6-11.2-13.8c-8.6-7.8-25.5-4.8-25.5-4.8l39.3,60l-40.2,60c0,0,17.7,2.2,26.4-5.6c5.6-4.8,10.8-13,10.8-13
	l14.7-21.6c0.9-1.3,1.7-2.2,3-2.2s2.6,1.3,3,2.2l14.7,21.6c0,0,5.6,8.2,10.8,13c8.6,7.8,25.9,5.6,25.9,5.6L300.4,88.7z"/>
</svg>
