<?xml version="1.0" encoding="utf-8"?>
<!-- Generator: Adobe Illustrator 27.5.0, SVG Export Plug-In . SVG Version: 6.00 Build 0)  -->
<svg version="1.1" id="Layer_1" xmlns="http://www.w3.org/2000/svg" xmlns:xlink="http://www.w3.org/1999/xlink" x="0px" y="0px"
	 viewBox="0 0 408.7 100" style="enable-background:new 0 0 408.7 100;" xml:space="preserve">
<style type="text/css">
	.st0{fill:#FFFFFF;}
</style>
<g>
	<g>
		<g>
			<path class="st0" d="M32.3,22.5h4.2c0.2,0,0.3,0,0.4,0.2S37,22.9,37,23v30.9c0,0.2,0,0.3-0.2,0.4s-0.2,0.2-0.4,0.2h-4.2
				c-0.2,0-0.3,0-0.4-0.2c-0.1-0.1-0.2-0.2-0.2-0.4V32.4c0-0.1,0-0.2-0.1-0.2s-0.1,0-0.2,0.1l-4,7.2c-0.1,0.2-0.3,0.4-0.4,0.4
				c-0.1,0-0.3-0.1-0.4-0.4l-4-7.2c-0.1-0.1-0.1-0.1-0.2-0.1s-0.1,0.1-0.1,0.2v21.6c0,0.2,0,0.3-0.2,0.4s-0.2,0.2-0.4,0.2h-4.2
				c-0.1,0-0.3,0-0.4-0.2c-0.1-0.1-0.2-0.2-0.2-0.4V23c0-0.1,0-0.3,0.2-0.4c0.1-0.1,0.2-0.2,0.4-0.2h4.2c0.3,0,0.5,0.1,0.7,0.4
				l4.4,7.8c0.1,0.1,0.2,0.1,0.3,0l4.3-7.8C31.7,22.6,32,22.5,32.3,22.5z"/>
			<path class="st0" d="M54.2,54l-0.9-4.8c0-0.2-0.1-0.2-0.3-0.2h-6.7c-0.2,0-0.3,0.1-0.3,0.2L45.3,54c0,0.3-0.2,0.5-0.6,0.5h-4.2
				c-0.4,0-0.6-0.2-0.5-0.6L46.8,23c0.1-0.3,0.3-0.5,0.6-0.5h4.8c0.3,0,0.5,0.2,0.6,0.5l6.8,30.9v0.2c0,0.3-0.2,0.4-0.5,0.4h-4.2
				C54.4,54.5,54.2,54.3,54.2,54z M47.2,44.8h5.1c0.2,0,0.3-0.1,0.2-0.2l-2.7-14.5c0-0.1-0.1-0.1-0.1-0.1c-0.1,0-0.1,0-0.1,0.1
				l-2.6,14.5C46.9,44.7,47,44.8,47.2,44.8z"/>
			<path class="st0" d="M74.7,54l-3.9-13.1c-0.1-0.1-0.1-0.2-0.2-0.2h-2.4C68,40.7,68,40.8,68,41v13c0,0.2-0.1,0.3-0.2,0.4
				s-0.2,0.2-0.4,0.2h-4.2c-0.2,0-0.3,0-0.4-0.2s-0.2-0.2-0.2-0.4V23c0-0.1,0-0.3,0.2-0.4c0.1-0.1,0.2-0.2,0.4-0.2h8.6
				c1.6,0,3,0.4,4.3,1.2s2.2,1.9,2.9,3.3c0.7,1.4,1,3,1,4.9c0,1.9-0.4,3.5-1.1,4.9c-0.7,1.4-1.8,2.4-3.1,3.1c-0.1,0-0.2,0.1-0.1,0.3
				l4.5,13.8c0,0.1,0.1,0.1,0.1,0.2c0,0.3-0.2,0.4-0.5,0.4h-4.4C75,54.5,74.8,54.3,74.7,54z M68,27.3v9.1c0,0.2,0.1,0.2,0.2,0.2H71
				c1.1,0,2-0.4,2.7-1.3c0.7-0.8,1-2,1-3.5s-0.3-2.6-1-3.5s-1.6-1.3-2.7-1.3h-2.8C68.1,27.1,68,27.1,68,27.3z"/>
			<path class="st0" d="M83.9,54.3c-0.1-0.1-0.2-0.2-0.2-0.4V23c0-0.1,0.1-0.3,0.2-0.4c0.1-0.1,0.2-0.2,0.4-0.2h4.2
				c0.2,0,0.3,0,0.4,0.2s0.2,0.2,0.2,0.4v30.9c0,0.2-0.1,0.3-0.2,0.4s-0.2,0.2-0.4,0.2h-4.2C84.1,54.5,84,54.4,83.9,54.3z"/>
			<path class="st0" d="M107.1,22.6c0.1-0.1,0.2-0.2,0.4-0.2h4.2c0.2,0,0.3,0,0.4,0.2s0.2,0.2,0.2,0.4v30.9c0,0.2-0.1,0.3-0.2,0.4
				s-0.2,0.2-0.4,0.2h-4.8c-0.3,0-0.5-0.2-0.6-0.5l-6.8-19.4c0-0.1-0.1-0.1-0.2-0.1s-0.1,0.1-0.1,0.2L99.3,54c0,0.2-0.1,0.3-0.2,0.4
				s-0.2,0.2-0.4,0.2h-4.2c-0.2,0-0.3,0-0.4-0.2S94,54.1,94,54V23.1c0-0.1,0.1-0.3,0.2-0.4c0.1-0.1,0.2-0.2,0.4-0.2h4.7
				c0.3,0,0.5,0.1,0.6,0.5l6.9,19.2c0,0.1,0.1,0.1,0.2,0.1s0.1-0.1,0.1-0.2V23C107,22.9,107,22.8,107.1,22.6z"/>
			<path class="st0" d="M129.6,54l-0.9-4.8c0-0.2-0.1-0.2-0.3-0.2h-6.7c-0.2,0-0.3,0.1-0.3,0.2l-0.9,4.8c0,0.3-0.2,0.5-0.6,0.5h-4.2
				c-0.4,0-0.6-0.2-0.5-0.6l6.8-30.9c0.1-0.3,0.3-0.5,0.6-0.5h4.8c0.3,0,0.5,0.2,0.6,0.5l6.8,30.9v0.2c0,0.3-0.2,0.4-0.5,0.4h-4.2
				C129.8,54.5,129.6,54.3,129.6,54z M122.5,44.8h5.1c0.2,0,0.3-0.1,0.2-0.2l-2.7-14.5c0-0.1-0.1-0.1-0.1-0.1s-0.1,0-0.1,0.1
				l-2.6,14.5C122.2,44.7,122.3,44.8,122.5,44.8z"/>
			<path class="st0" d="M159.2,54l-3.9-13.1c-0.1-0.1-0.1-0.2-0.2-0.2h-2.4c-0.1,0-0.2,0.1-0.2,0.2v13c0,0.2-0.1,0.3-0.2,0.4
				s-0.2,0.2-0.4,0.2h-4.2c-0.1,0-0.3,0-0.4-0.2s-0.2-0.2-0.2-0.4V23c0-0.1,0.1-0.3,0.2-0.4c0.1-0.1,0.2-0.2,0.4-0.2h8.6
				c1.6,0,3,0.4,4.3,1.2s2.2,1.9,2.9,3.3s1,3,1,4.9c0,1.9-0.4,3.5-1.1,4.9c-0.7,1.4-1.8,2.4-3.1,3.1c-0.1,0-0.2,0.1-0.1,0.3
				l4.5,13.8c0,0.1,0.1,0.1,0.1,0.2c0,0.3-0.2,0.4-0.5,0.4h-4.4C159.5,54.5,159.3,54.3,159.2,54z M152.5,27.3v9.1
				c0,0.2,0.1,0.2,0.2,0.2h2.8c1.1,0,2-0.4,2.7-1.3c0.7-0.8,1-2,1-3.5s-0.3-2.6-1-3.5s-1.6-1.3-2.7-1.3h-2.8
				C152.5,27.1,152.5,27.1,152.5,27.3z"/>
			<path class="st0" d="M184,26.9c-0.1,0.1-0.2,0.2-0.4,0.2h-9.9c-0.1,0-0.2,0.1-0.2,0.2v8.6c0,0.2,0.1,0.2,0.2,0.2h5.9
				c0.1,0,0.3,0,0.4,0.2s0.2,0.2,0.2,0.4v3.5c0,0.2-0.1,0.3-0.2,0.4s-0.2,0.2-0.4,0.2h-5.9c-0.1,0-0.2,0.1-0.2,0.2v8.7
				c0,0.2,0.1,0.2,0.2,0.2h9.9c0.1,0,0.3,0,0.4,0.2s0.2,0.2,0.2,0.4v3.5c0,0.2-0.1,0.3-0.2,0.4s-0.2,0.2-0.4,0.2h-14.9
				c-0.1,0-0.3,0-0.4-0.2s-0.2-0.2-0.2-0.4V23c0-0.1,0.1-0.3,0.2-0.4c0.1-0.1,0.2-0.2,0.4-0.2h14.9c0.1,0,0.3,0,0.4,0.2
				s0.2,0.2,0.2,0.4v3.5C184.2,26.7,184.1,26.8,184,26.9z"/>
			<path class="st0" d="M189.5,52.6c-1.6-1.5-2.3-3.5-2.3-6v-1.2c0-0.2,0.1-0.3,0.2-0.4s0.2-0.2,0.4-0.2h4.2c0.1,0,0.3,0,0.4,0.2
				s0.2,0.2,0.2,0.4v0.9c0,1.2,0.3,2.2,0.9,2.9s1.4,1.1,2.3,1.1c0.9,0,1.7-0.3,2.3-1s0.9-1.6,0.9-2.7c0-0.8-0.2-1.5-0.5-2.1
				c-0.3-0.6-0.8-1.1-1.4-1.7s-1.6-1.3-2.9-2.2c-1.5-1.1-2.8-2.1-3.7-2.9c-0.9-0.8-1.7-1.9-2.3-3.1c-0.6-1.2-0.9-2.6-0.9-4.2
				c0-2.5,0.8-4.5,2.3-6c1.5-1.5,3.5-2.2,6-2.2c2.5,0,4.6,0.8,6.1,2.4c1.6,1.6,2.3,3.6,2.3,6.2v1.1c0,0.1-0.1,0.3-0.2,0.4
				s-0.2,0.2-0.4,0.2h-4.1c-0.1,0-0.3,0-0.4-0.2s-0.2-0.2-0.2-0.4v-1.2c0-1.2-0.3-2.1-0.9-2.9c-0.6-0.7-1.4-1.1-2.4-1.1
				c-0.9,0-1.7,0.3-2.2,1c-0.6,0.7-0.9,1.6-0.9,2.7c0,1.1,0.3,2,0.9,2.8c0.6,0.8,1.9,1.8,3.7,3.2c1.9,1.4,3.3,2.5,4.2,3.4
				c0.9,0.9,1.7,1.8,2.2,2.9c0.5,1,0.8,2.3,0.8,3.7c0,2.6-0.8,4.7-2.3,6.2s-3.6,2.3-6.1,2.3C193.1,54.8,191.1,54.1,189.5,52.6z"/>
			<path class="st0" d="M209.8,52.5c-1.6-1.6-2.4-3.7-2.4-6.3V30.8c0-2.6,0.8-4.7,2.4-6.3c1.6-1.6,3.7-2.4,6.3-2.4s4.7,0.8,6.4,2.4
				c1.6,1.6,2.4,3.7,2.4,6.3v15.4c0,2.6-0.8,4.7-2.4,6.3c-1.6,1.6-3.7,2.4-6.4,2.4C213.5,54.8,211.4,54.1,209.8,52.5z M218.7,49.2
				c0.6-0.7,1-1.7,1-2.8V30.6c0-1.2-0.3-2.1-1-2.8c-0.6-0.7-1.5-1.1-2.5-1.1c-1,0-1.9,0.4-2.5,1.1c-0.6,0.7-0.9,1.6-0.9,2.8v15.8
				c0,1.2,0.3,2.1,0.9,2.8c0.6,0.7,1.4,1.1,2.5,1.1C217.2,50.3,218,49.9,218.7,49.2z"/>
			<path class="st0" d="M241.4,54l-3.9-13.1c-0.1-0.1-0.1-0.2-0.2-0.2h-2.4c-0.1,0-0.2,0.1-0.2,0.2v13c0,0.2-0.1,0.3-0.2,0.4
				s-0.2,0.2-0.4,0.2h-4.2c-0.1,0-0.3,0-0.4-0.2s-0.2-0.2-0.2-0.4V23c0-0.1,0.1-0.3,0.2-0.4c0.1-0.1,0.2-0.2,0.4-0.2h8.6
				c1.6,0,3,0.4,4.3,1.2s2.2,1.9,2.9,3.3s1,3,1,4.9c0,1.9-0.4,3.5-1.1,4.9c-0.7,1.4-1.8,2.4-3.1,3.1c-0.1,0-0.2,0.1-0.1,0.3
				l4.5,13.8c0,0.1,0.1,0.1,0.1,0.2c0,0.3-0.2,0.4-0.5,0.4H242C241.7,54.5,241.5,54.3,241.4,54z M234.6,27.3v9.1
				c0,0.2,0.1,0.2,0.2,0.2h2.8c1.1,0,2-0.4,2.7-1.3c0.7-0.8,1-2,1-3.5s-0.3-2.6-1-3.5s-1.6-1.3-2.7-1.3h-2.8
				C234.7,27.1,234.6,27.1,234.6,27.3z"/>
			<path class="st0" d="M267.2,22.6c0.1,0.1,0.2,0.2,0.2,0.4v3.5c0,0.1,0,0.3-0.2,0.4c-0.1,0.1-0.2,0.2-0.4,0.2H261
				c-0.1,0-0.2,0.1-0.2,0.2v26.6c0,0.2,0,0.3-0.2,0.4c-0.1,0.1-0.2,0.2-0.4,0.2H256c-0.1,0-0.3,0-0.4-0.2s-0.2-0.2-0.2-0.4V27.3
				c0-0.1-0.1-0.2-0.2-0.2h-5.5c-0.1,0-0.3,0-0.4-0.2s-0.2-0.2-0.2-0.4V23c0-0.1,0.1-0.3,0.2-0.4c0.1-0.1,0.2-0.2,0.4-0.2h17.1
				C267,22.5,267.1,22.5,267.2,22.6z"/>
			<path class="st0" d="M282,52.5c-1.6-1.6-2.4-3.7-2.4-6.2V30.7c0-2.6,0.8-4.7,2.4-6.2s3.6-2.3,6.2-2.3c2.6,0,4.7,0.8,6.3,2.3
				c1.6,1.5,2.4,3.6,2.4,6.2v0.5c0,0.1,0,0.3-0.2,0.4c-0.1,0.1-0.2,0.2-0.4,0.2l-4.2,0.2c-0.4,0-0.5-0.2-0.5-0.5v-1.1
				c0-1.1-0.3-1.9-0.9-2.6c-0.6-0.7-1.4-1-2.4-1c-1,0-1.8,0.3-2.4,1c-0.6,0.7-0.9,1.5-0.9,2.6v16.4c0,1.1,0.3,1.9,0.9,2.6
				c0.6,0.7,1.4,1,2.4,1c1,0,1.8-0.3,2.4-1c0.6-0.7,0.9-1.5,0.9-2.6v-1.1c0-0.2,0-0.3,0.2-0.4c0.1-0.1,0.2-0.2,0.4-0.2l4.2,0.2
				c0.1,0,0.3,0,0.4,0.2c0.1,0.1,0.2,0.2,0.2,0.4v0.5c0,2.6-0.8,4.7-2.4,6.2c-1.6,1.6-3.7,2.3-6.3,2.3
				C285.6,54.8,283.6,54.1,282,52.5z"/>
			<path class="st0" d="M313.1,54l-0.9-4.8c0-0.2-0.1-0.2-0.3-0.2h-6.7c-0.2,0-0.3,0.1-0.3,0.2l-0.9,4.8c0,0.3-0.2,0.5-0.6,0.5h-4.2
				c-0.4,0-0.6-0.2-0.5-0.6l6.8-30.9c0.1-0.3,0.3-0.5,0.6-0.5h4.9c0.3,0,0.5,0.2,0.6,0.5l6.8,30.9v0.2c0,0.3-0.2,0.4-0.5,0.4h-4.2
				C313.3,54.5,313.1,54.3,313.1,54z M306.1,44.8h5.1c0.2,0,0.3-0.1,0.2-0.2l-2.6-14.5c0-0.1-0.1-0.1-0.1-0.1s-0.1,0-0.1,0.1
				l-2.6,14.5C305.8,44.7,305.9,44.8,306.1,44.8z"/>
			<path class="st0" d="M323.8,54l-6.5-30.9l0-0.2c0-0.3,0.2-0.4,0.5-0.4h4.6c0.4,0,0.6,0.2,0.6,0.5l3.8,22c0,0.1,0.1,0.1,0.1,0.1
				c0.1,0,0.1,0,0.1-0.1l3.7-22c0-0.3,0.2-0.5,0.6-0.5h4.5c0.4,0,0.5,0.2,0.5,0.6L329.6,54c-0.1,0.3-0.3,0.5-0.6,0.5h-4.7
				C324,54.5,323.8,54.3,323.8,54z"/>
			<path class="st0" d="M356.7,22.6c0.1,0.1,0.2,0.2,0.2,0.4v3.5c0,0.1,0,0.3-0.2,0.4c-0.1,0.1-0.2,0.2-0.4,0.2h-5.8
				c-0.1,0-0.2,0.1-0.2,0.2v26.6c0,0.2,0,0.3-0.2,0.4c-0.1,0.1-0.2,0.2-0.4,0.2h-4.2c-0.1,0-0.3,0-0.4-0.2c-0.1-0.1-0.2-0.2-0.2-0.4
				V27.3c0-0.1-0.1-0.2-0.2-0.2h-5.5c-0.1,0-0.3,0-0.4-0.2c-0.1-0.1-0.2-0.2-0.2-0.4V23c0-0.1,0-0.3,0.2-0.4
				c0.1-0.1,0.2-0.2,0.4-0.2h17C356.5,22.5,356.6,22.5,356.7,22.6z"/>
			<path class="st0" d="M370.8,54l-0.9-4.8c0-0.2-0.1-0.2-0.3-0.2H363c-0.2,0-0.3,0.1-0.3,0.2l-0.9,4.8c0,0.3-0.2,0.5-0.6,0.5h-4.2
				c-0.4,0-0.6-0.2-0.5-0.6l6.8-30.9c0.1-0.3,0.3-0.5,0.6-0.5h4.9c0.3,0,0.5,0.2,0.6,0.5l6.8,30.9v0.2c0,0.3-0.2,0.4-0.5,0.4h-4.2
				C371,54.5,370.8,54.3,370.8,54z M363.8,44.8h5.1c0.2,0,0.3-0.1,0.2-0.2l-2.6-14.5c0-0.1-0.1-0.1-0.1-0.1c-0.1,0-0.1,0-0.1,0.1
				l-2.6,14.5C363.5,44.7,363.6,44.8,363.8,44.8z"/>
			<path class="st0" d="M393.4,22.6c0.1,0.1,0.2,0.2,0.2,0.4v3.5c0,0.1,0,0.3-0.2,0.4c-0.1,0.1-0.2,0.2-0.4,0.2h-5.8
				c-0.1,0-0.2,0.1-0.2,0.2v26.6c0,0.2,0,0.3-0.2,0.4c-0.1,0.1-0.2,0.2-0.4,0.2h-4.2c-0.1,0-0.3,0-0.4-0.2c-0.1-0.1-0.2-0.2-0.2-0.4
				V27.3c0-0.1-0.1-0.2-0.2-0.2h-5.5c-0.1,0-0.3,0-0.4-0.2c-0.1-0.1-0.2-0.2-0.2-0.4V23c0-0.1,0-0.3,0.2-0.4
				c0.1-0.1,0.2-0.2,0.4-0.2h17C393.1,22.5,393.2,22.5,393.4,22.6z"/>
		</g>
	</g>
	<g>
		<g>
			<path class="st0" d="M161.1,83.2c-0.6-0.7-1-1.5-1-2.6v-6.5c0-1.1,0.3-1.9,1-2.6s1.5-1,2.6-1c1.1,0,2,0.3,2.6,1
				c0.7,0.6,1,1.5,1,2.6v0.2c0,0.1,0,0.1-0.1,0.2c0,0.1-0.1,0.1-0.2,0.1l-1.8,0.1c-0.1,0-0.2-0.1-0.2-0.2V74c0-0.4-0.1-0.8-0.4-1.1
				s-0.6-0.4-1-0.4c-0.4,0-0.7,0.1-1,0.4c-0.2,0.3-0.4,0.6-0.4,1.1v6.8c0,0.4,0.1,0.8,0.4,1.1s0.6,0.4,1,0.4c0.4,0,0.8-0.1,1-0.4
				s0.4-0.6,0.4-1.1v-0.5c0-0.1,0-0.1,0.1-0.2c0,0,0.1-0.1,0.2-0.1l1.8,0.1c0.1,0,0.1,0,0.2,0.1c0,0,0.1,0.1,0.1,0.2v0.2
				c0,1.1-0.3,1.9-1,2.6c-0.7,0.7-1.5,1-2.6,1C162.6,84.2,161.7,83.9,161.1,83.2z"/>
			<path class="st0" d="M180.1,83.8l-1.6-5.4c0-0.1-0.1-0.1-0.1-0.1h-1c-0.1,0-0.1,0-0.1,0.1v5.4c0,0.1,0,0.1-0.1,0.2
				c0,0-0.1,0.1-0.2,0.1h-1.7c-0.1,0-0.1,0-0.2-0.1c0,0-0.1-0.1-0.1-0.2V71c0-0.1,0-0.1,0.1-0.2c0,0,0.1-0.1,0.2-0.1h3.6
				c0.7,0,1.3,0.2,1.8,0.5c0.5,0.3,0.9,0.8,1.2,1.4c0.3,0.6,0.4,1.3,0.4,2c0,0.8-0.1,1.5-0.5,2c-0.3,0.6-0.7,1-1.3,1.3
				c-0.1,0-0.1,0.1-0.1,0.1l1.9,5.7c0,0,0,0.1,0,0.1c0,0.1-0.1,0.2-0.2,0.2h-1.8C180.2,84,180.1,84,180.1,83.8z M177.3,72.8v3.8
				c0,0.1,0,0.1,0.1,0.1h1.2c0.5,0,0.8-0.2,1.1-0.5s0.4-0.8,0.4-1.4s-0.1-1.1-0.4-1.4c-0.3-0.4-0.6-0.5-1.1-0.5h-1.2
				C177.3,72.7,177.3,72.7,177.3,72.8z"/>
			<path class="st0" d="M190.6,83.2c-0.7-0.7-1-1.5-1-2.6v-6.4c0-1.1,0.3-2,1-2.6s1.5-1,2.6-1c1.1,0,2,0.3,2.6,1
				c0.7,0.7,1,1.5,1,2.6v6.4c0,1.1-0.3,2-1,2.6s-1.6,1-2.6,1C192.2,84.2,191.3,83.8,190.6,83.2z M194.3,81.8
				c0.3-0.3,0.4-0.7,0.4-1.2v-6.6c0-0.5-0.1-0.9-0.4-1.2c-0.3-0.3-0.6-0.4-1-0.4s-0.8,0.2-1,0.4c-0.3,0.3-0.4,0.7-0.4,1.2v6.6
				c0,0.5,0.1,0.9,0.4,1.2c0.3,0.3,0.6,0.4,1,0.4C193.7,82.3,194,82.1,194.3,81.8z"/>
			<path class="st0" d="M209.8,83.8l-0.4-2c0-0.1,0-0.1-0.1-0.1h-2.8c-0.1,0-0.1,0-0.1,0.1l-0.4,2c0,0.1-0.1,0.2-0.2,0.2h-1.7
				c-0.2,0-0.2-0.1-0.2-0.2l2.8-12.8c0-0.1,0.1-0.2,0.2-0.2h2c0.1,0,0.2,0.1,0.2,0.2l2.8,12.8v0.1c0,0.1-0.1,0.2-0.2,0.2H210
				C209.9,84,209.8,84,209.8,83.8z M206.9,80h2.1c0.1,0,0.1,0,0.1-0.1l-1.1-6c0,0,0-0.1-0.1-0.1s0,0-0.1,0.1l-1.1,6
				C206.8,80,206.8,80,206.9,80z"/>
			<path class="st0" d="M225.2,70.8c0,0,0.1,0.1,0.1,0.2v1.4c0,0.1,0,0.1-0.1,0.2c0,0-0.1,0.1-0.2,0.1h-2.4c-0.1,0-0.1,0-0.1,0.1v11
				c0,0.1,0,0.1-0.1,0.2c0,0-0.1,0.1-0.2,0.1h-1.7c-0.1,0-0.1,0-0.2-0.1s-0.1-0.1-0.1-0.2V72.8c0-0.1,0-0.1-0.1-0.1H218
				c-0.1,0-0.1,0-0.2-0.1c0,0-0.1-0.1-0.1-0.2V71c0-0.1,0-0.1,0.1-0.2c0,0,0.1-0.1,0.2-0.1h7.1C225.1,70.8,225.1,70.8,225.2,70.8z"
				/>
			<path class="st0" d="M232.9,84c0,0-0.1-0.1-0.1-0.2V71c0-0.1,0-0.1,0.1-0.2c0,0,0.1-0.1,0.2-0.1h1.7c0.1,0,0.1,0,0.2,0.1
				c0,0,0.1,0.1,0.1,0.2v12.8c0,0.1,0,0.1-0.1,0.2s-0.1,0.1-0.2,0.1h-1.7C233,84,233,84,232.9,84z"/>
			<path class="st0" d="M248.3,83.8l-0.4-2c0-0.1,0-0.1-0.1-0.1h-2.8c-0.1,0-0.1,0-0.1,0.1l-0.4,2c0,0.1-0.1,0.2-0.2,0.2h-1.7
				c-0.2,0-0.2-0.1-0.2-0.2l2.8-12.8c0-0.1,0.1-0.2,0.2-0.2h2c0.1,0,0.2,0.1,0.2,0.2l2.8,12.8v0.1c0,0.1-0.1,0.2-0.2,0.2h-1.8
				C248.4,84,248.3,84,248.3,83.8z M245.4,80h2.1c0.1,0,0.1,0,0.1-0.1l-1.1-6c0,0,0-0.1-0.1-0.1s0,0-0.1,0.1l-1.1,6
				C245.3,80,245.3,80,245.4,80z"/>
		</g>
	</g>
	<g>
		<g>
			<rect x="266.7" y="76.9" class="st0" width="54.3" height="0.8"/>
		</g>
	</g>
	<g>
		<g>
			<rect x="89.6" y="76.9" class="st0" width="54.3" height="0.8"/>
		</g>
	</g>
</g>
</svg>
